<svg version="1.1" viewBox="0.0 0.0 596.1994750656168 240.4724409448819" fill="none" stroke="none" stroke-linecap="square" stroke-miterlimit="10" xmlns:xlink="http://www.w3.org/1999/xlink" xmlns="http://www.w3.org/2000/svg"><clipPath id="p.0"><path d="m0 0l596.19946 0l0 240.47244l-596.19946 0l0 -240.47244z" clip-rule="nonzero"/></clipPath><g clip-path="url(#p.0)"><path fill="#000000" fill-opacity="0.0" d="m0 0l596.19946 0l0 240.47244l-596.19946 0z" fill-rule="evenodd"/><path fill="#d9ead3" d="m358.22287 1.9052937l115.90552 0l0 115.90551l-115.90552 0z" fill-rule="evenodd"/><path stroke="#000000" stroke-width="1.0" stroke-linejoin="round" stroke-linecap="butt" d="m358.22287 1.9052937l115.90552 0l0 115.90551l-115.90552 0z" fill-rule="evenodd"/><path fill="#d9ead3" d="m478.97922 1.9052937l115.90549 0l0 115.90551l-115.90549 0z" fill-rule="evenodd"/><path stroke="#000000" stroke-width="1.0" stroke-linejoin="round" stroke-linecap="butt" d="m478.97922 1.9052937l115.90549 0l0 115.90551l-115.90549 0z" fill-rule="evenodd"/><path fill="#d9ead3" d="m358.22287 122.66164l115.90552 0l0 115.90552l-115.90552 0z" fill-rule="evenodd"/><path stroke="#000000" stroke-width="1.0" stroke-linejoin="round" stroke-linecap="butt" d="m358.22287 122.66164l115.90552 0l0 115.90552l-115.90552 0z" fill-rule="evenodd"/><path fill="#d9ead3" d="m478.97922 122.66164l115.90549 0l0 115.90552l-115.90549 0z" fill-rule="evenodd"/><path stroke="#000000" stroke-width="1.0" stroke-linejoin="round" stroke-linecap="butt" d="m478.97922 122.66164l115.90549 0l0 115.90552l-115.90549 0z" fill-rule="evenodd"/><path fill="#f4cccc" d="m1.3147426 1.9052937l55.05512 0l0 55.05512l-55.05512 0z" fill-rule="evenodd"/><path stroke="#000000" stroke-width="1.0" stroke-linejoin="round" stroke-linecap="butt" d="m1.3147426 1.9052937l55.05512 0l0 55.05512l-55.05512 0z" fill-rule="evenodd"/><path fill="#f4cccc" d="m61.230755 1.9052937l55.05512 0l0 55.05512l-55.05512 0z" fill-rule="evenodd"/><path stroke="#000000" stroke-width="1.0" stroke-linejoin="round" stroke-linecap="butt" d="m61.230755 1.9052937l55.05512 0l0 55.05512l-55.05512 0z" fill-rule="evenodd"/><path fill="#f4cccc" d="m121.14677 1.9052937l55.055122 0l0 55.05512l-55.055122 0z" fill-rule="evenodd"/><path stroke="#000000" stroke-width="1.0" stroke-linejoin="round" stroke-linecap="butt" d="m121.14677 1.9052937l55.055122 0l0 55.05512l-55.055122 0z" fill-rule="evenodd"/><path fill="#f4cccc" d="m181.06277 1.9052937l55.055115 0l0 55.05512l-55.055115 0z" fill-rule="evenodd"/><path stroke="#000000" stroke-width="1.0" stroke-linejoin="round" stroke-linecap="butt" d="m181.06277 1.9052937l55.055115 0l0 55.05512l-55.055115 0z" fill-rule="evenodd"/><path fill="#f4cccc" d="m1.3147426 62.440727l55.05512 0l0 55.055115l-55.05512 0z" fill-rule="evenodd"/><path stroke="#000000" stroke-width="1.0" stroke-linejoin="round" stroke-linecap="butt" d="m1.3147426 62.440727l55.05512 0l0 55.055115l-55.05512 0z" fill-rule="evenodd"/><path fill="#f4cccc" d="m61.230755 62.440727l55.05512 0l0 55.055115l-55.05512 0z" fill-rule="evenodd"/><path stroke="#000000" stroke-width="1.0" stroke-linejoin="round" stroke-linecap="butt" d="m61.230755 62.440727l55.05512 0l0 55.055115l-55.05512 0z" fill-rule="evenodd"/><path fill="#f4cccc" d="m121.14677 62.440727l55.055122 0l0 55.055115l-55.055122 0z" fill-rule="evenodd"/><path stroke="#000000" stroke-width="1.0" stroke-linejoin="round" stroke-linecap="butt" d="m121.14677 62.440727l55.055122 0l0 55.055115l-55.055122 0z" fill-rule="evenodd"/><path fill="#f4cccc" d="m181.06277 62.440727l55.055115 0l0 55.055115l-55.055115 0z" fill-rule="evenodd"/><path stroke="#000000" stroke-width="1.0" stroke-linejoin="round" stroke-linecap="butt" d="m181.06277 62.440727l55.055115 0l0 55.055115l-55.055115 0z" fill-rule="evenodd"/><path fill="#f4cccc" d="m1.3147426 122.97616l55.05512 0l0 55.055122l-55.05512 0z" fill-rule="evenodd"/><path stroke="#000000" stroke-width="1.0" stroke-linejoin="round" stroke-linecap="butt" d="m1.3147426 122.97616l55.05512 0l0 55.055122l-55.05512 0z" fill-rule="evenodd"/><path fill="#f4cccc" d="m61.230755 122.97616l55.05512 0l0 55.055122l-55.05512 0z" fill-rule="evenodd"/><path stroke="#000000" stroke-width="1.0" stroke-linejoin="round" stroke-linecap="butt" d="m61.230755 122.97616l55.05512 0l0 55.055122l-55.05512 0z" fill-rule="evenodd"/><path fill="#f4cccc" d="m121.14677 122.97616l55.055122 0l0 55.055122l-55.055122 0z" fill-rule="evenodd"/><path stroke="#000000" stroke-width="1.0" stroke-linejoin="round" stroke-linecap="butt" d="m121.14677 122.97616l55.055122 0l0 55.055122l-55.055122 0z" fill-rule="evenodd"/><path fill="#f4cccc" d="m181.06277 122.97616l55.055115 0l0 55.055122l-55.055115 0z" fill-rule="evenodd"/><path stroke="#000000" stroke-width="1.0" stroke-linejoin="round" stroke-linecap="butt" d="m181.06277 122.97616l55.055115 0l0 55.055122l-55.055115 0z" fill-rule="evenodd"/><path fill="#f4cccc" d="m1.3147426 183.5116l55.05512 0l0 55.055115l-55.05512 0z" fill-rule="evenodd"/><path stroke="#000000" stroke-width="1.0" stroke-linejoin="round" stroke-linecap="butt" d="m1.3147426 183.5116l55.05512 0l0 55.055115l-55.05512 0z" fill-rule="evenodd"/><path fill="#f4cccc" d="m61.230755 183.5116l55.05512 0l0 55.055115l-55.05512 0z" fill-rule="evenodd"/><path stroke="#000000" stroke-width="1.0" stroke-linejoin="round" stroke-linecap="butt" d="m61.230755 183.5116l55.05512 0l0 55.055115l-55.05512 0z" fill-rule="evenodd"/><path fill="#f4cccc" d="m121.14677 183.5116l55.055122 0l0 55.055115l-55.055122 0z" fill-rule="evenodd"/><path stroke="#000000" stroke-width="1.0" stroke-linejoin="round" stroke-linecap="butt" d="m121.14677 183.5116l55.055122 0l0 55.055115l-55.055122 0z" fill-rule="evenodd"/><path fill="#f4cccc" d="m181.06277 183.5116l55.055115 0l0 55.055115l-55.055115 0z" fill-rule="evenodd"/><path stroke="#000000" stroke-width="1.0" stroke-linejoin="round" stroke-linecap="butt" d="m181.06277 183.5116l55.055115 0l0 55.055115l-55.055115 0z" fill-rule="evenodd"/><path fill="#cfe2f3" d="m265.06015 113.403984l50.299225 0l0 -6.9606323l13.921234 13.921257l-13.921234 13.921265l0 -6.9606323l-50.299225 0z" fill-rule="evenodd"/><path stroke="#000000" stroke-width="1.0" stroke-linejoin="round" stroke-linecap="butt" d="m265.06015 113.403984l50.299225 0l0 -6.9606323l13.921234 13.921257l-13.921234 13.921265l0 -6.9606323l-50.299225 0z" fill-rule="evenodd"/></g></svg>