<svg version="1.1" viewBox="0.0 0.0 568.0498687664042 258.246719160105" fill="none" stroke="none" stroke-linecap="square" stroke-miterlimit="10" xmlns:xlink="http://www.w3.org/1999/xlink" xmlns="http://www.w3.org/2000/svg"><clipPath id="p.0"><path d="m0 0l568.04987 0l0 258.2467l-568.04987 0l0 -258.2467z" clip-rule="nonzero"/></clipPath><g clip-path="url(#p.0)"><path fill="#000000" fill-opacity="0.0" d="m0 0l568.04987 0l0 258.2467l-568.04987 0z" fill-rule="evenodd"/><path fill="#cfe2f3" d="m2.5367453 126.06036l9.155424 -10.768326l-2.7589464 -12.481743l14.158425 -7.4155807l4.057083 -12.295456l17.005844 -2.9333267l10.256493 -10.2367325l17.263493 1.9947586l14.893684 -6.619499l14.893677 6.619499l17.263496 -1.9947586l10.256485 10.2367325l17.005844 2.9333267l4.057083 12.295456l14.158432 7.4155807l-2.7589417 12.481743l9.155411 10.768326l-9.155411 10.768341l2.7589417 12.481735l-14.158432 7.415573l-4.057083 12.295456l-17.005844 2.9333344l-10.256485 10.236725l-17.263496 -1.994751l-14.893677 6.6194916l-14.893684 -6.6194916l-17.263493 1.994751l-10.256493 -10.236725l-17.005844 -2.9333344l-4.057083 -12.295456l-14.158425 -7.415573l2.7589464 -12.481735z" fill-rule="evenodd"/><path stroke="#000000" stroke-width="1.0" stroke-linejoin="round" stroke-linecap="butt" d="m2.5367453 126.06036l9.155424 -10.768326l-2.7589464 -12.481743l14.158425 -7.4155807l4.057083 -12.295456l17.005844 -2.9333267l10.256493 -10.2367325l17.263493 1.9947586l14.893684 -6.619499l14.893677 6.619499l17.263496 -1.9947586l10.256485 10.2367325l17.005844 2.9333267l4.057083 12.295456l14.158432 7.4155807l-2.7589417 12.481743l9.155411 10.768326l-9.155411 10.768341l2.7589417 12.481735l-14.158432 7.415573l-4.057083 12.295456l-17.005844 2.9333344l-10.256485 10.236725l-17.263496 -1.994751l-14.893677 6.6194916l-14.893684 -6.6194916l-17.263493 1.994751l-10.256493 -10.236725l-17.005844 -2.9333344l-4.057083 -12.295456l-14.158425 -7.415573l2.7589464 -12.481735z" fill-rule="evenodd"/><path fill="#000000" d="m45.180157 117.29287l1.765625 0.453125q-0.5625 2.171875 -2.0 3.328125q-1.4375 1.140625 -3.53125 1.140625q-2.15625 0 -3.515625 -0.875q-1.34375 -0.890625 -2.0625 -2.546875q-0.703125 -1.671875 -0.703125 -3.59375q0 -2.078125 0.796875 -3.625q0.796875 -1.5625 2.265625 -2.359375q1.484375 -0.8125 3.25 -0.8125q2.0 0 3.359375 1.015625q1.375 1.015625 1.90625 2.875l-1.734375 0.40625q-0.46875 -1.453125 -1.359375 -2.109375q-0.875 -0.671875 -2.203125 -0.671875q-1.546875 0 -2.578125 0.734375q-1.03125 0.734375 -1.453125 1.984375q-0.421875 1.234375 -0.421875 2.5625q0 1.703125 0.5 2.96875q0.5 1.265625 1.546875 1.90625q1.046875 0.625 2.265625 0.625q1.484375 0 2.515625 -0.859375q1.03125 -0.859375 1.390625 -2.546875zm3.1291962 -0.15625q0 -2.6875 1.484375 -3.96875q1.25 -1.078125 3.046875 -1.078125q2.0 0 3.265625 1.3125q1.265625 1.296875 1.265625 3.609375q0 1.859375 -0.5625 2.9375q-0.5625 1.0625 -1.640625 1.65625q-1.0625 0.59375 -2.328125 0.59375q-2.03125 0 -3.28125 -1.296875q-1.25 -1.3125 -1.25 -3.765625zm1.6875 0q0 1.859375 0.796875 2.796875q0.8125 0.921875 2.046875 0.921875q1.21875 0 2.03125 -0.921875q0.8125 -0.9375 0.8125 -2.84375q0 -1.796875 -0.8125 -2.71875q-0.8125 -0.921875 -2.03125 -0.921875q-1.234375 0 -2.046875 0.921875q-0.796875 0.90625 -0.796875 2.765625zm9.297592 4.84375l0 -9.671875l1.46875 0l0 1.359375q0.453125 -0.71875 1.203125 -1.140625q0.765625 -0.4375 1.71875 -0.4375q1.0781288 0 1.7656288 0.453125q0.6875 0.4375 0.96875 1.234375q1.15625 -1.6875 2.984375 -1.6875q1.453125 0 2.21875 0.796875q0.78125 0.796875 0.78125 2.453125l0 6.640625l-1.640625 0l0 -6.09375q0 -0.984375 -0.15625 -1.40625q-0.15625 -0.4375 -0.578125 -0.703125q-0.421875 -0.265625 -0.984375 -0.265625q-1.015625 0 -1.6875 0.6875q-0.671875 0.671875 -0.671875 2.15625l0 5.625l-1.640625 0l0 -6.28125q0 -1.09375 -0.40625 -1.640625q-0.40625 -0.546875 -1.3125038 -0.546875q-0.6875 0 -1.28125 0.359375q-0.59375 0.359375 -0.859375 1.0625q-0.25 0.703125 -0.25 2.03125l0 5.015625l-1.640625 0zm15.540806 3.703125l0 -13.375l1.484375 0l0 1.25q0.53125 -0.734375 1.1875 -1.09375q0.671875 -0.375 1.625 -0.375q1.234375 0 2.171875 0.640625q0.953125 0.625 1.4375 1.796875q0.484375 1.15625 0.484375 2.546875q0 1.484375 -0.53125 2.671875q-0.53125 1.1875 -1.546875 1.828125q-1.015625 0.625 -2.140625 0.625q-0.8125 0 -1.46875 -0.34375q-0.65625 -0.34375 -1.0625 -0.875l0 4.703125l-1.640625 0zm1.484375 -8.484375q0 1.859375 0.75 2.765625q0.765625 0.890625 1.828125 0.890625q1.09375 0 1.875 -0.921875q0.78125 -0.9375 0.78125 -2.875q0 -1.84375 -0.765625 -2.765625q-0.75 -0.921875 -1.8125 -0.921875q-1.046875 0 -1.859375 0.984375q-0.796875 0.96875 -0.796875 2.84375zm8.844467 4.78125l0 -13.359375l1.640625 0l0 13.359375l-1.640625 0zm10.816696 -3.109375l1.6875 0.203125q-0.40625 1.484375 -1.484375 2.3125q-1.078125 0.8125 -2.765625 0.8125q-2.125 0 -3.375 -1.296875q-1.234375 -1.3125 -1.234375 -3.671875q0 -2.453125 1.25 -3.796875q1.265625 -1.34375 3.265625 -1.34375q1.9375 0 3.15625 1.328125q1.234375 1.3125 1.234375 3.703125q0 0.15625 0 0.4375l-7.21875 0q0.09375 1.59375 0.90625 2.453125q0.8125 0.84375 2.015625 0.84375q0.90625 0 1.546875 -0.46875q0.640625 -0.484375 1.015625 -1.515625zm-5.390625 -2.65625l5.40625 0q-0.109375 -1.21875 -0.625 -1.828125q-0.78125 -0.953125 -2.03125 -0.953125q-1.125 0 -1.90625 0.765625q-0.765625 0.75 -0.84375 2.015625zm8.047592 5.765625l3.53125 -5.03125l-3.265625 -4.640625l2.046875 0l1.484375 2.265625q0.421875 0.640625 0.671875 1.078125q0.40625 -0.59375 0.734375 -1.0625l1.640625 -2.28125l1.953125 0l-3.34375 4.546875l3.59375 5.125l-2.015625 0l-1.984375 -3.0l-0.515625 -0.8125l-2.546875 3.8125l-1.984375 0zm15.808304 0l0 -13.359375l4.609375 0q1.546875 0 2.375 0.203125q1.140625 0.25 1.953125 0.953125q1.0625 0.890625 1.578125 2.28125q0.53125 1.390625 0.53125 3.171875q0 1.515625 -0.359375 2.703125q-0.359375 1.171875 -0.921875 1.9375q-0.546875 0.765625 -1.203125 1.21875q-0.65625 0.4375 -1.59375 0.671875q-0.9375 0.21875 -2.140625 0.21875l-4.828125 0zm1.765625 -1.578125l2.859375 0q1.3125 0 2.0625 -0.234375q0.75 -0.25 1.203125 -0.703125q0.625 -0.625 0.96875 -1.6875q0.359375 -1.0625 0.359375 -2.578125q0 -2.09375 -0.6875 -3.21875q-0.6875 -1.125 -1.671875 -1.5q-0.703125 -0.28125 -2.28125 -0.28125l-2.8125 0l0 10.203125zm11.707321 1.578125l0 -13.359375l5.046875 0q1.328125 0 2.03125 0.125q0.96875 0.171875 1.640625 0.640625q0.671875 0.453125 1.078125 1.28125q0.40625 0.828125 0.40625 1.828125q0 1.703125 -1.09375 2.890625q-1.078125 1.171875 -3.921875 1.171875l-3.421875 0l0 5.421875l-1.765625 0zm1.765625 -7.0l3.453125 0q1.71875 0 2.4375 -0.640625q0.71875 -0.640625 0.71875 -1.796875q0 -0.84375 -0.421875 -1.4375q-0.421875 -0.59375 -1.125 -0.78125q-0.4375 -0.125 -1.640625 -0.125l-3.421875 0l0 4.78125z" fill-rule="nonzero"/><path fill="#000000" d="m40.109844 143.98036l0 -9.671875l1.46875 0l0 1.359375q0.453125 -0.71875 1.203125 -1.140625q0.765625 -0.4375 1.71875 -0.4375q1.078125 0 1.765625 0.453125q0.6875 0.4375 0.96875 1.234375q1.15625 -1.6875 2.984375 -1.6875q1.453125 0 2.21875 0.796875q0.78125 0.796875 0.78125 2.453125l0 6.640625l-1.640625 0l0 -6.09375q0 -0.984375 -0.15625 -1.40625q-0.15625 -0.4375 -0.578125 -0.703125q-0.421875 -0.265625 -0.984375 -0.265625q-1.015625 0 -1.6875 0.6875q-0.671875 0.671875 -0.671875 2.15625l0 5.625l-1.640625 0l0 -6.28125q0 -1.09375 -0.40625 -1.640625q-0.40625 -0.546875 -1.3125 -0.546875q-0.6875 0 -1.28125 0.359375q-0.59375 0.359375 -0.859375 1.0625q-0.25 0.703125 -0.25 2.03125l0 5.015625l-1.640625 0zm22.165802 -3.109375l1.6875 0.203125q-0.40625 1.484375 -1.484375 2.3125q-1.078125 0.8125 -2.765625 0.8125q-2.125 0 -3.375 -1.296875q-1.234375 -1.3125 -1.234375 -3.671875q0 -2.453125 1.25 -3.796875q1.265625 -1.34375 3.265625 -1.34375q1.9375 0 3.15625 1.328125q1.2343788 1.3125 1.2343788 3.703125q0 0.15625 0 0.4375l-7.218754 0q0.09375 1.59375 0.90625 2.453125q0.8125 0.84375 2.015625 0.84375q0.90625 0 1.546875 -0.46875q0.640625 -0.484375 1.015625 -1.515625zm-5.390625 -2.65625l5.40625 0q-0.109375 -1.21875 -0.625 -1.828125q-0.78125 -0.953125 -2.03125 -0.953125q-1.125 0 -1.90625 0.765625q-0.765625 0.75 -0.84375 2.015625zm15.453846 2.21875l1.609375 0.21875q-0.265625 1.65625 -1.359375 2.609375q-1.078125 0.9375 -2.671875 0.9375q-1.984375 0 -3.1875 -1.296875q-1.203125 -1.296875 -1.203125 -3.71875q0 -1.578125 0.515625 -2.75q0.515625 -1.171875 1.578125 -1.75q1.0625 -0.59375 2.3125 -0.59375q1.578125 0 2.578125 0.796875q1.0 0.796875 1.28125 2.265625l-1.59375 0.234375q-0.234375 -0.96875 -0.8125 -1.453125q-0.578125 -0.5 -1.390625 -0.5q-1.234375 0 -2.015625 0.890625q-0.78125 0.890625 -0.78125 2.8125q0 1.953125 0.75 2.84375q0.75 0.875 1.953125 0.875q0.96875 0 1.609375 -0.59375q0.65625 -0.59375 0.828125 -1.828125zm3.015625 3.546875l0 -13.359375l1.640625 0l0 4.796875q1.140625 -1.328125 2.890625 -1.328125q1.078125 0 1.859375 0.421875q0.796875 0.421875 1.140625 1.171875q0.34375 0.75 0.34375 2.171875l0 6.125l-1.640625 0l0 -6.125q0 -1.234375 -0.53125 -1.796875q-0.53125 -0.5625 -1.515625 -0.5625q-0.71875 0 -1.359375 0.390625q-0.640625 0.375 -0.921875 1.015625q-0.265625 0.640625 -0.265625 1.78125l0 5.296875l-1.640625 0zm16.688217 -1.1875q-0.921875 0.765625 -1.765625 1.09375q-0.828125 0.3125 -1.796875 0.3125q-1.59375 0 -2.453125 -0.78125q-0.859375 -0.78125 -0.859375 -1.984375q0 -0.71875 0.328125 -1.296875q0.328125 -0.59375 0.84375 -0.9375q0.53125 -0.359375 1.1875 -0.546875q0.46875 -0.125 1.453125 -0.25q1.984375 -0.234375 2.921875 -0.5625q0.015625 -0.34375 0.015625 -0.421875q0 -1.0 -0.46875 -1.421875q-0.625 -0.546875 -1.875 -0.546875q-1.15625 0 -1.703125 0.40625q-0.546875 0.40625 -0.8125 1.421875l-1.609375 -0.21875q0.21875 -1.015625 0.71875 -1.640625q0.5 -0.640625 1.453125 -0.984375q0.953125 -0.34375 2.1875 -0.34375q1.25 0 2.015625 0.296875q0.78125 0.28125 1.140625 0.734375q0.375 0.4375 0.515625 1.109375q0.078125 0.421875 0.078125 1.515625l0 2.1875q0 2.28125 0.109375 2.890625q0.109375 0.59375 0.40625 1.15625l-1.703125 0q-0.265625 -0.515625 -0.328125 -1.1875zm-0.140625 -3.671875q-0.890625 0.375 -2.671875 0.625q-1.015625 0.140625 -1.4375 0.328125q-0.421875 0.1875 -0.65625 0.53125q-0.21875 0.34375 -0.21875 0.78125q0 0.65625 0.5 1.09375q0.5 0.4375 1.453125 0.4375q0.9375 0 1.671875 -0.40625q0.75 -0.421875 1.09375 -1.140625q0.265625 -0.5625 0.265625 -1.640625l0 -0.609375zm4.203842 4.859375l0 -9.671875l1.46875 0l0 1.375q1.0625 -1.59375 3.078125 -1.59375q0.875 0 1.609375 0.3125q0.734375 0.3125 1.09375 0.828125q0.375 0.5 0.515625 1.203125q0.09375 0.453125 0.09375 1.59375l0 5.953125l-1.640625 0l0 -5.890625q0 -1.0 -0.203125 -1.484375q-0.1875 -0.5 -0.671875 -0.796875q-0.484375 -0.296875 -1.140625 -0.296875q-1.046875 0 -1.8125 0.671875q-0.75 0.65625 -0.75 2.515625l0 5.28125l-1.640625 0zm10.375717 -11.46875l0 -1.890625l1.640625 0l0 1.890625l-1.640625 0zm0 11.46875l0 -9.671875l1.640625 0l0 9.671875l-1.640625 0zm3.4885712 -2.890625l1.625 -0.25q0.125 0.96875 0.75 1.5q0.625 0.515625 1.75 0.515625q1.125 0 1.671875 -0.453125q0.546875 -0.46875 0.546875 -1.09375q0 -0.546875 -0.484375 -0.875q-0.328125 -0.21875 -1.671875 -0.546875q-1.8125 -0.46875 -2.515625 -0.796875q-0.6875 -0.328125 -1.046875 -0.90625q-0.359375 -0.59375 -0.359375 -1.3125q0 -0.640625 0.296875 -1.1875q0.296875 -0.5625 0.8125 -0.921875q0.375 -0.28125 1.03125 -0.46875q0.671875 -0.203125 1.421875 -0.203125q1.140625 0 2.0 0.328125q0.859375 0.328125 1.265625 0.890625q0.421875 0.5625 0.578125 1.5l-1.609375 0.21875q-0.109375 -0.75 -0.640625 -1.171875q-0.515625 -0.421875 -1.46875 -0.421875q-1.140625 0 -1.625 0.375q-0.46875 0.375 -0.46875 0.875q0 0.3125 0.1875 0.578125q0.203125 0.265625 0.640625 0.4375q0.234375 0.09375 1.4375 0.421875q1.75 0.453125 2.4375 0.75q0.6875 0.296875 1.078125 0.859375q0.390625 0.5625 0.390625 1.40625q0 0.828125 -0.484375 1.546875q-0.46875 0.71875 -1.375 1.125q-0.90625 0.390625 -2.046875 0.390625q-1.875 0 -2.875 -0.78125q-0.984375 -0.78125 -1.25 -2.328125zm9.984375 2.890625l0 -9.671875l1.46875 0l0 1.359375q0.453125 -0.71875 1.203125 -1.140625q0.765625 -0.4375 1.71875 -0.4375q1.078125 0 1.765625 0.453125q0.6875 0.4375 0.96875 1.234375q1.15625 -1.6875 2.984375 -1.6875q1.453125 0 2.21875 0.796875q0.78125 0.796875 0.78125 2.453125l0 6.640625l-1.640625 0l0 -6.09375q0 -0.984375 -0.15625 -1.40625q-0.15625 -0.4375 -0.578125 -0.703125q-0.421875 -0.265625 -0.984375 -0.265625q-1.015625 0 -1.6875 0.6875q-0.671875 0.671875 -0.671875 2.15625l0 5.625l-1.640625 0l0 -6.28125q0 -1.09375 -0.40625 -1.640625q-0.40625 -0.546875 -1.3125 -0.546875q-0.6875 0 -1.28125 0.359375q-0.59375 0.359375 -0.859375 1.0625q-0.25 0.703125 -0.25 2.03125l0 5.015625l-1.640625 0z" fill-rule="nonzero"/><path fill="#000000" fill-opacity="0.0" d="m187.9462 98.07612l213.10236 -57.102364" fill-rule="evenodd"/><path stroke="#000000" stroke-width="1.0" stroke-linejoin="round" stroke-linecap="butt" d="m187.9462 98.07612l207.3068 -55.549404" fill-rule="evenodd"/><path fill="#000000" stroke="#000000" stroke-width="1.0" stroke-linecap="butt" d="m395.6805 44.122158l3.9559631 -2.7700272l-4.810974 -0.42086792z" fill-rule="evenodd"/><path fill="#000000" fill-opacity="0.0" d="m187.9462 154.69817l212.59842 56.97638" fill-rule="evenodd"/><path stroke="#000000" stroke-width="1.0" stroke-linejoin="round" stroke-linecap="butt" d="m187.9462 154.69817l206.80295 55.423187" fill-rule="evenodd"/><path fill="#000000" stroke="#000000" stroke-width="1.0" stroke-linecap="butt" d="m394.32156 211.71678l4.810974 -0.42066956l-3.9558105 -2.7701874z" fill-rule="evenodd"/><path fill="#000000" fill-opacity="0.0" d="m217.65173 46.952408l126.55118 -33.92126l10.86615 40.598423l-126.55119 33.921265z" fill-rule="evenodd"/><path fill="#000000" d="m237.517 65.04938l1.5634155 -0.5646515q0.37928772 0.9336319 0.95240784 1.4432526q0.5882263 0.50556946 1.5686035 0.66337585q0.9914398 0.13866425 2.0931702 -0.15664673q0.9658966 -0.2589035 1.643753 -0.7479553q0.67785645 -0.48905182 0.90675354 -1.0842285q0.22486877 -0.6102791 0.0632782 -1.2140274q-0.16159058 -0.6037483 -0.6450043 -0.95947266q-0.46832275 -0.3597679 -1.3530426 -0.46232986q-0.5807495 -0.05463028 -2.4747467 9.918213E-5q-1.8829498 0.03559494 -2.6932678 -0.15161514q-1.0650024 -0.23218918 -1.7076416 -0.8202324q-0.64668274 -0.60313416 -0.885025 -1.4936638q-0.25854492 -0.9659996 0.073638916 -1.960926q0.32814026 -1.0100212 1.2674408 -1.7309189q0.9543915 -0.72493744 2.2523193 -1.0728416q1.4337616 -0.38431168 2.6456451 -0.20767212q1.2229309 0.1574974 2.0539093 0.90535355q0.8269501 0.73275757 1.1752167 1.8526497l-1.597641 0.5576515q-0.46305847 -1.1861801 -1.3983917 -1.5987091q-0.9242859 -0.43166733 -2.4033356 -0.0352211q-1.5544891 0.41667557 -2.110321 1.1803665q-0.55581665 0.76369476 -0.34170532 1.5636635q0.18583679 0.69430923 0.81611633 0.99448776q0.6041565 0.32335663 2.8161469 0.24809647q2.2079773 -0.090358734 3.0705872 0.050483704q1.2692719 0.20978165 2.011612 0.86816025q0.75743103 0.654335 1.0361786 1.6958008q0.27470398 1.0263748 -0.06745911 2.1048584q-0.34620667 1.0633926 -1.3105927 1.8718948q-0.9684143 0.7934036 -2.356903 1.1655807q-1.7506866 0.46926117 -3.0803375 0.27566528q-1.3145447 -0.1976471 -2.268402 -1.0419846q-0.9387665 -0.8483734 -1.3163757 -2.1383438zm10.542313 -10.250847l-0.4888153 -1.8263397l1.584671 -0.42476654l0.48883057 1.8263397l-1.5846863 0.42476654zm2.9652252 11.078796l-2.5006409 -9.343018l1.584671 -0.42476654l2.5006561 9.343018l-1.5846863 0.42476654zm4.0034943 -1.0731125l-2.5006409 -9.343018l1.4186707 -0.38026428l0.3514557 1.3131523q0.2518463 -0.81162643 0.86720276 -1.4133377q0.6264038 -0.6208458 1.5470123 -0.86761475q1.0413818 -0.27912903 1.8226013 -0.01940918q0.77716064 0.2446289 1.2548523 0.94158936q0.6805115 -1.9294777 2.4463196 -2.40279q1.4035645 -0.3762207 2.349121 0.19533539q0.9606323 0.5675125 1.388855 2.1674461l1.7169495 6.414833l-1.5846863 0.42476654l-1.575531 -5.8865547q-0.2545166 -0.95090485 -0.51452637 -1.3179779q-0.2640381 -0.38217163 -0.74020386 -0.529541q-0.47616577 -0.14736557 -1.0194702 -0.0017318726q-0.98101807 0.26294708 -1.4522095 1.1010246q-0.47525024 0.822979 -0.0914917 2.2568817l1.4543457 5.4337425l-1.5846863 0.42476273l-1.6239929 -6.0676765q-0.2828064 -1.0565605 -0.81658936 -1.47966q-0.53378296 -0.42309952 -1.4091492 -0.18846893q-0.6640625 0.17799759 -1.1446381 0.6788788q-0.48059082 0.5008774 -0.55537415 1.248867q-0.059677124 0.7439461 0.28370667 2.0269127l1.2967987 4.845085l-1.5847015 0.42476654zm15.968338 -0.446373l-3.4580688 -12.920227l1.4337463 -0.38430786l0.32318115 1.2074966q0.3232727 -0.8469467 0.8642273 -1.3640099q0.55200195 -0.5362015 1.4726562 -0.7829704q1.1922607 -0.3195839 2.2634277 0.05653763q1.0822449 0.35697937 1.8530884 1.3636017q0.76678467 0.99152756 1.1263428 2.3348694q0.38378906 1.4339066 0.17767334 2.7185707q-0.20611572 1.2846642 -1.0214844 2.1664581q-0.819397 0.8666992 -1.9060364 1.1579666q-0.78479004 0.21035767 -1.5075378 0.048202515q-0.7227478 -0.16215515 -1.2525024 -0.5701637l1.2159729 4.543213l-1.5846863 0.42476273zm-0.7598572 -8.5802q0.4807434 1.7961502 1.4394836 2.4774094q0.9697876 0.6621208 1.9960632 0.38703156q1.0564575 -0.28317642 1.5727234 -1.3759727q0.51220703 -1.1078949 0.011260986 -2.979515q-0.47668457 -1.7810593 -1.4545593 -2.4733658q-0.96276855 -0.6963501 -1.9890442 -0.42126465q-1.0111694 0.27104187 -1.5414734 1.4323044q-0.5192261 1.1421242 -0.034454346 2.953373zm9.779083 2.3288078l-3.4540405 -12.905132l1.5846863 -0.42476654l3.4540405 12.905132l-1.5846863 0.42476654zm9.643951 -5.804142l1.6824951 -0.2406807q-0.008636475 1.5390816 -0.83587646 2.6181831q-0.8312988 1.064003 -2.4612427 1.5009041q-2.0525513 0.5501709 -3.5952454 -0.3789749q-1.5316162 -0.94828796 -2.141632 -3.2274399q-0.6342468 -2.3697166 0.22570801 -3.9914055q0.8750305 -1.6257362 2.8068237 -2.143547q1.87146 -0.50162506 3.3920288 0.46580124q1.5316467 0.94828796 2.1497192 3.2576256q0.040405273 0.15093994 0.11312866 0.4226265l-6.9726257 1.8689651q0.5026245 1.5152855 1.509613 2.1350822q1.0029297 0.604702 2.165039 0.29320526q0.8753662 -0.23463058 1.3729553 -0.853302q0.49353027 -0.6337662 0.5891113 -1.7270432zm-5.893585 -1.1702766l5.221924 -1.3997002q-0.42074585 -1.1489906 -1.076355 -1.6041489q-1.0010376 -0.71844864 -2.208435 -0.39481735q-1.0866394 0.2912674 -1.64328 1.2331276q-0.5456238 0.92272186 -0.29385376 2.1655388zm15.326904 1.8608742l-2.5006409 -9.343018l1.4186707 -0.38026428l0.35147095 1.3131523q0.25183105 -0.81162643 0.8671875 -1.4133339q0.6264038 -0.6208496 1.5470276 -0.86761475q1.0413818 -0.27913284 1.8225708 -0.019412994q0.77719116 0.2446289 1.2548828 0.94159317q0.6805115 -1.9294815 2.4463196 -2.40279q1.4035645 -0.3762207 2.349121 0.19533539q0.9606323 0.5675125 1.388855 2.1674461l1.716919 6.414833l-1.5846863 0.42476273l-1.575531 -5.886551q-0.25448608 -0.95090485 -0.51449585 -1.3179817q-0.2640381 -0.38217163 -0.74020386 -0.5295372q-0.47616577 -0.14736938 -1.0195007 -0.0017356873q-0.98098755 0.2629509 -1.452179 1.1010246q-0.47528076 0.8229828 -0.0914917 2.2568855l1.4543457 5.4337387l-1.5846863 0.42476654l-1.6240234 -6.0676765q-0.28277588 -1.0565605 -0.81655884 -1.47966q-0.5338135 -0.42310333 -1.4091492 -0.18846893q-0.6640625 0.17799759 -1.1446533 0.67887497q-0.48059082 0.5008812 -0.5553589 1.2488708q-0.059692383 0.74394226 0.2836914 2.0269089l1.2967834 4.845085l-1.5846863 0.42476654zm20.801147 -6.8050385q-0.69247437 0.9782715 -1.4226379 1.5136871q-0.7190857 0.5162811 -1.6547852 0.76709366q-1.5394287 0.41262817 -2.5714722 -0.11956024q-1.032074 -0.53219223 -1.3431396 -1.6944084q-0.18585205 -0.69430923 -0.018371582 -1.3377304q0.16342163 -0.65851593 0.5726013 -1.124073q0.42019653 -0.48469925 1.0056152 -0.8357315q0.42044067 -0.2421112 1.3389282 -0.61771774q1.8561096 -0.7401695 2.6768188 -1.2998619q-0.073791504 -0.33610535 -0.09399414 -0.41157532q-0.25854492 -0.9659996 -0.82037354 -1.2521667q-0.74508667 -0.36646652 -1.9524841 -0.042835236q-1.1168213 0.29935837 -1.5400085 0.83338165q-0.42318726 0.5340271 -0.4171753 1.583889l-1.6110535 0.20536423q-0.05130005 -1.0377274 0.27005005 -1.7709312q0.31732178 -0.74829483 1.1490784 -1.3271217q0.8317566 -0.5788307 2.0240479 -0.8984146q1.207367 -0.3236313 2.0236511 -0.2350769q0.82733154 0.06941986 1.2915955 0.41409302q0.4753418 0.32553482 0.7848816 0.9381561q0.1845398 0.3873062 0.46731567 1.4438667l0.5655823 2.113121q0.58981323 2.203682 0.8529968 2.764019q0.2591858 0.5452461 0.6913452 1.0117569l-1.64505 0.44094467q-0.38986206 -0.4293213 -0.6239624 -1.0621681zm-1.0851746 -3.5106163q-0.76330566 0.5928345 -2.4191895 1.2955093q-0.9446411 0.39879227 -1.3036499 0.68914413q-0.3590088 0.29034805 -0.496521 0.6830902q-0.122406006 0.38869858 -0.009307861 0.81132126q0.16967773 0.63393784 0.7657471 0.92710876q0.59606934 0.29317093 1.5166931 0.046405792q0.9055481 -0.24272537 1.5098267 -0.8252945q0.61535645 -0.60170746 0.76156616 -1.3850174q0.1111145 -0.6121445 -0.16763306 -1.653614l-0.15753174 -0.58865356zm8.3932495 1.2605515l0.6021118 1.3430367q-0.62771606 0.31383896 -1.1559448 0.45542908q-0.86026 0.230587 -1.4159241 0.0883522q-0.5405884 -0.1462822 -0.8539429 -0.5314102q-0.3173828 -0.40021896 -0.69711304 -1.8190308l-1.4422302 -5.3884583l-1.1621094 0.31149292l-0.32720947 -1.2225914l1.1621094 -0.31149292l-0.618103 -2.3093414l1.315094 -1.371624l0.8725891 3.2602463l1.599762 -0.42881012l0.32724 1.2225914l-1.5997925 0.42881012l1.4664612 5.479019q0.1777649 0.66412354 0.30575562 0.8401184q0.1430664 0.17194366 0.35647583 0.24414825q0.2244873 0.053066254 0.58670044 -0.044021606q0.25656128 -0.06877136 0.67807007 -0.24646378zm1.9302063 1.0032234l-3.4540405 -12.905132l1.5846558 -0.42476463l1.2402344 4.633772q0.7583618 -1.5782776 2.4486694 -2.0313606q1.0413818 -0.27913284 1.9050598 -0.07387161q0.8787842 0.20121765 1.4047241 0.8367157q0.52593994 0.63550186 0.8935547 2.0090294l1.5836182 5.9167404l-1.5846863 0.42476654l-1.5836182 -5.9167404q-0.3191223 -1.1924057 -0.97769165 -1.5982361q-0.65856934 -0.40583038 -1.6094055 -0.15097046q-0.69421387 0.18608475 -1.2120056 0.72929q-0.52182007 0.5281105 -0.62786865 1.2197685q-0.09094238 0.68761444 0.20397949 1.7894554l1.3695068 5.1167755l-1.5846863 0.42476273z" fill-rule="nonzero"/><path fill="#000000" fill-opacity="0.0" d="m180.10779 152.37628l223.37009 59.842514l-10.86615 40.56694l-223.37009 -59.84253z" fill-rule="evenodd"/><path fill="#000000" d="m192.52553 183.57243l3.456543 -12.904465l2.5657806 0.6873779l0.6028595 9.948013q0.07896423 1.3961182 0.1053772 2.0825806q0.4163971 -0.64871216 1.2330322 -1.8857727l5.4994507 -8.151382l2.294098 0.6145935l-3.4565582 12.904465l-1.6451111 -0.44073486l2.8905792 -10.791443l-6.6335754 9.788666l-1.5394592 -0.4124298l-0.78479004 -11.986389l-2.9431152 10.987656l-1.6451111 -0.44073486zm15.525116 -0.8552704q0.6953583 -2.595993 2.460678 -3.4494781q1.4863739 -0.7179413 3.2220306 -0.25294495q1.9318695 0.51756287 2.814804 2.1128998q0.8869629 1.5802307 0.28863525 3.81398q-0.48109436 1.7960663 -1.3033752 2.6919098q-0.81825256 0.88075256 -2.0132751 1.175293q-1.1799316 0.29856873 -2.4024506 -0.028945923q-1.9620514 -0.52565 -2.8339233 -2.1018372q-0.86782837 -1.5912933 -0.23312378 -3.9608765zm1.6300201 0.43669128q-0.4810791 1.796051 0.046081543 2.9078522q0.54629517 1.1007385 1.7386322 1.4201813q1.1772308 0.3153839 2.2005768 -0.36483765q1.0273895 -0.6953125 1.5205994 -2.5366516q0.46492004 -1.7356873 -0.08137512 -2.836441q-0.5463104 -1.1007385 -1.7235413 -1.4161224q-1.1923218 -0.31944275 -2.2156677 0.3607788q-1.0042114 0.6691742 -1.4853058 2.4652405zm7.7125397 7.0808105l2.5024567 -9.342529l1.4187164 0.38008118l-0.38002014 1.418747q0.8101654 -0.8505707 1.3478546 -1.0462189q0.5527649 -0.19160461 1.1111908 -0.042007446q0.79992676 0.21430969 1.492569 0.9498596l-0.93548584 1.3184509q-0.495636 -0.50483704 -1.0691528 -0.6584778q-0.528244 -0.14152527 -1.0206451 0.06625366q-0.49241638 0.20777893 -0.8190613 0.7026062q-0.49806213 0.77241516 -0.7689209 1.7836456l-1.3098602 4.890106l-1.5696411 -0.42051697zm13.219971 0.32270813l1.5774536 0.6328888q-0.77645874 1.3287048 -2.032135 1.8496399q-1.2516174 0.50582886 -2.8816376 0.06913757q-2.0526123 -0.5499115 -2.9244843 -2.1260986q-0.8527374 -1.5872498 -0.24227905 -3.8662872q0.6347046 -2.3695831 2.189804 -3.344101q1.5701904 -0.97047424 3.50206 -0.45291138q1.8715057 0.50138855 2.7051086 2.0996857q0.8527374 1.5872345 0.2341919 3.8964539q-0.040420532 0.15092468 -0.1131897 0.42260742l-6.9728546 -1.8680878q-0.32180786 1.5637512 0.24066162 2.6041107q0.56651306 1.0252838 1.728653 1.3366241q0.87538147 0.23452759 1.6154785 -0.052474976q0.74412537 -0.30210876 1.373169 -1.2011871zm-4.5197296 -3.9608002l5.2220917 1.3990326q0.20968628 -1.2055511 -0.13070679 -1.9276123q-0.5080261 -1.1228333 -1.7154541 -1.4463196q-1.0866699 -0.29112244 -2.0394135 0.2462616q-0.93359375 0.5263214 -1.3365173 1.7286377zm19.360092 7.4837036l1.4979553 0.6277771q-0.6851196 1.5311127 -1.9882202 2.168747q-1.2839508 0.62657166 -2.8234253 0.21414185q-1.9167786 -0.5135193 -2.7433624 -2.0775757q-0.8265991 -1.5640717 -0.19996643 -3.903473q0.40830994 -1.5243835 1.2095795 -2.5229187q0.80126953 -0.99853516 1.9771576 -1.2820129q1.1799316 -0.29858398 2.3873444 0.024887085q1.5243683 0.4084015 2.284134 1.4369202q0.75975037 1.0285187 0.6513977 2.5200348l-1.6000977 -0.18603516q0.024261475 -0.9964142 -0.408844 -1.6139069q-0.4290619 -0.6325836 -1.2138824 -0.8428345q-1.192337 -0.31944275 -2.177414 0.33868408q-0.98506165 0.65812683 -1.4823303 2.514557q-0.5053406 1.8866119 -0.0113220215 2.9409943q0.49806213 1.0392914 1.660202 1.350647q0.93574524 0.25068665 1.7081757 -0.15705872q0.78752136 -0.40370178 1.2729187 -1.5515747zm2.6598206 -0.63002014q0.6953583 -2.5959778 2.460678 -3.4494781q1.4863739 -0.717926 3.2220306 -0.2529297q1.9318695 0.51756287 2.814804 2.1128845q0.8869629 1.5802307 0.28863525 3.8139954q-0.4810791 1.796051 -1.3033752 2.6919098q-0.81825256 0.88075256 -2.0132751 1.1752777q-1.1799316 0.29858398 -2.4024506 -0.028945923q-1.9620514 -0.52565 -2.8339233 -2.1018372q-0.86782837 -1.5912781 -0.23312378 -3.9608765zm1.6300201 0.43669128q-0.4810791 1.7960663 0.046081543 2.9078522q0.54629517 1.1007538 1.7386322 1.4201813q1.1772308 0.31539917 2.2005768 -0.36483765q1.0273895 -0.6953125 1.5205994 -2.5366516q0.46492004 -1.7356873 -0.08137512 -2.8364258q-0.5463104 -1.1007385 -1.7235413 -1.4161377q-1.1923218 -0.3194275 -2.2156677 0.36079407q-1.0042114 0.6691742 -1.4853058 2.4652252zm7.7276306 7.084854l2.502472 -9.342514l1.4187012 0.38008118l-0.3517151 1.3130798q0.6236572 -0.5770111 1.4572754 -0.7904358q0.85272217 -0.22447205 1.7733765 0.02218628q1.0414124 0.2789917 1.5882568 0.8945923q0.5508728 0.6005249 0.6163635 1.443039q1.5534973 -1.3308105 3.319336 -0.85772705q1.4036255 0.3760376 1.9369812 1.3439026q0.5484619 0.9719238 0.11993408 2.571762l-1.7181702 6.414505l-1.5847473 -0.42456055l1.5766907 -5.8862457q0.2546997 -0.95085144 0.21292114 -1.3988037q-0.037750244 -0.4630432 -0.37652588 -0.8287964q-0.33877563 -0.36575317 -0.8821106 -0.51130676q-0.98101807 -0.26283264 -1.8078918 0.22738647q-0.82281494 0.47512817 -1.2068787 1.9089661l-1.4554138 5.4334564l-1.5847168 -0.42456055l1.6251831 -6.0673676q0.2829895 -1.0565033 0.032073975 -1.6898804q-0.25091553 -0.63339233 -1.1262817 -0.86790466q-0.664093 -0.17791748 -1.3305969 0.015563965q-0.6665039 0.1934967 -1.105011 0.8039398q-0.42340088 0.6144867 -0.7670593 1.8973846l-1.297699 4.8448334l-1.5847473 -0.4245758zm14.053284 7.598709l3.4606018 -12.919556l1.4338074 0.38412476l-0.3234253 1.2074432q0.7031555 -0.5718994 1.4300537 -0.74920654q0.7460022 -0.18836975 1.6666565 0.058288574q1.1923218 0.3194275 1.9321594 1.1808472q0.75894165 0.8503723 0.9236145 2.1076813q0.16870117 1.2422333 -0.19110107 2.5855103q-0.38406372 1.4338226 -1.2044678 2.4434052q-0.82040405 1.0095825 -1.9671936 1.3655701q-1.1427307 0.3408966 -2.2294006 0.04977417q-0.78482056 -0.21026611 -1.329773 -0.71214294q-0.5449524 -0.5018616 -0.79992676 -1.1201477l-1.2168579 4.5429688l-1.5847473 -0.42456055zm3.6290283 -7.8113403q-0.4810791 1.7960663 0.008880615 2.8655396q0.50912476 1.0584259 1.5354309 1.333374q1.056488 0.28305054 2.049652 -0.40525818q0.9971924 -0.7034149 1.4984741 -2.574936q0.47705078 -1.7809601 -0.023956299 -2.8695831q-0.4859314 -1.0845642 -1.5122375 -1.3595123q-1.0112305 -0.2709198 -2.0507507 0.4696808q-1.0203552 0.72953796 -1.5054932 2.5406952zm7.3060913 6.9072266l3.4565735 -12.904465l1.5847168 0.42456055l-3.456543 12.904465l-1.5847473 -0.42456055zm7.0162964 -9.9934845l0.48916626 -1.8262482l1.5847473 0.42456055l-0.48916626 1.8262482l-1.5847473 -0.42456055zm-2.9673767 11.078217l2.502472 -9.342529l1.5847473 0.42456055l-2.502472 9.342529l-1.5847473 -0.42456055zm11.018799 -0.7199402l1.4979553 0.6277771q-0.6851196 1.5311127 -1.9882202 2.168747q-1.2839355 0.62657166 -2.8233948 0.21414185q-1.9167786 -0.5135193 -2.7433777 -2.0775757q-0.8265991 -1.5640717 -0.19998169 -3.903473q0.4083252 -1.5243835 1.2095947 -2.5229187q0.80126953 -0.99853516 1.9771423 -1.2820282q1.1799316 -0.29856873 2.3873596 0.024902344q1.5243835 0.40838623 2.2841187 1.4369202q0.7597656 1.0285187 0.6513977 2.5200348l-1.6000671 -0.18603516q0.024230957 -0.9964142 -0.4088745 -1.6139069q-0.42904663 -0.6325836 -1.2138672 -0.84284973q-1.1923218 -0.3194275 -2.1773987 0.33869934q-0.9850769 0.65812683 -1.4823303 2.514557q-0.5053406 1.8866119 -0.011352539 2.9409943q0.4980774 1.0392914 1.6602173 1.350647q0.93573 0.25068665 1.7081604 -0.15705872q0.7875366 -0.40370178 1.2729187 -1.5515747zm8.399933 4.692978q-1.0885925 0.5009918 -1.9884949 0.5995941q-0.8807678 0.08755493 -1.8165283 -0.16313171q-1.5394592 -0.41244507 -2.1674194 -1.3894806q-0.6279602 -0.9770355 -0.3166504 -2.1391907q0.1859436 -0.6942749 0.65249634 -1.1678009q0.47055054 -0.48861694 1.0575562 -0.68722534q0.60614014 -0.20965576 1.2885437 -0.22094727q0.48513794 5.493164E-4 1.4683228 0.134552q1.977417 0.28712463 2.967865 0.21278381q0.104034424 -0.32800293 0.12426758 -0.4034729q0.25872803 -0.9659424 -0.0848999 -1.494751q-0.46221924 -0.69000244 -1.6696472 -1.0134735q-1.1168518 -0.29922485 -1.7502136 -0.048324585q-0.6333618 0.25090027 -1.15271 1.1631927l-1.4979553 -0.6277771q0.47409058 -0.9244232 1.1187439 -1.3987579q0.6487427 -0.4894104 1.6583252 -0.57481384q1.009613 -0.08538818 2.2019348 0.2340393q1.207428 0.32348633 1.8701477 0.8083801q0.68188477 0.47384644 0.9117737 1.0045319q0.24902344 0.5196533 0.21102905 1.2050323q-0.033691406 0.42773438 -0.31671143 1.4842377l-0.565979 2.1130066q-0.5902405 2.2035828 -0.64224243 2.8205109q-0.047973633 0.6018219 0.0932312 1.2220001l-1.6451111 -0.44073486q-0.123168945 -0.566803 -0.009674072 -1.2319794zm0.814209 -3.5832367q-0.9573364 0.13175964 -2.7425842 -0.08770752q-1.0174255 -0.12698364 -1.4734192 -0.05505371q-0.45602417 0.07194519 -0.7713623 0.343338q-0.30023193 0.2754364 -0.41342163 0.6980438q-0.1697998 0.6338959 0.19995117 1.1858978q0.3697815 0.5519867 1.2904358 0.798645q0.9055786 0.24259949 1.7200317 0.040237427q0.83361816 -0.21342468 1.3516235 -0.8187561q0.40213013 -0.47459412 0.6810608 -1.5160065l0.15768433 -0.5886383zm6.639618 5.2890015l-0.14959717 1.4642944q-0.70047 -0.04206848 -1.2286987 -0.18359375q-0.8602905 -0.23046875 -1.2705078 -0.63153076q-0.39508057 -0.3970337 -0.47406006 -0.8872833q-0.074920654 -0.50535583 0.30508423 -1.9240875l1.4432678 -5.3881836l-1.1621399 -0.31134033l0.3274536 -1.2225342l1.1621399 0.31134033l0.6185608 -2.3092194l1.8243408 -0.5303345l-0.87323 3.260086l1.599823 0.42860413l-0.3274536 1.2225189l-1.5998535 -0.42860413l-1.4674988 5.4787445q-0.17788696 0.66407776 -0.15496826 0.8805084q0.037994385 0.22047424 0.18676758 0.38974q0.16790771 0.15820312 0.53012085 0.25524902q0.2565918 0.068740845 0.7104492 0.12562561zm8.374298 0.5450592l1.5774536 0.63290405q-0.77648926 1.3287048 -2.032135 1.8496246q-1.2516174 0.50582886 -2.8816528 0.06913757q-2.0526123 -0.5499115 -2.924469 -2.1260986q-0.8527527 -1.5872345 -0.24227905 -3.866272q0.6347046 -2.3695984 2.1897888 -3.344101q1.5701904 -0.97047424 3.5020752 -0.45291138q1.8714905 0.50138855 2.7051086 2.0996704q0.85272217 1.5872498 0.2341919 3.896469q-0.04043579 0.15092468 -0.113220215 0.42259216l-6.9728394 -1.8680725q-0.32180786 1.563736 0.24066162 2.6041107q0.5665283 1.0252838 1.7286682 1.3366241q0.8753662 0.23452759 1.615448 -0.052490234q0.7441406 -0.3020935 1.3731995 -1.2011871zm-4.519745 -3.960785l5.222107 1.3990326q0.20968628 -1.2055511 -0.13070679 -1.9276123q-0.50805664 -1.1228485 -1.7154541 -1.4463196q-1.0867004 -0.2911377 -2.0394287 0.24624634q-0.93359375 0.52633667 -1.3365173 1.728653zm13.390381 9.556335l0.31533813 -1.1772614q-1.2473145 1.1540375 -2.9829712 0.68904114q-1.1168823 -0.29922485 -1.8868713 -1.1687317q-0.769989 -0.8694916 -0.9880371 -2.1087646q-0.21801758 -1.2392578 0.16604614 -2.6730804q0.37597656 -1.403656 1.1470642 -2.4102783q0.77511597 -1.0217133 1.8574829 -1.3787842q1.0974731 -0.35301208 2.259613 -0.041671753q0.8451843 0.22644043 1.3971558 0.7625427q0.57107544 0.5250397 0.8249512 1.2077484l1.2411499 -4.6335297l1.5847168 0.42456055l-3.456543 12.904465l-1.4790955 -0.3962555zm-3.7464905 -6.0021057q-0.4810791 1.796051 0.03503418 2.8887177q0.5161133 1.0926514 1.5424194 1.3675995q1.0414124 0.27900696 1.9922485 -0.3721161q0.954895 -0.666214 1.4197998 -2.4019012q0.51342773 -1.9167938 0.012420654 -3.0054169q-0.49697876 -1.1036987 -1.5836792 -1.3948364q-1.0413818 -0.2789917 -1.9811707 0.39126587q-0.93981934 0.67025757 -1.4370728 2.5266876zm12.723328 8.407059l2.502472 -9.342529l1.4187012 0.38008118l-0.3517151 1.3130951q0.6236572 -0.57702637 1.4572754 -0.7904358q0.85272217 -0.2244873 1.7733765 0.02217102q1.0414124 0.2789917 1.5882568 0.89460754q0.5508728 0.60050964 0.6163635 1.443039q1.5534668 -1.3308258 3.319336 -0.8577423q1.4036255 0.3760376 1.9369812 1.3439178q0.5484619 0.97190857 0.11993408 2.571762l-1.7181702 6.4144897l-1.5847473 -0.42456055l1.5766907 -5.8862457q0.2546692 -0.95085144 0.21292114 -1.3987885q-0.037750244 -0.4630432 -0.37652588 -0.8287964q-0.33877563 -0.36575317 -0.8821106 -0.511322q-0.98101807 -0.26281738 -1.8078918 0.22740173q-0.82284546 0.47512817 -1.2068787 1.9089508l-1.4554138 5.4334564l-1.5847168 -0.42456055l1.6251831 -6.0673523q0.2829895 -1.0565186 0.032073975 -1.6898956q-0.25091553 -0.6333771 -1.1263123 -0.86790466q-0.6640625 -0.17791748 -1.3305664 0.015579224q-0.6665039 0.19348145 -1.105011 0.80392456q-0.4234314 0.6144867 -0.7670593 1.8973846l-1.297699 4.8448334l-1.5847473 -0.42456055zm21.416138 4.5081635q-1.088562 0.5009918 -1.9884644 0.5995941q-0.88079834 0.08755493 -1.8165283 -0.16313171q-1.5394592 -0.4124298 -2.1674194 -1.3894806q-0.6279907 -0.9770355 -0.3166809 -2.1391907q0.18597412 -0.6942749 0.65249634 -1.1678009q0.47058105 -0.48861694 1.0575562 -0.68722534q0.60614014 -0.20965576 1.2885742 -0.22094727q0.48510742 5.493164E-4 1.4682922 0.134552q1.977417 0.28712463 2.9678955 0.21278381q0.104034424 -0.32800293 0.12423706 -0.4034729q0.25872803 -0.9659424 -0.0848999 -1.494751q-0.46221924 -0.69000244 -1.6696167 -1.0134735q-1.1168823 -0.29922485 -1.7502441 -0.048324585q-0.6333313 0.25090027 -1.15271 1.1631927l-1.4979553 -0.6277771q0.47409058 -0.9244232 1.1187744 -1.3987579q0.64871216 -0.4894104 1.6583252 -0.57481384q1.0095825 -0.08538818 2.2019043 0.2340393q1.207428 0.32348633 1.8701477 0.8083801q0.68188477 0.47384644 0.9117737 1.0045319q0.24902344 0.5196533 0.21102905 1.2050476q-0.033691406 0.42771912 -0.3166809 1.4842224l-0.565979 2.1130066q-0.5902405 2.2035828 -0.64227295 2.8205109q-0.047973633 0.60183716 0.09326172 1.2220001l-1.6451111 -0.44073486q-0.123168945 -0.566803 -0.00970459 -1.2319794zm0.814209 -3.5832367q-0.9573059 0.13175964 -2.7425842 -0.08770752q-1.017395 -0.12698364 -1.4734192 -0.055038452q-0.45602417 0.07192993 -0.7713623 0.34332275q-0.30023193 0.2754364 -0.41342163 0.6980438q-0.1697998 0.6338959 0.19998169 1.1858978q0.36975098 0.5519867 1.2904358 0.798645q0.9055481 0.24259949 1.7200317 0.040237427q0.83358765 -0.21342468 1.351593 -0.8187561q0.40213013 -0.47459412 0.6810608 -1.5160065l0.15768433 -0.5886383zm6.6395874 5.2890015l-0.14959717 1.4642944q-0.70043945 -0.04208374 -1.2286987 -0.18359375q-0.8602905 -0.23048401 -1.2704773 -0.631546q-0.39511108 -0.39701843 -0.47409058 -0.8872833q-0.074920654 -0.50535583 0.30511475 -1.9240875l1.4432373 -5.3881836l-1.1621399 -0.31134033l0.32748413 -1.2225342l1.1621399 0.3113556l0.6185303 -2.3092194l1.8243408 -0.5303345l-0.87323 3.2600708l1.599823 0.42860413l-0.3274536 1.2225342l-1.599823 -0.42860413l-1.4675293 5.4787292q-0.17788696 0.664093 -0.15496826 0.8805237q0.037994385 0.22045898 0.18676758 0.38972473q0.16790771 0.15821838 0.53012085 0.25526428q0.2565918 0.068740845 0.7104492 0.12562561zm1.1705017 1.834137l3.456543 -12.904465l1.5847473 0.42456055l-1.2411194 4.6335297q1.445404 -0.98773193 3.1357727 -0.53486633q1.0414124 0.27900696 1.6868896 0.88868713q0.6605835 0.61372375 0.79855347 1.4271393q0.13800049 0.8134155 -0.22988892 2.1868744l-1.5847473 5.916443l-1.5847473 -0.4245758l1.5847473 -5.9164276q0.31939697 -1.192337 -0.048217773 -1.873169q-0.36761475 -0.68081665 -1.3184814 -0.93556213q-0.6942444 -0.18598938 -1.4141235 0.025543213q-0.7158203 0.19645691 -1.1532593 0.7424774q-0.42233276 0.55007935 -0.71743774 1.6518555l-1.3705139 5.116516l-1.5847168 -0.42456055z" fill-rule="nonzero"/><path fill="#d9ead3" d="m418.39502 5.461942l147.1181 0l0 67.62205l-147.1181 0z" fill-rule="evenodd"/><path stroke="#000000" stroke-width="1.0" stroke-linejoin="round" stroke-linecap="butt" d="m418.39502 5.461942l147.1181 0l0 67.62205l-147.1181 0z" fill-rule="evenodd"/><path fill="#000000" d="m443.1117 46.192963l0 -13.359375l5.046875 0q1.328125 0 2.03125 0.125q0.96875 0.171875 1.640625 0.640625q0.671875 0.453125 1.078125 1.28125q0.40625 0.828125 0.40625 1.828125q0 1.703125 -1.09375 2.890625q-1.078125 1.171875 -3.921875 1.171875l-3.421875 0l0 5.421875l-1.765625 0zm1.765625 -7.0l3.453125 0q1.71875 0 2.4375 -0.640625q0.71875 -0.640625 0.71875 -1.796875q0 -0.84375 -0.421875 -1.4375q-0.421875 -0.59375 -1.125 -0.78125q-0.4375 -0.125 -1.640625 -0.125l-3.421875 0l0 4.78125zm10.459198 7.0l0 -9.671875l1.46875 0l0 1.46875q0.5625 -1.03125 1.03125 -1.359375q0.484375 -0.328125 1.0625 -0.328125q0.828125 0 1.6875 0.53125l-0.5625 1.515625q-0.609375 -0.359375 -1.203125 -0.359375q-0.546875 0 -0.96875 0.328125q-0.421875 0.328125 -0.609375 0.890625q-0.28125 0.875 -0.28125 1.921875l0 5.0625l-1.625 0zm6.228302 -11.46875l0 -1.890625l1.640625 0l0 1.890625l-1.640625 0zm0 11.46875l0 -9.671875l1.640625 0l0 9.671875l-1.640625 0zm6.8323364 0l-3.6875 -9.671875l1.734375 0l2.078125 5.796875q0.328125 0.9375 0.625 1.9375q0.203125 -0.765625 0.609375 -1.828125l2.140625 -5.90625l1.6875 0l-3.65625 9.671875l-1.53125 0zm12.953125 -1.1875q-0.921875 0.765625 -1.765625 1.09375q-0.828125 0.3125 -1.796875 0.3125q-1.59375 0 -2.453125 -0.78125q-0.859375 -0.78125 -0.859375 -1.984375q0 -0.71875 0.328125 -1.296875q0.328125 -0.59375 0.84375 -0.9375q0.53125 -0.359375 1.1875 -0.546875q0.46875 -0.125 1.453125 -0.25q1.984375 -0.234375 2.921875 -0.5625q0.015625 -0.34375 0.015625 -0.421875q0 -1.0 -0.46875 -1.421875q-0.625 -0.546875 -1.875 -0.546875q-1.15625 0 -1.703125 0.40625q-0.546875 0.40625 -0.8125 1.421875l-1.609375 -0.21875q0.21875 -1.015625 0.71875 -1.640625q0.5 -0.640625 1.453125 -0.984375q0.953125 -0.34375 2.1875 -0.34375q1.25 0 2.015625 0.296875q0.78125 0.28125 1.140625 0.734375q0.375 0.4375 0.515625 1.109375q0.078125 0.421875 0.078125 1.515625l0 2.1875q0 2.28125 0.109375 2.890625q0.109375 0.59375 0.40625 1.15625l-1.703125 0q-0.265625 -0.515625 -0.328125 -1.1875zm-0.140625 -3.671875q-0.890625 0.375 -2.671875 0.625q-1.015625 0.140625 -1.4375 0.328125q-0.421875 0.1875 -0.65625 0.53125q-0.21875 0.34375 -0.21875 0.78125q0 0.65625 0.5 1.09375q0.5 0.4375 1.453125 0.4375q0.9375 0 1.671875 -0.40625q0.75 -0.421875 1.09375 -1.140625q0.265625 -0.5625 0.265625 -1.640625l0 -0.609375zm10.516327 1.3125l1.609375 0.21875q-0.265625 1.65625 -1.359375 2.609375q-1.078125 0.9375 -2.671875 0.9375q-1.984375 0 -3.1875 -1.296875q-1.203125 -1.296875 -1.203125 -3.71875q0 -1.578125 0.515625 -2.75q0.515625 -1.171875 1.578125 -1.75q1.0625 -0.59375 2.3125 -0.59375q1.578125 0 2.578125 0.796875q1.0 0.796875 1.28125 2.265625l-1.59375 0.234375q-0.234375 -0.96875 -0.8125 -1.453125q-0.578125 -0.5 -1.390625 -0.5q-1.234375 0 -2.015625 0.890625q-0.78125 0.890625 -0.78125 2.8125q0 1.953125 0.75 2.84375q0.75 0.875 1.953125 0.875q0.96875 0 1.609375 -0.59375q0.65625 -0.59375 0.828125 -1.828125zm2.9375 7.265625l-0.1875 -1.53125q0.546875 0.140625 0.9375 0.140625q0.546875 0 0.875 -0.1875q0.328125 -0.171875 0.546875 -0.5q0.15625 -0.25 0.5 -1.21875q0.046875 -0.140625 0.140625 -0.40625l-3.671875 -9.6875l1.765625 0l2.015625 5.59375q0.390625 1.078125 0.703125 2.25q0.28125 -1.125 0.671875 -2.203125l2.078125 -5.640625l1.640625 0l-3.6875 9.828125q-0.59375 1.609375 -0.921875 2.203125q-0.4375 0.8125 -1.0 1.1875q-0.5625 0.375 -1.34375 0.375q-0.484375 0 -1.0625 -0.203125zm20.90207 -7.265625l1.609375 0.21875q-0.265625 1.65625 -1.359375 2.609375q-1.078125 0.9375 -2.671875 0.9375q-1.984375 0 -3.1875 -1.296875q-1.203125 -1.296875 -1.203125 -3.71875q0 -1.578125 0.515625 -2.75q0.515625 -1.171875 1.578125 -1.75q1.0625 -0.59375 2.3125 -0.59375q1.578125 0 2.578125 0.796875q1.0 0.796875 1.28125 2.265625l-1.59375 0.234375q-0.234375 -0.96875 -0.8125 -1.453125q-0.578125 -0.5 -1.390625 -0.5q-1.234375 0 -2.015625 0.890625q-0.78125 0.890625 -0.78125 2.8125q0 1.953125 0.75 2.84375q0.75 0.875 1.953125 0.875q0.96875 0 1.609375 -0.59375q0.65625 -0.59375 0.828125 -1.828125zm2.40625 -1.296875q0 -2.6875 1.484375 -3.96875q1.25 -1.078125 3.046875 -1.078125q2.0 0 3.265625 1.3125q1.265625 1.296875 1.265625 3.609375q0 1.859375 -0.5625 2.9375q-0.5625 1.0625 -1.640625 1.65625q-1.0625 0.59375 -2.328125 0.59375q-2.03125 0 -3.28125 -1.296875q-1.25 -1.3125 -1.25 -3.765625zm1.6875 0q0 1.859375 0.796875 2.796875q0.8125 0.921875 2.046875 0.921875q1.21875 0 2.03125 -0.921875q0.8125 -0.9375 0.8125 -2.84375q0 -1.796875 -0.8125 -2.71875q-0.8125 -0.921875 -2.03125 -0.921875q-1.234375 0 -2.046875 0.921875q-0.796875 0.90625 -0.796875 2.765625zm8.641357 1.953125l1.625 -0.25q0.125 0.96875 0.75 1.5q0.625 0.515625 1.75 0.515625q1.125 0 1.671875 -0.453125q0.546875 -0.46875 0.546875 -1.09375q0 -0.546875 -0.484375 -0.875q-0.328125 -0.21875 -1.671875 -0.546875q-1.8125 -0.46875 -2.515625 -0.796875q-0.6875 -0.328125 -1.046875 -0.90625q-0.359375 -0.59375 -0.359375 -1.3125q0 -0.640625 0.296875 -1.1875q0.296875 -0.5625 0.8125 -0.921875q0.375 -0.28125 1.03125 -0.46875q0.671875 -0.203125 1.421875 -0.203125q1.140625 0 2.0 0.328125q0.859375 0.328125 1.265625 0.890625q0.421875 0.5625 0.578125 1.5l-1.609375 0.21875q-0.109375 -0.75 -0.640625 -1.171875q-0.515625 -0.421875 -1.46875 -0.421875q-1.140625 0 -1.625 0.375q-0.46875 0.375 -0.46875 0.875q0 0.3125 0.1875 0.578125q0.203125 0.265625 0.640625 0.4375q0.234375 0.09375 1.4375 0.421875q1.75 0.453125 2.4375 0.75q0.6875 0.296875 1.078125 0.859375q0.390625 0.5625 0.390625 1.40625q0 0.828125 -0.484375 1.546875q-0.46875 0.71875 -1.375 1.125q-0.90625 0.390625 -2.046875 0.390625q-1.875 0 -2.875 -0.78125q-0.984375 -0.78125 -1.25 -2.328125zm13.5625 1.421875l0.234375 1.453125q-0.6875 0.140625 -1.234375 0.140625q-0.890625 0 -1.390625 -0.28125q-0.484375 -0.28125 -0.6875 -0.734375q-0.203125 -0.46875 -0.203125 -1.9375l0 -5.578125l-1.203125 0l0 -1.265625l1.203125 0l0 -2.390625l1.625 -0.984375l0 3.375l1.65625 0l0 1.265625l-1.65625 0l0 5.671875q0 0.6875 0.078125 0.890625q0.09375 0.203125 0.28125 0.328125q0.203125 0.109375 0.578125 0.109375q0.265625 0 0.71875 -0.0625z" fill-rule="nonzero"/><path fill="#b6d7a8" d="m417.89108 180.42258l115.811005 0l0 67.62204l-115.811005 0z" fill-rule="evenodd"/><path stroke="#000000" stroke-width="1.0" stroke-linejoin="round" stroke-linecap="butt" d="m417.89108 180.42258l115.811005 0l0 67.62204l-115.811005 0z" fill-rule="evenodd"/><path fill="#000000" d="m445.02127 205.85672l1.65625 -0.140625q0.125 1.0 0.546875 1.640625q0.4375 0.640625 1.34375 1.046875q0.921875 0.390625 2.0625 0.390625q1.0 0 1.78125 -0.296875q0.78125 -0.296875 1.15625 -0.8125q0.375 -0.53125 0.375 -1.15625q0 -0.625 -0.375 -1.09375q-0.359375 -0.46875 -1.1875 -0.796875q-0.546875 -0.203125 -2.390625 -0.640625q-1.828125 -0.453125 -2.5625 -0.84375q-0.96875 -0.5 -1.4375 -1.234375q-0.46875 -0.75 -0.46875 -1.671875q0 -1.0 0.578125 -1.875q0.578125 -0.890625 1.671875 -1.34375q1.109375 -0.453125 2.453125 -0.453125q1.484375 0 2.609375 0.484375q1.140625 0.46875 1.75 1.40625q0.609375 0.921875 0.65625 2.09375l-1.6875 0.125q-0.140625 -1.265625 -0.9375 -1.90625q-0.78125 -0.65625 -2.3125 -0.65625q-1.609375 0 -2.34375 0.59375q-0.734375 0.59375 -0.734375 1.421875q0 0.71875 0.53125 1.171875q0.5 0.46875 2.65625 0.96875q2.15625 0.484375 2.953125 0.84375q1.171875 0.53125 1.71875 1.359375q0.5625 0.828125 0.5625 1.90625q0 1.0625 -0.609375 2.015625q-0.609375 0.9375 -1.75 1.46875q-1.140625 0.515625 -2.578125 0.515625q-1.8125 0 -3.046875 -0.53125q-1.21875 -0.53125 -1.921875 -1.59375q-0.6875 -1.0625 -0.71875 -2.40625zm12.834198 4.296875l0 -9.671875l1.46875 0l0 1.359375q0.453125 -0.71875 1.203125 -1.140625q0.765625 -0.4375 1.71875 -0.4375q1.078125 0 1.765625 0.453125q0.6875 0.4375 0.96875 1.234375q1.15625 -1.6875 2.984375 -1.6875q1.453125 0 2.21875 0.796875q0.78125 0.796875 0.78125 2.453125l0 6.640625l-1.640625 0l0 -6.09375q0 -0.984375 -0.15625 -1.40625q-0.15625 -0.4375 -0.578125 -0.703125q-0.421875 -0.265625 -0.984375 -0.265625q-1.015625 0 -1.6875 0.6875q-0.671875 0.671875 -0.671875 2.15625l0 5.625l-1.640625 0l0 -6.28125q0 -1.09375 -0.40625 -1.640625q-0.40625 -0.546875 -1.3125 -0.546875q-0.6875 0 -1.28125 0.359375q-0.59375 0.359375 -0.859375 1.0625q-0.25 0.703125 -0.25 2.03125l0 5.015625l-1.640625 0zm21.853302 -1.1875q-0.921875 0.765625 -1.765625 1.09375q-0.828125 0.3125 -1.796875 0.3125q-1.59375 0 -2.453125 -0.78125q-0.859375 -0.78125 -0.859375 -1.984375q0 -0.71875 0.328125 -1.296875q0.328125 -0.59375 0.84375 -0.9375q0.53125 -0.359375 1.1875 -0.546875q0.46875 -0.125 1.453125 -0.25q1.984375 -0.234375 2.921875 -0.5625q0.015625 -0.34375 0.015625 -0.421875q0 -1.0 -0.46875 -1.421875q-0.625 -0.546875 -1.875 -0.546875q-1.15625 0 -1.703125 0.40625q-0.546875 0.40625 -0.8125 1.421875l-1.609375 -0.21875q0.21875 -1.015625 0.71875 -1.640625q0.5 -0.640625 1.453125 -0.984375q0.953125 -0.34375 2.1875 -0.34375q1.25 0 2.015625 0.296875q0.78125 0.28125 1.140625 0.734375q0.375 0.4375 0.515625 1.109375q0.078125 0.421875 0.078125 1.515625l0 2.1875q0 2.28125 0.109375 2.890625q0.109375 0.59375 0.40625 1.15625l-1.703125 0q-0.265625 -0.515625 -0.328125 -1.1875zm-0.140625 -3.671875q-0.890625 0.375 -2.671875 0.625q-1.015625 0.140625 -1.4375 0.328125q-0.421875 0.1875 -0.65625 0.53125q-0.21875 0.34375 -0.21875 0.78125q0 0.65625 0.5 1.09375q0.5 0.4375 1.453125 0.4375q0.9375 0 1.671875 -0.40625q0.75 -0.421875 1.09375 -1.140625q0.265625 -0.5625 0.265625 -1.640625l0 -0.609375zm4.1569824 4.859375l0 -13.359375l1.640625 0l0 13.359375l-1.640625 0zm4.144806 0l0 -13.359375l1.640625 0l0 13.359375l-1.640625 0zm10.816711 -3.109375l1.6875 0.203125q-0.40625 1.484375 -1.484375 2.3125q-1.078125 0.8125 -2.765625 0.8125q-2.125 0 -3.375 -1.296875q-1.234375 -1.3125 -1.234375 -3.671875q0 -2.453125 1.25 -3.796875q1.265625 -1.34375 3.265625 -1.34375q1.9375 0 3.15625 1.328125q1.234375 1.3125 1.234375 3.703125q0 0.15625 0 0.4375l-7.21875 0q0.09375 1.59375 0.90625 2.453125q0.8125 0.84375 2.015625 0.84375q0.90625 0 1.546875 -0.46875q0.640625 -0.484375 1.015625 -1.515625zm-5.390625 -2.65625l5.40625 0q-0.109375 -1.21875 -0.625 -1.828125q-0.78125 -0.953125 -2.03125 -0.953125q-1.125 0 -1.90625 0.765625q-0.765625 0.75 -0.84375 2.015625zm9.125702 5.765625l0 -9.671875l1.46875 0l0 1.46875q0.5625 -1.03125 1.03125 -1.359375q0.484375 -0.328125 1.0625 -0.328125q0.828125 0 1.6875 0.53125l-0.5625 1.515625q-0.609375 -0.359375 -1.203125 -0.359375q-0.546875 0 -0.96875 0.328125q-0.421875 0.328125 -0.609375 0.890625q-0.28125 0.875 -0.28125 1.921875l0 5.0625l-1.625 0z" fill-rule="nonzero"/><path fill="#000000" d="m427.78503 235.85672l0 -13.375l1.484375 0l0 1.25q0.53125 -0.734375 1.1875 -1.09375q0.671875 -0.375 1.625 -0.375q1.234375 0 2.171875 0.640625q0.953125 0.625 1.4375 1.796875q0.484375 1.15625 0.484375 2.546875q0 1.484375 -0.53125 2.671875q-0.53125 1.1875 -1.546875 1.828125q-1.015625 0.625 -2.140625 0.625q-0.8125 0 -1.46875 -0.34375q-0.65625 -0.34375 -1.0625 -0.875l0 4.703125l-1.640625 0zm1.484375 -8.484375q0 1.859375 0.75 2.765625q0.765625 0.890625 1.828125 0.890625q1.09375 0 1.875 -0.921875q0.78125 -0.9375 0.78125 -2.875q0 -1.84375 -0.765625 -2.765625q-0.75 -0.921875 -1.8125 -0.921875q-1.046875 0 -1.859375 0.984375q-0.796875 0.96875 -0.796875 2.84375zm8.875702 4.78125l0 -9.671875l1.46875 0l0 1.46875q0.5625 -1.03125 1.03125 -1.359375q0.484375 -0.328125 1.0625 -0.328125q0.828125 0 1.6875 0.53125l-0.5625 1.515625q-0.609375 -0.359375 -1.203125 -0.359375q-0.546875 0 -0.96875 0.328125q-0.421875 0.328125 -0.609375 0.890625q-0.28125 0.875 -0.28125 1.921875l0 5.0625l-1.625 0zm6.228302 -11.46875l0 -1.890625l1.640625 0l0 1.890625l-1.640625 0zm0 11.46875l0 -9.671875l1.640625 0l0 9.671875l-1.640625 0zm6.8323364 0l-3.6875 -9.671875l1.734375 0l2.078125 5.796875q0.328125 0.9375 0.625 1.9375q0.203125 -0.765625 0.609375 -1.828125l2.140625 -5.90625l1.6875 0l-3.65625 9.671875l-1.53125 0zm12.953125 -1.1875q-0.921875 0.765625 -1.765625 1.09375q-0.828125 0.3125 -1.796875 0.3125q-1.59375 0 -2.453125 -0.78125q-0.859375 -0.78125 -0.859375 -1.984375q0 -0.71875 0.328125 -1.296875q0.328125 -0.59375 0.84375 -0.9375q0.53125 -0.359375 1.1875 -0.546875q0.46875 -0.125 1.453125 -0.25q1.984375 -0.234375 2.921875 -0.5625q0.015625 -0.34375 0.015625 -0.421875q0 -1.0 -0.46875 -1.421875q-0.625 -0.546875 -1.875 -0.546875q-1.15625 0 -1.703125 0.40625q-0.546875 0.40625 -0.8125 1.421875l-1.609375 -0.21875q0.21875 -1.015625 0.71875 -1.640625q0.5 -0.640625 1.453125 -0.984375q0.953125 -0.34375 2.1875 -0.34375q1.25 0 2.015625 0.296875q0.78125 0.28125 1.140625 0.734375q0.375 0.4375 0.515625 1.109375q0.078125 0.421875 0.078125 1.515625l0 2.1875q0 2.28125 0.109375 2.890625q0.109375 0.59375 0.40625 1.15625l-1.703125 0q-0.265625 -0.515625 -0.328125 -1.1875zm-0.140625 -3.671875q-0.890625 0.375 -2.671875 0.625q-1.015625 0.140625 -1.4375 0.328125q-0.421875 0.1875 -0.65625 0.53125q-0.21875 0.34375 -0.21875 0.78125q0 0.65625 0.5 1.09375q0.5 0.4375 1.453125 0.4375q0.9375 0 1.671875 -0.40625q0.75 -0.421875 1.09375 -1.140625q0.265625 -0.5625 0.265625 -1.640625l0 -0.609375zm10.516327 1.3125l1.609375 0.21875q-0.265625 1.65625 -1.359375 2.609375q-1.078125 0.9375 -2.671875 0.9375q-1.984375 0 -3.1875 -1.296875q-1.203125 -1.296875 -1.203125 -3.71875q0 -1.578125 0.515625 -2.75q0.515625 -1.171875 1.578125 -1.75q1.0625 -0.59375 2.3125 -0.59375q1.578125 0 2.578125 0.796875q1.0 0.796875 1.28125 2.265625l-1.59375 0.234375q-0.234375 -0.96875 -0.8125 -1.453125q-0.578125 -0.5 -1.390625 -0.5q-1.234375 0 -2.015625 0.890625q-0.78125 0.890625 -0.78125 2.8125q0 1.953125 0.75 2.84375q0.75 0.875 1.953125 0.875q0.96875 0 1.609375 -0.59375q0.65625 -0.59375 0.828125 -1.828125zm2.9375 7.265625l-0.1875 -1.53125q0.546875 0.140625 0.9375 0.140625q0.546875 0 0.875 -0.1875q0.328125 -0.171875 0.546875 -0.5q0.15625 -0.25 0.5 -1.21875q0.046875 -0.140625 0.140625 -0.40625l-3.671875 -9.6875l1.765625 0l2.015625 5.59375q0.390625 1.078125 0.703125 2.25q0.28125 -1.125 0.671875 -2.203125l2.078125 -5.640625l1.640625 0l-3.6875 9.828125q-0.59375 1.609375 -0.921875 2.203125q-0.4375 0.8125 -1.0 1.1875q-0.5625 0.375 -1.34375 0.375q-0.484375 0 -1.0625 -0.203125zm20.90207 -7.265625l1.609375 0.21875q-0.265625 1.65625 -1.359375 2.609375q-1.078125 0.9375 -2.671875 0.9375q-1.984375 0 -3.1875 -1.296875q-1.203125 -1.296875 -1.203125 -3.71875q0 -1.578125 0.515625 -2.75q0.515625 -1.171875 1.578125 -1.75q1.0625 -0.59375 2.3125 -0.59375q1.578125 0 2.578125 0.796875q1.0 0.796875 1.28125 2.265625l-1.59375 0.234375q-0.234375 -0.96875 -0.8125 -1.453125q-0.578125 -0.5 -1.390625 -0.5q-1.234375 0 -2.015625 0.890625q-0.78125 0.890625 -0.78125 2.8125q0 1.953125 0.75 2.84375q0.75 0.875 1.953125 0.875q0.96875 0 1.609375 -0.59375q0.65625 -0.59375 0.828125 -1.828125zm2.40625 -1.296875q0 -2.6875 1.484375 -3.96875q1.25 -1.078125 3.046875 -1.078125q2.0 0 3.265625 1.3125q1.265625 1.296875 1.265625 3.609375q0 1.859375 -0.5625 2.9375q-0.5625 1.0625 -1.640625 1.65625q-1.0625 0.59375 -2.328125 0.59375q-2.03125 0 -3.28125 -1.296875q-1.25 -1.3125 -1.25 -3.765625zm1.6875 0q0 1.859375 0.796875 2.796875q0.8125 0.921875 2.046875 0.921875q1.21875 0 2.03125 -0.921875q0.8125 -0.9375 0.8125 -2.84375q0 -1.796875 -0.8125 -2.71875q-0.8125 -0.921875 -2.03125 -0.921875q-1.234375 0 -2.046875 0.921875q-0.796875 0.90625 -0.796875 2.765625zm8.641327 1.953125l1.6250305 -0.25q0.125 0.96875 0.75 1.5q0.625 0.515625 1.75 0.515625q1.125 0 1.671875 -0.453125q0.546875 -0.46875 0.546875 -1.09375q0 -0.546875 -0.484375 -0.875q-0.328125 -0.21875 -1.671875 -0.546875q-1.8125 -0.46875 -2.515625 -0.796875q-0.6875 -0.328125 -1.0469055 -0.90625q-0.359375 -0.59375 -0.359375 -1.3125q0 -0.640625 0.296875 -1.1875q0.296875 -0.5625 0.8125305 -0.921875q0.375 -0.28125 1.03125 -0.46875q0.671875 -0.203125 1.421875 -0.203125q1.140625 0 2.0 0.328125q0.859375 0.328125 1.265625 0.890625q0.421875 0.5625 0.578125 1.5l-1.609375 0.21875q-0.109375 -0.75 -0.640625 -1.171875q-0.515625 -0.421875 -1.46875 -0.421875q-1.140625 0 -1.625 0.375q-0.46875 0.375 -0.46875 0.875q0 0.3125 0.1875 0.578125q0.203125 0.265625 0.640625 0.4375q0.234375 0.09375 1.4375 0.421875q1.75 0.453125 2.4375 0.75q0.6875 0.296875 1.078125 0.859375q0.390625 0.5625 0.390625 1.40625q0 0.828125 -0.484375 1.546875q-0.46875 0.71875 -1.375 1.125q-0.90625 0.390625 -2.046875 0.390625q-1.875 0 -2.875 -0.78125q-0.9844055 -0.78125 -1.2500305 -2.328125zm13.5625305 1.421875l0.234375 1.453125q-0.6875 0.140625 -1.234375 0.140625q-0.890625 0 -1.390625 -0.28125q-0.484375 -0.28125 -0.6875 -0.734375q-0.203125 -0.46875 -0.203125 -1.9375l0 -5.578125l-1.203125 0l0 -1.265625l1.203125 0l0 -2.390625l1.625 -0.984375l0 3.375l1.65625 0l0 1.265625l-1.65625 0l0 5.671875q0 0.6875 0.078125 0.890625q0.09375 0.203125 0.28125 0.328125q0.203125 0.109375 0.578125 0.109375q0.265625 0 0.71875 -0.0625z" fill-rule="nonzero"/></g></svg>