<svg version="1.1" viewBox="0.0 0.0 283.86614173228344 233.8241469816273" fill="none" stroke="none" stroke-linecap="square" stroke-miterlimit="10" xmlns:xlink="http://www.w3.org/1999/xlink" xmlns="http://www.w3.org/2000/svg"><clipPath id="p.0"><path d="m0 0l283.86615 0l0 233.82414l-283.86615 0l0 -233.82414z" clip-rule="nonzero"/></clipPath><g clip-path="url(#p.0)"><path fill="#000000" fill-opacity="0.0" d="m0 0l283.86615 0l0 233.82414l-283.86615 0z" fill-rule="evenodd"/><path fill="#000000" fill-opacity="0.0" d="m187.5328 37.553806l66.267715 0l0 16.157478l-66.267715 0z" fill-rule="evenodd"/><path fill="#0000ff" d="m187.81406 42.703804l0.578125 -0.078125q0.109375 0.484375 0.34375 0.703125q0.25 0.21875 0.59375 0.21875q0.40625 0 0.6875 -0.28125q0.296875 -0.28125 0.296875 -0.703125q0 -0.40625 -0.265625 -0.671875q-0.265625 -0.265625 -0.671875 -0.265625q-0.15625 0 -0.40625 0.078125l0.0625 -0.515625q0.0625 0 0.09375 0q0.375 0 0.671875 -0.1875q0.296875 -0.203125 0.296875 -0.609375q0 -0.3125 -0.21875 -0.515625q-0.21875 -0.21875 -0.5625 -0.21875q-0.34375 0 -0.578125 0.21875q-0.21875 0.203125 -0.28125 0.640625l-0.578125 -0.109375q0.09375 -0.59375 0.46875 -0.90625q0.390625 -0.328125 0.953125 -0.328125q0.390625 0 0.71875 0.171875q0.328125 0.15625 0.5 0.453125q0.1875 0.28125 0.1875 0.609375q0 0.3125 -0.171875 0.5625q-0.171875 0.25 -0.484375 0.40625q0.421875 0.09375 0.65625 0.40625q0.234375 0.296875 0.234375 0.765625q0 0.625 -0.46875 1.0625q-0.453125 0.421875 -1.140625 0.421875q-0.625 0 -1.046875 -0.359375q-0.40625 -0.375 -0.46875 -0.96875zm5.7074585 1.25l0 -3.453125l0.53125 0l0 0.484375q0.15625 -0.25 0.421875 -0.40625q0.28125 -0.15625 0.625 -0.15625q0.375 0 0.625 0.15625q0.25 0.15625 0.34375 0.453125q0.40625 -0.609375 1.0625 -0.609375q0.515625 0 0.78125 0.296875q0.28125 0.28125 0.28125 0.859375l0 2.375l-0.578125 0l0 -2.171875q0 -0.359375 -0.0625 -0.5q-0.046875 -0.15625 -0.203125 -0.25q-0.140625 -0.09375 -0.34375 -0.09375q-0.359375 0 -0.609375 0.25q-0.234375 0.234375 -0.234375 0.765625l0 2.0l-0.59375 0l0 -2.25q0 -0.375 -0.140625 -0.5625q-0.140625 -0.203125 -0.46875 -0.203125q-0.25 0 -0.453125 0.125q-0.203125 0.125 -0.296875 0.375q-0.09375 0.25 -0.09375 0.71875l0 1.796875l-0.59375 0zm5.3259583 -1.71875q0 -0.96875 0.53125 -1.421875q0.453125 -0.390625 1.09375 -0.390625q0.703125 0 1.15625 0.46875q0.453125 0.46875 0.453125 1.28125q0 0.671875 -0.203125 1.0625q-0.1875 0.375 -0.578125 0.59375q-0.375 0.203125 -0.828125 0.203125q-0.734375 0 -1.1875 -0.453125q-0.4375 -0.46875 -0.4375 -1.34375zm0.609375 0q0 0.65625 0.28125 0.984375q0.296875 0.328125 0.734375 0.328125q0.4375 0 0.71875 -0.328125q0.296875 -0.328125 0.296875 -1.015625q0 -0.640625 -0.296875 -0.96875q-0.296875 -0.328125 -0.71875 -0.328125q-0.4375 0 -0.734375 0.328125q-0.28125 0.328125 -0.28125 1.0zm3.311264 1.71875l0 -3.453125l0.515625 0l0 0.53125q0.203125 -0.375 0.375 -0.484375q0.171875 -0.125 0.375 -0.125q0.296875 0 0.609375 0.1875l-0.203125 0.546875q-0.21875 -0.125 -0.4375 -0.125q-0.1875 0 -0.34375 0.125q-0.140625 0.109375 -0.21875 0.3125q-0.09375 0.3125 -0.09375 0.671875l0 1.8125l-0.578125 0zm4.5759583 -1.109375l0.609375 0.078125q-0.140625 0.53125 -0.53125 0.828125q-0.390625 0.28125 -0.984375 0.28125q-0.765625 0 -1.203125 -0.46875q-0.4375 -0.46875 -0.4375 -1.3125q0 -0.859375 0.4375 -1.34375q0.453125 -0.484375 1.171875 -0.484375q0.6875 0 1.125 0.46875q0.4375 0.46875 0.4375 1.328125q0 0.046875 0 0.15625l-2.578125 0q0.03125 0.578125 0.3125 0.875q0.296875 0.296875 0.734375 0.296875q0.328125 0 0.546875 -0.15625q0.234375 -0.171875 0.359375 -0.546875zm-1.921875 -0.953125l1.9375 0q-0.046875 -0.4375 -0.21875 -0.640625q-0.28125 -0.34375 -0.734375 -0.34375q-0.40625 0 -0.6875 0.265625q-0.265625 0.265625 -0.296875 0.71875zm6.0668335 2.0625l-1.3125 -3.453125l0.625 0l0.734375 2.0625q0.125 0.34375 0.234375 0.703125q0.0625 -0.28125 0.203125 -0.65625l0.78125 -2.109375l0.59375 0l-1.3125 3.453125l-0.546875 0zm2.15625 -1.71875q0 -0.96875 0.53125 -1.421875q0.453125 -0.390625 1.09375 -0.390625q0.703125 0 1.15625 0.46875q0.453125 0.46875 0.453125 1.28125q0 0.671875 -0.203125 1.0625q-0.1875 0.375 -0.578125 0.59375q-0.375 0.203125 -0.828125 0.203125q-0.734375 0 -1.1875 -0.453125q-0.4375 -0.46875 -0.4375 -1.34375zm0.609375 0q0 0.65625 0.28125 0.984375q0.296875 0.328125 0.734375 0.328125q0.4375 0 0.71875 -0.328125q0.296875 -0.328125 0.296875 -1.015625q0 -0.640625 -0.296875 -0.96875q-0.296875 -0.328125 -0.71875 -0.328125q-0.4375 0 -0.734375 0.328125q-0.28125 0.328125 -0.28125 1.0zm4.592514 1.203125l0.078125 0.515625q-0.25 0.046875 -0.4375 0.046875q-0.3125 0 -0.5 -0.09375q-0.171875 -0.109375 -0.25 -0.265625q-0.0625 -0.171875 -0.0625 -0.703125l0 -1.984375l-0.4375 0l0 -0.453125l0.4375 0l0 -0.859375l0.578125 -0.34375l0 1.203125l0.59375 0l0 0.453125l-0.59375 0l0 2.015625q0 0.25 0.03125 0.328125q0.03125 0.078125 0.09375 0.125q0.078125 0.03125 0.203125 0.03125q0.109375 0 0.265625 -0.015625zm2.9274445 -0.59375l0.609375 0.078125q-0.140625 0.53125 -0.53125 0.828125q-0.390625 0.28125 -0.984375 0.28125q-0.765625 0 -1.203125 -0.46875q-0.4375 -0.46875 -0.4375 -1.3125q0 -0.859375 0.4375 -1.34375q0.453125 -0.484375 1.171875 -0.484375q0.6875 0 1.125 0.46875q0.4375 0.46875 0.4375 1.328125q0 0.046875 0 0.15625l-2.578125 0q0.03125 0.578125 0.3125 0.875q0.296875 0.296875 0.734375 0.296875q0.328125 0 0.546875 -0.15625q0.234375 -0.171875 0.359375 -0.546875zm-1.921875 -0.953125l1.9375 0q-0.046875 -0.4375 -0.21875 -0.640625q-0.28125 -0.34375 -0.734375 -0.34375q-0.40625 0 -0.6875 0.265625q-0.265625 0.265625 -0.296875 0.71875zm3.030014 1.03125l0.578125 -0.09375q0.046875 0.34375 0.265625 0.53125q0.234375 0.1875 0.625 0.1875q0.40625 0 0.59375 -0.15625q0.203125 -0.171875 0.203125 -0.390625q0 -0.203125 -0.171875 -0.3125q-0.125 -0.078125 -0.59375 -0.203125q-0.640625 -0.15625 -0.890625 -0.265625q-0.25 -0.125 -0.390625 -0.328125q-0.125 -0.21875 -0.125 -0.46875q0 -0.234375 0.109375 -0.421875q0.109375 -0.203125 0.296875 -0.34375q0.125 -0.09375 0.359375 -0.15625q0.234375 -0.078125 0.515625 -0.078125q0.40625 0 0.703125 0.125q0.3125 0.109375 0.453125 0.3125q0.15625 0.203125 0.203125 0.53125l-0.5625 0.078125q-0.046875 -0.265625 -0.234375 -0.40625q-0.1875 -0.15625 -0.53125 -0.15625q-0.390625 0 -0.5625 0.140625q-0.171875 0.125 -0.171875 0.296875q0 0.125 0.0625 0.203125q0.078125 0.109375 0.21875 0.15625q0.09375 0.046875 0.53125 0.15625q0.609375 0.171875 0.859375 0.28125q0.25 0.09375 0.390625 0.296875q0.140625 0.203125 0.140625 0.5q0 0.296875 -0.171875 0.5625q-0.171875 0.25 -0.5 0.390625q-0.3125 0.140625 -0.71875 0.140625q-0.6875 0 -1.046875 -0.28125q-0.34375 -0.28125 -0.4375 -0.828125zm5.4118195 1.03125l0 -3.453125l0.53125 0l0 0.5q0.375 -0.578125 1.09375 -0.578125q0.3125 0 0.578125 0.109375q0.265625 0.109375 0.390625 0.296875q0.125 0.1875 0.1875 0.4375q0.03125 0.15625 0.03125 0.5625l0 2.125l-0.59375 0l0 -2.09375q0 -0.359375 -0.078125 -0.53125q-0.0625 -0.1875 -0.234375 -0.28125q-0.171875 -0.109375 -0.40625 -0.109375q-0.375 0 -0.640625 0.234375q-0.265625 0.234375 -0.265625 0.890625l0 1.890625l-0.59375 0zm6.061264 -1.109375l0.609375 0.078125q-0.140625 0.53125 -0.53125 0.828125q-0.390625 0.28125 -0.984375 0.28125q-0.765625 0 -1.203125 -0.46875q-0.4375 -0.46875 -0.4375 -1.3125q0 -0.859375 0.4375 -1.34375q0.453125 -0.484375 1.171875 -0.484375q0.6875 0 1.125 0.46875q0.4375 0.46875 0.4375 1.328125q0 0.046875 0 0.15625l-2.578125 0q0.03125 0.578125 0.3125 0.875q0.296875 0.296875 0.734375 0.296875q0.328125 0 0.546875 -0.15625q0.234375 -0.171875 0.359375 -0.546875zm-1.921875 -0.953125l1.9375 0q-0.046875 -0.4375 -0.21875 -0.640625q-0.28125 -0.34375 -0.734375 -0.34375q-0.40625 0 -0.6875 0.265625q-0.265625 0.265625 -0.296875 0.71875zm5.623764 0.953125l0.609375 0.078125q-0.140625 0.53125 -0.53125 0.828125q-0.390625 0.28125 -0.984375 0.28125q-0.765625 0 -1.203125 -0.46875q-0.4375 -0.46875 -0.4375 -1.3125q0 -0.859375 0.4375 -1.34375q0.453125 -0.484375 1.171875 -0.484375q0.6875 0 1.125 0.46875q0.4375 0.46875 0.4375 1.328125q0 0.046875 0 0.15625l-2.578125 0q0.03125 0.578125 0.3125 0.875q0.296875 0.296875 0.734375 0.296875q0.328125 0 0.546875 -0.15625q0.234375 -0.171875 0.359375 -0.546875zm-1.921875 -0.953125l1.9375 0q-0.046875 -0.4375 -0.21875 -0.640625q-0.28125 -0.34375 -0.734375 -0.34375q-0.40625 0 -0.6875 0.265625q-0.265625 0.265625 -0.296875 0.71875zm5.498764 2.0625l0 -0.4375q-0.328125 0.515625 -0.953125 0.515625q-0.421875 0 -0.765625 -0.21875q-0.34375 -0.234375 -0.53125 -0.640625q-0.1875 -0.40625 -0.1875 -0.9375q0 -0.515625 0.171875 -0.9375q0.171875 -0.421875 0.515625 -0.640625q0.34375 -0.234375 0.765625 -0.234375q0.3125 0 0.546875 0.140625q0.25 0.125 0.40625 0.328125l0 -1.703125l0.578125 0l0 4.765625l-0.546875 0zm-1.84375 -1.71875q0 0.65625 0.28125 0.984375q0.28125 0.328125 0.65625 0.328125q0.390625 0 0.65625 -0.3125q0.265625 -0.3125 0.265625 -0.953125q0 -0.703125 -0.28125 -1.03125q-0.265625 -0.34375 -0.671875 -0.34375q-0.375 0 -0.640625 0.328125q-0.265625 0.3125 -0.265625 1.0zm5.670639 0.609375l0.609375 0.078125q-0.140625 0.53125 -0.53125 0.828125q-0.390625 0.28125 -0.984375 0.28125q-0.765625 0 -1.203125 -0.46875q-0.4375 -0.46875 -0.4375 -1.3125q0 -0.859375 0.4375 -1.34375q0.453125 -0.484375 1.171875 -0.484375q0.6875 0 1.125 0.46875q0.4375 0.46875 0.4375 1.328125q0 0.046875 0 0.15625l-2.578125 0q0.03125 0.578125 0.3125 0.875q0.296875 0.296875 0.734375 0.296875q0.328125 0 0.546875 -0.15625q0.234375 -0.171875 0.359375 -0.546875zm-1.921875 -0.953125l1.9375 0q-0.046875 -0.4375 -0.21875 -0.640625q-0.28125 -0.34375 -0.734375 -0.34375q-0.40625 0 -0.6875 0.265625q-0.265625 0.265625 -0.296875 0.71875zm5.498764 2.0625l0 -0.4375q-0.328125 0.515625 -0.953125 0.515625q-0.421875 0 -0.765625 -0.21875q-0.34375 -0.234375 -0.53125 -0.640625q-0.1875 -0.40625 -0.1875 -0.9375q0 -0.515625 0.171875 -0.9375q0.171875 -0.421875 0.515625 -0.640625q0.34375 -0.234375 0.765625 -0.234375q0.3125 0 0.546875 0.140625q0.25 0.125 0.40625 0.328125l0 -1.703125l0.578125 0l0 4.765625l-0.546875 0zm-1.84375 -1.71875q0 0.65625 0.28125 0.984375q0.28125 0.328125 0.65625 0.328125q0.390625 0 0.65625 -0.3125q0.265625 -0.3125 0.265625 -0.953125q0 -0.703125 -0.28125 -1.03125q-0.265625 -0.34375 -0.671875 -0.34375q-0.375 0 -0.640625 0.328125q-0.265625 0.3125 -0.265625 1.0z" fill-rule="nonzero"/><path fill="#0000ff" d="m189.25156 51.43818l0.078125 0.515625q-0.25 0.046875 -0.4375 0.046875q-0.3125 0 -0.5 -0.09375q-0.171875 -0.109375 -0.25 -0.265625q-0.0625 -0.171875 -0.0625 -0.703125l0 -1.984375l-0.4375 0l0 -0.453125l0.4375 0l0 -0.859375l0.578125 -0.34375l0 1.203125l0.59375 0l0 0.453125l-0.59375 0l0 2.015625q0 0.25 0.03125 0.328125q0.03125 0.078125 0.09375 0.125q0.078125 0.03125 0.203125 0.03125q0.109375 0 0.265625 -0.015625zm0.34931946 -1.203125q0 -0.96875 0.53125 -1.421875q0.453125 -0.390625 1.09375 -0.390625q0.703125 0 1.15625 0.46875q0.453125 0.46875 0.453125 1.28125q0 0.671875 -0.203125 1.0625q-0.1875 0.375 -0.578125 0.59375q-0.375 0.203125 -0.828125 0.203125q-0.734375 0 -1.1875 -0.453125q-0.4375 -0.46875 -0.4375 -1.34375zm0.609375 0q0 0.65625 0.28125 0.984375q0.296875 0.328125 0.734375 0.328125q0.4375 0 0.71875 -0.328125q0.296875 -0.328125 0.296875 -1.015625q0 -0.640625 -0.296875 -0.96875q-0.296875 -0.328125 -0.71875 -0.328125q-0.4375 0 -0.734375 0.328125q-0.28125 0.328125 -0.28125 1.0zm5.1605835 1.71875l0 -3.453125l0.515625 0l0 0.53125q0.203125 -0.375 0.375 -0.484375q0.171875 -0.125 0.375 -0.125q0.296875 0 0.609375 0.1875l-0.203125 0.546875q-0.21875 -0.125 -0.4375 -0.125q-0.1875 0 -0.34375 0.125q-0.140625 0.109375 -0.21875 0.3125q-0.09375 0.3125 -0.09375 0.671875l0 1.8125l-0.578125 0zm4.5759583 -1.109375l0.609375 0.078125q-0.140625 0.53125 -0.53125 0.828125q-0.390625 0.28125 -0.984375 0.28125q-0.765625 0 -1.203125 -0.46875q-0.4375 -0.46875 -0.4375 -1.3125q0 -0.859375 0.4375 -1.34375q0.453125 -0.484375 1.171875 -0.484375q0.6875 0 1.125 0.46875q0.4375 0.46875 0.4375 1.328125q0 0.046875 0 0.15625l-2.578125 0q0.03125 0.578125 0.3125 0.875q0.296875 0.296875 0.734375 0.296875q0.328125 0 0.546875 -0.15625q0.234375 -0.171875 0.359375 -0.546875zm-1.921875 -0.953125l1.9375 0q-0.046875 -0.4375 -0.21875 -0.640625q-0.28125 -0.34375 -0.734375 -0.34375q-0.40625 0 -0.6875 0.265625q-0.265625 0.265625 -0.296875 0.71875zm5.514389 1.640625q-0.328125 0.265625 -0.625 0.390625q-0.296875 0.109375 -0.640625 0.109375q-0.578125 0 -0.890625 -0.28125q-0.296875 -0.28125 -0.296875 -0.703125q0 -0.25 0.109375 -0.453125q0.125 -0.21875 0.3125 -0.34375q0.1875 -0.140625 0.421875 -0.203125q0.171875 -0.046875 0.515625 -0.078125q0.71875 -0.09375 1.046875 -0.203125q0 -0.125 0 -0.15625q0 -0.359375 -0.15625 -0.5q-0.234375 -0.203125 -0.671875 -0.203125q-0.40625 0 -0.609375 0.15625q-0.203125 0.140625 -0.296875 0.5l-0.5625 -0.078125q0.078125 -0.359375 0.25 -0.578125q0.1875 -0.234375 0.515625 -0.359375q0.34375 -0.125 0.78125 -0.125q0.453125 0 0.71875 0.109375q0.28125 0.09375 0.40625 0.265625q0.140625 0.15625 0.1875 0.390625q0.03125 0.15625 0.03125 0.546875l0 0.765625q0 0.828125 0.03125 1.046875q0.046875 0.203125 0.15625 0.40625l-0.609375 0q-0.09375 -0.1875 -0.125 -0.421875zm-0.046875 -1.3125q-0.3125 0.125 -0.953125 0.21875q-0.359375 0.0625 -0.515625 0.125q-0.140625 0.0625 -0.234375 0.1875q-0.078125 0.125 -0.078125 0.28125q0 0.234375 0.171875 0.390625q0.1875 0.15625 0.53125 0.15625q0.328125 0 0.59375 -0.140625q0.265625 -0.15625 0.390625 -0.421875q0.09375 -0.1875 0.09375 -0.578125l0 -0.21875zm3.748764 0.46875l0.578125 0.078125q-0.09375 0.59375 -0.484375 0.9375q-0.390625 0.328125 -0.953125 0.328125q-0.703125 0 -1.140625 -0.453125q-0.421875 -0.46875 -0.421875 -1.34375q0 -0.546875 0.171875 -0.96875q0.1875 -0.421875 0.5625 -0.625q0.390625 -0.21875 0.828125 -0.21875q0.5625 0 0.921875 0.296875q0.359375 0.28125 0.46875 0.796875l-0.578125 0.09375q-0.078125 -0.359375 -0.296875 -0.53125q-0.203125 -0.171875 -0.484375 -0.171875q-0.453125 0 -0.734375 0.3125q-0.265625 0.3125 -0.265625 1.0q0 0.703125 0.265625 1.015625q0.265625 0.3125 0.703125 0.3125q0.34375 0 0.5625 -0.203125q0.234375 -0.21875 0.296875 -0.65625zm1.078125 1.265625l0 -4.765625l0.59375 0l0 1.703125q0.40625 -0.46875 1.03125 -0.46875q0.375 0 0.65625 0.15625q0.28125 0.140625 0.40625 0.421875q0.125 0.265625 0.125 0.765625l0 2.1875l-0.578125 0l0 -2.1875q0 -0.4375 -0.203125 -0.640625q-0.1875 -0.203125 -0.53125 -0.203125q-0.265625 0 -0.5 0.140625q-0.21875 0.140625 -0.3125 0.375q-0.09375 0.21875 -0.09375 0.625l0 1.890625l-0.59375 0zm6.8324585 -0.515625l0.078125 0.515625q-0.25 0.046875 -0.4375 0.046875q-0.3125 0 -0.5 -0.09375q-0.171875 -0.109375 -0.25 -0.265625q-0.0625 -0.171875 -0.0625 -0.703125l0 -1.984375l-0.4375 0l0 -0.453125l0.4375 0l0 -0.859375l0.578125 -0.34375l0 1.203125l0.59375 0l0 0.453125l-0.59375 0l0 2.015625q0 0.25 0.03125 0.328125q0.03125 0.078125 0.09375 0.125q0.078125 0.03125 0.203125 0.03125q0.109375 0 0.265625 -0.015625zm0.56806946 0.515625l0 -4.765625l0.59375 0l0 1.703125q0.40625 -0.46875 1.03125 -0.46875q0.375 0 0.65625 0.15625q0.28125 0.140625 0.40625 0.421875q0.125 0.265625 0.125 0.765625l0 2.1875l-0.578125 0l0 -2.1875q0 -0.4375 -0.203125 -0.640625q-0.1875 -0.203125 -0.53125 -0.203125q-0.265625 0 -0.5 0.140625q-0.21875 0.140625 -0.3125 0.375q-0.09375 0.21875 -0.09375 0.625l0 1.890625l-0.59375 0zm6.061264 -1.109375l0.609375 0.078125q-0.140625 0.53125 -0.53125 0.828125q-0.390625 0.28125 -0.984375 0.28125q-0.765625 0 -1.203125 -0.46875q-0.4375 -0.46875 -0.4375 -1.3125q0 -0.859375 0.4375 -1.34375q0.453125 -0.484375 1.171875 -0.484375q0.6875 0 1.125 0.46875q0.4375 0.46875 0.4375 1.328125q0 0.046875 0 0.15625l-2.578125 0q0.03125 0.578125 0.3125 0.875q0.296875 0.296875 0.734375 0.296875q0.328125 0 0.546875 -0.15625q0.234375 -0.171875 0.359375 -0.546875zm-1.921875 -0.953125l1.9375 0q-0.046875 -0.4375 -0.21875 -0.640625q-0.28125 -0.34375 -0.734375 -0.34375q-0.40625 0 -0.6875 0.265625q-0.265625 0.265625 -0.296875 0.71875zm5.7543335 2.0625l-1.0625 -3.453125l0.609375 0l0.546875 2.0l0.203125 0.734375q0.015625 -0.0625 0.1875 -0.71875l0.546875 -2.015625l0.59375 0l0.515625 2.0l0.171875 0.65625l0.203125 -0.65625l0.59375 -2.0l0.5625 0l-1.078125 3.453125l-0.609375 0l-0.546875 -2.0625l-0.125 -0.59375l-0.703125 2.65625l-0.609375 0zm4.1663055 -4.09375l0 -0.671875l0.59375 0l0 0.671875l-0.59375 0zm0 4.09375l0 -3.453125l0.59375 0l0 3.453125l-0.59375 0zm1.4788055 0l0 -3.453125l0.53125 0l0 0.5q0.375 -0.578125 1.09375 -0.578125q0.3125 0 0.578125 0.109375q0.265625 0.109375 0.390625 0.296875q0.125 0.1875 0.1875 0.4375q0.03125 0.15625 0.03125 0.5625l0 2.125l-0.59375 0l0 -2.09375q0 -0.359375 -0.078125 -0.53125q-0.0625 -0.1875 -0.234375 -0.28125q-0.171875 -0.109375 -0.40625 -0.109375q-0.375 0 -0.640625 0.234375q-0.265625 0.234375 -0.265625 0.890625l0 1.890625l-0.59375 0zm3.701889 0l0 -3.453125l0.53125 0l0 0.5q0.375 -0.578125 1.09375 -0.578125q0.3125 0 0.578125 0.109375q0.265625 0.109375 0.390625 0.296875q0.125 0.1875 0.1875 0.4375q0.03125 0.15625 0.03125 0.5625l0 2.125l-0.59375 0l0 -2.09375q0 -0.359375 -0.078125 -0.53125q-0.0625 -0.1875 -0.234375 -0.28125q-0.171875 -0.109375 -0.40625 -0.109375q-0.375 0 -0.640625 0.234375q-0.265625 0.234375 -0.265625 0.890625l0 1.890625l-0.59375 0zm6.061264 -1.109375l0.609375 0.078125q-0.140625 0.53125 -0.53125 0.828125q-0.390625 0.28125 -0.984375 0.28125q-0.765625 0 -1.203125 -0.46875q-0.4375 -0.46875 -0.4375 -1.3125q0 -0.859375 0.4375 -1.34375q0.453125 -0.484375 1.171875 -0.484375q0.6875 0 1.125 0.46875q0.4375 0.46875 0.4375 1.328125q0 0.046875 0 0.15625l-2.578125 0q0.03125 0.578125 0.3125 0.875q0.296875 0.296875 0.734375 0.296875q0.328125 0 0.546875 -0.15625q0.234375 -0.171875 0.359375 -0.546875zm-1.921875 -0.953125l1.9375 0q-0.046875 -0.4375 -0.21875 -0.640625q-0.28125 -0.34375 -0.734375 -0.34375q-0.40625 0 -0.6875 0.265625q-0.265625 0.265625 -0.296875 0.71875zm3.264389 2.0625l0 -3.453125l0.515625 0l0 0.53125q0.203125 -0.375 0.375 -0.484375q0.171875 -0.125 0.375 -0.125q0.296875 0 0.609375 0.1875l-0.203125 0.546875q-0.21875 -0.125 -0.4375 -0.125q-0.1875 0 -0.34375 0.125q-0.140625 0.109375 -0.21875 0.3125q-0.09375 0.3125 -0.09375 0.671875l0 1.8125l-0.578125 0z" fill-rule="nonzero"/><path fill="#000000" fill-opacity="0.0" d="m33.87664 168.29396l0 -165.07086" fill-rule="evenodd"/><path stroke="#000000" stroke-width="1.0" stroke-linejoin="round" stroke-linecap="butt" d="m33.87664 168.29396l0 -159.07086" fill-rule="evenodd"/><path fill="#000000" stroke="#000000" stroke-width="1.0" stroke-linecap="butt" d="m35.528374 9.223097l-1.6517334 -4.5380974l-1.6517334 4.5380974z" fill-rule="evenodd"/><path fill="#000000" fill-opacity="0.0" d="m33.87664 168.30971l216.81891 0" fill-rule="evenodd"/><path stroke="#000000" stroke-width="1.0" stroke-linejoin="round" stroke-linecap="butt" d="m33.87664 168.30971l216.81891 0" fill-rule="evenodd"/><path fill="#000000" fill-opacity="0.0" d="m5.8320208 129.0971l0 -65.92125l9.700788 0l0 65.92125z" fill-rule="evenodd"/><path fill="#000000" d="m13.512021 124.87281l-5.7343755 0l0 -0.78125l4.5000005 -3.0l-4.5000005 0l0 -0.734375l5.7343755 0l0 0.78125l-4.5 3.0l4.5 0l0 0.734375zm0 -8.417969l-0.609375 0q0.703125 0.484375 0.703125 1.3125q0 0.375 -0.140625 0.703125q-0.140625 0.3125 -0.34375 0.46875q-0.21875 0.140625 -0.53125 0.203125q-0.203125 0.046875 -0.65625 0.046875l-2.578125 0l0 -0.703125l2.3125 0q0.546875 0 0.734375 -0.046875q0.28125 -0.0625 0.4375 -0.265625q0.15625 -0.21875 0.15625 -0.546875q0 -0.3125 -0.15625 -0.578125q-0.171875 -0.28125 -0.4375 -0.390625q-0.28125 -0.125 -0.8125 -0.125l-2.234375 0l0 -0.703125l4.15625 0l0 0.625zm0 -1.7304688l-4.15625 0l0 -0.625l0.59375 0q-0.3125 -0.203125 -0.5 -0.515625q-0.1875 -0.328125 -0.1875 -0.75q0 -0.453125 0.203125 -0.75q0.1875 -0.296875 0.53125 -0.421875q-0.734375 -0.484375 -0.734375 -1.28125q0 -0.609375 0.34375 -0.9375q0.34375 -0.34375 1.0625 -0.34375l2.84375 0l0 0.703125l-2.609375 0q-0.421875 0 -0.609375 0.078125q-0.1875 0.0625 -0.296875 0.25q-0.125 0.171875 -0.125 0.40625q0 0.4375 0.296875 0.734375q0.296875 0.28125 0.9375 0.28125l2.40625 0l0 0.703125l-2.703125 0q-0.46875 0 -0.703125 0.171875q-0.234375 0.171875 -0.234375 0.5625q0 0.296875 0.15625 0.5625q0.15625 0.25 0.46875 0.359375q0.296875 0.109375 0.859375 0.109375l2.15625 0l0 0.703125zm0 -7.3046875l0 0.640625l-5.7343755 0l0 -0.703125l2.0468755 0q-0.5625 -0.4375 -0.5625 -1.125q0 -0.390625 0.15625 -0.734375q0.15625 -0.34375 0.4375 -0.5625q0.28125 -0.21875 0.671875 -0.34375q0.390625 -0.125 0.84375 -0.125q1.0625 0 1.65625 0.53125q0.578125 0.53125 0.578125 1.265625q0 0.734375 -0.609375 1.15625l0.515625 0zm-2.109375 0q0.75 0 1.078125 -0.203125q0.546875 -0.328125 0.546875 -0.890625q0 -0.46875 -0.390625 -0.796875q-0.40625 -0.34375 -1.203125 -0.34375q-0.8125 0 -1.203125 0.328125q-0.390625 0.3125 -0.390625 0.78125q0 0.453125 0.40625 0.796875q0.40625 0.328125 1.15625 0.328125zm0.765625 -6.6523438l0.09375 -0.71875q0.640625 0.171875 1.0 0.640625q0.34375 0.453125 0.34375 1.1875q0 0.90625 -0.5625 1.4375q-0.5625 0.53125 -1.578125 0.53125q-1.046875 0 -1.625 -0.53125q-0.578125 -0.546875 -0.578125 -1.40625q0 -0.828125 0.578125 -1.359375q0.5625 -0.53125 1.59375 -0.53125q0.0625 0 0.1875 0.015625l0 3.09375q0.671875 -0.046875 1.046875 -0.390625q0.359375 -0.34375 0.359375 -0.875q0 -0.375 -0.203125 -0.640625q-0.203125 -0.28125 -0.65625 -0.453125zm-1.125 2.3125l0 -2.3125q-0.53125 0.046875 -0.796875 0.265625q-0.40625 0.328125 -0.40625 0.875q0 0.484375 0.328125 0.8125q0.328125 0.328125 0.875 0.359375zm2.46875 -3.9023438l-4.15625 0l0 -0.640625l0.640625 0q-0.453125 -0.234375 -0.59375 -0.4375q-0.140625 -0.21875 -0.140625 -0.453125q0 -0.359375 0.234375 -0.734375l0.65625 0.25q-0.15625 0.25 -0.15625 0.515625q0 0.234375 0.140625 0.421875q0.140625 0.171875 0.375 0.25q0.375 0.125 0.828125 0.125l2.171875 0l0 0.703125zm-2.078125 -4.6367188q-1.15625 0 -1.703125 -0.640625q-0.46875 -0.53125 -0.46875 -1.3125q0 -0.84375 0.5625 -1.390625q0.5625 -0.546875 1.546875 -0.546875q0.8125 0 1.265625 0.25q0.453125 0.234375 0.71875 0.703125q0.25 0.453125 0.25 0.984375q0 0.875 -0.5625 1.421875q-0.5625 0.53125 -1.609375 0.53125zm0 -0.71875q0.796875 0 1.203125 -0.34375q0.390625 -0.359375 0.390625 -0.890625q0 -0.515625 -0.390625 -0.859375q-0.40625 -0.359375 -1.21875 -0.359375q-0.78125 0 -1.171875 0.359375q-0.390625 0.34375 -0.390625 0.859375q0 0.53125 0.390625 0.890625q0.390625 0.34375 1.1875 0.34375zm2.078125 -4.1679688l-3.609375 0l0 0.625l-0.546875 0l0 -0.625l-0.4375 0q-0.421875 0 -0.625 -0.0625q-0.265625 -0.109375 -0.43750048 -0.359375q-0.171875 -0.265625 -0.171875 -0.71875q0 -0.296875 0.078125 -0.65625l0.6093755 0.109375q-0.046875 0.21875 -0.046875 0.40625q0 0.328125 0.140625 0.46875q0.140625 0.125 0.515625 0.125l0.375 0l0 -0.8125l0.546875 0l0 0.8125l3.609375 0l0 0.6875zm0 -5.4296875l-4.15625 1.578125l0 -0.734375l2.484375 -0.890625q0.40625 -0.140625 0.84375 -0.265625q-0.328125 -0.09375 -0.796875 -0.265625l-2.53125 -0.921875l0 -0.71875l4.15625 1.5625l0 0.65625zm-2.078125 -2.578125q-1.15625 0 -1.703125 -0.640625q-0.46875 -0.53125 -0.46875 -1.3125q0 -0.84375 0.5625 -1.390625q0.5625 -0.546875 1.546875 -0.546875q0.8125 0 1.265625 0.25q0.453125 0.234375 0.71875 0.703125q0.25 0.453125 0.25 0.984375q0 0.875 -0.5625 1.421875q-0.5625 0.53125 -1.609375 0.53125zm0 -0.71875q0.796875 0 1.203125 -0.34375q0.390625 -0.359375 0.390625 -0.890625q0 -0.515625 -0.390625 -0.859375q-0.40625 -0.359375 -1.21875 -0.359375q-0.78125 0 -1.171875 0.359375q-0.390625 0.34375 -0.390625 0.859375q0 0.53125 0.390625 0.890625q0.390625 0.34375 1.1875 0.34375zm1.453125 -5.5273438l0.609375 -0.109375q0.078125 0.296875 0.078125 0.53125q0 0.390625 -0.125 0.609375q-0.125 0.203125 -0.3125 0.296875q-0.203125 0.078125 -0.84375 0.078125l-2.390625 0l0 0.515625l-0.546875 0l0 -0.515625l-1.015625 0l-0.42187548 -0.703125l1.4375005 0l0 -0.703125l0.546875 0l0 0.703125l2.4375 0q0.296875 0 0.390625 -0.03125q0.078125 -0.046875 0.125 -0.125q0.046875 -0.078125 0.046875 -0.234375q0 -0.125 -0.015625 -0.3125zm-0.71875 -3.5351562l0.09375 -0.71875q0.640625 0.171875 1.0 0.640625q0.34375 0.453125 0.34375 1.1875q0 0.90625 -0.5625 1.4375q-0.5625 0.53125 -1.578125 0.53125q-1.046875 0 -1.625 -0.53125q-0.578125 -0.546875 -0.578125 -1.40625q0 -0.828125 0.578125 -1.359375q0.5625 -0.53125 1.59375 -0.53125q0.0625 0 0.1875 0.015625l0 3.09375q0.671875 -0.046875 1.046875 -0.390625q0.359375 -0.34375 0.359375 -0.875q0 -0.375 -0.203125 -0.640625q-0.203125 -0.28125 -0.65625 -0.453125zm-1.125 2.3125l0 -2.3125q-0.53125 0.046875 -0.796875 0.265625q-0.40625 0.328125 -0.40625 0.875q0 0.484375 0.328125 0.8125q0.328125 0.328125 0.875 0.359375zm1.234375 -3.6367188l-0.109375 -0.6875q0.40625 -0.0625 0.640625 -0.328125q0.21875 -0.265625 0.21875 -0.75q0 -0.484375 -0.1875 -0.71875q-0.203125 -0.234375 -0.46875 -0.234375q-0.25 0 -0.375 0.203125q-0.09375 0.140625 -0.25 0.71875q-0.1875 0.78125 -0.328125 1.078125q-0.140625 0.296875 -0.390625 0.453125q-0.265625 0.15625 -0.5625 0.15625q-0.28125 0 -0.515625 -0.125q-0.234375 -0.140625 -0.390625 -0.359375q-0.125 -0.15625 -0.203125 -0.4375q-0.09375 -0.28125 -0.09375 -0.609375q0 -0.484375 0.140625 -0.859375q0.140625 -0.375 0.390625 -0.546875q0.234375 -0.171875 0.640625 -0.234375l0.09375 0.6875q-0.328125 0.046875 -0.5 0.265625q-0.1875 0.21875 -0.1875 0.640625q0 0.484375 0.171875 0.6875q0.15625 0.203125 0.375 0.203125q0.125 0 0.234375 -0.078125q0.125 -0.09375 0.1875 -0.28125q0.046875 -0.09375 0.1875 -0.609375q0.203125 -0.75 0.328125 -1.046875q0.125 -0.296875 0.375 -0.453125q0.234375 -0.171875 0.59375 -0.171875q0.34375 0 0.65625 0.203125q0.3125 0.203125 0.484375 0.59375q0.171875 0.375 0.171875 0.875q0 0.796875 -0.328125 1.234375q-0.34375 0.421875 -1.0 0.53125z" fill-rule="nonzero"/><path fill="#000000" fill-opacity="0.0" d="m29.010498 168.30183l9.732285 0" fill-rule="evenodd"/><path stroke="#000000" stroke-width="1.0" stroke-linejoin="round" stroke-linecap="butt" d="m29.010498 168.30183l9.732285 0" fill-rule="evenodd"/><path fill="#000000" fill-opacity="0.0" d="m29.010498 153.86876l9.732285 0" fill-rule="evenodd"/><path stroke="#000000" stroke-width="1.0" stroke-linejoin="round" stroke-linecap="butt" d="m29.010498 153.86876l9.732285 0" fill-rule="evenodd"/><path fill="#000000" fill-opacity="0.0" d="m29.010498 139.4357l9.732285 0" fill-rule="evenodd"/><path stroke="#000000" stroke-width="1.0" stroke-linejoin="round" stroke-linecap="butt" d="m29.010498 139.4357l9.732285 0" fill-rule="evenodd"/><path fill="#000000" fill-opacity="0.0" d="m29.010498 125.002625l9.732285 0" fill-rule="evenodd"/><path stroke="#000000" stroke-width="1.0" stroke-linejoin="round" stroke-linecap="butt" d="m29.010498 125.002625l9.732285 0" fill-rule="evenodd"/><path fill="#000000" fill-opacity="0.0" d="m29.010498 110.56956l9.732285 0" fill-rule="evenodd"/><path stroke="#000000" stroke-width="1.0" stroke-linejoin="round" stroke-linecap="butt" d="m29.010498 110.56956l9.732285 0" fill-rule="evenodd"/><path fill="#000000" fill-opacity="0.0" d="m29.010498 96.13648l9.732285 0" fill-rule="evenodd"/><path stroke="#000000" stroke-width="1.0" stroke-linejoin="round" stroke-linecap="butt" d="m29.010498 96.13648l9.732285 0" fill-rule="evenodd"/><path fill="#000000" fill-opacity="0.0" d="m29.010498 81.703415l9.732285 0" fill-rule="evenodd"/><path stroke="#000000" stroke-width="1.0" stroke-linejoin="round" stroke-linecap="butt" d="m29.010498 81.703415l9.732285 0" fill-rule="evenodd"/><path fill="#000000" fill-opacity="0.0" d="m29.010498 67.27034l9.732285 0" fill-rule="evenodd"/><path stroke="#000000" stroke-width="1.0" stroke-linejoin="round" stroke-linecap="butt" d="m29.010498 67.27034l9.732285 0" fill-rule="evenodd"/><path fill="#000000" fill-opacity="0.0" d="m29.010498 52.83727l9.732285 0" fill-rule="evenodd"/><path stroke="#000000" stroke-width="1.0" stroke-linejoin="round" stroke-linecap="butt" d="m29.010498 52.83727l9.732285 0" fill-rule="evenodd"/><path fill="#000000" fill-opacity="0.0" d="m29.010498 38.404198l9.732285 0" fill-rule="evenodd"/><path stroke="#000000" stroke-width="1.0" stroke-linejoin="round" stroke-linecap="butt" d="m29.010498 38.404198l9.732285 0" fill-rule="evenodd"/><path fill="#000000" fill-opacity="0.0" d="m29.010498 23.971128l9.732285 0" fill-rule="evenodd"/><path stroke="#000000" stroke-width="1.0" stroke-linejoin="round" stroke-linecap="butt" d="m29.010498 23.971128l9.732285 0" fill-rule="evenodd"/><path fill="#c9daf8" d="m66.73491 23.979002l11.90551 0l0 144.31496l-11.90551 0z" fill-rule="evenodd"/><path stroke="#000000" stroke-width="1.0" stroke-linejoin="round" stroke-linecap="butt" d="m66.73491 23.979002l11.90551 0l0 144.31496l-11.90551 0z" fill-rule="evenodd"/><path fill="#000000" fill-opacity="0.0" d="m0 19.923885l47.086613 0l0 8.094488l-47.086613 0z" fill-rule="evenodd"/><path fill="#000000" d="m20.122667 25.073885l0.609375 -0.046875q0.0625 0.453125 0.3125 0.671875q0.25 0.21875 0.609375 0.21875q0.421875 0 0.703125 -0.3125q0.296875 -0.3125 0.296875 -0.84375q0 -0.5 -0.28125 -0.78125q-0.28125 -0.296875 -0.734375 -0.296875q-0.28125 0 -0.515625 0.125q-0.21875 0.125 -0.359375 0.328125l-0.546875 -0.0625l0.46875 -2.453125l2.375 0l0 0.5625l-1.90625 0l-0.265625 1.28125q0.4375 -0.296875 0.90625 -0.296875q0.625 0 1.046875 0.4375q0.4375 0.421875 0.4375 1.109375q0 0.640625 -0.375 1.109375q-0.46875 0.578125 -1.25 0.578125q-0.65625 0 -1.078125 -0.359375q-0.40625 -0.359375 -0.453125 -0.96875zm3.701889 -1.09375q0 -0.84375 0.171875 -1.359375q0.171875 -0.515625 0.515625 -0.796875q0.34375 -0.28125 0.859375 -0.28125q0.390625 0 0.671875 0.15625q0.296875 0.15625 0.484375 0.453125q0.1875 0.28125 0.296875 0.703125q0.109375 0.40625 0.109375 1.125q0 0.828125 -0.1875 1.34375q-0.171875 0.515625 -0.515625 0.796875q-0.328125 0.28125 -0.859375 0.28125q-0.6875 0 -1.078125 -0.484375q-0.46875 -0.59375 -0.46875 -1.9375zm0.59375 0q0 1.171875 0.265625 1.5625q0.28125 0.375 0.6875 0.375q0.40625 0 0.671875 -0.390625q0.28125 -0.390625 0.28125 -1.546875q0 -1.1875 -0.28125 -1.5625q-0.265625 -0.390625 -0.671875 -0.390625q-0.40625 0 -0.640625 0.34375q-0.3125 0.4375 -0.3125 1.609375z" fill-rule="nonzero"/><path fill="#000000" fill-opacity="0.0" d="m0 92.08924l47.086613 0l0 8.094482l-47.086613 0z" fill-rule="evenodd"/><path fill="#000000" d="m21.997667 98.489235l0 -1.140625l-2.078125 0l0 -0.53125l2.1875 -3.09375l0.46875 0l0 3.09375l0.640625 0l0 0.53125l-0.640625 0l0 1.140625l-0.578125 0zm0 -1.671875l0 -2.15625l-1.5 2.15625l1.5 0zm1.826889 0.421875l0.609375 -0.046875q0.0625 0.453125 0.3125 0.671875q0.25 0.21875 0.609375 0.21875q0.421875 0 0.703125 -0.3125q0.296875 -0.3125 0.296875 -0.84375q0 -0.5 -0.28125 -0.78125q-0.28125 -0.296875 -0.734375 -0.296875q-0.28125 0 -0.515625 0.125q-0.21875 0.125 -0.359375 0.328125l-0.546875 -0.0625l0.46875 -2.453125l2.375 0l0 0.5625l-1.90625 0l-0.265625 1.28125q0.4375 -0.296875 0.90625 -0.296875q0.625 0 1.046875 0.4375q0.4375 0.421875 0.4375 1.109375q0 0.640625 -0.375 1.109375q-0.46875 0.578125 -1.25 0.578125q-0.65625 0 -1.078125 -0.359375q-0.40625 -0.359375 -0.453125 -0.96875z" fill-rule="nonzero"/><path fill="#000000" fill-opacity="0.0" d="m0 164.2546l47.086613 0l0 8.094482l-47.086613 0z" fill-rule="evenodd"/><path fill="#000000" d="m21.997667 170.65459l0 -1.140625l-2.078125 0l0 -0.53125l2.1875 -3.09375l0.46875 0l0 3.09375l0.640625 0l0 0.53125l-0.640625 0l0 1.140625l-0.578125 0zm0 -1.671875l0 -2.15625l-1.5 2.15625l1.5 0zm1.826889 -0.671875q0 -0.84375 0.171875 -1.359375q0.171875 -0.515625 0.515625 -0.796875q0.34375 -0.28125 0.859375 -0.28125q0.390625 0 0.671875 0.15625q0.296875 0.15625 0.484375 0.453125q0.1875 0.28125 0.296875 0.703125q0.109375 0.40625 0.109375 1.125q0 0.828125 -0.1875 1.34375q-0.171875 0.515625 -0.515625 0.796875q-0.328125 0.28125 -0.859375 0.28125q-0.6875 0 -1.078125 -0.484375q-0.46875 -0.59375 -0.46875 -1.9375zm0.59375 0q0 1.171875 0.265625 1.5625q0.28125 0.375 0.6875 0.375q0.40625 0 0.671875 -0.390625q0.28125 -0.390625 0.28125 -1.546875q0 -1.1875 -0.28125 -1.5625q-0.265625 -0.390625 -0.671875 -0.390625q-0.40625 0 -0.640625 0.34375q-0.3125 0.4375 -0.3125 1.609375z" fill-rule="nonzero"/><path fill="#c9daf8" d="m98.28871 38.412075l11.905518 0l0 129.88976l-11.905518 0z" fill-rule="evenodd"/><path stroke="#000000" stroke-width="1.0" stroke-linejoin="round" stroke-linecap="butt" d="m98.28871 38.412075l11.905518 0l0 129.88976l-11.905518 0z" fill-rule="evenodd"/><path fill="#000000" fill-opacity="0.0" d="m70.319145 225.45206l32.88189 -57.133865l6.9921265 4.0629883l-32.88189 57.133865z" fill-rule="evenodd"/><path fill="#000000" d="m97.48673 191.07755l-4.120514 -2.3943481l0.31175232 -0.5417023l1.688736 0.9812927l1.2392426 -2.1532288l-1.688736 -0.9812927l0.31175232 -0.541687l4.120514 2.3943481l-0.31175232 0.541687l-1.945427 -1.1304474l-1.2392349 2.153244l1.945427 1.1304474l-0.31175995 0.541687zm2.5686722 -6.6872253l0.37151337 -0.48890686q0.38919067 0.38879395 0.45103455 0.8765106q0.048324585 0.47987366 -0.24784088 0.9944763q-0.3819046 0.6635742 -1.0054321 0.807251q-0.6235275 0.14367676 -1.3530579 -0.28024292q-0.7430496 -0.4317627 -0.9436264 -1.0543213q-0.19277954 -0.6360779 0.16574097 -1.2590332q0.34293365 -0.5958557 0.9664612 -0.7395325q0.6235275 -0.14367676 1.3665695 0.28808594q0.040527344 0.02355957 0.13510132 0.07850647l-1.2860031 2.2344818q0.51545715 0.26338196 0.91243744 0.16877747q0.4047699 -0.1081543 0.6230011 -0.4873352q0.1636734 -0.2843933 0.13768768 -0.55249023q-0.031700134 -0.28948975 -0.29358673 -0.5862274zm-1.782753 1.1868286l0.9664459 -1.679245q-0.4016571 -0.17918396 -0.6630173 -0.13226318q-0.43751526 0.07104492 -0.6635361 0.46377563q-0.20264435 0.35209656 -0.11326599 0.72932434q0.09716797 0.36367798 0.4733734 0.6184082zm3.411621 -1.7930298l-2.9856873 -1.7349243l0.26499176 -0.46043396l0.43231964 0.25120544q-0.3128128 -0.6154785 0.045707703 -1.2384186q0.15588379 -0.27085876 0.38294983 -0.44612122q0.22706604 -0.17526245 0.45153046 -0.18940735q0.22447205 -0.014129639 0.4718094 0.05731201q0.15068054 0.05140686 0.50193787 0.25552368l1.8373489 1.0676422l-0.2961731 0.5146179l-1.8103256 -1.0519562q-0.31072235 -0.18055725 -0.49830627 -0.19918823q-0.19329071 -0.040039062 -0.36008453 0.061828613q-0.18030548 0.0940094 -0.2972107 0.2971344q-0.1870575 0.32502747 -0.11690521 0.67300415q0.07015228 0.34797668 0.6375656 0.6776886l1.634697 0.94989014l-0.29616547 0.51460266zm1.8745728 -5.7944336l0.3559265 -0.4618225q0.46660614 0.37957764 0.56897736 0.8908386q0.08885956 0.50341797 -0.19171906 0.9909363q-0.3507309 0.6094055 -0.96074677 0.76094055q-0.6157303 0.13012695 -1.3722839 -0.30949402q-0.47284698 -0.274765 -0.75188446 -0.63568115q-0.27124023 -0.37446594 -0.2598114 -0.8015442q0.005706787 -0.4484558 0.22393799 -0.827652q0.28058624 -0.4875183 0.71652985 -0.6498413q0.42243958 -0.17016602 0.9228287 -0.0059051514l-0.20732117 0.548172q-0.3496933 -0.112838745 -0.6074219 -0.009597778q-0.24993134 0.08969116 -0.39022064 0.33345032q-0.22602081 0.3927307 -0.09611511 0.7935028q0.13770294 0.3872223 0.73213196 0.7326355q0.6079483 0.35327148 1.010643 0.2800598q0.4026947 -0.07321167 0.6209259 -0.45240784q0.17146301 -0.29792786 0.10494995 -0.5895691q-0.07222748 -0.31304932 -0.41932678 -0.5870209zm1.6320801 -0.29855347l-4.120514 -2.3943481l0.2961731 -0.51460266l1.4725723 0.8556824q-0.20265198 -0.58761597 0.10910797 -1.129303q0.18704987 -0.32502747 0.4624405 -0.49028015q0.26187897 -0.17311096 0.56741333 -0.14013672q0.29201508 0.025115967 0.7243347 0.2763214l1.8913803 1.0990448l-0.28837585 0.5010681l-1.8913803 -1.0990448q-0.37828064 -0.21980286 -0.65522766 -0.14581299q-0.2691574 0.060455322 -0.44062042 0.35838318q-0.1324997 0.23022461 -0.12782288 0.50401306q0.01247406 0.26023865 0.16836548 0.45925903q0.14237213 0.19114685 0.49362946 0.39526367l1.634697 0.94989014l-0.2961731 0.51460266z" fill-rule="nonzero"/><path fill="#000000" fill-opacity="0.0" d="m38.76534 225.45993l32.881893 -57.133865l6.992119 4.0629883l-32.881886 57.133865z" fill-rule="evenodd"/><path fill="#000000" d="m53.987015 211.84201l-4.1205177 -2.3943481l0.3273468 -0.5687866l4.475895 -0.2905426l-3.2288628 -1.8762207l0.3039627 -0.52815247l4.120514 2.3943481l-0.327343 0.5687866l-4.4894066 0.28268433l3.2423744 1.884079l-0.3039627 0.52815247zm2.5842628 -6.7143097l0.37151337 -0.48890686q0.38919067 0.38879395 0.45103073 0.8765106q0.0483284 0.47987366 -0.24784088 0.9944763q-0.3819046 0.6635742 -1.0054321 0.807251q-0.6235275 0.14367676 -1.3530617 -0.28024292q-0.743042 -0.4317627 -0.9436188 -1.0543213q-0.19278336 -0.6360779 0.16574097 -1.2590332q0.34293365 -0.5958557 0.96645737 -0.7395325q0.6235275 -0.14367676 1.3665733 0.28808594q0.040527344 0.02355957 0.1350975 0.07850647l-1.2859993 2.2344818q0.51545334 0.26338196 0.9124336 0.16877747q0.4047699 -0.10813904 0.6230011 -0.4873352q0.1636734 -0.2843933 0.13768768 -0.552475q-0.03169632 -0.28948975 -0.29358292 -0.5862427zm-1.7827568 1.1868439l0.9664459 -1.6792603q-0.4016571 -0.17918396 -0.6630211 -0.13226318q-0.43750763 0.07104492 -0.66353226 0.46377563q-0.20264053 0.35209656 -0.11326599 0.72932434q0.09717178 0.36367798 0.4733734 0.61842346zm3.6048965 -3.1625671l0.48479843 0.19134521q-0.08417511 0.24021912 -0.17770386 0.40274048q-0.15587616 0.2708435 -0.3304634 0.38624573q-0.18030167 0.0940094 -0.35437012 0.083221436q-0.17978668 -0.032180786 -0.639122 -0.29908752l-1.7157555 -0.996994l-0.2182312 0.3791809l-0.39178467 -0.22766113l0.21822739 -0.3791809l-0.743042 -0.43177795l-0.008842468 -0.6737671l1.0402603 0.6044769l0.29616928 -0.5146179l0.39178848 0.22766113l-0.29616928 0.5146179l1.742775 1.0126953q0.21615982 0.1255951 0.29929733 0.1377716q0.0831337 0.012161255 0.15484238 -0.018463135q0.06598663 -0.052001953 0.12833786 -0.16033936q0.0545578 -0.09480286 0.11898804 -0.23806763zm1.0487404 -0.78852844l-3.5156746 -0.8140564l0.3039627 -0.52815247l2.0020561 0.53086853l0.73628235 0.19291687q-0.046245575 -0.044952393 -0.5279274 -0.5236206l-1.469986 -1.4866791l0.29616928 -0.5146179l1.9864655 0.5579529l0.65314865 0.18075562l-0.46609497 -0.5057678l-1.433094 -1.519455l0.28058243 -0.48753357l2.4479027 2.6693573l-0.3039627 0.52815247l-2.0560951 -0.5622711l-0.57572556 -0.18997192l1.9459534 1.9439697l-0.3039627 0.52815247zm0.4829979 -4.2849274q-0.83761215 -0.48672485 -0.96440506 -1.17482q-0.11172104 -0.58898926 0.20782852 -1.1442261q0.35072708 -0.6094055 0.98204803 -0.7666168q0.63132095 -0.15722656 1.3338356 0.25099182q0.580925 0.3375702 0.8173523 0.7098694q0.23070908 0.35092163 0.22499847 0.7993927q-0.011425018 0.427063 -0.23744965 0.8197937q-0.36631393 0.63648987 -0.98412704 0.80155945q-0.6235275 0.14367676 -1.3800812 -0.2959442zm0.30396652 -0.52815247q0.56741333 0.3297119 0.9914131 0.25080872q0.4317932 -0.092453 0.6500206 -0.4716339q0.2182312 -0.3791809 0.07481384 -0.7878113q-0.13562012 -0.42214966 -0.73005676 -0.76756287q-0.5539055 -0.3218689 -0.9856987 -0.2294159q-0.4317894 0.092437744 -0.6422272 0.4580841q-0.2182312 0.3791809 -0.08260727 0.8013458q0.14341736 0.4086151 0.72434235 0.7461853zm3.1377869 -2.006363l-2.9856873 -1.7349243l0.25720215 -0.4468994l0.45933533 0.26690674q-0.22291565 -0.36445618 -0.2317543 -0.56837463q-0.022342682 -0.21177673 0.07897568 -0.38781738q0.14808655 -0.25730896 0.46608353 -0.4339447l0.3715248 0.45080566q-0.2171936 0.12678528 -0.3263092 0.31637573q-0.09352875 0.16252136 -0.063388824 0.3607483q0.024425507 0.1768341 0.16108322 0.34658813q0.22343445 0.23826599 0.5341606 0.41882324l1.5671501 0.91064453l-0.28837585 0.5010681zm1.1056557 -1.9211426l-4.120514 -2.3943481l0.29616928 -0.5146179l2.3507195 1.3659668l-0.53002167 -1.8982544l0.3819046 -0.6635742l0.44532394 1.7948151l2.6027107 -0.16822815l-0.3585205 0.62294006l-2.0955772 0.101501465l0.13510513 0.5483551l1.1888733 0.6908417l-0.2961731 0.51460266zm2.6293411 -4.5686035l-4.1205177 -2.3943481l1.7146645 -2.979309l0.48635864 0.28260803l-1.4029121 2.437622l1.2564201 0.7300873l1.3171768 -2.2886658l0.48635864 0.28260803l-1.3171768 2.2886658l1.4050293 0.81643677l1.4574661 -2.532425l0.486351 0.28260803l-1.7692184 3.074112zm2.237938 -3.8885193l-2.593895 -1.5072632l-0.25720215 0.44688416l-0.39178467 -0.22764587l0.25719452 -0.4468994l-0.31072235 -0.18055725q-0.31072998 -0.18055725 -0.41464996 -0.31323242q-0.16368103 -0.18547058 -0.17615509 -0.44570923q-0.01247406 -0.2602539 0.17458344 -0.5852661q0.12470245 -0.2166748 0.326828 -0.44258118l0.39334106 0.31892395q-0.12054443 0.14680481 -0.20627594 0.29577637q-0.1324997 0.23020935 -0.07897949 0.38781738q0.040016174 0.14974976 0.31021118 0.30674744l0.270195 0.15701294l0.33514404 -0.58232117l0.39178467 0.22766113l-0.3351364 0.58232117l2.593895 1.5072632l-0.28837585 0.5010681zm0.8623886 -1.4984436l-2.5939026 -1.5072632l-0.25719452 0.4468994l-0.3917923 -0.22766113l0.25720215 -0.4468994l-0.31072235 -0.18055725q-0.31072998 -0.18055725 -0.4146576 -0.31323242q-0.1636734 -0.18547058 -0.17614746 -0.44570923q-0.01247406 -0.2602539 0.1745758 -0.5852661q0.12471008 -0.2166748 0.326828 -0.44258118l0.3933487 0.31892395q-0.12054443 0.14680481 -0.20627594 0.29577637q-0.1324997 0.23020935 -0.07897949 0.38781738q0.040008545 0.14974976 0.31021118 0.30674744l0.270195 0.15701294l0.33514404 -0.58232117l0.39178467 0.22766113l-0.33514404 0.58232117l2.5939026 1.5072632l-0.28837585 0.5010681zm1.0699997 -4.083206l0.37151337 -0.48890686q0.38919067 0.38879395 0.45102692 0.8765106q0.048332214 0.4798584 -0.24784088 0.9944763q-0.38189697 0.6635742 -1.0054245 0.807251q-0.6235275 0.14367676 -1.3530655 -0.28024292q-0.743042 -0.43177795 -0.9436188 -1.0543213q-0.19277954 -0.63609314 0.16574097 -1.2590332q0.34293365 -0.595871 0.9664612 -0.7395325q0.6235275 -0.14367676 1.3665695 0.28808594q0.040527344 0.023544312 0.13510132 0.07850647l-1.2860031 2.2344818q0.51545715 0.26338196 0.9124298 0.16877747q0.40477753 -0.1081543 0.6230087 -0.4873352q0.1636734 -0.2843933 0.13768768 -0.55249023q-0.031700134 -0.28948975 -0.29358673 -0.5862274zm-1.7827606 1.1868286l0.96645355 -1.679245q-0.4016571 -0.17918396 -0.6630249 -0.13227844q-0.43750763 0.07106018 -0.66352844 0.4637909q-0.20264435 0.35209656 -0.11326599 0.7293091q0.09716797 0.36367798 0.47336578 0.61842346zm3.4396515 -4.378998l0.3559265 -0.4618225q0.46661377 0.37956238 0.56897736 0.8908386q0.08885956 0.50341797 -0.19171906 0.9909363q-0.3507309 0.6094055 -0.96074677 0.7609253q-0.6157303 0.13014221 -1.3722839 -0.30947876q-0.47284698 -0.274765 -0.75188446 -0.6356964q-0.2712326 -0.37446594 -0.2598114 -0.80152893q0.0057144165 -0.44847107 0.22393799 -0.827652q0.28058624 -0.4875183 0.7165375 -0.6498413q0.42243195 -0.17016602 0.92282104 -0.0059051514l-0.20732117 0.548172q-0.3496933 -0.112854004 -0.6074219 -0.009613037q-0.2499237 0.08970642 -0.39022064 0.33346558q-0.22602081 0.3927307 -0.09611511 0.7935028q0.13770294 0.3872223 0.7321396 0.7326355q0.6079407 0.35327148 1.0106354 0.28004456q0.4026947 -0.07321167 0.6209259 -0.45239258q0.17147064 -0.29792786 0.10494995 -0.58958435q-0.07222748 -0.31303406 -0.41932678 -0.5870056zm1.8253632 -1.6680908l0.48479462 0.19136047q-0.08417511 0.24021912 -0.17770386 0.40272522q-0.15587616 0.27085876 -0.33046722 0.386261q-0.18029785 0.0940094 -0.35437012 0.083221436q-0.17977905 -0.032180786 -0.639122 -0.29910278l-1.7157516 -0.996994l-0.2182312 0.37919617l-0.39178467 -0.22766113l0.2182312 -0.3791809l-0.7430496 -0.43177795l-0.008834839 -0.6737671l1.0402603 0.6044769l0.29616547 -0.5146179l0.39178467 0.22766113l-0.29616547 0.5146179l1.742775 1.01268q0.216156 0.12561035 0.29929352 0.1377716q0.08313751 0.012176514 0.15484619 -0.018447876q0.06598663 -0.052001953 0.12834167 -0.16033936q0.0545578 -0.09480286 0.11898804 -0.23808289z" fill-rule="nonzero"/><path fill="#c9daf8" d="m129.84251 38.412075l11.905518 0l0 129.88976l-11.905518 0z" fill-rule="evenodd"/><path stroke="#000000" stroke-width="1.0" stroke-linejoin="round" stroke-linecap="butt" d="m129.84251 38.412075l11.905518 0l0 129.88976l-11.905518 0z" fill-rule="evenodd"/><path fill="#000000" fill-opacity="0.0" d="m101.87295 225.45206l32.88189 -57.133865l6.9921265 4.0629883l-32.88189 57.133865z" fill-rule="evenodd"/><path fill="#000000" d="m115.979126 213.77237l-3.634163 -2.11174l-0.7793884 1.3542328l-0.48635864 -0.28260803l1.8861313 -3.2772522l0.48635864 0.2826233l-0.78718567 1.3677673l3.6341553 2.11174l-0.31954956 0.5552368zm1.3890152 -2.4134827l-4.120514 -2.3943481l0.2961731 -0.5146179l1.4725723 0.85569763q-0.20265198 -0.58761597 0.10910797 -1.129303q0.18704987 -0.32502747 0.4624405 -0.49028015q0.26187897 -0.17311096 0.56741333 -0.14013672q0.29201508 0.025115967 0.7243347 0.2763214l1.8913879 1.0990448l-0.28837585 0.5010681l-1.8913879 -1.0990448q-0.378273 -0.21981812 -0.65522766 -0.14581299q-0.2691574 0.060455322 -0.44062042 0.35838318q-0.1324997 0.23022461 -0.12781525 0.50401306q0.01247406 0.26023865 0.16835785 0.45924377q0.14237213 0.19116211 0.49362946 0.39527893l1.634697 0.94989014l-0.2961731 0.51460266zm2.0642319 -5.81073l0.37151337 -0.48890686q0.38919067 0.38879395 0.45103455 0.8765106q0.048324585 0.47987366 -0.24784088 0.9944763q-0.3819046 0.6635742 -1.0054321 0.807251q-0.6235275 0.14367676 -1.3530579 -0.28024292q-0.7430496 -0.4317627 -0.9436264 -1.0543213q-0.19277954 -0.6360779 0.16574097 -1.2590332q0.34293365 -0.5958557 0.9664612 -0.7395325q0.6235275 -0.14367676 1.3665695 0.28808594q0.040527344 0.02355957 0.13510132 0.07850647l-1.2860031 2.2344818q0.51545715 0.26338196 0.91243744 0.16877747q0.4047699 -0.1081543 0.6230011 -0.4873352q0.1636734 -0.2843933 0.13768768 -0.55249023q-0.031700134 -0.2894745 -0.29358673 -0.5862274zm-1.782753 1.1868439l0.9664459 -1.6792603q-0.4016571 -0.17918396 -0.6630173 -0.13226318q-0.43751526 0.07104492 -0.6635361 0.46377563q-0.20264435 0.35209656 -0.11326599 0.72932434q0.09716797 0.36367798 0.4733734 0.61842346zm4.380844 -3.4771118l-4.120514 -2.3943634l0.31175995 -0.541687l1.688736 0.9812927l1.2392349 -2.153244l-1.688736 -0.9812927l0.31175995 -0.541687l4.120514 2.3943481l-0.31175995 0.5417023l-1.9454193 -1.1304474l-1.2392426 2.1532288l1.945427 1.1304474l-0.31175995 0.5417023zm-1.1885986 -6.141754l-0.580925 -0.3375702l0.2961731 -0.51460266l0.580925 0.33755493l-0.2961731 0.5146179zm3.539589 2.0567932l-2.9856796 -1.7349396l0.29616547 -0.51460266l2.9856873 1.7349243l-0.2961731 0.5146179zm1.8521805 -3.2182617l-0.378273 -0.21980286q0.28215027 0.5434418 -0.02960205 1.085144q-0.21044159 0.36564636 -0.5710449 0.55366516q-0.374115 0.18017578 -0.81890106 0.13858032q-0.44478607 -0.041610718 -0.9041214 -0.30851746q-0.44582367 -0.25906372 -0.7248535 -0.61997986q-0.27903748 -0.3609314 -0.29670715 -0.7687683q-0.031181335 -0.41567993 0.17925262 -0.7813263q0.15587616 -0.2708435 0.39437866 -0.40333557q0.23278046 -0.15386963 0.486351 -0.1872406l-1.47258 -0.8556824l0.28837585 -0.5010681l4.120514 2.3943481l-0.272789 0.47398376zm-2.4057693 0.73446655q0.56741333 0.3297119 0.9914093 0.25080872q0.4240036 -0.0789032 0.61105347 -0.40393066q0.19485474 -0.33854675 0.057151794 -0.7257843q-0.13770294 -0.3872223 -0.6916046 -0.7090912q-0.6079483 -0.35325623 -1.0319443 -0.27435303q-0.42971802 0.057510376 -0.63235474 0.40960693q-0.1870575 0.32502747 -0.035850525 0.7200928q0.13770294 0.38723755 0.7321396 0.73265076zm4.2523193 -3.9429321l-0.37828064 -0.21980286q0.2821579 0.5434418 -0.02960205 1.085144q-0.21043396 0.36564636 -0.5710373 0.55366516q-0.374115 0.18017578 -0.81890106 0.13858032q-0.44478607 -0.04159546 -0.9041214 -0.30851746q-0.44582367 -0.25906372 -0.72486115 -0.61997986q-0.27902985 -0.3609314 -0.29670715 -0.7687683q-0.031181335 -0.41567993 0.17926025 -0.7813263q0.15587616 -0.2708435 0.39437103 -0.40333557q0.23278809 -0.15386963 0.486351 -0.1872406l-1.4725723 -0.8556824l0.28837585 -0.5010681l4.1205063 2.3943481l-0.27278137 0.47398376zm-2.4057693 0.73446655q0.56741333 0.3297119 0.9914093 0.25080872q0.4240036 -0.0789032 0.61105347 -0.40393066q0.1948471 -0.33854675 0.057151794 -0.7257843q-0.13770294 -0.3872223 -0.69161224 -0.7090912q-0.6079407 -0.35325623 -1.0319366 -0.27435303q-0.42971802 0.057510376 -0.63236237 0.40960693q-0.18704987 0.32502747 -0.035842896 0.7200928q0.13770294 0.38723755 0.7321396 0.73265076zm3.3554611 -4.6086426l0.371521 -0.4888916q0.38919067 0.38879395 0.45103455 0.87649536q0.048324585 0.47987366 -0.24784851 0.9944763q-0.38189697 0.6635742 -1.0054321 0.807251q-0.6235275 0.14367676 -1.3530579 -0.28024292q-0.743042 -0.4317627 -0.9436188 -1.054306q-0.19277954 -0.63609314 0.16574097 -1.2590485q0.34293365 -0.5958557 0.9664612 -0.7395325q0.6235199 -0.14367676 1.3665619 0.2881012q0.040527344 0.023544312 0.13510132 0.07849121l-1.2859955 2.234497q0.51545715 0.2633667 0.9124298 0.1687622q0.4047699 -0.10813904 0.6230011 -0.4873352q0.16368103 -0.28437805 0.13769531 -0.552475q-0.031707764 -0.28948975 -0.29359436 -0.5862427zm-1.782753 1.1868439l0.96645355 -1.6792603q-0.40166473 -0.17918396 -0.6630249 -0.13226318q-0.43750763 0.07106018 -0.6635361 0.46377563q-0.20263672 0.35211182 -0.11325836 0.72932434q0.09716797 0.36367798 0.47336578 0.61842346zm3.4116287 -1.793045l-2.985695 -1.7349243l0.2649994 -0.46043396l0.43231964 0.25120544q-0.31282043 -0.6154785 0.045700073 -1.2384186q0.15588379 -0.2708435 0.38294983 -0.44612122q0.22706604 -0.17526245 0.4515381 -0.18939209q0.22447205 -0.014144897 0.47180176 0.057296753q0.15068054 0.05142212 0.50193787 0.25552368l1.8373566 1.0676422l-0.2961731 0.5146179l-1.8103333 -1.0519409q-0.31071472 -0.18055725 -0.49830627 -0.19920349q-0.19328308 -0.040039062 -0.3600769 0.061828613q-0.18031311 0.0940094 -0.2972107 0.29714966q-0.1870575 0.3250122 -0.11691284 0.6729889q0.07015991 0.34797668 0.63757324 0.6776886l1.6346893 0.94989014l-0.29615784 0.51460266zm2.3013153 -7.7575836l-0.47283936 -0.274765l0.99191284 -1.7548218l1.5401154 0.89494324q0.076919556 0.58683777 -0.010375977 1.1143951q-0.07948303 0.51400757 -0.34448242 0.9744568q-0.34294128 0.5958557 -0.8880005 0.94776917q-0.5450592 0.35191345 -1.1795044 0.32659912q-0.640152 -0.046691895 -1.2480927 -0.39996338q-0.60795593 -0.35327148 -0.9810333 -0.89533997q-0.37879944 -0.5634613 -0.3491974 -1.1787567q0.016098022 -0.6231384 0.36683655 -1.232544q0.25720215 -0.4468994 0.61624146 -0.72618103q0.34553528 -0.2871399 0.7326355 -0.3332672q0.3735962 -0.053985596 0.84124756 0.07318115l-0.1454773 0.5660248q-0.3652954 -0.085754395 -0.6188507 -0.052383423q-0.26708984 0.025512695 -0.5232544 0.22001648q-0.2561493 0.19450378 -0.4354248 0.50598145q-0.21821594 0.3791809 -0.2525177 0.72068787q-0.047790527 0.33364868 0.040023804 0.6195984q0.09561157 0.27241516 0.2572174 0.4928131q0.28474426 0.38232422 0.73057556 0.64138794q0.55389404 0.32185364 1.0412903 0.3520813q0.47387695 0.022354126 0.87345886 -0.23338318q0.38606262 -0.26358032 0.6198883 -0.66986084q0.20263672 -0.35209656 0.26239014 -0.7691498q0.05973816 -0.41706848 -0.0010528564 -0.6873169l-0.7700653 -0.44747925l-0.69366455 1.2052765zm-0.4893341 -3.597824l-0.58091736 -0.3375702l0.2961731 -0.51460266l0.58091736 0.33755493l-0.2961731 0.5146179zm3.5395966 2.056778l-2.9856873 -1.7349243l0.2961731 -0.51460266l2.9856873 1.7349243l-0.2961731 0.51460266zm0.7376404 -1.2816925l-2.9856873 -1.7349243l0.25720215 -0.4468994l0.45933533 0.266922q-0.22291565 -0.36447144 -0.23175049 -0.5683899q-0.022338867 -0.21176147 0.07897949 -0.38781738q0.14808655 -0.2572937 0.4660797 -0.4339447l0.371521 0.45082092q-0.2171936 0.12678528 -0.3263092 0.31637573q-0.09352112 0.1625061 -0.06338501 0.36073303q0.024429321 0.1768341 0.16108704 0.3466034q0.22343445 0.23826599 0.5341644 0.41882324l1.5671387 0.9106293l-0.28837585 0.5010681zm1.0978699 -1.9075928l-4.120514 -2.3943481l0.2961731 -0.5146179l4.120514 2.3943634l-0.2961731 0.51460266z" fill-rule="nonzero"/><path fill="#c9daf8" d="m161.39633 67.27821l11.905502 0l0 101.03937l-11.905502 0z" fill-rule="evenodd"/><path stroke="#000000" stroke-width="1.0" stroke-linejoin="round" stroke-linecap="butt" d="m161.39633 67.27821l11.905502 0l0 101.03937l-11.905502 0z" fill-rule="evenodd"/><path fill="#000000" fill-opacity="0.0" d="m129.01581 233.11795l37.291336 -64.7874l6.9921265 4.0629883l-37.29135 64.7874z" fill-rule="evenodd"/><path fill="#000000" d="m139.40617 227.89572l-3.6341705 -2.11174l-0.7794647 1.354187l-0.48635864 -0.28260803l1.886322 -3.2771454l0.48634338 0.28260803l-0.7872467 1.3677368l3.6341553 2.11174l-0.31958008 0.55522156zm1.3891449 -2.4134216l-4.120514 -2.3943481l0.29618835 -0.5145874l1.47258 0.8556824q-0.20263672 -0.5876007 0.10916138 -1.1292877q0.18707275 -0.32499695 0.46246338 -0.49024963q0.26190186 -0.1730957 0.5674286 -0.14013672q0.29203796 0.025131226 0.72435 0.27633667l1.8913879 1.0990448l-0.28840637 0.50105286l-1.8913879 -1.0990448q-0.37828064 -0.21981812 -0.65522766 -0.14581299q-0.26916504 0.060440063 -0.44065857 0.35836792q-0.13250732 0.23020935 -0.12783813 0.5039978q0.012466431 0.26023865 0.16835022 0.45924377q0.1423645 0.19114685 0.49362183 0.39526367l1.6346893 0.94989014l-0.29618835 0.5145874zm2.0645142 -5.810562l0.37153625 -0.4888916q0.38919067 0.38879395 0.45100403 0.87649536q0.048309326 0.4798584 -0.24787903 0.9944458q-0.38194275 0.66355896 -1.0054932 0.80722046q-0.6235504 0.1436615 -1.3530731 -0.28025818q-0.743042 -0.4317627 -0.9436035 -1.0542908q-0.19276428 -0.6360779 0.165802 -1.259018q0.34295654 -0.59584045 0.96650696 -0.73950195q0.6235504 -0.1436615 1.3665924 0.2881012q0.040527344 0.02355957 0.13510132 0.07850647l-1.2861328 2.2344208q0.51545715 0.26338196 0.9124603 0.16877747q0.40478516 -0.10813904 0.6230316 -0.48731995q0.16368103 -0.28437805 0.13771057 -0.5524597q-0.031692505 -0.28948975 -0.29356384 -0.5862274zm-1.7828522 1.1867828l0.9665375 -1.6791992q-0.4016571 -0.17918396 -0.6630249 -0.13227844q-0.43751526 0.07104492 -0.6635742 0.46376038q-0.20265198 0.35209656 -0.11329651 0.7293091q0.09716797 0.36366272 0.47335815 0.6184082zm4.3733063 -3.4634247l-4.120514 -2.3943634l1.0600739 -1.8417053q0.31178284 -0.54167175 0.58354187 -0.7632446q0.27957153 -0.23512268 0.6568146 -0.23277283q0.38504028 -0.011184692 0.7227783 0.18507385q0.4458313 0.25906372 0.57936096 0.716156q0.13352966 0.45707703 -0.12837219 1.1000214q0.23278809 -0.15385437 0.3975067 -0.22077942q0.36218262 -0.09675598 0.8111267 -0.12503052l1.5344391 -0.06614685l-0.39752197 0.6906433l-1.1629181 0.04710388q-0.51856995 0.023956299 -0.79345703 0.06300354q-0.2883911 0.031204224 -0.4473877 0.119522095q-0.1512146 0.074783325 -0.24838257 0.18095398q-0.06808472 0.08694458 -0.18499756 0.29006958l-0.36634827 0.6364746l1.8238373 1.0597992l-0.31958008 0.55522156zm-1.9771118 -1.8897858l0.67814636 -1.1781464q0.21044922 -0.3656311 0.24630737 -0.61586q0.043655396 -0.2637787 -0.05609131 -0.4663086q-0.10548401 -0.22393799 -0.308136 -0.34169006q-0.28370667 -0.16485596 -0.59754944 -0.05809021q-0.31385803 0.10676575 -0.5788727 0.56718445l-0.748291 1.3000336l1.3644867 0.7928772zm4.5539093 -4.8108063l0.37153625 -0.48887634q0.38919067 0.38879395 0.45100403 0.87649536q0.048309326 0.47984314 -0.24787903 0.9944458q-0.38194275 0.66355896 -1.0054932 0.80722046q-0.6235504 0.1436615 -1.3530731 -0.28025818q-0.743042 -0.4317627 -0.9436035 -1.054306q-0.19276428 -0.6360779 0.16578674 -1.2590027q0.3429718 -0.59584045 0.9665222 -0.73950195q0.6235504 -0.14367676 1.3665924 0.2881012q0.040527344 0.023544312 0.13510132 0.07850647l-1.2861328 2.2344055q0.51545715 0.26338196 0.91244507 0.16879272q0.40480042 -0.1081543 0.6230469 -0.48731995q0.16368103 -0.28437805 0.13771057 -0.552475q-0.031692505 -0.2894745 -0.29356384 -0.5862274zm-1.7828522 1.1867981l0.9665375 -1.6791992q-0.4016571 -0.17918396 -0.6630249 -0.13227844q-0.43753052 0.07104492 -0.6635742 0.46376038q-0.20265198 0.3520813 -0.11329651 0.7292938q0.09716797 0.36367798 0.47335815 0.61842346zm3.4039764 -1.779419l-4.120514 -2.3943481l0.2962036 -0.5145874l4.120514 2.3943481l-0.2962036 0.5145874zm0.9633026 -3.8974l0.3715515 -0.48887634q0.38917542 0.38879395 0.45100403 0.87649536q0.048309326 0.47984314 -0.24789429 0.9944458q-0.3819275 0.66355896 -1.0054779 0.80722046q-0.6235504 0.1436615 -1.3530884 -0.28025818q-0.743042 -0.4317627 -0.94358826 -1.054306q-0.19276428 -0.6360779 0.16578674 -1.2590027q0.3429718 -0.59584045 0.96650696 -0.73950195q0.6235504 -0.14367676 1.3665924 0.2881012q0.040527344 0.023544312 0.13510132 0.07850647l-1.2861176 2.2344055q0.51545715 0.26338196 0.91244507 0.16879272q0.40478516 -0.1081543 0.6230316 -0.48731995q0.16369629 -0.28437805 0.13772583 -0.552475q-0.031692505 -0.2894745 -0.2935791 -0.5862274zm-1.7828369 1.1867981l0.9665375 -1.6791992q-0.4016571 -0.17918396 -0.66304016 -0.13227844q-0.43751526 0.07104492 -0.66355896 0.46376038q-0.20266724 0.3520813 -0.11329651 0.7292938q0.09715271 0.36367798 0.47335815 0.61842346zm3.4117737 -1.7929535l-2.9856873 -1.7349243l0.26501465 -0.4604187l0.43232727 0.25120544q-0.31280518 -0.61546326 0.04576111 -1.2384033q0.15588379 -0.27082825 0.3829651 -0.4460907q0.2270813 -0.17526245 0.45155334 -0.18939209q0.22447205 -0.014129639 0.47181702 0.057296753q0.15068054 0.05142212 0.50193787 0.25553894l1.8373413 1.0676422l-0.29618835 0.5145874l-1.8103333 -1.0519409q-0.31071472 -0.18055725 -0.49830627 -0.19920349q-0.19329834 -0.040039062 -0.36009216 0.061828613q-0.18031311 0.0940094 -0.29722595 0.2971344q-0.18707275 0.3250122 -0.11694336 0.67297363q0.07014465 0.34796143 0.637558 0.6776886l1.6346893 0.94989014l-0.29618835 0.5145874zm2.0400543 -4.5778656l0.48480225 0.19134521q-0.08418274 0.24023438 -0.17771912 0.40272522q-0.15589905 0.2708435 -0.3304901 0.38624573q-0.18031311 0.0940094 -0.35438538 0.083221436q-0.17979431 -0.032196045 -0.63912964 -0.29910278l-1.715744 -0.996994l-0.21826172 0.3791809l-0.39178467 -0.22766113l0.21824646 -0.3791809l-0.743042 -0.4317627l-0.008804321 -0.6737671l1.0402527 0.6044769l0.2962036 -0.5145874l0.39178467 0.22766113l-0.2962036 0.5145874l1.7427826 1.0126953q0.216156 0.12561035 0.29930115 0.1377716q0.08312988 0.012176514 0.15484619 -0.018447876q0.06599426 -0.052001953 0.12834167 -0.16033936q0.05456543 -0.09480286 0.119003296 -0.23806763zm0.7214203 -0.21972656l-4.120514 -2.3943634l0.29618835 -0.5145874l4.120514 2.3943481l-0.29618835 0.51460266zm0.9633026 -3.8974152l0.37153625 -0.48887634q0.38919067 0.38879395 0.45100403 0.87649536q0.048309326 0.4798584 -0.24787903 0.9944458q-0.38194275 0.66355896 -1.0054932 0.80722046q-0.6235504 0.1436615 -1.3530731 -0.28025818q-0.743042 -0.4317627 -0.9436035 -1.054306q-0.19276428 -0.6360779 0.165802 -1.2590027q0.34295654 -0.59584045 0.96650696 -0.73950195q0.6235504 -0.1436615 1.3665924 0.2881012q0.040527344 0.023544312 0.13510132 0.07850647l-1.2861328 2.2344208q0.51545715 0.2633667 0.9124603 0.16877747q0.40478516 -0.10813904 0.6230316 -0.48731995q0.16368103 -0.28437805 0.13771057 -0.552475q-0.031692505 -0.2894745 -0.29356384 -0.5862274zm-1.7828522 1.1867981l0.9665375 -1.6791992q-0.4016571 -0.17918396 -0.6630249 -0.13227844q-0.43751526 0.07104492 -0.6635742 0.46376038q-0.20265198 0.35209656 -0.11329651 0.7292938q0.09716797 0.36367798 0.47335815 0.61842346zm2.4031982 -2.1079407l0.20735168 -0.54815674q0.32060242 0.13208008 0.59184265 0.036697388q0.27903748 -0.10891724 0.47390747 -0.44747925q0.20266724 -0.3520813 0.1611023 -0.5930939q-0.047286987 -0.26239014 -0.23641968 -0.3722992q-0.17562866 -0.10205078 -0.35594177 -0.008041382q-0.12989807 0.06907654 -0.47181702 0.41253662q-0.4546814 0.4767151 -0.67396545 0.63842773q-0.23280334 0.15386963 -0.47857666 0.1736908q-0.25149536 -0.0015716553 -0.46765137 -0.12716675q-0.20265198 -0.117752075 -0.31021118 -0.3067627q-0.12106323 -0.19683838 -0.14912415 -0.42999268q-0.018692017 -0.15544128 0.044189453 -0.38996887q0.049362183 -0.24238586 0.18966675 -0.48614502q0.20266724 -0.3520813 0.45884705 -0.5465698q0.25045776 -0.2158966 0.49624634 -0.23571777q0.25357056 -0.03337097 0.5606537 0.09086609l-0.21305847 0.5267639q-0.25305176 -0.09283447 -0.46817017 -9.765625E-4q-0.2286377 0.083999634 -0.40011597 0.38191223q-0.19487 0.33854675 -0.1590271 0.5581665q0.022338867 0.21176147 0.17094421 0.29812622q0.10809326 0.06278992 0.20681763 0.04788208q0.13354492 -0.012756348 0.24421692 -0.111083984q0.08729553 -0.05770874 0.40011597 -0.3819275q0.4526062 -0.44177246 0.67189026 -0.60350037q0.20578003 -0.16957092 0.45155334 -0.18939209q0.24578857 -0.019821167 0.5024719 0.1293335q0.25668335 0.14915466 0.4006195 0.4315796q0.13041687 0.27456665 0.08830261 0.6295929q-0.034301758 0.3414917 -0.23695374 0.69358826q-0.3429718 0.59584045 -0.76542664 0.76600647q-0.4146576 0.15661621 -0.9342804 -0.036895752zm1.6602783 -2.88443l0.20733643 -0.54815674q0.32060242 0.13208008 0.59184265 0.036697388q0.27903748 -0.10891724 0.47390747 -0.44747925q0.20266724 -0.3520813 0.1611023 -0.5930939q-0.047286987 -0.26239014 -0.23641968 -0.3722992q-0.17562866 -0.10205078 -0.35594177 -0.008041382q-0.12989807 0.06907654 -0.47181702 0.41253662q-0.4546814 0.4767151 -0.67396545 0.63842773q-0.23280334 0.15386963 -0.47857666 0.1736908q-0.25149536 -0.0015716553 -0.46765137 -0.12716675q-0.20265198 -0.117752075 -0.31021118 -0.3067627q-0.12106323 -0.19683838 -0.14910889 -0.42999268q-0.018707275 -0.15544128 0.044174194 -0.38996887q0.049362183 -0.24238586 0.18966675 -0.48614502q0.20266724 -0.3520813 0.45884705 -0.5465698q0.25045776 -0.2158966 0.49624634 -0.23571777q0.25357056 -0.03337097 0.5606537 0.09086609l-0.21305847 0.5267639q-0.25305176 -0.09283447 -0.46817017 -9.765625E-4q-0.2286377 0.083999634 -0.40011597 0.38191223q-0.19487 0.33854675 -0.1590271 0.5581665q0.022338867 0.21176147 0.17095947 0.29812622q0.108078 0.06278992 0.20680237 0.04788208q0.13354492 -0.012756348 0.24421692 -0.111083984q0.08731079 -0.05770874 0.40011597 -0.3819275q0.4526062 -0.44177246 0.67189026 -0.60350037q0.20578003 -0.16957092 0.45155334 -0.18939209q0.24578857 -0.019821167 0.5024719 0.1293335q0.25668335 0.14915466 0.4006195 0.4315796q0.13041687 0.27456665 0.08831787 0.6295929q-0.034317017 0.3414917 -0.236969 0.69358826q-0.3429718 0.59584045 -0.76542664 0.76600647q-0.4146576 0.15661621 -0.93426514 -0.036895752zm3.6225586 -4.2263794l-4.120514 -2.3943481l0.46768188 -0.8125305l3.4871368 0.7071228q0.48324585 0.1000824 0.71707153 0.16368103q-0.19068909 -0.20117188 -0.53726196 -0.6013489l-2.2950897 -2.652832l0.42871094 -0.74479675l4.120514 2.3943481l-0.3039856 0.5281372l-3.4450226 -2.001831l2.751297 3.2070618l-0.28060913 0.48750305l-4.1985016 -0.84939575l3.512558 2.041092l-0.3039856 0.5281372zm1.1396332 -5.425293q-0.83761597 -0.48672485 -0.9643707 -1.1748047q-0.111709595 -0.588974 0.20787048 -1.1441956q0.35076904 -0.60939026 0.98210144 -0.7665863q0.63134766 -0.1572113 1.3338623 0.25100708q0.58091736 0.3375702 0.81733704 0.7098694q0.23069763 0.35090637 0.22497559 0.7993622q-0.011444092 0.427063 -0.2374878 0.81977844q-0.36634827 0.6364746 -0.98417664 0.80152893q-0.6235504 0.1436615 -1.3801117 -0.29595947zm0.30400085 -0.5281372q0.56741333 0.3297119 0.99142456 0.25082397q0.43180847 -0.092437744 0.65005493 -0.47161865q0.21824646 -0.37916565 0.07484436 -0.78778076q-0.13560486 -0.42214966 -0.7300415 -0.7675781q-0.5539093 -0.32185364 -0.9857178 -0.2294159q-0.4317932 0.092437744 -0.6422577 0.45806885q-0.21824646 0.3791809 -0.0826416 0.80133057q0.1434021 0.4086151 0.7243347 0.74617004zm1.5427246 -2.6802216q-0.83761597 -0.48672485 -0.964386 -1.1748047q-0.111694336 -0.588974 0.20788574 -1.1441956q0.35075378 -0.60939026 0.98210144 -0.76660156q0.63134766 -0.15719604 1.3338623 0.25102234q0.58091736 0.33755493 0.81733704 0.7098694q0.23069763 0.35090637 0.22497559 0.7993622q-0.011444092 0.427063 -0.2374878 0.81977844q-0.36636353 0.63645935 -0.9841919 0.8015137q-0.6235504 0.14367676 -1.3800964 -0.2959442zm0.3039856 -0.5281372q0.56741333 0.3297119 0.99142456 0.25080872q0.43180847 -0.092437744 0.6500702 -0.4716034q0.21824646 -0.3791809 0.07484436 -0.787796q-0.13560486 -0.42214966 -0.7300415 -0.76756287q-0.5539093 -0.3218689 -0.9857178 -0.2294159q-0.43180847 0.092437744 -0.6422577 0.45806885q-0.21826172 0.37916565 -0.0826416 0.8013153q0.1434021 0.4086151 0.72431946 0.7461853zm3.1379395 -2.0062866l-2.985672 -1.7349243l0.26501465 -0.4604187l0.432312 0.25120544q-0.31278992 -0.61546326 0.04576111 -1.2383881q0.15589905 -0.2708435 0.38298035 -0.44610596q0.22706604 -0.17526245 0.45155334 -0.18939209q0.22447205 -0.014129639 0.47180176 0.05731201q0.1506958 0.05142212 0.5019531 0.25552368l1.8373413 1.0676422l-0.29618835 0.51460266l-1.8103333 -1.0519562q-0.31072998 -0.18055725 -0.49830627 -0.19920349q-0.19329834 -0.040023804 -0.36009216 0.061828613q-0.18031311 0.0940094 -0.2972412 0.2971344q-0.18707275 0.3250122 -0.1169281 0.67297363q0.070129395 0.34797668 0.637558 0.6776886l1.6346893 0.94989014l-0.2962036 0.5145874z" fill-rule="nonzero"/><path fill="#c9daf8" d="m192.95013 81.71129l11.905502 0l0 86.61417l-11.905502 0z" fill-rule="evenodd"/><path stroke="#000000" stroke-width="1.0" stroke-linejoin="round" stroke-linecap="butt" d="m192.95013 81.71129l11.905502 0l0 86.61417l-11.905502 0z" fill-rule="evenodd"/><path fill="#000000" fill-opacity="0.0" d="m160.57224 233.11795l37.291336 -64.7874l6.9921265 4.0629883l-37.291336 64.7874z" fill-rule="evenodd"/><path fill="#000000" d="m183.07965 206.84438l-3.2085419 -3.9787445l0.3429718 -0.5958557l5.0948486 0.7016144l-0.35855103 0.6229248l-1.523529 -0.2347107l-0.98991394 1.7198181l0.97789 1.182663l-0.33517456 0.58229065zm-1.0028076 -2.1729736l0.8106537 -1.4083557l-1.3977814 -0.23394775q-0.6302948 -0.095184326 -1.0225983 -0.19664001q0.34501648 0.30891418 0.65885925 0.6719818l0.9508667 1.1669617zm3.2487488 -1.7289734l-0.92225647 -1.9996796l-2.0166473 0.1835022l0.36634827 -0.6364746l0.9675293 -0.052200317q0.27279663 -0.004119873 0.45466614 -0.006866455q-0.11898804 -0.231781 -0.20524597 -0.4264679l-0.41410828 -0.90927124l0.35076904 -0.60939026l0.8126221 1.8456268l2.219818 -0.19195557l-0.35855103 0.6229248l-1.2829437 0.067718506l-0.3367157 0.021194458l0.7154846 1.4819489l-0.35076904 0.60939026zm-1.6844482 -5.27977l-0.5809326 -0.33755493l0.2962036 -0.51460266l0.58091736 0.3375702l-0.29618835 0.5145874zm3.5395813 2.0567932l-2.9856873 -1.7349243l0.2962036 -0.5145874l2.9856873 1.7349243l-0.2962036 0.5145874zm-0.85749817 -1.9556122q-0.8376007 -0.4867096 -0.9643707 -1.1748047q-0.111709595 -0.588974 0.20787048 -1.1441956q0.35076904 -0.609375 0.98210144 -0.7665863q0.63134766 -0.1572113 1.3338623 0.25100708q0.58091736 0.3375702 0.81733704 0.7098694q0.23069763 0.35092163 0.22497559 0.7993622q-0.011444092 0.427063 -0.2374878 0.81977844q-0.36634827 0.6364746 -0.98417664 0.80152893q-0.6235504 0.1436615 -1.3801117 -0.29595947zm0.30400085 -0.52812195q0.56741333 0.3297119 0.99142456 0.25080872q0.43180847 -0.092437744 0.65005493 -0.47161865q0.21824646 -0.37916565 0.07484436 -0.78778076q-0.13560486 -0.42214966 -0.7300415 -0.76756287q-0.5539093 -0.3218689 -0.9857178 -0.22943115q-0.4317932 0.092437744 -0.6422577 0.45806885q-0.21824646 0.3791809 -0.0826416 0.80133057q0.1434021 0.4086151 0.7243347 0.7461853zm3.1379395 -2.0062866l-2.9856873 -1.7349243l0.26501465 -0.4604187l0.41880798 0.24334717q-0.13821411 -0.26101685 -0.14079285 -0.56973267q0.005203247 -0.32226562 0.17668152 -0.6201782q0.18707275 -0.3250122 0.44688416 -0.46318054q0.2598114 -0.13816833 0.5632782 -0.07026672q-0.324234 -0.6582489 0.0031433105 -1.227005q0.25723267 -0.44688416 0.64642334 -0.52793884q0.3834839 -0.10244751 0.88334656 0.1880188l2.0534973 1.1932373l-0.2883911 0.50105286l-1.8778839 -1.0911865q-0.31071472 -0.18055725 -0.46348572 -0.197052q-0.15849304 -0.037872314 -0.31748962 0.050445557q-0.1512146 0.07476807 -0.25254822 0.25082397q-0.17927551 0.3114624 -0.08782959 0.6537323q0.08572388 0.32089233 0.5450592 0.5877991l1.7292633 1.004837l-0.29618835 0.51460266l-1.9454193 -1.1304474q-0.32424927 -0.18841553 -0.55651855 -0.16073608q-0.24577332 0.019821167 -0.4094696 0.30419922q-0.12471008 0.2166748 -0.1179657 0.45552063q0.0067596436 0.23884583 0.17614746 0.44570923q0.16938782 0.20684814 0.5746765 0.4423523l1.5536346 0.9028015l-0.29618835 0.5145874zm-0.8296814 -6.8587646l-0.5809326 -0.33755493l0.3117981 -0.541687l0.45933533 0.266922q0.37826538 0.21980286 0.48582458 0.40879822q0.16731262 0.24179077 0.1408081 0.5697479l-0.28059387 0.017654419q0.025985718 -0.20175171 -0.056640625 -0.3401184q-0.08831787 -0.15974426 -0.3314972 -0.3010559l-0.1481018 0.2572937zm3.2647705 0.5609894l0.20733643 -0.54815674q0.32060242 0.13208008 0.59184265 0.036697388q0.27905273 -0.10891724 0.47390747 -0.447464q0.20266724 -0.35209656 0.1611023 -0.5930939q-0.04727173 -0.2624054 -0.23641968 -0.37231445q-0.17562866 -0.10205078 -0.3559265 -0.008041382q-0.12991333 0.0690918 -0.47183228 0.41253662q-0.4546814 0.4767151 -0.67396545 0.638443q-0.23278809 0.15386963 -0.47857666 0.1736908q-0.25149536 -0.0015716553 -0.46765137 -0.127182q-0.20265198 -0.117752075 -0.31021118 -0.30674744q-0.12106323 -0.19685364 -0.14910889 -0.43000793q-0.018707275 -0.15544128 0.044174194 -0.38996887q0.04937744 -0.2423706 0.189682 -0.48612976q0.20265198 -0.35209656 0.4588318 -0.5465851q0.25045776 -0.21588135 0.49624634 -0.23571777q0.25357056 -0.033355713 0.56066895 0.09088135l-0.21305847 0.52674866q-0.25305176 -0.092819214 -0.46818542 -9.765625E-4q-0.2286377 0.083999634 -0.40011597 0.3819275q-0.19487 0.33854675 -0.15901184 0.55815125q0.022338867 0.21177673 0.17094421 0.29812622q0.108078 0.062805176 0.20680237 0.04788208q0.13354492 -0.012756348 0.24423218 -0.111083984q0.08729553 -0.05769348 0.40011597 -0.38191223q0.45259094 -0.44178772 0.671875 -0.60350037q0.20578003 -0.16957092 0.45155334 -0.18939209q0.24578857 -0.019821167 0.5024719 0.1293335q0.2566986 0.14915466 0.4006195 0.43156433q0.13041687 0.27456665 0.08831787 0.62960815q-0.034301758 0.3414917 -0.236969 0.693573q-0.3429718 0.5958557 -0.76542664 0.76600647q-0.4146576 0.15661621 -0.93426514 -0.036895752zm3.638153 -4.2534637l-4.120514 -2.3943481l1.7148285 -2.9792175l0.48635864 0.28260803l-1.4030457 2.4375458l1.256424 0.730072l1.3172913 -2.2885742l0.48635864 0.28260803l-1.3172913 2.2885895l1.405014 0.81643677l1.4576111 -2.5323486l0.48635864 0.28260803l-1.7693939 3.0740204zm2.1679993 -3.7665253l-2.9856873 -1.7349243l0.26501465 -0.46043396l0.43232727 0.2512207q-0.31280518 -0.6154785 0.04576111 -1.2384033q0.15588379 -0.2708435 0.3829651 -0.4460907q0.2270813 -0.17526245 0.45155334 -0.18939209q0.2244873 -0.014144897 0.47181702 0.057296753q0.1506958 0.05142212 0.50193787 0.25552368l1.8373566 1.0676575l-0.2962036 0.5145874l-1.810318 -1.0519409q-0.31072998 -0.18055725 -0.49832153 -0.19920349q-0.19328308 -0.040039062 -0.36009216 0.061828613q-0.18031311 0.09399414 -0.29722595 0.2971344q-0.18707275 0.32499695 -0.11694336 0.67297363q0.07014465 0.34796143 0.637558 0.67767334l1.6347046 0.94989014l-0.2962036 0.51460266zm2.9613647 -5.144867l-0.37828064 -0.21980286q0.282135 0.5434418 -0.029647827 1.0851135q-0.21046448 0.3656311 -0.57107544 0.5536499q-0.37413025 0.18017578 -0.81892395 0.13856506q-0.4447937 -0.041610718 -0.904129 -0.30851746q-0.4458313 -0.25906372 -0.7248535 -0.61997986q-0.27902222 -0.3609314 -0.2966919 -0.76875305q-0.031158447 -0.41567993 0.17929077 -0.78131104q0.15589905 -0.27082825 0.39440918 -0.40330505q0.23278809 -0.15386963 0.4863739 -0.1872406l-1.47258 -0.8556824l0.28840637 -0.50105286l4.120514 2.3943481l-0.2728119 0.4739685zm-2.4058685 0.7344055q0.56741333 0.32972717 0.99142456 0.25082397q0.42401123 -0.0789032 0.611084 -0.40390015q0.19487 -0.33854675 0.05718994 -0.72576904q-0.13769531 -0.3872223 -0.6916046 -0.7090912q-0.6079407 -0.35325623 -1.0319519 -0.2743683q-0.42973328 0.057510376 -0.63238525 0.40960693q-0.18707275 0.32499695 -0.035873413 0.7200775q0.13768005 0.38720703 0.7321167 0.73262024z" fill-rule="nonzero"/><path fill="#c9daf8" d="m224.50394 81.71129l11.905518 0l0 86.61417l-11.905518 0z" fill-rule="evenodd"/><path stroke="#000000" stroke-width="1.0" stroke-linejoin="round" stroke-linecap="butt" d="m224.50394 81.71129l11.905518 0l0 86.61417l-11.905518 0z" fill-rule="evenodd"/><path fill="#000000" fill-opacity="0.0" d="m205.07066 210.5931l24.34645 -42.29921l6.9921265 4.0629883l-24.34645 42.29921z" fill-rule="evenodd"/><path fill="#000000" d="m218.89676 199.40138l-4.120514 -2.3943634l1.0600586 -1.8417053q0.31178284 -0.541687 0.58354187 -0.76327515q0.27955627 -0.23510742 0.6567993 -0.23275757q0.38504028 -0.011199951 0.7227783 0.1850586q0.4458313 0.25906372 0.57936096 0.716156q0.13352966 0.4570923 -0.12835693 1.1000366q0.23278809 -0.15386963 0.3975067 -0.22079468q0.36216736 -0.09675598 0.8111267 -0.12501526l1.5344238 -0.06614685l-0.39752197 0.6906433l-1.1629028 0.04710388q-0.51856995 0.02394104 -0.79345703 0.06300354q-0.2883911 0.031204224 -0.4473877 0.119522095q-0.1512146 0.074783325 -0.24838257 0.18095398q-0.06806946 0.08694458 -0.1849823 0.29008484l-0.36634827 0.6364746l1.8238373 1.0597992l-0.31958008 0.55522156zm-1.9770966 -1.8897858l0.67811584 -1.1781616q0.21044922 -0.3656311 0.24630737 -0.61586q0.043655396 -0.2637787 -0.056106567 -0.46632385q-0.10548401 -0.22392273 -0.30812073 -0.3416748q-0.28372192 -0.16487122 -0.5975647 -0.05809021q-0.31384277 0.10676575 -0.5788574 0.56718445l-0.74827576 1.3000488l1.364502 0.7928772zm0.796463 -4.2654114l-0.58091736 -0.3375702l0.29618835 -0.51460266l0.58091736 0.3375702l-0.29618835 0.51460266zm3.5395966 2.056778l-2.9856873 -1.7349243l0.29618835 -0.5145874l2.9856873 1.7349243l-0.29618835 0.5145874zm-0.8575134 -1.9556122q-0.83761597 -0.48672485 -0.964386 -1.1748047q-0.111709595 -0.588974 0.20785522 -1.1442108q0.35075378 -0.60939026 0.9820862 -0.7665863q0.63134766 -0.1572113 1.3338623 0.25100708q0.58091736 0.33755493 0.81733704 0.7098694q0.23071289 0.35090637 0.22497559 0.7993622q-0.011428833 0.427063 -0.23747253 0.81977844q-0.36634827 0.6364746 -0.9841614 0.8015442q-0.6235504 0.1436615 -1.3800964 -0.29595947zm0.3039856 -0.5281372q0.56741333 0.3297119 0.99142456 0.25080872q0.4317932 -0.092437744 0.6500397 -0.47161865q0.21824646 -0.37916565 0.07484436 -0.78778076q-0.13562012 -0.42216492 -0.73005676 -0.7675781q-0.55389404 -0.32185364 -0.9857025 -0.2294159q-0.43180847 0.092437744 -0.6422577 0.45806885q-0.21824646 0.3791809 -0.08262634 0.80133057q0.1434021 0.4086151 0.7243347 0.7461853zm3.3312225 -3.3758087l0.484787 0.19134521q-0.08418274 0.24023438 -0.17770386 0.40272522q-0.15589905 0.2708435 -0.3304901 0.38624573q-0.18031311 0.0940094 -0.35438538 0.083221436q-0.17977905 -0.032180786 -0.6391144 -0.29910278l-1.7157593 -0.996994l-0.21824646 0.3791809l-0.39178467 -0.22766113l0.21824646 -0.3791809l-0.743042 -0.4317627l-0.00881958 -0.6737671l1.0402527 0.6044769l0.29618835 -0.5145874l0.39179993 0.22766113l-0.2962036 0.5145874l1.7427826 1.0126953q0.216156 0.12561035 0.29930115 0.1377716q0.08312988 0.012176514 0.15484619 -0.018447876q0.06599426 -0.052001953 0.12834167 -0.16033936q0.05456543 -0.09480286 0.119003296 -0.23806763zm1.6751099 -1.8766937l-4.120514 -2.3943481l0.8963623 -1.5573425q0.2728119 -0.4739685 0.57159424 -0.6798401q0.28527832 -0.21372986 0.63549805 -0.2270813q0.35021973 -0.01335144 0.6339264 0.15150452q0.27020264 0.15701294 0.41412354 0.4394226q0.14393616 0.28242493 0.12886047 0.65315247q0.32632446 -0.31637573 0.7056427 -0.34895325q0.3735962 -0.053970337 0.7383728 0.1579895q0.28370667 0.16485596 0.47024536 0.43589783q0.17301941 0.2631836 0.20678711 0.5177307q0.03378296 0.25454712 -0.05456543 0.56463623q-0.08833313 0.3100891 -0.32217407 0.71635437l-0.90415955 1.5708771zm-2.0716705 -1.9447327l0.5066376 -0.88023376q0.21044922 -0.3656311 0.26345825 -0.5516968q0.049362183 -0.2423706 -0.023376465 -0.42921448q-0.086257935 -0.19468689 -0.30241394 -0.32029724q-0.20265198 -0.117752075 -0.41360474 -0.09576416q-0.21669006 5.79834E-4 -0.3798523 0.1587677q-0.16886902 0.13679504 -0.41830444 0.57014465l-0.47546387 0.82606506l1.2429199 0.722229zm1.904892 1.1069031l0.58457947 -1.0156555q0.15589905 -0.2708435 0.20474243 -0.38702393q0.06858826 -0.21315002 0.057678223 -0.38212585q-0.003112793 -0.18252563 -0.10494995 -0.35012817q-0.10185242 -0.16760254 -0.2909851 -0.2775116q-0.22966003 -0.13345337 -0.4754486 -0.1136322q-0.24577332 0.019821167 -0.43803406 0.19725037q-0.1844635 0.1638794 -0.4105072 0.55659485l-0.5456085 0.947937l1.4185333 0.82429504zm3.1157532 -5.131378q0.065979004 0.41784668 0.025970459 0.73794556q-0.053527832 0.31225586 -0.2250061 0.6101837q-0.28840637 0.50105286 -0.6874695 0.6305847q-0.39126587 0.115997314 -0.7560425 -0.095962524q-0.216156 -0.12561035 -0.33721924 -0.322464q-0.12678528 -0.2182312 -0.1413269 -0.44354248q-0.028060913 -0.2331543 0.034820557 -0.46769714q0.045211792 -0.17250061 0.18966675 -0.48612976q0.27748108 -0.67004395 0.3466034 -1.0093689q-0.108078 -0.062805176 -0.13510132 -0.07850647q-0.31072998 -0.18055725 -0.5102539 -0.11579895q-0.29255676 0.10108948 -0.5108032 0.48025513q-0.20265198 0.35209656 -0.16888428 0.6066437q0.020263672 0.2467041 0.28422546 0.5085144l-0.34814453 0.44825745q-0.27175903 -0.2482605 -0.37516785 -0.50712585q-0.10910034 -0.28025818 -0.053497314 -0.62745667q0.06340027 -0.36071777 0.28164673 -0.7398987q0.22602844 -0.39271545 0.45310974 -0.5679779q0.22135925 -0.19665527 0.43232727 -0.21864319q0.20524597 -0.04336548 0.4312744 0.03375244q0.1506958 0.05142212 0.48843384 0.24768066l0.6619873 0.38467407q0.7160187 0.4160614 0.92074585 0.4988861q0.19902039 0.061431885 0.42921448 0.06867981l-0.3039856 0.5281372q-0.20889282 -0.012939453 -0.42712402 -0.10362244zm-1.1582184 -0.6187897q-0.047805786 0.33363342 -0.28633118 0.93595886q-0.12522888 0.342865 -0.1491394 0.50968933q-0.016098022 0.1532898 0.045211792 0.29733276q0.069107056 0.13052368 0.20420837 0.20903015q0.20263672 0.117752075 0.42347717 0.047286987q0.2286377 -0.083999634 0.40011597 -0.3819275q0.16368103 -0.28437805 0.17460632 -0.58525085q-0.0025939941 -0.30871582 -0.16990662 -0.5505066q-0.115356445 -0.17546082 -0.45310974 -0.37171936l-0.18913269 -0.1098938zm2.5200653 -0.9015503l-0.2728119 0.4739685l-4.120514 -2.3943481l0.2883911 -0.5010681l1.47258 0.85569763q-0.2182312 -0.56051636 0.07015991 -1.0615845q0.15589905 -0.27082825 0.41778564 -0.4439392q0.2561798 -0.19448853 0.54455566 -0.22570801q0.28268433 -0.052597046 0.6131592 0.03100586q0.33825684 0.07006836 0.6625061 0.2584839q0.77005005 0.447464 0.9706116 1.0700073q0.20056152 0.6225281 -0.10342407 1.1506653q-0.3039856 0.5281372 -0.9212799 0.56700134l0.37828064 0.21981812zm-1.5209045 -0.86569214q0.54039 0.31401062 0.85580444 0.2985077q0.53208923 -0.016098022 0.7659149 -0.42236328q0.18707275 -0.3250122 0.043655396 -0.7336273q-0.1434021 -0.4086151 -0.72431946 -0.74617004q-0.5809326 -0.3375702 -0.9836273 -0.26435852q-0.416214 0.06535339 -0.60328674 0.3903656q-0.19487 0.33854675 -0.03794861 0.7550049q0.1434021 0.4086151 0.6838074 0.722641zm4.227524 -1.1743622l-0.5040283 -0.22059631q0.14186096 -0.15249634 0.21200562 -0.27438354q0.09353638 -0.16249084 0.094055176 -0.2886963q0.00831604 -0.13973999 -0.060791016 -0.2702484q-0.044158936 -0.07987976 -0.27902222 -0.36091614q-0.04624939 -0.044952393 -0.10392761 -0.13267517l-3.6404114 -0.59739685l0.31176758 -0.54167175l2.0878143 0.38189697q0.39439392 0.06652832 0.8137207 0.18370056q-0.2966919 -0.29890442 -0.55078125 -0.6091919l-1.3764343 -1.6491699l0.2883911 -0.50105286l2.3849945 2.9038544q0.38502502 0.45866394 0.5118103 0.6769104q0.16522217 0.27671814 0.18548584 0.52342224q0.020263672 0.24668884 -0.11224365 0.47691345q-0.085739136 0.1489563 -0.2624054 0.29930115z" fill-rule="nonzero"/><path fill="#000000" fill-opacity="0.0" d="m247.39896 168.30971l32.53543 0" fill-rule="evenodd"/><path stroke="#000000" stroke-width="1.0" stroke-linejoin="round" stroke-linecap="butt" stroke-dasharray="4.0,3.0" d="m247.39896 168.30971l26.53543 0" fill-rule="evenodd"/><path fill="#000000" stroke="#000000" stroke-width="1.0" stroke-linecap="butt" d="m273.9344 169.96144l4.538086 -1.6517334l-4.538086 -1.6517334z" fill-rule="evenodd"/><path fill="#6d9eeb" d="m161.39633 23.979002l11.905502 0l0 43.307083l-11.905502 0z" fill-rule="evenodd"/><path stroke="#000000" stroke-width="1.0" stroke-linejoin="round" stroke-linecap="butt" d="m161.39633 23.979002l11.905502 0l0 43.307083l-11.905502 0z" fill-rule="evenodd"/><path fill="#0000ff" d="m177.97638 56.28092l2.4409485 -2.4147758l2.4409332 2.4147758l-1.220459 0l0 9.963177l-2.4409485 0l0 -9.963177z" fill-rule="evenodd"/><path stroke="#0000ff" stroke-width="1.0" stroke-linejoin="round" stroke-linecap="butt" d="m177.97638 56.28092l2.4409485 -2.4147758l2.4409332 2.4147758l-1.220459 0l0 9.963177l-2.4409485 0l0 -9.963177z" fill-rule="evenodd"/><path fill="#0000ff" d="m177.97638 41.85835l2.4409485 -2.4147797l2.4409332 2.4147797l-1.220459 0l0 9.963173l-2.4409485 0l0 -9.963173z" fill-rule="evenodd"/><path stroke="#0000ff" stroke-width="1.0" stroke-linejoin="round" stroke-linecap="butt" d="m177.97638 41.85835l2.4409485 -2.4147797l2.4409332 2.4147797l-1.220459 0l0 9.963173l-2.4409485 0l0 -9.963173z" fill-rule="evenodd"/><path fill="#0000ff" d="m177.97638 27.435776l2.4409485 -2.4147778l2.4409332 2.4147778l-1.220459 0l0 9.963173l-2.4409485 0l0 -9.963173z" fill-rule="evenodd"/><path stroke="#0000ff" stroke-width="1.0" stroke-linejoin="round" stroke-linecap="butt" d="m177.97638 27.435776l2.4409485 -2.4147778l2.4409332 2.4147778l-1.220459 0l0 9.963173l-2.4409485 0l0 -9.963173z" fill-rule="evenodd"/></g></svg>