<svg version="1.1" viewBox="0.0 0.0 1159.5275590551182 379.87664041994753" fill="none" stroke="none" stroke-linecap="square" stroke-miterlimit="10" xmlns:xlink="http://www.w3.org/1999/xlink" xmlns="http://www.w3.org/2000/svg"><clipPath id="p.0"><path d="m0 0l1159.5276 0l0 379.87665l-1159.5276 0l0 -379.87665z" clip-rule="nonzero"/></clipPath><g clip-path="url(#p.0)"><path fill="#000000" fill-opacity="0.0" d="m0 0l1159.5276 0l0 379.87665l-1159.5276 0z" fill-rule="evenodd"/><path fill="#9fc5e8" d="m53.322834 58.62336l0 0c0 -20.073593 16.272861 -36.34646 36.346455 -36.34646c20.073593 0 36.34646 16.272863 36.34646 36.34646c0 20.073593 -16.272865 36.34646 -36.34646 36.34646c-20.073593 0 -36.346455 -16.272865 -36.346455 -36.34646z" fill-rule="evenodd"/><path fill="#7f9db9" d="m74.23888 47.75308c0 -2.0909996 1.6950912 -3.7860909 3.786087 -3.7860909c2.0909958 0 3.786087 1.6950912 3.786087 3.7860909c0 2.0909958 -1.6950912 3.786087 -3.786087 3.786087c-2.0909958 0 -3.786087 -1.6950912 -3.786087 -3.786087m23.28865 0c0 -2.0909996 1.6950912 -3.7860909 3.7860947 -3.7860909c2.0909958 0 3.786087 1.6950912 3.786087 3.7860909c0 2.0909958 -1.6950912 3.786087 -3.786087 3.786087c-2.0910034 0 -3.7860947 -1.6950912 -3.7860947 -3.786087" fill-rule="evenodd"/><path fill="#000000" fill-opacity="0.0" d="m69.96928 74.47429q19.700012 13.52961 39.354027 0" fill-rule="evenodd"/><path fill="#000000" fill-opacity="0.0" d="m53.322834 58.62336l0 0c0 -20.073593 16.272861 -36.34646 36.346455 -36.34646c20.073593 0 36.34646 16.272863 36.34646 36.34646c0 20.073593 -16.272865 36.34646 -36.34646 36.34646c-20.073593 0 -36.346455 -16.272865 -36.346455 -36.34646z" fill-rule="evenodd"/><path stroke="#000000" stroke-width="1.0" stroke-linejoin="round" stroke-linecap="butt" d="m74.23888 47.75308c0 -2.0909996 1.6950912 -3.7860909 3.786087 -3.7860909c2.0909958 0 3.786087 1.6950912 3.786087 3.7860909c0 2.0909958 -1.6950912 3.786087 -3.786087 3.786087c-2.0909958 0 -3.786087 -1.6950912 -3.786087 -3.786087m23.28865 0c0 -2.0909996 1.6950912 -3.7860909 3.7860947 -3.7860909c2.0909958 0 3.786087 1.6950912 3.786087 3.7860909c0 2.0909958 -1.6950912 3.786087 -3.786087 3.786087c-2.0910034 0 -3.7860947 -1.6950912 -3.7860947 -3.786087" fill-rule="evenodd"/><path stroke="#000000" stroke-width="1.0" stroke-linejoin="round" stroke-linecap="butt" d="m69.96928 74.47429q19.700012 13.52961 39.354027 0" fill-rule="evenodd"/><path stroke="#000000" stroke-width="1.0" stroke-linejoin="round" stroke-linecap="butt" d="m53.322834 58.62336l0 0c0 -20.073593 16.272861 -36.34646 36.346455 -36.34646c20.073593 0 36.34646 16.272863 36.34646 36.34646c0 20.073593 -16.272865 36.34646 -36.34646 36.34646c-20.073593 0 -36.346455 -16.272865 -36.346455 -36.34646z" fill-rule="evenodd"/><path fill="#9fc5e8" d="m53.322834 146.16667l0 0c0 -20.0736 16.272861 -36.34646 36.346455 -36.34646c20.073593 0 36.34646 16.272858 36.34646 36.34646c0 20.073593 -16.272865 36.34645 -36.34646 36.34645c-20.073593 0 -36.346455 -16.272858 -36.346455 -36.34645z" fill-rule="evenodd"/><path fill="#7f9db9" d="m74.23888 135.29639c0 -2.0910034 1.6950912 -3.786087 3.786087 -3.786087c2.0909958 0 3.786087 1.6950836 3.786087 3.786087c0 2.0910034 -1.6950912 3.786087 -3.786087 3.786087c-2.0909958 0 -3.786087 -1.6950836 -3.786087 -3.786087m23.28865 0c0 -2.0910034 1.6950912 -3.786087 3.7860947 -3.786087c2.0909958 0 3.786087 1.6950836 3.786087 3.786087c0 2.0910034 -1.6950912 3.786087 -3.786087 3.786087c-2.0910034 0 -3.7860947 -1.6950836 -3.7860947 -3.786087" fill-rule="evenodd"/><path fill="#000000" fill-opacity="0.0" d="m69.96928 162.0176q19.700012 13.529617 39.354027 0" fill-rule="evenodd"/><path fill="#000000" fill-opacity="0.0" d="m53.322834 146.16667l0 0c0 -20.0736 16.272861 -36.34646 36.346455 -36.34646c20.073593 0 36.34646 16.272858 36.34646 36.34646c0 20.073593 -16.272865 36.34645 -36.34646 36.34645c-20.073593 0 -36.346455 -16.272858 -36.346455 -36.34645z" fill-rule="evenodd"/><path stroke="#000000" stroke-width="1.0" stroke-linejoin="round" stroke-linecap="butt" d="m74.23888 135.29639c0 -2.0910034 1.6950912 -3.786087 3.786087 -3.786087c2.0909958 0 3.786087 1.6950836 3.786087 3.786087c0 2.0910034 -1.6950912 3.786087 -3.786087 3.786087c-2.0909958 0 -3.786087 -1.6950836 -3.786087 -3.786087m23.28865 0c0 -2.0910034 1.6950912 -3.786087 3.7860947 -3.786087c2.0909958 0 3.786087 1.6950836 3.786087 3.786087c0 2.0910034 -1.6950912 3.786087 -3.786087 3.786087c-2.0910034 0 -3.7860947 -1.6950836 -3.7860947 -3.786087" fill-rule="evenodd"/><path stroke="#000000" stroke-width="1.0" stroke-linejoin="round" stroke-linecap="butt" d="m69.96928 162.0176q19.700012 13.529617 39.354027 0" fill-rule="evenodd"/><path stroke="#000000" stroke-width="1.0" stroke-linejoin="round" stroke-linecap="butt" d="m53.322834 146.16667l0 0c0 -20.0736 16.272861 -36.34646 36.346455 -36.34646c20.073593 0 36.34646 16.272858 36.34646 36.34646c0 20.073593 -16.272865 36.34645 -36.34646 36.34645c-20.073593 0 -36.346455 -16.272858 -36.346455 -36.34645z" fill-rule="evenodd"/><path fill="#9fc5e8" d="m53.322834 233.70998l0 0c0 -20.073593 16.272861 -36.346466 36.346455 -36.346466c20.073593 0 36.34646 16.272873 36.34646 36.346466c0 20.073593 -16.272865 36.34645 -36.34646 36.34645c-20.073593 0 -36.346455 -16.272858 -36.346455 -36.34645z" fill-rule="evenodd"/><path fill="#7f9db9" d="m74.23888 222.83969c0 -2.0910034 1.6950912 -3.786087 3.786087 -3.786087c2.0909958 0 3.786087 1.6950836 3.786087 3.786087c0 2.0910034 -1.6950912 3.786087 -3.786087 3.786087c-2.0909958 0 -3.786087 -1.6950836 -3.786087 -3.786087m23.28865 0c0 -2.0910034 1.6950912 -3.786087 3.7860947 -3.786087c2.0909958 0 3.786087 1.6950836 3.786087 3.786087c0 2.0910034 -1.6950912 3.786087 -3.786087 3.786087c-2.0910034 0 -3.7860947 -1.6950836 -3.7860947 -3.786087" fill-rule="evenodd"/><path fill="#000000" fill-opacity="0.0" d="m69.96928 249.56091q19.700012 13.529602 39.354027 0" fill-rule="evenodd"/><path fill="#000000" fill-opacity="0.0" d="m53.322834 233.70998l0 0c0 -20.073593 16.272861 -36.346466 36.346455 -36.346466c20.073593 0 36.34646 16.272873 36.34646 36.346466c0 20.073593 -16.272865 36.34645 -36.34646 36.34645c-20.073593 0 -36.346455 -16.272858 -36.346455 -36.34645z" fill-rule="evenodd"/><path stroke="#000000" stroke-width="1.0" stroke-linejoin="round" stroke-linecap="butt" d="m74.23888 222.83969c0 -2.0910034 1.6950912 -3.786087 3.786087 -3.786087c2.0909958 0 3.786087 1.6950836 3.786087 3.786087c0 2.0910034 -1.6950912 3.786087 -3.786087 3.786087c-2.0909958 0 -3.786087 -1.6950836 -3.786087 -3.786087m23.28865 0c0 -2.0910034 1.6950912 -3.786087 3.7860947 -3.786087c2.0909958 0 3.786087 1.6950836 3.786087 3.786087c0 2.0910034 -1.6950912 3.786087 -3.786087 3.786087c-2.0910034 0 -3.7860947 -1.6950836 -3.7860947 -3.786087" fill-rule="evenodd"/><path stroke="#000000" stroke-width="1.0" stroke-linejoin="round" stroke-linecap="butt" d="m69.96928 249.56091q19.700012 13.529602 39.354027 0" fill-rule="evenodd"/><path stroke="#000000" stroke-width="1.0" stroke-linejoin="round" stroke-linecap="butt" d="m53.322834 233.70998l0 0c0 -20.073593 16.272861 -36.346466 36.346455 -36.346466c20.073593 0 36.34646 16.272873 36.34646 36.346466c0 20.073593 -16.272865 36.34645 -36.34646 36.34645c-20.073593 0 -36.346455 -16.272858 -36.346455 -36.34645z" fill-rule="evenodd"/><path fill="#9fc5e8" d="m53.322834 321.2533l0 0c0 -20.073608 16.272861 -36.346466 36.346455 -36.346466c20.073593 0 36.34646 16.272858 36.34646 36.346466c0 20.073578 -16.272865 36.346436 -36.34646 36.346436c-20.073593 0 -36.346455 -16.272858 -36.346455 -36.346436z" fill-rule="evenodd"/><path fill="#7f9db9" d="m74.23888 310.383c0 -2.0910034 1.6950912 -3.7860718 3.786087 -3.7860718c2.0909958 0 3.786087 1.6950684 3.786087 3.7860718c0 2.0910034 -1.6950912 3.7861023 -3.786087 3.7861023c-2.0909958 0 -3.786087 -1.6950989 -3.786087 -3.7861023m23.28865 0c0 -2.0910034 1.6950912 -3.7860718 3.7860947 -3.7860718c2.0909958 0 3.786087 1.6950684 3.786087 3.7860718c0 2.0910034 -1.6950912 3.7861023 -3.786087 3.7861023c-2.0910034 0 -3.7860947 -1.6950989 -3.7860947 -3.7861023" fill-rule="evenodd"/><path fill="#000000" fill-opacity="0.0" d="m69.96928 337.10422q19.700012 13.529602 39.354027 0" fill-rule="evenodd"/><path fill="#000000" fill-opacity="0.0" d="m53.322834 321.2533l0 0c0 -20.073608 16.272861 -36.346466 36.346455 -36.346466c20.073593 0 36.34646 16.272858 36.34646 36.346466c0 20.073578 -16.272865 36.346436 -36.34646 36.346436c-20.073593 0 -36.346455 -16.272858 -36.346455 -36.346436z" fill-rule="evenodd"/><path stroke="#000000" stroke-width="1.0" stroke-linejoin="round" stroke-linecap="butt" d="m74.23888 310.383c0 -2.0910034 1.6950912 -3.7860718 3.786087 -3.7860718c2.0909958 0 3.786087 1.6950684 3.786087 3.7860718c0 2.0910034 -1.6950912 3.7861023 -3.786087 3.7861023c-2.0909958 0 -3.786087 -1.6950989 -3.786087 -3.7861023m23.28865 0c0 -2.0910034 1.6950912 -3.7860718 3.7860947 -3.7860718c2.0909958 0 3.786087 1.6950684 3.786087 3.7860718c0 2.0910034 -1.6950912 3.7861023 -3.786087 3.7861023c-2.0910034 0 -3.7860947 -1.6950989 -3.7860947 -3.7861023" fill-rule="evenodd"/><path stroke="#000000" stroke-width="1.0" stroke-linejoin="round" stroke-linecap="butt" d="m69.96928 337.10422q19.700012 13.529602 39.354027 0" fill-rule="evenodd"/><path stroke="#000000" stroke-width="1.0" stroke-linejoin="round" stroke-linecap="butt" d="m53.322834 321.2533l0 0c0 -20.073608 16.272861 -36.346466 36.346455 -36.346466c20.073593 0 36.34646 16.272858 36.34646 36.346466c0 20.073578 -16.272865 36.346436 -36.34646 36.346436c-20.073593 0 -36.346455 -16.272858 -36.346455 -36.346436z" fill-rule="evenodd"/><defs><linearGradient id="p.1" gradientUnits="userSpaceOnUse" gradientTransform="matrix(18.31141416942752 0.0 0.0 18.31141416942752 0.0 0.0)" spreadMethod="pad" x1="28.277616617443787" y1="1.2165144872562816" x2="28.27754942902517" y2="19.527928656560537"><stop offset="0.0" stop-color="#ffe599"/><stop offset="1.0" stop-color="#b6d7a8"/></linearGradient></defs><path fill="url(#p.1)" d="m517.80316 22.276903l221.44879 0l0 335.30707l-221.44879 0z" fill-rule="evenodd"/><path stroke="#000000" stroke-width="1.0" stroke-linejoin="round" stroke-linecap="butt" d="m517.80316 22.276903l221.44879 0l0 335.30707l-221.44879 0z" fill-rule="evenodd"/><path fill="#000000" d="m573.1887 199.81046l-4.40625 0l-1.75 -4.546875l-8.0 0l-1.65625 4.546875l-4.296875 0l7.8125 -20.046875l4.28125 0l8.015625 20.046875zm-7.453125 -7.9375l-2.75 -7.4375l-2.71875 7.4375l5.46875 0zm9.220703 8.890625l4.390625 0.53125q0.109375 0.765625 0.5 1.0625q0.546875 0.40625 1.71875 0.40625q1.515625 0 2.265625 -0.453125q0.5 -0.296875 0.765625 -0.96875q0.171875 -0.484375 0.171875 -1.765625l0 -2.125q-1.71875 2.359375 -4.34375 2.359375q-2.921875 0 -4.640625 -2.46875q-1.328125 -1.96875 -1.328125 -4.875q0 -3.65625 1.75 -5.578125q1.75 -1.921875 4.375 -1.921875q2.6875 0 4.4375 2.359375l0 -2.03125l3.59375 0l0 13.03125q0 2.5625 -0.421875 3.828125q-0.421875 1.28125 -1.1875 2.0q-0.765625 0.734375 -2.046875 1.140625q-1.28125 0.40625 -3.234375 0.40625q-3.6875 0 -5.234375 -1.265625q-1.546875 -1.265625 -1.546875 -3.203125q0 -0.1875 0.015625 -0.46875zm3.4375 -8.515625q0 2.3125 0.890625 3.390625q0.890625 1.0625 2.203125 1.0625q1.40625 0 2.375 -1.09375q0.984375 -1.109375 0.984375 -3.265625q0 -2.25 -0.9375 -3.34375q-0.921875 -1.09375 -2.34375 -1.09375q-1.390625 0 -2.28125 1.078125q-0.890625 1.0625 -0.890625 3.265625zm13.666016 8.515625l4.390625 0.53125q0.109375 0.765625 0.5 1.0625q0.546875 0.40625 1.71875 0.40625q1.515625 0 2.265625 -0.453125q0.5 -0.296875 0.765625 -0.96875q0.171875 -0.484375 0.171875 -1.765625l0 -2.125q-1.71875 2.359375 -4.34375 2.359375q-2.921875 0 -4.640625 -2.46875q-1.328125 -1.96875 -1.328125 -4.875q0 -3.65625 1.75 -5.578125q1.75 -1.921875 4.375 -1.921875q2.6875 0 4.4375 2.359375l0 -2.03125l3.59375 0l0 13.03125q0 2.5625 -0.421875 3.828125q-0.421875 1.28125 -1.1875 2.0q-0.765625 0.734375 -2.046875 1.140625q-1.28125 0.40625 -3.234375 0.40625q-3.6875 0 -5.234375 -1.265625q-1.546875 -1.265625 -1.546875 -3.203125q0 -0.1875 0.015625 -0.46875zm3.4375 -8.515625q0 2.3125 0.890625 3.390625q0.890625 1.0625 2.203125 1.0625q1.40625 0 2.375 -1.09375q0.984375 -1.109375 0.984375 -3.265625q0 -2.25 -0.9375 -3.34375q-0.921875 -1.09375 -2.34375 -1.09375q-1.390625 0 -2.28125 1.078125q-0.890625 1.0625 -0.890625 3.265625zm17.697266 7.5625l-3.84375 0l0 -14.515625l3.578125 0l0 2.0625q0.90625 -1.46875 1.640625 -1.921875q0.734375 -0.46875 1.65625 -0.46875q1.3125 0 2.53125 0.71875l-1.1875 3.34375q-0.96875 -0.625 -1.796875 -0.625q-0.8125 0 -1.375 0.453125q-0.5625 0.4375 -0.890625 1.609375q-0.3125 1.15625 -0.3125 4.859375l0 4.484375zm15.630859 -4.625l3.828125 0.640625q-0.734375 2.109375 -2.328125 3.21875q-1.59375 1.09375 -3.984375 1.09375q-3.796875 0 -5.609375 -2.46875q-1.4375 -1.984375 -1.4375 -5.015625q0 -3.609375 1.875 -5.640625q1.890625 -2.046875 4.78125 -2.046875q3.234375 0 5.109375 2.140625q1.875 2.140625 1.796875 6.546875l-9.625 0q0.046875 1.71875 0.921875 2.671875q0.890625 0.9375 2.21875 0.9375q0.90625 0 1.515625 -0.484375q0.625 -0.5 0.9375 -1.59375zm0.21875 -3.875q-0.046875 -1.671875 -0.875 -2.53125q-0.8125 -0.875 -1.984375 -0.875q-1.265625 0 -2.078125 0.90625q-0.828125 0.921875 -0.8125 2.5l5.75 0zm6.5878906 9.453125l4.390625 0.53125q0.109375 0.765625 0.5 1.0625q0.546875 0.40625 1.71875 0.40625q1.515625 0 2.265625 -0.453125q0.5 -0.296875 0.765625 -0.96875q0.171875 -0.484375 0.171875 -1.765625l0 -2.125q-1.71875 2.359375 -4.34375 2.359375q-2.921875 0 -4.640625 -2.46875q-1.328125 -1.96875 -1.328125 -4.875q0 -3.65625 1.75 -5.578125q1.75 -1.921875 4.375 -1.921875q2.6875 0 4.4375 2.359375l0 -2.03125l3.59375 0l0 13.03125q0 2.5625 -0.421875 3.828125q-0.421875 1.28125 -1.1875 2.0q-0.765625 0.734375 -2.046875 1.140625q-1.28125 0.40625 -3.234375 0.40625q-3.6875 0 -5.234375 -1.265625q-1.546875 -1.265625 -1.546875 -3.203125q0 -0.1875 0.015625 -0.46875zm3.4375 -8.515625q0 2.3125 0.890625 3.390625q0.890625 1.0625 2.203125 1.0625q1.40625 0 2.375 -1.09375q0.984375 -1.109375 0.984375 -3.265625q0 -2.25 -0.9375 -3.34375q-0.921875 -1.09375 -2.34375 -1.09375q-1.390625 0 -2.28125 1.078125q-0.890625 1.0625 -0.890625 3.265625zm16.884766 -2.53125l-3.484375 -0.625q0.59375 -2.109375 2.03125 -3.109375q1.4375 -1.015625 4.265625 -1.015625q2.5625 0 3.8125 0.609375q1.265625 0.609375 1.78125 1.546875q0.515625 0.921875 0.515625 3.4375l-0.046875 4.484375q0 1.90625 0.1875 2.8125q0.1875 0.90625 0.6875 1.953125l-3.796875 0q-0.15625 -0.390625 -0.375 -1.140625q-0.09375 -0.34375 -0.125 -0.453125q-0.984375 0.96875 -2.109375 1.453125q-1.125 0.46875 -2.390625 0.46875q-2.25 0 -3.546875 -1.21875q-1.28125 -1.21875 -1.28125 -3.078125q0 -1.234375 0.578125 -2.1875q0.59375 -0.96875 1.65625 -1.484375q1.0625 -0.515625 3.0625 -0.890625q2.6875 -0.5 3.71875 -0.9375l0 -0.390625q0 -1.109375 -0.546875 -1.578125q-0.546875 -0.46875 -2.0625 -0.46875q-1.015625 0 -1.59375 0.40625q-0.578125 0.390625 -0.9375 1.40625zm5.140625 3.125q-0.734375 0.234375 -2.34375 0.578125q-1.59375 0.34375 -2.078125 0.671875q-0.75 0.53125 -0.75 1.359375q0 0.796875 0.59375 1.390625q0.609375 0.59375 1.53125 0.59375q1.046875 0 1.984375 -0.6875q0.703125 -0.515625 0.921875 -1.265625q0.140625 -0.5 0.140625 -1.875l0 -0.765625zm14.228516 -7.546875l0 3.0625l-2.625 0l0 5.84375q0 1.78125 0.0625 2.078125q0.078125 0.296875 0.34375 0.484375q0.28125 0.1875 0.65625 0.1875q0.53125 0 1.546875 -0.375l0.328125 2.984375q-1.34375 0.578125 -3.03125 0.578125q-1.046875 0 -1.890625 -0.34375q-0.828125 -0.359375 -1.21875 -0.90625q-0.375 -0.5625 -0.53125 -1.5q-0.125 -0.671875 -0.125 -2.703125l0 -6.328125l-1.765625 0l0 -3.0625l1.765625 0l0 -2.890625l3.859375 -2.234375l0 5.125l2.625 0zm1.7773438 7.046875q0 -1.90625 0.9375 -3.703125q0.953125 -1.796875 2.671875 -2.734375q1.734375 -0.9375 3.859375 -0.9375q3.296875 0 5.40625 2.140625q2.109375 2.140625 2.109375 5.40625q0 3.296875 -2.125 5.46875q-2.125 2.15625 -5.359375 2.15625q-2.0 0 -3.8125 -0.90625q-1.796875 -0.90625 -2.75 -2.640625q-0.9375 -1.75 -0.9375 -4.25zm3.9375 0.203125q0 2.171875 1.015625 3.328125q1.03125 1.140625 2.53125 1.140625q1.515625 0 2.53125 -1.140625q1.015625 -1.15625 1.015625 -3.34375q0 -2.140625 -1.015625 -3.28125q-1.015625 -1.15625 -2.53125 -1.15625q-1.5 0 -2.53125 1.15625q-1.015625 1.140625 -1.015625 3.296875zm17.728516 7.265625l-3.84375 0l0 -14.515625l3.578125 0l0 2.0625q0.90625 -1.46875 1.640625 -1.921875q0.734375 -0.46875 1.65625 -0.46875q1.3125 0 2.53125 0.71875l-1.1875 3.34375q-0.96875 -0.625 -1.796875 -0.625q-0.8125 0 -1.375 0.453125q-0.5625 0.4375 -0.890625 1.609375q-0.3125 1.15625 -0.3125 4.859375l0 4.484375z" fill-rule="nonzero"/><path fill="#ffff00" d="m321.90912 155.49176l38.158813 -39.948456l-3.7625732 36.67682l43.315674 -5.9785004l-17.203217 19.684952l45.058533 5.6616516l-35.780273 16.103363l40.937164 19.388779l-48.83139 -2.3969116l13.409912 35.492126l-42.290436 -25.057312l-7.924988 36.366867l-27.834808 -33.07457l-20.986298 45.906296l-7.894226 -41.14003l-30.274841 13.706451l9.278259 -25.346603l-56.715332 4.4769745l36.77475 -19.368103l-38.1588 -21.765015l47.437057 -6.8739014l-43.643738 -36.656143l71.17099 27.722855l10.662323 -27.722855z" fill-rule="evenodd"/><path stroke="#000000" stroke-width="1.0" stroke-linejoin="round" stroke-linecap="butt" d="m321.90912 155.49176l38.158813 -39.948456l-3.7625732 36.67682l43.315674 -5.9785004l-17.203217 19.684952l45.058533 5.6616516l-35.780273 16.103363l40.937164 19.388779l-48.83139 -2.3969116l13.409912 35.492126l-42.290436 -25.057312l-7.924988 36.366867l-27.834808 -33.07457l-20.986298 45.906296l-7.894226 -41.14003l-30.274841 13.706451l9.278259 -25.346603l-56.715332 4.4769745l36.77475 -19.368103l-38.1588 -21.765015l47.437057 -6.8739014l-43.643738 -36.656143l71.17099 27.722855l10.662323 -27.722855z" fill-rule="evenodd"/><path fill="#000000" d="m296.87933 179.34502l-3.765625 0l-1.5 -3.90625l-6.875 0l-1.40625 3.90625l-3.6875 0l6.6875 -17.1875l3.671875 0l6.875 17.1875zm-6.375 -6.796875l-2.375 -6.375l-2.3125 6.375l4.6875 0zm13.96875 6.796875l0 -17.1875l3.296875 0l0 17.1875l-3.296875 0zm5.9179688 -6.40625q0 -1.640625 0.796875 -3.171875q0.8125 -1.53125 2.296875 -2.34375q1.484375 -0.8125 3.3125 -0.8125q2.828125 0 4.625 1.84375q1.8125 1.828125 1.8125 4.625q0 2.828125 -1.828125 4.6875q-1.828125 1.859375 -4.59375 1.859375q-1.703125 0 -3.265625 -0.765625q-1.546875 -0.78125 -2.359375 -2.265625q-0.796875 -1.5 -0.796875 -3.65625zm3.375 0.1875q0 1.84375 0.875 2.828125q0.875 0.984375 2.171875 0.984375q1.28125 0 2.15625 -0.984375q0.875 -0.984375 0.875 -2.859375q0 -1.828125 -0.875 -2.8125q-0.875 -0.984375 -2.15625 -0.984375q-1.296875 0 -2.171875 0.984375q-0.875 0.984375 -0.875 2.84375zm17.753906 -6.234375l0 2.625l-2.25 0l0 5.015625q0 1.53125 0.0625 1.78125q0.0625 0.25 0.28125 0.421875q0.234375 0.15625 0.5625 0.15625q0.453125 0 1.328125 -0.3125l0.28125 2.546875q-1.15625 0.5 -2.609375 0.5q-0.890625 0 -1.609375 -0.296875q-0.703125 -0.296875 -1.046875 -0.765625q-0.328125 -0.484375 -0.453125 -1.296875q-0.109375 -0.578125 -0.109375 -2.3125l0 -5.4375l-1.515625 0l0 -2.625l1.515625 0l0 -2.46875l3.3125 -1.921875l0 4.390625l2.25 0zm8.191406 6.046875q0 -1.640625 0.796875 -3.171875q0.8125 -1.53125 2.296875 -2.34375q1.484375 -0.8125 3.3125 -0.8125q2.828125 0 4.625 1.84375q1.8125 1.828125 1.8125 4.625q0 2.828125 -1.828125 4.6875q-1.828125 1.859375 -4.59375 1.859375q-1.703125 0 -3.265625 -0.765625q-1.546875 -0.78125 -2.359375 -2.265625q-0.796875 -1.5 -0.796875 -3.65625zm3.375 0.1875q0 1.84375 0.875 2.828125q0.875 0.984375 2.171875 0.984375q1.28125 0 2.15625 -0.984375q0.875 -0.984375 0.875 -2.859375q0 -1.828125 -0.875 -2.8125q-0.875 -0.984375 -2.15625 -0.984375q-1.296875 0 -2.171875 0.984375q-0.875 0.984375 -0.875 2.84375zm10.597656 -6.234375l1.828125 0l0 -0.9375q0 -1.5625 0.328125 -2.328125q0.34375 -0.78125 1.234375 -1.265625q0.90625 -0.484375 2.265625 -0.484375q1.40625 0 2.765625 0.421875l-0.453125 2.296875q-0.78125 -0.1875 -1.515625 -0.1875q-0.703125 0 -1.015625 0.328125q-0.3125 0.328125 -0.3125 1.28125l0 0.875l2.453125 0l0 2.59375l-2.453125 0l0 9.859375l-3.296875 0l0 -9.859375l-1.828125 0l0 -2.59375z" fill-rule="nonzero"/><path fill="#000000" d="m283.3266 195.89189l3.03125 0l0 1.703125q1.625 -1.984375 3.875 -1.984375q1.203125 0 2.078125 0.5q0.875 0.484375 1.4375 1.484375q0.828125 -1.0 1.765625 -1.484375q0.953125 -0.5 2.03125 -0.5q1.375 0 2.3125 0.5625q0.953125 0.5625 1.421875 1.640625q0.34375 0.796875 0.34375 2.578125l0 7.953125l-3.296875 0l0 -7.109375q0 -1.859375 -0.328125 -2.390625q-0.46875 -0.703125 -1.40625 -0.703125q-0.703125 0 -1.3125 0.421875q-0.609375 0.421875 -0.875 1.234375q-0.265625 0.8125 -0.265625 2.5625l0 5.984375l-3.296875 0l0 -6.828125q0 -1.8125 -0.171875 -2.328125q-0.171875 -0.53125 -0.546875 -0.78125q-0.375 -0.265625 -1.0 -0.265625q-0.765625 0 -1.375 0.40625q-0.609375 0.40625 -0.875 1.1875q-0.265625 0.765625 -0.265625 2.5625l0 6.046875l-3.28125 0l0 -12.453125zm24.042969 3.796875l-2.984375 -0.53125q0.5 -1.8125 1.71875 -2.671875q1.234375 -0.875 3.671875 -0.875q2.203125 0 3.28125 0.53125q1.078125 0.515625 1.515625 1.328125q0.4375 0.796875 0.4375 2.9375l-0.03125 3.84375q0 1.640625 0.15625 2.421875q0.15625 0.78125 0.59375 1.671875l-3.265625 0q-0.125 -0.328125 -0.3125 -0.96875q-0.078125 -0.296875 -0.125 -0.390625q-0.84375 0.8125 -1.8125 1.234375q-0.953125 0.40625 -2.03125 0.40625q-1.921875 0 -3.03125 -1.046875q-1.109375 -1.046875 -1.109375 -2.640625q0 -1.046875 0.5 -1.875q0.5 -0.828125 1.40625 -1.265625q0.921875 -0.4375 2.625 -0.765625q2.3125 -0.4375 3.203125 -0.8125l0 -0.328125q0 -0.953125 -0.46875 -1.34375q-0.46875 -0.40625 -1.765625 -0.40625q-0.890625 0 -1.390625 0.34375q-0.484375 0.34375 -0.78125 1.203125zm4.40625 2.671875q-0.640625 0.21875 -2.015625 0.515625q-1.359375 0.28125 -1.78125 0.5625q-0.640625 0.46875 -0.640625 1.171875q0 0.6875 0.515625 1.1875q0.515625 0.5 1.3125 0.5q0.890625 0 1.6875 -0.578125q0.609375 -0.453125 0.796875 -1.09375q0.125 -0.421875 0.125 -1.609375l0 -0.65625zm6.1757812 6.8125l3.765625 0.453125q0.09375 0.65625 0.421875 0.90625q0.46875 0.34375 1.484375 0.34375q1.28125 0 1.9375 -0.390625q0.421875 -0.25 0.65625 -0.828125q0.140625 -0.40625 0.140625 -1.515625l0 -1.8125q-1.46875 2.015625 -3.71875 2.015625q-2.515625 0 -3.96875 -2.125q-1.15625 -1.671875 -1.15625 -4.171875q0 -3.125 1.5 -4.78125q1.515625 -1.65625 3.75 -1.65625q2.3125 0 3.8125 2.03125l0 -1.75l3.078125 0l0 11.171875q0 2.203125 -0.359375 3.296875q-0.359375 1.09375 -1.015625 1.703125q-0.65625 0.625 -1.765625 0.96875q-1.09375 0.359375 -2.765625 0.359375q-3.15625 0 -4.484375 -1.078125q-1.328125 -1.078125 -1.328125 -2.75q0 -0.15625 0.015625 -0.390625zm2.9375 -7.3125q0 1.984375 0.765625 2.90625q0.765625 0.921875 1.890625 0.921875q1.21875 0 2.046875 -0.9375q0.828125 -0.953125 0.828125 -2.8125q0 -1.921875 -0.796875 -2.859375q-0.796875 -0.9375 -2.015625 -0.9375q-1.1875 0 -1.953125 0.921875q-0.765625 0.90625 -0.765625 2.796875zm12.019531 -7.65625l0 -3.046875l3.296875 0l0 3.046875l-3.296875 0zm0 14.140625l0 -12.453125l3.296875 0l0 12.453125l-3.296875 0zm17.527344 -8.765625l-3.25 0.578125q-0.15625 -0.96875 -0.75 -1.453125q-0.578125 -0.5 -1.5 -0.5q-1.234375 0 -1.96875 0.859375q-0.71875 0.84375 -0.71875 2.828125q0 2.21875 0.734375 3.140625q0.75 0.90625 2.0 0.90625q0.9375 0 1.53125 -0.53125q0.609375 -0.53125 0.84375 -1.828125l3.234375 0.546875q-0.5 2.21875 -1.9375 3.359375q-1.421875 1.140625 -3.828125 1.140625q-2.71875 0 -4.34375 -1.71875q-1.625 -1.734375 -1.625 -4.78125q0 -3.078125 1.625 -4.796875q1.625 -1.71875 4.40625 -1.71875q2.28125 0 3.609375 0.984375q1.34375 0.984375 1.9375 2.984375zm3.7851562 4.328125l-0.859375 -8.71875l0 -4.03125l3.5625 0l0 4.03125l-0.84375 8.71875l-1.859375 0zm-0.71875 4.4375l0 -3.296875l3.296875 0l0 3.296875l-3.296875 0z" fill-rule="nonzero"/><path fill="#000000" fill-opacity="0.0" d="m126.01575 58.62336l138.55118 91.9685" fill-rule="evenodd"/><path stroke="#000000" stroke-width="1.0" stroke-linejoin="round" stroke-linecap="butt" d="m131.01468 61.94159l128.55331 85.33205" fill-rule="evenodd"/><path fill="#000000" stroke="#000000" stroke-width="1.0" stroke-linecap="butt" d="m131.92816 60.565437l-4.69442 -1.1335907l2.8674698 3.885891z" fill-rule="evenodd"/><path fill="#000000" stroke="#000000" stroke-width="1.0" stroke-linecap="butt" d="m258.6545 148.64978l4.6944275 1.1335907l-2.8674622 -3.8858948z" fill-rule="evenodd"/><path fill="#000000" fill-opacity="0.0" d="m126.01575 146.16667l113.543304 7.842514" fill-rule="evenodd"/><path stroke="#000000" stroke-width="1.0" stroke-linejoin="round" stroke-linecap="butt" d="m132.00148 146.58011l101.57185 7.0156403" fill-rule="evenodd"/><path fill="#000000" stroke="#000000" stroke-width="1.0" stroke-linecap="butt" d="m132.1153 144.9323l-4.641121 1.3350983l4.4134903 1.9605103z" fill-rule="evenodd"/><path fill="#000000" stroke="#000000" stroke-width="1.0" stroke-linecap="butt" d="m233.4595 155.24356l4.6411285 -1.3351135l-4.413498 -1.9605103z" fill-rule="evenodd"/><path fill="#000000" fill-opacity="0.0" d="m126.01575 233.70998l119.244095 -19.496063" fill-rule="evenodd"/><path stroke="#000000" stroke-width="1.0" stroke-linejoin="round" stroke-linecap="butt" d="m131.93713 232.74184l107.40132 -17.559784" fill-rule="evenodd"/><path fill="#000000" stroke="#000000" stroke-width="1.0" stroke-linecap="butt" d="m131.67061 231.11176l-4.2121124 2.3623352l4.7451477 0.8978424z" fill-rule="evenodd"/><path fill="#000000" stroke="#000000" stroke-width="1.0" stroke-linecap="butt" d="m239.60498 216.81213l4.2121124 -2.3623352l-4.7451477 -0.8978424z" fill-rule="evenodd"/><path fill="#000000" fill-opacity="0.0" d="m126.01575 321.2533l133.98425 -84.346466" fill-rule="evenodd"/><path stroke="#000000" stroke-width="1.0" stroke-linejoin="round" stroke-linecap="butt" d="m131.09338 318.0568l123.82898 -77.95346" fill-rule="evenodd"/><path fill="#000000" stroke="#000000" stroke-width="1.0" stroke-linecap="butt" d="m130.21342 316.65897l-2.9605103 3.8154907l4.7204285 -1.019867z" fill-rule="evenodd"/><path fill="#000000" stroke="#000000" stroke-width="1.0" stroke-linecap="butt" d="m255.80232 241.50114l2.960495 -3.8154907l-4.720413 1.0198517z" fill-rule="evenodd"/><path fill="#000000" fill-opacity="0.0" d="m397.4252 189.93045l120.37796 0" fill-rule="evenodd"/><path stroke="#000000" stroke-width="1.0" stroke-linejoin="round" stroke-linecap="butt" d="m403.4252 189.93045l108.37796 0" fill-rule="evenodd"/><path fill="#000000" stroke="#000000" stroke-width="1.0" stroke-linecap="butt" d="m403.4252 188.27872l-4.5381165 1.6517334l4.5381165 1.6517334z" fill-rule="evenodd"/><path fill="#000000" stroke="#000000" stroke-width="1.0" stroke-linecap="butt" d="m511.80316 191.58218l4.538086 -1.6517334l-4.538086 -1.6517334z" fill-rule="evenodd"/><path fill="#000000" fill-opacity="0.0" d="m0 250.1273l0 -120.37796l53.322834 0l0 120.37796z" fill-rule="evenodd"/><path fill="#000000" d="m15.833122 226.83969l0 -4.046875l10.859375 0q2.578125 0 3.34375 -0.140625q1.234375 -0.265625 1.984375 -1.234375q0.734375 -0.984375 0.734375 -2.6875q0 -1.71875 -0.703125 -2.59375q-0.703125 -0.875 -1.71875 -1.046875q-1.03125 -0.1875 -3.40625 -0.1875l-11.09375 0l0 -4.046875l10.53125 0q3.609375 0 5.109375 0.328125q1.484375 0.328125 2.515625 1.21875q1.015625 0.875 1.625 2.359375q0.609375 1.46875 0.609375 3.859375q0 2.859375 -0.65625 4.34375q-0.671875 1.484375 -1.734375 2.34375q-1.0625 0.859375 -2.21875 1.140625q-1.71875 0.390625 -5.09375 0.390625l-10.6875 0zm15.90625 -18.861328l-0.59375 -3.859375q1.125 -0.25 1.703125 -1.0q0.578125 -0.75 0.578125 -2.09375q0 -1.5 -0.546875 -2.25q-0.375 -0.5 -1.015625 -0.5q-0.4375 0 -0.734375 0.265625q-0.265625 0.296875 -0.5 1.28125q-1.03125 4.65625 -1.875 5.90625q-1.171875 1.71875 -3.265625 1.71875q-1.890625 0 -3.171875 -1.484375q-1.28125 -1.5 -1.28125 -4.625q0 -2.984375 0.96875 -4.4375q0.96875 -1.453125 2.875 -2.0l0.65625 3.625q-0.84375 0.234375 -1.296875 0.890625q-0.453125 0.640625 -0.453125 1.84375q0 1.515625 0.4375 2.171875q0.296875 0.4375 0.765625 0.4375q0.421875 0 0.703125 -0.375q0.390625 -0.515625 1.09375 -3.578125q0.6875 -3.078125 1.703125 -4.296875q1.015625 -1.203125 2.84375 -1.203125q2.0 0 3.4375 1.671875q1.4375 1.65625 1.4375 4.9375q0 2.953125 -1.203125 4.6875q-1.203125 1.734375 -3.265625 2.265625zm-0.484375 -25.33789l0.640625 -3.828125q2.109375 0.734375 3.21875 2.328125q1.09375 1.59375 1.09375 3.984375q0 3.796875 -2.46875 5.609375q-1.984375 1.4375 -5.015625 1.4375q-3.609375 0 -5.640625 -1.875q-2.046875 -1.890625 -2.046875 -4.78125q0 -3.234375 2.140625 -5.109375q2.140625 -1.875 6.546875 -1.796875l0 9.625q1.71875 -0.046875 2.671875 -0.921875q0.9375 -0.890625 0.9375 -2.21875q0 -0.90625 -0.484375 -1.515625q-0.5 -0.625 -1.59375 -0.9375zm-3.875 -0.21875q-1.671875 0.046875 -2.53125 0.875q-0.875 0.8125 -0.875 1.984375q0 1.265625 0.90625 2.078125q0.921875 0.828125 2.5 0.8125l0 -5.75zm8.5 -10.619141l0 3.84375l-14.515625 0l0 -3.578125l2.0625 0q-1.46875 -0.90625 -1.921875 -1.640625q-0.46875 -0.734375 -0.46875 -1.65625q0 -1.3125 0.71875 -2.53125l3.34375 1.1875q-0.625 0.96875 -0.625 1.796875q0 0.8125 0.453125 1.375q0.4375 0.5625 1.609375 0.890625q1.15625 0.3125 4.859375 0.3125l4.484375 0zm-4.140625 -5.8652344l-0.59375 -3.859375q1.125 -0.25 1.703125 -1.0q0.578125 -0.75 0.578125 -2.09375q0 -1.5 -0.546875 -2.25q-0.375 -0.5 -1.015625 -0.5q-0.4375 0 -0.734375 0.265625q-0.265625 0.296875 -0.5 1.28125q-1.03125 4.65625 -1.875 5.90625q-1.171875 1.71875 -3.265625 1.71875q-1.890625 0 -3.171875 -1.484375q-1.28125 -1.5 -1.28125 -4.625q0 -2.984375 0.96875 -4.4375q0.96875 -1.453125 2.875 -2.0l0.65625 3.625q-0.84375 0.234375 -1.296875 0.890625q-0.453125 0.640625 -0.453125 1.84375q0 1.515625 0.4375 2.171875q0.296875 0.4375 0.765625 0.4375q0.421875 0 0.703125 -0.375q0.390625 -0.515625 1.09375 -3.578125q0.6875 -3.078125 1.703125 -4.296875q1.015625 -1.203125 2.84375 -1.203125q2.0 0 3.4375 1.671875q1.4375 1.65625 1.4375 4.9375q0 2.953125 -1.203125 4.6875q-1.203125 1.734375 -3.265625 2.265625z" fill-rule="nonzero"/><path fill="#b6d7a8" d="m900.9538 165.03117l0 0c-2.1576538 -12.000824 4.9262695 -23.880905 18.245667 -30.59909c13.319458 -6.7182007 30.538452 -7.0962677 44.350403 -0.9737854l0 0c4.892639 -6.977783 13.847595 -11.795456 24.156128 -12.995773c10.308533 -1.2003174 20.759888 1.3577042 28.192749 6.9003067l0 0c4.1679077 -6.3265 12.351624 -10.577095 21.647156 -11.243462c9.295532 -0.6663666 18.38733 2.34581 24.049194 7.9676514l0 0c7.529907 -6.7060776 19.510132 -9.52961 30.756714 -7.248848c11.246704 2.2807617 19.739868 9.256172 21.804321 17.907936l0 0c9.225464 1.9045563 16.910034 6.7461853 21.068237 13.273956c4.158325 6.5277863 4.3824463 14.101364 0.6143799 20.763947l0 0c9.084351 8.948593 11.209351 20.872482 5.5821533 31.3219c-5.6273193 10.449402 -18.161377 17.854416 -32.924805 19.45163c-0.10412598 9.807129 -7.210449 18.806046 -18.580078 23.528152c-11.369507 4.722122 -25.226929 4.4300537 -36.230835 -0.76361084l0 0c-4.687134 11.745758 -17.87976 20.388153 -33.878174 22.19339c-15.998474 1.8052368 -31.934692 -3.550354 -40.923645 -13.752899l0 0c-11.018616 5.0288696 -24.23999 6.477539 -36.6817 4.0191803c-12.441772 -2.4583435 -23.055786 -8.616608 -29.447754 -17.085632l0 0c-11.259644 0.9972534 -22.146118 -3.4180145 -27.256592 -11.054504c-5.1104126 -7.63649 -3.3569336 -16.868591 4.390259 -23.11444l0 0c-10.043884 -4.4742126 -15.168884 -13.35257 -12.702454 -22.005325c2.4663696 -8.652756 11.96521 -15.119186 23.543274 -16.027298z" fill-rule="evenodd"/><path fill="#000000" fill-opacity="0.0" d="m889.89044 203.52632l0 0c4.739746 2.1114044 10.21521 3.0691833 15.691345 2.744751m7.1724854 31.424957c2.3549194 -0.20857239 4.663208 -0.6502533 6.8652954 -1.3136444m59.260864 14.379547c-1.656311 -1.8799286 -3.0430298 -3.8887787 -4.1365967 -5.99234m78.94122 -2.4485016l0 0c0.8544922 -2.1414185 1.4082031 -4.345413 1.6517334 -6.5751953m53.157104 -16.188522c0.110839844 -10.441223 -7.7247314 -20.001312 -20.14087 -24.573914m47.4834 -26.198517c-2.0108643 3.5554352 -5.0804443 6.7094116 -8.968262 9.21463m-12.712524 -43.253464l0 0c0.34265137 1.4357758 0.5012207 2.8931122 0.47351074 4.351837m-53.03369 -15.01049l0 0c-1.8782959 1.6728287 -3.4259033 3.5421982 -4.5943604 5.549904m-41.102417 -2.2748184l0 0c-1.0009766 1.5194168 -1.7484741 3.1272202 -2.2251587 4.7863846m-50.12445 1.3091888l0 0c2.9226074 1.295517 5.626404 2.8548126 8.052002 4.6436157m-70.64728 26.929443l0 0c0.29736328 1.6540222 0.7672119 3.2876587 1.4052124 4.885605" fill-rule="evenodd"/><path stroke="#000000" stroke-width="1.0" stroke-linejoin="round" stroke-linecap="butt" d="m900.9538 165.03117l0 0c-2.1576538 -12.000824 4.9262695 -23.880905 18.245667 -30.59909c13.319458 -6.7182007 30.538452 -7.0962677 44.350403 -0.9737854l0 0c4.892639 -6.977783 13.847595 -11.795456 24.156128 -12.995773c10.308533 -1.2003174 20.759888 1.3577042 28.192749 6.9003067l0 0c4.1679077 -6.3265 12.351624 -10.577095 21.647156 -11.243462c9.295532 -0.6663666 18.38733 2.34581 24.049194 7.9676514l0 0c7.529907 -6.7060776 19.510132 -9.52961 30.756714 -7.248848c11.246704 2.2807617 19.739868 9.256172 21.804321 17.907936l0 0c9.225464 1.9045563 16.910034 6.7461853 21.068237 13.273956c4.158325 6.5277863 4.3824463 14.101364 0.6143799 20.763947l0 0c9.084351 8.948593 11.209351 20.872482 5.5821533 31.3219c-5.6273193 10.449402 -18.161377 17.854416 -32.924805 19.45163c-0.10412598 9.807129 -7.210449 18.806046 -18.580078 23.528152c-11.369507 4.722122 -25.226929 4.4300537 -36.230835 -0.76361084l0 0c-4.687134 11.745758 -17.87976 20.388153 -33.878174 22.19339c-15.998474 1.8052368 -31.934692 -3.550354 -40.923645 -13.752899l0 0c-11.018616 5.0288696 -24.23999 6.477539 -36.6817 4.0191803c-12.441772 -2.4583435 -23.055786 -8.616608 -29.447754 -17.085632l0 0c-11.259644 0.9972534 -22.146118 -3.4180145 -27.256592 -11.054504c-5.1104126 -7.63649 -3.3569336 -16.868591 4.390259 -23.11444l0 0c-10.043884 -4.4742126 -15.168884 -13.35257 -12.702454 -22.005325c2.4663696 -8.652756 11.96521 -15.119186 23.543274 -16.027298z" fill-rule="evenodd"/><path stroke="#000000" stroke-width="1.0" stroke-linejoin="round" stroke-linecap="butt" d="m889.89044 203.52632l0 0c4.739746 2.1114044 10.21521 3.0691833 15.691345 2.744751m7.1724854 31.424957c2.3549194 -0.20857239 4.663208 -0.6502533 6.8652954 -1.3136444m59.260864 14.379547c-1.656311 -1.8799286 -3.0430298 -3.8887787 -4.1365967 -5.99234m78.94122 -2.4485016l0 0c0.8544922 -2.1414185 1.4082031 -4.345413 1.6517334 -6.5751953m53.157104 -16.188522c0.110839844 -10.441223 -7.7247314 -20.001312 -20.14087 -24.573914m47.4834 -26.198517c-2.0108643 3.5554352 -5.0804443 6.7094116 -8.968262 9.21463m-12.712524 -43.253464l0 0c0.34265137 1.4357758 0.5012207 2.8931122 0.47351074 4.351837m-53.03369 -15.01049l0 0c-1.8782959 1.6728287 -3.4259033 3.5421982 -4.5943604 5.549904m-41.102417 -2.2748184l0 0c-1.0009766 1.5194168 -1.7484741 3.1272202 -2.2251587 4.7863846m-50.12445 1.3091888l0 0c2.9226074 1.295517 5.626404 2.8548126 8.052002 4.6436157m-70.64728 26.929443l0 0c0.29736328 1.6540222 0.7672119 3.2876587 1.4052124 4.885605" fill-rule="evenodd"/><path fill="#000000" d="m937.9633 179.36281l-4.40625 0l-1.75 -4.546875l-8.0 0l-1.65625 4.546875l-4.296875 0l7.8125 -20.046875l4.28125 0l8.015625 20.046875zm-7.453125 -7.9375l-2.75 -7.4375l-2.71875 7.4375l5.46875 0zm22.783203 7.9375l-3.84375 0l0 -7.40625q0 -2.359375 -0.25 -3.046875q-0.234375 -0.6875 -0.796875 -1.0625q-0.546875 -0.390625 -1.328125 -0.390625q-1.0 0 -1.796875 0.546875q-0.796875 0.546875 -1.09375 1.453125q-0.28125 0.890625 -0.28125 3.328125l0 6.578125l-3.84375 0l0 -14.515625l3.5625 0l0 2.125q1.90625 -2.453125 4.796875 -2.453125q1.265625 0 2.3125 0.453125q1.0625 0.453125 1.59375 1.171875q0.546875 0.703125 0.75 1.609375q0.21875 0.90625 0.21875 2.578125l0 9.03125zm3.0097656 -7.46875q0 -1.90625 0.9375 -3.703125q0.953125 -1.796875 2.671875 -2.734375q1.734375 -0.9375 3.859375 -0.9375q3.296875 0 5.40625 2.140625q2.109375 2.140625 2.109375 5.40625q0 3.296875 -2.125 5.46875q-2.125 2.15625 -5.359375 2.15625q-2.0 0 -3.8125 -0.90625q-1.796875 -0.90625 -2.75 -2.640625q-0.9375 -1.75 -0.9375 -4.25zm3.9375 0.203125q0 2.171875 1.015625 3.328125q1.03125 1.140625 2.53125 1.140625q1.515625 0 2.53125 -1.140625q1.015625 -1.15625 1.015625 -3.34375q0 -2.140625 -1.015625 -3.28125q-1.015625 -1.15625 -2.53125 -1.15625q-1.5 0 -2.53125 1.15625q-1.015625 1.140625 -1.015625 3.296875zm27.259766 7.265625l-3.84375 0l0 -7.40625q0 -2.359375 -0.25 -3.046875q-0.234375 -0.6875 -0.796875 -1.0625q-0.546875 -0.390625 -1.328125 -0.390625q-1.0 0 -1.796875 0.546875q-0.796875 0.546875 -1.09375 1.453125q-0.28125 0.890625 -0.28125 3.328125l0 6.578125l-3.84375 0l0 -14.515625l3.5625 0l0 2.125q1.90625 -2.453125 4.796875 -2.453125q1.265625 0 2.3125 0.453125q1.0625 0.453125 1.59375 1.171875q0.546875 0.703125 0.75 1.609375q0.21875 0.90625 0.21875 2.578125l0 9.03125zm2.0722656 -14.515625l4.09375 0l3.46875 10.296875l3.390625 -10.296875l3.984375 0l-5.125 13.96875l-0.921875 2.53125q-0.5 1.265625 -0.96875 1.9375q-0.453125 0.671875 -1.046875 1.078125q-0.59375 0.421875 -1.46875 0.65625q-0.859375 0.234375 -1.953125 0.234375q-1.109375 0 -2.171875 -0.234375l-0.34375 -3.0q0.90625 0.171875 1.625 0.171875q1.34375 0 1.984375 -0.78125q0.640625 -0.78125 0.984375 -2.0l-5.53125 -14.5625zm17.103516 0l3.546875 0l0 1.984375q1.90625 -2.3125 4.53125 -2.3125q1.390625 0 2.40625 0.578125q1.03125 0.5625 1.6875 1.734375q0.953125 -1.171875 2.0625 -1.734375q1.109375 -0.578125 2.375 -0.578125q1.593811 0 2.703186 0.65625q1.109375 0.640625 1.65625 1.890625q0.390625 0.9375 0.390625 3.015625l0 9.28125l-3.84375 0l0 -8.296875q0 -2.15625 -0.39068604 -2.796875q-0.53125 -0.8125 -1.640625 -0.8125q-0.8125 0 -1.53125 0.5q-0.703125 0.484375 -1.015625 1.4375q-0.3125 0.9375 -0.3125 3.0l0 6.96875l-3.84375 0l0 -7.953125q0 -2.125 -0.203125 -2.734375q-0.203125 -0.625 -0.640625 -0.921875q-0.421875 -0.296875 -1.171875 -0.296875q-0.875 0 -1.59375 0.484375q-0.703125 0.46875 -1.015625 1.375q-0.3125 0.90625 -0.3125 2.984375l0 7.0625l-3.84375 0l0 -14.515625zm25.19342 -1.96875l0 -3.5625l3.84375 0l0 3.5625l-3.84375 0zm0 16.484375l0 -14.515625l3.84375 0l0 14.515625l-3.84375 0zm6.232422 0l0 -3.0l5.4375 -6.25q1.34375 -1.53125 1.984375 -2.171875q-0.671875 0.046875 -1.765625 0.0625l-5.125 0.03125l0 -3.1875l12.0 0l0 2.71875l-5.546875 6.390625l-1.953125 2.125q1.59375 -0.09375 1.984375 -0.09375l5.9375 0l0 3.375l-12.953125 0zm23.953125 -4.625l3.828125 0.640625q-0.734375 2.109375 -2.328125 3.21875q-1.59375 1.09375 -3.984375 1.09375q-3.796875 0 -5.609375 -2.46875q-1.4375 -1.984375 -1.4375 -5.015625q0 -3.609375 1.875 -5.640625q1.890625 -2.046875 4.78125 -2.046875q3.234375 0 5.109375 2.140625q1.875 2.140625 1.796875 6.546875l-9.625 0q0.046875 1.71875 0.921875 2.671875q0.890625 0.9375 2.21875 0.9375q0.90625 0 1.515625 -0.484375q0.625 -0.5 0.9375 -1.59375zm0.21875 -3.875q-0.046875 -1.671875 -0.875 -2.53125q-0.8125 -0.875 -1.984375 -0.875q-1.265625 0 -2.078125 0.90625q-0.828125 0.921875 -0.8125 2.5l5.75 0zm20.259766 8.5l-3.5625 0l0 -2.140625q-0.890625 1.25 -2.109375 1.859375q-1.203125 0.609375 -2.4375 0.609375q-2.5 0 -4.28125 -2.015625q-1.78125 -2.015625 -1.78125 -5.625q0 -3.6875 1.734375 -5.609375q1.734375 -1.921875 4.390625 -1.921875q2.421875 0 4.203125 2.015625l0 -7.21875l3.84375 0l0 20.046875zm-10.25 -7.578125q0 2.328125 0.640625 3.359375q0.921875 1.515625 2.59375 1.515625q1.328125 0 2.25 -1.125q0.9375 -1.140625 0.9375 -3.375q0 -2.5 -0.90625 -3.59375q-0.90625 -1.109375 -2.3125 -1.109375q-1.359375 0 -2.28125 1.09375q-0.921875 1.078125 -0.921875 3.234375z" fill-rule="nonzero"/><path fill="#000000" d="m958.67523 205.89406q0 -1.90625 0.9375 -3.703125q0.953125 -1.796875 2.671875 -2.734375q1.734375 -0.9375 3.859375 -0.9375q3.296875 0 5.40625 2.140625q2.109375 2.140625 2.109375 5.40625q0 3.296875 -2.125 5.46875q-2.125 2.15625 -5.359375 2.15625q-2.0 0 -3.8125 -0.90625q-1.796875 -0.90625 -2.75 -2.640625q-0.9375 -1.75 -0.9375 -4.25zm3.9375 0.203125q0 2.171875 1.015625 3.328125q1.03125 1.140625 2.53125 1.140625q1.515625 0 2.53125 -1.140625q1.015625 -1.15625 1.015625 -3.34375q0 -2.140625 -1.015625 -3.28125q-1.015625 -1.15625 -2.53125 -1.15625q-1.5 0 -2.53125 1.15625q-1.015625 1.140625 -1.015625 3.296875zm23.603516 7.265625l0 -2.171875q-0.78125 1.15625 -2.078125 1.828125q-1.296875 0.671875 -2.734375 0.671875q-1.453125 0 -2.625 -0.640625q-1.15625 -0.640625 -1.6875 -1.796875q-0.515625 -1.171875 -0.515625 -3.21875l0 -9.1875l3.84375 0l0 6.671875q0 3.0625 0.203125 3.75q0.21875 0.6875 0.78125 1.09375q0.5625 0.40625 1.421875 0.40625q0.984375 0 1.765625 -0.53125q0.78125 -0.546875 1.0625 -1.34375q0.296875 -0.8125 0.296875 -3.921875l0 -6.125l3.84375 0l0 14.515625l-3.578125 0zm14.212891 -14.515625l0 3.0625l-2.625 0l0 5.84375q0 1.78125 0.0625 2.078125q0.078125 0.296875 0.34375 0.484375q0.28125 0.1875 0.65625 0.1875q0.53125 0 1.546875 -0.375l0.328125 2.984375q-1.34375 0.578125 -3.03125 0.578125q-1.046875 0 -1.890625 -0.34375q-0.828125 -0.359375 -1.21875 -0.90625q-0.375 -0.5625 -0.53125 -1.5q-0.125 -0.671875 -0.125 -2.703125l0 -6.328125l-1.765625 0l0 -3.0625l1.765625 0l0 -2.890625l3.859375 -2.234375l0 5.125l2.625 0zm2.5585938 0l3.578125 0l0 2.125q0.703125 -1.09375 1.890625 -1.765625q1.1875 -0.6875 2.640625 -0.6875q2.515625 0 4.28125 1.984375q1.765625 1.96875 1.765625 5.515625q0 3.640625 -1.78125 5.65625q-1.765625 2.015625 -4.296875 2.015625q-1.203125 0 -2.1875 -0.46875q-0.96875 -0.484375 -2.046875 -1.65625l0 7.328125l-3.84375 0l0 -20.046875zm3.796875 7.015625q0 2.4375 0.96875 3.609375q0.96875 1.171875 2.359375 1.171875q1.34375 0 2.234375 -1.078125q0.890625 -1.078125 0.890625 -3.515625q0 -2.28125 -0.921875 -3.390625q-0.90625 -1.109375 -2.265625 -1.109375q-1.40625 0 -2.34375 1.09375q-0.921875 1.078125 -0.921875 3.21875zm22.962952 7.5l0 -2.171875q-0.78125 1.15625 -2.078125 1.828125q-1.296875 0.671875 -2.734375 0.671875q-1.453186 0 -2.625061 -0.640625q-1.15625 -0.640625 -1.6875 -1.796875q-0.515625 -1.171875 -0.515625 -3.21875l0 -9.1875l3.84375 0l0 6.671875q0 3.0625 0.20318604 3.75q0.21875 0.6875 0.78125 1.09375q0.5625 0.40625 1.421875 0.40625q0.984375 0 1.765625 -0.53125q0.78125 -0.546875 1.0625 -1.34375q0.296875 -0.8125 0.296875 -3.921875l0 -6.125l3.84375 0l0 14.515625l-3.578125 0zm14.212891 -14.515625l0 3.0625l-2.625 0l0 5.84375q0 1.78125 0.0625 2.078125q0.078125 0.296875 0.34375 0.484375q0.28125 0.1875 0.65625 0.1875q0.53125 0 1.546875 -0.375l0.328125 2.984375q-1.34375 0.578125 -3.03125 0.578125q-1.046875 0 -1.890625 -0.34375q-0.828125 -0.359375 -1.21875 -0.90625q-0.375 -0.5625 -0.53125 -1.5q-0.125 -0.671875 -0.125 -2.703125l0 -6.328125l-1.765625 0l0 -3.0625l1.765625 0l0 -2.890625l3.859375 -2.234375l0 5.125l2.625 0z" fill-rule="nonzero"/><path fill="#000000" fill-opacity="0.0" d="m739.25195 189.93045l138.36224 0" fill-rule="evenodd"/><path stroke="#000000" stroke-width="1.0" stroke-linejoin="round" stroke-linecap="butt" d="m739.25195 189.93045l132.36224 0" fill-rule="evenodd"/><path fill="#000000" stroke="#000000" stroke-width="1.0" stroke-linecap="butt" d="m871.6142 191.58218l4.538086 -1.6517334l-4.538086 -1.6517334z" fill-rule="evenodd"/></g></svg>