<svg version="1.1" viewBox="0.0 0.0 679.9317585301837 192.9291338582677" fill="none" stroke="none" stroke-linecap="square" stroke-miterlimit="10" xmlns:xlink="http://www.w3.org/1999/xlink" xmlns="http://www.w3.org/2000/svg"><clipPath id="p.0"><path d="m0 0l679.93176 0l0 192.92914l-679.93176 0l0 -192.92914z" clip-rule="nonzero"/></clipPath><g clip-path="url(#p.0)"><path fill="#000000" fill-opacity="0.0" d="m0 0l679.93176 0l0 192.92914l-679.93176 0z" fill-rule="evenodd"/><path fill="#9fc5e8" d="m229.3084 0l155.11812 0l0 191.30708l-155.11812 0z" fill-rule="evenodd"/><path stroke="#000000" stroke-width="1.0" stroke-linejoin="round" stroke-linecap="butt" d="m229.3084 0l155.11812 0l0 191.30708l-155.11812 0z" fill-rule="evenodd"/><path fill="#000000" d="m270.00293 102.57354l-2.9375 0l-1.171875 -3.03125l-5.328125 0l-1.109375 3.03125l-2.859375 0l5.203125 -13.359375l2.84375 0l5.359375 13.359375zm-4.96875 -5.28125l-1.84375 -4.953125l-1.796875 4.953125l3.640625 0zm6.1448364 5.921875l2.921875 0.359375q0.0625 0.5 0.328125 0.6875q0.375 0.28125 1.15625 0.28125q1.0 0 1.5 -0.296875q0.328125 -0.203125 0.515625 -0.65625q0.109375 -0.3125 0.109375 -1.171875l0 -1.40625q-1.140625 1.5625 -2.890625 1.5625q-1.953125 0 -3.09375 -1.65625q-0.890625 -1.296875 -0.890625 -3.234375q0 -2.4375 1.171875 -3.71875q1.171875 -1.28125 2.90625 -1.28125q1.796875 0 2.96875 1.578125l0 -1.359375l2.390625 0l0 8.671875q0 1.71875 -0.28125 2.5625q-0.28125 0.84375 -0.796875 1.328125q-0.5 0.484375 -1.359375 0.75q-0.84375 0.28125 -2.15625 0.28125q-2.453125 0 -3.484375 -0.84375q-1.03125 -0.84375 -1.03125 -2.125q0 -0.140625 0.015625 -0.3125zm2.28125 -5.671875q0 1.53125 0.59375 2.25q0.59375 0.71875 1.46875 0.71875q0.9375 0 1.578125 -0.734375q0.65625 -0.734375 0.65625 -2.171875q0 -1.515625 -0.625 -2.234375q-0.609375 -0.734375 -1.5625 -0.734375q-0.921875 0 -1.515625 0.71875q-0.59375 0.71875 -0.59375 2.1875zm9.114716 5.671875l2.921875 0.359375q0.0625 0.5 0.328125 0.6875q0.375 0.28125 1.15625 0.28125q1.0 0 1.5 -0.296875q0.328125 -0.203125 0.515625 -0.65625q0.109375 -0.3125 0.109375 -1.171875l0 -1.40625q-1.140625 1.5625 -2.890625 1.5625q-1.953125 0 -3.09375 -1.65625q-0.890625 -1.296875 -0.890625 -3.234375q0 -2.4375 1.171875 -3.71875q1.171875 -1.28125 2.90625 -1.28125q1.796875 0 2.96875 1.578125l0 -1.359375l2.390625 0l0 8.671875q0 1.71875 -0.28125 2.5625q-0.28125 0.84375 -0.796875 1.328125q-0.5 0.484375 -1.359375 0.75q-0.84375 0.28125 -2.15625 0.28125q-2.453125 0 -3.484375 -0.84375q-1.03125 -0.84375 -1.03125 -2.125q0 -0.140625 0.015625 -0.3125zm2.28125 -5.671875q0 1.53125 0.59375 2.25q0.59375 0.71875 1.46875 0.71875q0.9375 0 1.578125 -0.734375q0.65625 -0.734375 0.65625 -2.171875q0 -1.515625 -0.625 -2.234375q-0.609375 -0.734375 -1.5625 -0.734375q-0.921875 0 -1.515625 0.71875q-0.59375 0.71875 -0.59375 2.1875zm11.802246 5.03125l-2.5625 0l0 -9.671875l2.375 0l0 1.375q0.609375 -0.984375 1.09375 -1.28125q0.484375 -0.3125 1.109375 -0.3125q0.875 0 1.6875 0.484375l-0.796875 2.234375q-0.640625 -0.421875 -1.203125 -0.421875q-0.53125 0 -0.90625 0.296875q-0.375 0.296875 -0.59375 1.078125q-0.203125 0.765625 -0.203125 3.234375l0 2.984375zm10.400879 -3.078125l2.546875 0.421875q-0.484375 1.40625 -1.546875 2.140625q-1.0625 0.734375 -2.65625 0.734375q-2.515625 0 -3.734375 -1.65625q-0.953125 -1.3125 -0.953125 -3.328125q0 -2.40625 1.25 -3.765625q1.265625 -1.359375 3.1875 -1.359375q2.15625 0 3.40625 1.421875q1.25 1.421875 1.1875 4.375l-6.40625 0q0.03125 1.140625 0.609375 1.78125q0.59375 0.625 1.484375 0.625q0.59375 0 1.0 -0.328125q0.421875 -0.328125 0.625 -1.0625zm0.15625 -2.59375q-0.03125 -1.109375 -0.578125 -1.6875q-0.546875 -0.578125 -1.328125 -0.578125q-0.84375 0 -1.390625 0.609375q-0.546875 0.609375 -0.53125 1.65625l3.828125 0zm4.3913574 6.3125l2.921875 0.359375q0.0625 0.5 0.328125 0.6875q0.375 0.28125 1.15625 0.28125q1.0 0 1.5 -0.296875q0.328125 -0.203125 0.515625 -0.65625q0.109375 -0.3125 0.109375 -1.171875l0 -1.40625q-1.140625 1.5625 -2.890625 1.5625q-1.953125 0 -3.09375 -1.65625q-0.890625 -1.296875 -0.890625 -3.234375q0 -2.4375 1.171875 -3.71875q1.171875 -1.28125 2.90625 -1.28125q1.796875 0 2.96875 1.578125l0 -1.359375l2.390625 0l0 8.671875q0 1.71875 -0.28125 2.5625q-0.28125 0.84375 -0.796875 1.328125q-0.5 0.484375 -1.359375 0.75q-0.84375 0.28125 -2.15625 0.28125q-2.453125 0 -3.484375 -0.84375q-1.03125 -0.84375 -1.03125 -2.125q0 -0.140625 0.015625 -0.3125zm2.28125 -5.671875q0 1.53125 0.59375 2.25q0.59375 0.71875 1.46875 0.71875q0.9375 0 1.578125 -0.734375q0.65625 -0.734375 0.65625 -2.171875q0 -1.515625 -0.625 -2.234375q-0.609375 -0.734375 -1.5625 -0.734375q-0.921875 0 -1.515625 0.71875q-0.59375 0.71875 -0.59375 2.1875zm11.255341 -1.6875l-2.328125 -0.421875q0.40625 -1.40625 1.359375 -2.078125q0.953125 -0.671875 2.84375 -0.671875q1.703125 0 2.546875 0.40625q0.84375 0.40625 1.171875 1.03125q0.34375 0.625 0.34375 2.28125l-0.015625 3.0q0 1.265625 0.109375 1.875q0.125 0.609375 0.46875 1.296875l-2.53125 0q-0.109375 -0.25 -0.25 -0.75q-0.0625 -0.234375 -0.09375 -0.3125q-0.65625 0.640625 -1.40625 0.96875q-0.734375 0.3125 -1.59375 0.3125q-1.484375 0 -2.34375 -0.8125q-0.859375 -0.8125 -0.859375 -2.046875q0 -0.828125 0.390625 -1.46875q0.390625 -0.640625 1.09375 -0.96875q0.703125 -0.34375 2.03125 -0.609375q1.796875 -0.328125 2.484375 -0.625l0 -0.25q0 -0.75 -0.359375 -1.0625q-0.359375 -0.3125 -1.375 -0.3125q-0.6875 0 -1.078125 0.28125q-0.375 0.265625 -0.609375 0.9375zm3.421875 2.078125q-0.484375 0.15625 -1.5625 0.390625q-1.0625 0.21875 -1.390625 0.4375q-0.5 0.359375 -0.5 0.90625q0 0.53125 0.40625 0.9375q0.40625 0.390625 1.015625 0.390625q0.703125 0 1.328125 -0.46875q0.46875 -0.34375 0.609375 -0.84375q0.09375 -0.328125 0.09375 -1.25l0 -0.5zm9.485107 -5.03125l0 2.03125l-1.75 0l0 3.90625q0 1.1875 0.046875 1.390625q0.046875 0.1875 0.21875 0.3125q0.1875 0.125 0.4375 0.125q0.359375 0 1.03125 -0.25l0.21875 2.0q-0.890625 0.375 -2.015625 0.375q-0.703125 0 -1.265625 -0.234375q-0.546875 -0.234375 -0.8125 -0.59375q-0.25 -0.375 -0.34375 -1.0q-0.09375 -0.453125 -0.09375 -1.8125l0 -4.21875l-1.171875 0l0 -2.03125l1.171875 0l0 -1.921875l2.578125 -1.5l0 3.421875l1.75 0zm1.181427 4.703125q0 -1.28125 0.625 -2.46875q0.625 -1.203125 1.78125 -1.828125q1.15625 -0.625 2.578125 -0.625q2.1875 0 3.59375 1.421875q1.40625 1.421875 1.40625 3.609375q0 2.1875 -1.421875 3.640625q-1.421875 1.4375 -3.5625 1.4375q-1.328125 0 -2.546875 -0.59375q-1.203125 -0.609375 -1.828125 -1.765625q-0.625 -1.171875 -0.625 -2.828125zm2.625 0.125q0 1.453125 0.671875 2.21875q0.6875 0.75 1.6875 0.75q1.0 0 1.671875 -0.75q0.6875 -0.765625 0.6875 -2.234375q0 -1.421875 -0.6875 -2.1875q-0.671875 -0.765625 -1.671875 -0.765625q-1.0 0 -1.6875 0.765625q-0.671875 0.765625 -0.671875 2.203125zm11.817841 4.84375l-2.5625 0l0 -9.671875l2.375 0l0 1.375q0.609375 -0.984375 1.09375 -1.28125q0.484375 -0.3125 1.109375 -0.3125q0.875 0 1.6875305 0.484375l-0.7969055 2.234375q-0.640625 -0.421875 -1.203125 -0.421875q-0.53125 0 -0.90625 0.296875q-0.375 0.296875 -0.59375 1.078125q-0.203125 0.765625 -0.203125 3.234375l0 2.984375z" fill-rule="nonzero"/><path fill="#9fc5e8" d="m42.14042 21.070866l0 0c0 -11.637117 9.43375 -21.070866 21.070866 -21.070866c11.637119 0 21.070866 9.433748 21.070866 21.070866c0 11.637119 -9.433746 21.070866 -21.070866 21.070866c-11.6371155 0 -21.070866 -9.433746 -21.070866 -21.070866z" fill-rule="evenodd"/><path fill="#7f9db9" d="m54.265923 14.769116c0 -1.2122002 0.9826813 -2.1948824 2.1948814 -2.1948824c1.2122002 0 2.1948814 0.9826822 2.1948814 2.1948824c0 1.2122002 -0.9826813 2.1948824 -2.1948814 2.1948824c-1.2122002 0 -2.1948814 -0.9826822 -2.1948814 -2.1948824m13.500961 0c0 -1.2122002 0.9826813 -2.1948824 2.1948853 -2.1948824c1.2121964 0 2.1948776 0.9826822 2.1948776 2.1948824c0 1.2122002 -0.9826813 2.1948824 -2.1948776 2.1948824c-1.212204 0 -2.1948853 -0.9826822 -2.1948853 -2.1948824" fill-rule="evenodd"/><path fill="#000000" fill-opacity="0.0" d="m51.790737 30.260012q11.4205475 7.84342 22.814426 0" fill-rule="evenodd"/><path fill="#000000" fill-opacity="0.0" d="m42.14042 21.070866l0 0c0 -11.637117 9.43375 -21.070866 21.070866 -21.070866c11.637119 0 21.070866 9.433748 21.070866 21.070866c0 11.637119 -9.433746 21.070866 -21.070866 21.070866c-11.6371155 0 -21.070866 -9.433746 -21.070866 -21.070866z" fill-rule="evenodd"/><path stroke="#000000" stroke-width="1.0" stroke-linejoin="round" stroke-linecap="butt" d="m54.265923 14.769116c0 -1.2122002 0.9826813 -2.1948824 2.1948814 -2.1948824c1.2122002 0 2.1948814 0.9826822 2.1948814 2.1948824c0 1.2122002 -0.9826813 2.1948824 -2.1948814 2.1948824c-1.2122002 0 -2.1948814 -0.9826822 -2.1948814 -2.1948824m13.500961 0c0 -1.2122002 0.9826813 -2.1948824 2.1948853 -2.1948824c1.2121964 0 2.1948776 0.9826822 2.1948776 2.1948824c0 1.2122002 -0.9826813 2.1948824 -2.1948776 2.1948824c-1.212204 0 -2.1948853 -0.9826822 -2.1948853 -2.1948824" fill-rule="evenodd"/><path stroke="#000000" stroke-width="1.0" stroke-linejoin="round" stroke-linecap="butt" d="m51.790737 30.260012q11.4205475 7.84342 22.814426 0" fill-rule="evenodd"/><path stroke="#000000" stroke-width="1.0" stroke-linejoin="round" stroke-linecap="butt" d="m42.14042 21.070866l0 0c0 -11.637117 9.43375 -21.070866 21.070866 -21.070866c11.637119 0 21.070866 9.433748 21.070866 21.070866c0 11.637119 -9.433746 21.070866 -21.070866 21.070866c-11.6371155 0 -21.070866 -9.433746 -21.070866 -21.070866z" fill-rule="evenodd"/><path fill="#9fc5e8" d="m42.14042 70.79265l0 0c0 -11.6371155 9.43375 -21.070862 21.070866 -21.070862c11.637119 0 21.070866 9.433746 21.070866 21.070862c0 11.637123 -9.433746 21.07087 -21.070866 21.07087c-11.6371155 0 -21.070866 -9.433746 -21.070866 -21.07087z" fill-rule="evenodd"/><path fill="#7f9db9" d="m54.265923 64.4909c0 -1.2121964 0.9826813 -2.1948776 2.1948814 -2.1948776c1.2122002 0 2.1948814 0.9826813 2.1948814 2.1948776c0 1.212204 -0.9826813 2.1948853 -2.1948814 2.1948853c-1.2122002 0 -2.1948814 -0.9826813 -2.1948814 -2.1948853m13.500961 0c0 -1.2121964 0.9826813 -2.1948776 2.1948853 -2.1948776c1.2121964 0 2.1948776 0.9826813 2.1948776 2.1948776c0 1.212204 -0.9826813 2.1948853 -2.1948776 2.1948853c-1.212204 0 -2.1948853 -0.9826813 -2.1948853 -2.1948853" fill-rule="evenodd"/><path fill="#000000" fill-opacity="0.0" d="m51.790737 79.9818q11.4205475 7.843422 22.814426 0" fill-rule="evenodd"/><path fill="#000000" fill-opacity="0.0" d="m42.14042 70.79265l0 0c0 -11.6371155 9.43375 -21.070862 21.070866 -21.070862c11.637119 0 21.070866 9.433746 21.070866 21.070862c0 11.637123 -9.433746 21.07087 -21.070866 21.07087c-11.6371155 0 -21.070866 -9.433746 -21.070866 -21.07087z" fill-rule="evenodd"/><path stroke="#000000" stroke-width="1.0" stroke-linejoin="round" stroke-linecap="butt" d="m54.265923 64.4909c0 -1.2121964 0.9826813 -2.1948776 2.1948814 -2.1948776c1.2122002 0 2.1948814 0.9826813 2.1948814 2.1948776c0 1.212204 -0.9826813 2.1948853 -2.1948814 2.1948853c-1.2122002 0 -2.1948814 -0.9826813 -2.1948814 -2.1948853m13.500961 0c0 -1.2121964 0.9826813 -2.1948776 2.1948853 -2.1948776c1.2121964 0 2.1948776 0.9826813 2.1948776 2.1948776c0 1.212204 -0.9826813 2.1948853 -2.1948776 2.1948853c-1.212204 0 -2.1948853 -0.9826813 -2.1948853 -2.1948853" fill-rule="evenodd"/><path stroke="#000000" stroke-width="1.0" stroke-linejoin="round" stroke-linecap="butt" d="m51.790737 79.9818q11.4205475 7.843422 22.814426 0" fill-rule="evenodd"/><path stroke="#000000" stroke-width="1.0" stroke-linejoin="round" stroke-linecap="butt" d="m42.14042 70.79265l0 0c0 -11.6371155 9.43375 -21.070862 21.070866 -21.070862c11.637119 0 21.070866 9.433746 21.070866 21.070862c0 11.637123 -9.433746 21.07087 -21.070866 21.07087c-11.6371155 0 -21.070866 -9.433746 -21.070866 -21.07087z" fill-rule="evenodd"/><path fill="#9fc5e8" d="m42.14042 120.514435l0 0c0 -11.6371155 9.43375 -21.070862 21.070866 -21.070862c11.637119 0 21.070866 9.433746 21.070866 21.070862c0 11.6371155 -9.433746 21.070862 -21.070866 21.070862c-11.6371155 0 -21.070866 -9.433746 -21.070866 -21.070862z" fill-rule="evenodd"/><path fill="#7f9db9" d="m54.265923 114.212685c0 -1.2121964 0.9826813 -2.1948776 2.1948814 -2.1948776c1.2122002 0 2.1948814 0.9826813 2.1948814 2.1948776c0 1.212204 -0.9826813 2.1948853 -2.1948814 2.1948853c-1.2122002 0 -2.1948814 -0.9826813 -2.1948814 -2.1948853m13.500961 0c0 -1.2121964 0.9826813 -2.1948776 2.1948853 -2.1948776c1.2121964 0 2.1948776 0.9826813 2.1948776 2.1948776c0 1.212204 -0.9826813 2.1948853 -2.1948776 2.1948853c-1.212204 0 -2.1948853 -0.9826813 -2.1948853 -2.1948853" fill-rule="evenodd"/><path fill="#000000" fill-opacity="0.0" d="m51.790737 129.70358q11.4205475 7.8434143 22.814426 0" fill-rule="evenodd"/><path fill="#000000" fill-opacity="0.0" d="m42.14042 120.514435l0 0c0 -11.6371155 9.43375 -21.070862 21.070866 -21.070862c11.637119 0 21.070866 9.433746 21.070866 21.070862c0 11.6371155 -9.433746 21.070862 -21.070866 21.070862c-11.6371155 0 -21.070866 -9.433746 -21.070866 -21.070862z" fill-rule="evenodd"/><path stroke="#000000" stroke-width="1.0" stroke-linejoin="round" stroke-linecap="butt" d="m54.265923 114.212685c0 -1.2121964 0.9826813 -2.1948776 2.1948814 -2.1948776c1.2122002 0 2.1948814 0.9826813 2.1948814 2.1948776c0 1.212204 -0.9826813 2.1948853 -2.1948814 2.1948853c-1.2122002 0 -2.1948814 -0.9826813 -2.1948814 -2.1948853m13.500961 0c0 -1.2121964 0.9826813 -2.1948776 2.1948853 -2.1948776c1.2121964 0 2.1948776 0.9826813 2.1948776 2.1948776c0 1.212204 -0.9826813 2.1948853 -2.1948776 2.1948853c-1.212204 0 -2.1948853 -0.9826813 -2.1948853 -2.1948853" fill-rule="evenodd"/><path stroke="#000000" stroke-width="1.0" stroke-linejoin="round" stroke-linecap="butt" d="m51.790737 129.70358q11.4205475 7.8434143 22.814426 0" fill-rule="evenodd"/><path stroke="#000000" stroke-width="1.0" stroke-linejoin="round" stroke-linecap="butt" d="m42.14042 120.514435l0 0c0 -11.6371155 9.43375 -21.070862 21.070866 -21.070862c11.637119 0 21.070866 9.433746 21.070866 21.070862c0 11.6371155 -9.433746 21.070862 -21.070866 21.070862c-11.6371155 0 -21.070866 -9.433746 -21.070866 -21.070862z" fill-rule="evenodd"/><path fill="#9fc5e8" d="m42.14042 170.23622l0 0c0 -11.6371155 9.43375 -21.070862 21.070866 -21.070862c11.637119 0 21.070866 9.433746 21.070866 21.070862c0 11.6371155 -9.433746 21.070862 -21.070866 21.070862c-11.6371155 0 -21.070866 -9.433746 -21.070866 -21.070862z" fill-rule="evenodd"/><path fill="#7f9db9" d="m54.265923 163.93446c0 -1.2121887 0.9826813 -2.19487 2.1948814 -2.19487c1.2122002 0 2.1948814 0.9826813 2.1948814 2.19487c0 1.212204 -0.9826813 2.1948853 -2.1948814 2.1948853c-1.2122002 0 -2.1948814 -0.9826813 -2.1948814 -2.1948853m13.500961 0c0 -1.2121887 0.9826813 -2.19487 2.1948853 -2.19487c1.2121964 0 2.1948776 0.9826813 2.1948776 2.19487c0 1.212204 -0.9826813 2.1948853 -2.1948776 2.1948853c-1.212204 0 -2.1948853 -0.9826813 -2.1948853 -2.1948853" fill-rule="evenodd"/><path fill="#000000" fill-opacity="0.0" d="m51.790737 179.42537q11.4205475 7.8434143 22.814426 0" fill-rule="evenodd"/><path fill="#000000" fill-opacity="0.0" d="m42.14042 170.23622l0 0c0 -11.6371155 9.43375 -21.070862 21.070866 -21.070862c11.637119 0 21.070866 9.433746 21.070866 21.070862c0 11.6371155 -9.433746 21.070862 -21.070866 21.070862c-11.6371155 0 -21.070866 -9.433746 -21.070866 -21.070862z" fill-rule="evenodd"/><path stroke="#000000" stroke-width="1.0" stroke-linejoin="round" stroke-linecap="butt" d="m54.265923 163.93446c0 -1.2121887 0.9826813 -2.19487 2.1948814 -2.19487c1.2122002 0 2.1948814 0.9826813 2.1948814 2.19487c0 1.212204 -0.9826813 2.1948853 -2.1948814 2.1948853c-1.2122002 0 -2.1948814 -0.9826813 -2.1948814 -2.1948853m13.500961 0c0 -1.2121887 0.9826813 -2.19487 2.1948853 -2.19487c1.2121964 0 2.1948776 0.9826813 2.1948776 2.19487c0 1.212204 -0.9826813 2.1948853 -2.1948776 2.1948853c-1.212204 0 -2.1948853 -0.9826813 -2.1948853 -2.1948853" fill-rule="evenodd"/><path stroke="#000000" stroke-width="1.0" stroke-linejoin="round" stroke-linecap="butt" d="m51.790737 179.42537q11.4205475 7.8434143 22.814426 0" fill-rule="evenodd"/><path stroke="#000000" stroke-width="1.0" stroke-linejoin="round" stroke-linecap="butt" d="m42.14042 170.23622l0 0c0 -11.6371155 9.43375 -21.070862 21.070866 -21.070862c11.637119 0 21.070866 9.433746 21.070866 21.070862c0 11.6371155 -9.433746 21.070862 -21.070866 21.070862c-11.6371155 0 -21.070866 -9.433746 -21.070866 -21.070862z" fill-rule="evenodd"/><path fill="#000000" fill-opacity="0.0" d="m84.28215 21.070866l144.18898 0" fill-rule="evenodd"/><path stroke="#000000" stroke-width="1.0" stroke-linejoin="round" stroke-linecap="butt" d="m84.28215 21.070866l138.18898 0" fill-rule="evenodd"/><path fill="#000000" stroke="#000000" stroke-width="1.0" stroke-linecap="butt" d="m222.47113 22.722599l4.538101 -1.6517334l-4.538101 -1.6517315z" fill-rule="evenodd"/><path fill="#000000" fill-opacity="0.0" d="m84.70079 70.79265l144.18898 0" fill-rule="evenodd"/><path stroke="#000000" stroke-width="1.0" stroke-linejoin="round" stroke-linecap="butt" d="m84.70079 70.79265l138.18898 0" fill-rule="evenodd"/><path fill="#000000" stroke="#000000" stroke-width="1.0" stroke-linecap="butt" d="m222.88977 72.44438l4.538086 -1.6517334l-4.538086 -1.6517334z" fill-rule="evenodd"/><path fill="#000000" fill-opacity="0.0" d="m84.28215 120.514435l144.18898 0" fill-rule="evenodd"/><path stroke="#000000" stroke-width="1.0" stroke-linejoin="round" stroke-linecap="butt" d="m84.28215 120.514435l138.18898 0" fill-rule="evenodd"/><path fill="#000000" stroke="#000000" stroke-width="1.0" stroke-linecap="butt" d="m222.47113 122.16617l4.538101 -1.6517334l-4.538101 -1.6517334z" fill-rule="evenodd"/><path fill="#000000" fill-opacity="0.0" d="m84.28215 170.23622l144.18898 0" fill-rule="evenodd"/><path stroke="#000000" stroke-width="1.0" stroke-linejoin="round" stroke-linecap="butt" d="m84.28215 170.23622l138.18898 0" fill-rule="evenodd"/><path fill="#000000" stroke="#000000" stroke-width="1.0" stroke-linecap="butt" d="m222.47113 171.88795l4.538101 -1.6517334l-4.538101 -1.6517334z" fill-rule="evenodd"/><path fill="#b6d7a8" d="m504.2784 77.74385l0 0c-1.4410706 -8.632256 3.2902222 -17.177658 12.186188 -22.010086c8.895996 -4.832428 20.396484 -5.104374 29.62146 -0.7004471l0 0c3.2677612 -5.01915 9.248718 -8.484524 16.133728 -9.347919c6.88501 -0.8633919 13.8654785 0.97660446 18.829834 4.9634285l0 0c2.7836914 -4.550682 8.249573 -7.608162 14.458008 -8.087482c6.208435 -0.4793167 12.280823 1.687355 16.062317 5.7311707l0 0c5.029175 -4.8237114 13.030762 -6.8546944 20.542358 -5.2141304c7.5115967 1.640564 13.184143 6.6580124 14.562988 12.881271l0 0c6.161621 1.3699532 11.294067 4.852558 14.071411 9.548027c2.7772827 4.6954575 2.926941 10.143166 0.41027832 14.9356l0 0c6.067383 6.4367676 7.4866943 15.013687 3.7282715 22.529991c-3.7583618 7.5163116 -12.129883 12.842773 -21.990356 13.991653c-0.06945801 7.0543213 -4.815796 13.52729 -12.409485 16.923927c-7.593689 3.396637 -16.848938 3.186554 -24.198425 -0.54927063c-3.1304932 8.448776 -11.941772 14.665298 -22.627075 15.963806c-10.685303 1.298523 -21.32904 -2.553772 -27.332703 -9.892532c-7.359253 3.6172943 -16.189758 4.6593323 -24.499573 2.8910217c-8.309753 -1.7682953 -15.398804 -6.1979675 -19.667969 -12.28978l0 0c-7.5202637 0.71733093 -14.791321 -2.4585876 -18.20456 -7.9515533c-3.4132385 -5.4929733 -2.242096 -12.133659 2.9322205 -16.626328l0 0c-6.708252 -3.218338 -10.131195 -9.604576 -8.483917 -15.828545c1.6472778 -6.223976 7.991516 -10.875313 15.724426 -11.528511z" fill-rule="evenodd"/><path fill="#000000" fill-opacity="0.0" d="m496.88922 105.4336l0 0c3.1656494 1.5187378 6.8227234 2.2076797 10.480194 1.9743118m4.790497 22.604126c1.572815 -0.15002441 3.114502 -0.46772766 4.585266 -0.9449158m39.58008 10.343277c-1.1062622 -1.3522339 -2.0324097 -2.7972107 -2.7628174 -4.310318m52.724487 -1.7612152l0 0c0.57073975 -1.540329 0.94055176 -3.1256714 1.1032104 -4.7295685m35.503357 -11.644493c0.07397461 -7.510414 -5.1593018 -14.387032 -13.451965 -17.676132m31.713867 -18.844719c-1.3429565 2.5574417 -3.3931885 4.826111 -5.989868 6.628128m-8.49054 -31.112427l0 0c0.2288208 1.032753 0.3347168 2.0810242 0.31622314 3.130291m-35.42096 -10.797119l0 0c-1.2545776 1.2032776 -2.288147 2.547924 -3.0685425 3.9920692m-27.452148 -1.6362839l0 0c-0.66851807 1.092926 -1.1677856 2.2494316 -1.486206 3.442871m-33.477844 0.9417114l0 0c1.9520264 0.9318695 3.7578735 2.0534706 5.3779297 3.3401718m-47.185028 19.370483l0 0c0.1986084 1.189743 0.51242065 2.3648224 0.9385071 3.5142365" fill-rule="evenodd"/><path stroke="#000000" stroke-width="1.0" stroke-linejoin="round" stroke-linecap="butt" d="m504.2784 77.74385l0 0c-1.4410706 -8.632256 3.2902222 -17.177658 12.186188 -22.010086c8.895996 -4.832428 20.396484 -5.104374 29.62146 -0.7004471l0 0c3.2677612 -5.01915 9.248718 -8.484524 16.133728 -9.347919c6.88501 -0.8633919 13.8654785 0.97660446 18.829834 4.9634285l0 0c2.7836914 -4.550682 8.249573 -7.608162 14.458008 -8.087482c6.208435 -0.4793167 12.280823 1.687355 16.062317 5.7311707l0 0c5.029175 -4.8237114 13.030762 -6.8546944 20.542358 -5.2141304c7.5115967 1.640564 13.184143 6.6580124 14.562988 12.881271l0 0c6.161621 1.3699532 11.294067 4.852558 14.071411 9.548027c2.7772827 4.6954575 2.926941 10.143166 0.41027832 14.9356l0 0c6.067383 6.4367676 7.4866943 15.013687 3.7282715 22.529991c-3.7583618 7.5163116 -12.129883 12.842773 -21.990356 13.991653c-0.06945801 7.0543213 -4.815796 13.52729 -12.409485 16.923927c-7.593689 3.396637 -16.848938 3.186554 -24.198425 -0.54927063c-3.1304932 8.448776 -11.941772 14.665298 -22.627075 15.963806c-10.685303 1.298523 -21.32904 -2.553772 -27.332703 -9.892532c-7.359253 3.6172943 -16.189758 4.6593323 -24.499573 2.8910217c-8.309753 -1.7682953 -15.398804 -6.1979675 -19.667969 -12.28978l0 0c-7.5202637 0.71733093 -14.791321 -2.4585876 -18.20456 -7.9515533c-3.4132385 -5.4929733 -2.242096 -12.133659 2.9322205 -16.626328l0 0c-6.708252 -3.218338 -10.131195 -9.604576 -8.483917 -15.828545c1.6472778 -6.223976 7.991516 -10.875313 15.724426 -11.528511z" fill-rule="evenodd"/><path stroke="#000000" stroke-width="1.0" stroke-linejoin="round" stroke-linecap="butt" d="m496.88922 105.4336l0 0c3.1656494 1.5187378 6.8227234 2.2076797 10.480194 1.9743118m4.790497 22.604126c1.572815 -0.15002441 3.114502 -0.46772766 4.585266 -0.9449158m39.58008 10.343277c-1.1062622 -1.3522339 -2.0324097 -2.7972107 -2.7628174 -4.310318m52.724487 -1.7612152l0 0c0.57073975 -1.540329 0.94055176 -3.1256714 1.1032104 -4.7295685m35.503357 -11.644493c0.07397461 -7.510414 -5.1593018 -14.387032 -13.451965 -17.676132m31.713867 -18.844719c-1.3429565 2.5574417 -3.3931885 4.826111 -5.989868 6.628128m-8.49054 -31.112427l0 0c0.2288208 1.032753 0.3347168 2.0810242 0.31622314 3.130291m-35.42096 -10.797119l0 0c-1.2545776 1.2032776 -2.288147 2.547924 -3.0685425 3.9920692m-27.452148 -1.6362839l0 0c-0.66851807 1.092926 -1.1677856 2.2494316 -1.486206 3.442871m-33.477844 0.9417114l0 0c1.9520264 0.9318695 3.7578735 2.0534706 5.3779297 3.3401718m-47.185028 19.370483l0 0c0.1986084 1.189743 0.51242065 2.3648224 0.9385071 3.5142365" fill-rule="evenodd"/><path fill="#000000" d="m529.1054 89.09411l-2.9375 0l-1.171875 -3.03125l-5.328125 0l-1.109375 3.03125l-2.859375 0l5.203125 -13.359375l2.84375 0l5.359375 13.359375zm-4.96875 -5.28125l-1.84375 -4.953125l-1.796875 4.953125l3.640625 0zm15.176086 5.28125l-2.5625 0l0 -4.9375q0 -1.5625 -0.171875 -2.015625q-0.15625 -0.46875 -0.53125 -0.71875q-0.359375 -0.265625 -0.875 -0.265625q-0.671875 0 -1.203125 0.375q-0.53125 0.359375 -0.734375 0.96875q-0.1875 0.59375 -0.1875 2.21875l0 4.375l-2.546875 0l0 -9.671875l2.375 0l0 1.421875q1.265625 -1.640625 3.1875 -1.640625q0.84375 0 1.546875 0.3125q0.703125 0.296875 1.0625 0.78125q0.359375 0.46875 0.5 1.078125q0.140625 0.59375 0.140625 1.703125l0 6.015625zm2.005371 -4.96875q0 -1.28125 0.625 -2.46875q0.625 -1.203125 1.78125 -1.828125q1.15625 -0.625 2.578125 -0.625q2.1875 0 3.59375 1.421875q1.40625 1.421875 1.40625 3.609375q0 2.1875 -1.421875 3.640625q-1.421875 1.4375 -3.5625 1.4375q-1.328125 0 -2.546875 -0.59375q-1.203125 -0.609375 -1.828125 -1.765625q-0.625 -1.171875 -0.625 -2.828125zm2.625 0.125q0 1.453125 0.671875 2.21875q0.6875 0.75 1.6875 0.75q1.0 0 1.671875 -0.75q0.6875 -0.765625 0.6875 -2.234375q0 -1.421875 -0.6875 -2.1875q-0.671875 -0.765625 -1.671875 -0.765625q-1.0 0 -1.6875 0.765625q-0.671875 0.765625 -0.671875 2.203125zm18.161621 4.84375l-2.5625 0l0 -4.9375q0 -1.5625 -0.171875 -2.015625q-0.15625 -0.46875 -0.53125 -0.71875q-0.359375 -0.265625 -0.875 -0.265625q-0.671875 0 -1.203125 0.375q-0.53125 0.359375 -0.734375 0.96875q-0.1875 0.59375 -0.1875 2.21875l0 4.375l-2.546875 0l0 -9.671875l2.375 0l0 1.421875q1.265625 -1.640625 3.1875 -1.640625q0.84375 0 1.546875 0.3125q0.703125 0.296875 1.0625 0.78125q0.359375 0.46875 0.5 1.078125q0.140625 0.59375 0.140625 1.703125l0 6.015625zm1.38031 -9.671875l2.71875 0l2.328125 6.859375l2.25 -6.859375l2.65625 0l-3.421875 9.3125l-0.609375 1.6875q-0.328125 0.84375 -0.640625 1.28125q-0.3125 0.453125 -0.703125 0.71875q-0.390625 0.28125 -0.96875 0.4375q-0.578125 0.15625 -1.3125 0.15625q-0.734375 0 -1.453125 -0.15625l-0.21875 -2.0q0.59375 0.125 1.078125 0.125q0.890625 0 1.3125 -0.53125q0.4375 -0.515625 0.671875 -1.328125l-3.6875 -9.703125zm11.391357 0l2.359375 0l0 1.3125q1.265625 -1.53125 3.015625 -1.53125q0.9375 0 1.609375 0.390625q0.6875 0.375 1.125 1.140625q0.640625 -0.765625 1.375 -1.140625q0.75 -0.390625 1.578125 -0.390625q1.0625 0 1.796875 0.4375q0.75 0.421875 1.109375 1.265625q0.265625 0.625 0.265625 2.0l0 6.1875l-2.5625 0l0 -5.53125q0 -1.4375 -0.265625 -1.859375q-0.34375 -0.546875 -1.09375 -0.546875q-0.53125 0 -1.015625 0.328125q-0.46875 0.328125 -0.671875 0.96875q-0.203125 0.625 -0.203125 2.0l0 4.640625l-2.5625 0l0 -5.296875q0 -1.421875 -0.140625 -1.828125q-0.140625 -0.40625 -0.421875 -0.609375q-0.28125 -0.203125 -0.78125 -0.203125q-0.59375 0 -1.0625 0.328125q-0.46875 0.3125 -0.6875 0.921875q-0.203125 0.59375 -0.203125 1.984375l0 4.703125l-2.5625 0l0 -9.671875zm16.791504 -1.3125l0 -2.375l2.5625 0l0 2.375l-2.5625 0zm0 10.984375l0 -9.671875l2.5625 0l0 9.671875l-2.5625 0zm4.1520996 0l0 -2.0l3.625 -4.15625q0.890625 -1.015625 1.3125 -1.453125q-0.4375 0.03125 -1.171875 0.046875l-3.40625 0.015625l0 -2.125l7.984375 0l0 1.8125l-3.6875 4.265625l-1.3125 1.40625q1.078125 -0.0625 1.328125 -0.0625l3.96875 0l0 2.25l-8.640625 0zm15.953125 -3.078125l2.546875 0.421875q-0.484375 1.40625 -1.546875 2.140625q-1.0625 0.734375 -2.65625 0.734375q-2.515625 0 -3.734375 -1.65625q-0.953125 -1.3125 -0.953125 -3.328125q0 -2.40625 1.25 -3.765625q1.265625 -1.359375 3.1875 -1.359375q2.15625 0 3.40625 1.421875q1.25 1.421875 1.1875 4.375l-6.40625 0q0.03125 1.140625 0.609375 1.78125q0.59375 0.625 1.484375 0.625q0.59375 0 1.0 -0.328125q0.421875 -0.328125 0.625 -1.0625zm0.15625 -2.59375q-0.03125 -1.109375 -0.578125 -1.6875q-0.546875 -0.578125 -1.328125 -0.578125q-0.84375 0 -1.390625 0.609375q-0.546875 0.609375 -0.53125 1.65625l3.828125 0zm13.500671 5.671875l-2.390625 0l0 -1.421875q-0.59375 0.828125 -1.40625 1.234375q-0.796875 0.40625 -1.609375 0.40625q-1.671875 0 -2.859375 -1.34375q-1.1875 -1.34375 -1.1875 -3.75q0 -2.453125 1.15625 -3.734375q1.15625 -1.28125 2.921875 -1.28125q1.625 0 2.8125 1.34375l0 -4.8125l2.5625 0l0 13.359375zm-6.84375 -5.046875q0 1.546875 0.4375 2.234375q0.609375 1.015625 1.71875 1.015625q0.890625 0 1.5 -0.75q0.625 -0.765625 0.625 -2.25q0 -1.671875 -0.609375 -2.40625q-0.59375 -0.734375 -1.53125 -0.734375q-0.90625 0 -1.53125 0.734375q-0.609375 0.71875 -0.609375 2.15625z" fill-rule="nonzero"/><path fill="#000000" d="m542.8986 106.12536q0 -1.28125 0.625 -2.46875q0.625 -1.203125 1.78125 -1.828125q1.15625 -0.625 2.578125 -0.625q2.1875 0 3.59375 1.421875q1.40625 1.421875 1.40625 3.609375q0 2.1875 -1.421875 3.640625q-1.421875 1.4375 -3.5625 1.4375q-1.328125 0 -2.546875 -0.59375q-1.203125 -0.609375 -1.828125 -1.765625q-0.625 -1.171875 -0.625 -2.828125zm2.625 0.125q0 1.453125 0.671875 2.21875q0.6875 0.75 1.6875 0.75q1.0 0 1.671875 -0.75q0.6875 -0.765625 0.6875 -2.234375q0 -1.421875 -0.6875 -2.1875q-0.671875 -0.765625 -1.671875 -0.765625q-1.0 0 -1.6875 0.765625q-0.671875 0.765625 -0.671875 2.203125zm15.72406 4.84375l0 -1.453125q-0.53125 0.78125 -1.390625 1.234375q-0.859375 0.4375 -1.8125 0.4375q-0.96875 0 -1.75 -0.421875q-0.765625 -0.4375 -1.125 -1.203125q-0.34375 -0.78125 -0.34375 -2.140625l0 -6.125l2.5625 0l0 4.4375q0 2.046875 0.140625 2.515625q0.140625 0.453125 0.515625 0.71875q0.375 0.265625 0.953125 0.265625q0.65625 0 1.171875 -0.359375q0.515625 -0.359375 0.703125 -0.890625q0.203125 -0.53125 0.203125 -2.609375l0 -4.078125l2.546875 0l0 9.671875l-2.375 0zm9.474121 -9.671875l0 2.03125l-1.75 0l0 3.90625q0 1.1875 0.046875 1.390625q0.046875 0.1875 0.21875 0.3125q0.1875 0.125 0.4375 0.125q0.359375 0 1.03125 -0.25l0.21875 2.0q-0.890625 0.375 -2.015625 0.375q-0.703125 0 -1.265625 -0.234375q-0.546875 -0.234375 -0.8125 -0.59375q-0.25 -0.375 -0.34375 -1.0q-0.09375 -0.453125 -0.09375 -1.8125l0 -4.21875l-1.171875 0l0 -2.03125l1.171875 0l0 -1.921875l2.578125 -1.5l0 3.421875l1.75 0zm1.6970825 0l2.390625 0l0 1.421875q0.46875 -0.734375 1.25 -1.1875q0.796875 -0.453125 1.765625 -0.453125q1.6875 0 2.859375 1.328125q1.171875 1.3125 1.171875 3.671875q0 2.421875 -1.1875 3.765625q-1.1875 1.34375 -2.859375 1.34375q-0.8125 0 -1.46875 -0.3125q-0.640625 -0.328125 -1.359375 -1.09375l0 4.875l-2.5625 0l0 -13.359375zm2.53125 4.671875q0 1.625 0.640625 2.40625q0.65625 0.78125 1.578125 0.78125q0.90625 0 1.484375 -0.71875q0.59375 -0.71875 0.59375 -2.34375q0 -1.515625 -0.609375 -2.25q-0.609375 -0.75 -1.515625 -0.75q-0.9375 0 -1.5625 0.734375q-0.609375 0.71875 -0.609375 2.140625zm15.302185 5.0l0 -1.453125q-0.53125 0.78125 -1.390625 1.234375q-0.859375 0.4375 -1.8125 0.4375q-0.96875 0 -1.75 -0.421875q-0.765625 -0.4375 -1.125 -1.203125q-0.34375 -0.78125 -0.34375 -2.140625l0 -6.125l2.5625 0l0 4.4375q0 2.046875 0.140625 2.515625q0.140625 0.453125 0.515625 0.71875q0.375 0.265625 0.953125 0.265625q0.65625 0 1.171875 -0.359375q0.515625 -0.359375 0.703125 -0.890625q0.203125 -0.53125 0.203125 -2.609375l0 -4.078125l2.546875 0l0 9.671875l-2.375 0zm9.474121 -9.671875l0 2.03125l-1.75 0l0 3.90625q0 1.1875 0.046875 1.390625q0.046875 0.1875 0.21875 0.3125q0.1875 0.125 0.4375 0.125q0.359375 0 1.03125 -0.25l0.21875 2.0q-0.890625 0.375 -2.015625 0.375q-0.703125 0 -1.265625 -0.234375q-0.546875 -0.234375 -0.8125 -0.59375q-0.25 -0.375 -0.34375 -1.0q-0.09375 -0.453125 -0.09375 -1.8125l0 -4.21875l-1.171875 0l0 -2.03125l1.171875 0l0 -1.921875l2.578125 -1.5l0 3.421875l1.75 0z" fill-rule="nonzero"/><path fill="#000000" fill-opacity="0.0" d="m384.41397 95.653755l104.28348 0" fill-rule="evenodd"/><path stroke="#000000" stroke-width="1.0" stroke-linejoin="round" stroke-linecap="butt" d="m384.41397 95.65375l98.28345 0" fill-rule="evenodd"/><path fill="#000000" stroke="#000000" stroke-width="1.0" stroke-linecap="butt" d="m482.69742 97.30548l4.5381165 -1.6517334l-4.5381165 -1.6517334z" fill-rule="evenodd"/><path fill="#ffff00" d="m436.28473 85.898l10.898315 -11.315323l-1.074585 10.388641l12.371155 -1.6933975l-4.91333 5.5757217l12.868927 1.6036606l-10.219025 4.561241l11.6918335 5.4918365l-13.946442 -0.67891693l3.8299255 10.053085l-12.078339 -7.0974426l-2.2634277 10.30085l-7.9497375 -9.368309l-5.993805 13.002869l-2.2546082 -11.65284l-8.646637 3.8823318l2.6499329 -7.1793823l-16.198181 1.2680969l10.503052 -5.485985l-10.898346 -6.1649017l13.548248 -1.9470139l-12.464844 -10.38279l20.326752 7.8524475l3.0451965 -7.8524475z" fill-rule="evenodd"/><path stroke="#000000" stroke-width="1.0" stroke-linejoin="round" stroke-linecap="butt" d="m436.28473 85.898l10.898315 -11.315323l-1.074585 10.388641l12.371155 -1.6933975l-4.91333 5.5757217l12.868927 1.6036606l-10.219025 4.561241l11.6918335 5.4918365l-13.946442 -0.67891693l3.8299255 10.053085l-12.078339 -7.0974426l-2.2634277 10.30085l-7.9497375 -9.368309l-5.993805 13.002869l-2.2546082 -11.65284l-8.646637 3.8823318l2.6499329 -7.1793823l-16.198181 1.2680969l10.503052 -5.485985l-10.898346 -6.1649017l13.548248 -1.9470139l-12.464844 -10.38279l20.326752 7.8524475l3.0451965 -7.8524475z" fill-rule="evenodd"/><path fill="#000000" d="m419.76382 98.08256l0 -7.625l2.3125 0l1.375 5.203125l1.375 -5.203125l2.3125 0l0 7.625l-1.4375 0l0 -6.0l-1.515625 6.0l-1.484375 0l-1.5 -6.0l0 6.0l-1.4375 0zm9.9861145 -3.84375l-1.328125 -0.234375q0.21875 -0.796875 0.765625 -1.1875q0.546875 -0.390625 1.625 -0.390625q0.984375 0 1.453125 0.234375q0.484375 0.234375 0.671875 0.59375q0.203125 0.359375 0.203125 1.3125l-0.015625 1.703125q0 0.71875 0.0625 1.078125q0.078125 0.34375 0.265625 0.734375l-1.4375 0q-0.0625 -0.140625 -0.140625 -0.4375q-0.046875 -0.125 -0.0625 -0.171875q-0.375 0.375 -0.796875 0.5625q-0.421875 0.171875 -0.90625 0.171875q-0.859375 0 -1.359375 -0.453125q-0.484375 -0.46875 -0.484375 -1.1875q0 -0.46875 0.21875 -0.828125q0.234375 -0.359375 0.640625 -0.546875q0.40625 -0.203125 1.15625 -0.359375q1.03125 -0.1875 1.421875 -0.359375l0 -0.140625q0 -0.421875 -0.21875 -0.59375q-0.203125 -0.1875 -0.78125 -0.1875q-0.375 0 -0.59375 0.15625q-0.21875 0.15625 -0.359375 0.53125zm1.953125 1.1875q-0.28125 0.09375 -0.890625 0.234375q-0.609375 0.125 -0.796875 0.25q-0.28125 0.203125 -0.28125 0.515625q0 0.296875 0.21875 0.53125q0.234375 0.21875 0.59375 0.21875q0.390625 0 0.75 -0.265625q0.265625 -0.1875 0.34375 -0.484375q0.0625 -0.1875 0.0625 -0.703125l0 -0.296875zm2.7390137 3.015625l1.671875 0.203125q0.046875 0.296875 0.203125 0.40625q0.203125 0.15625 0.640625 0.15625q0.578125 0 0.859375 -0.171875q0.203125 -0.109375 0.296875 -0.375q0.0625 -0.171875 0.0625 -0.671875l0 -0.796875q-0.65625 0.890625 -1.65625 0.890625q-1.109375 0 -1.75 -0.9375q-0.515625 -0.75 -0.515625 -1.859375q0 -1.390625 0.671875 -2.125q0.671875 -0.734375 1.65625 -0.734375q1.03125 0 1.6875 0.90625l0 -0.78125l1.375 0l0 4.96875q0 0.96875 -0.171875 1.453125q-0.15625 0.484375 -0.453125 0.765625q-0.28125 0.28125 -0.765625 0.4375q-0.484375 0.15625 -1.234375 0.15625q-1.40625 0 -2.0 -0.484375q-0.578125 -0.484375 -0.578125 -1.21875q0 -0.078125 0 -0.1875zm1.3125 -3.234375q0 0.875 0.34375 1.28125q0.34375 0.40625 0.828125 0.40625q0.546875 0 0.90625 -0.40625q0.375 -0.421875 0.375 -1.25q0 -0.859375 -0.359375 -1.265625q-0.34375 -0.421875 -0.890625 -0.421875q-0.515625 0 -0.859375 0.40625q-0.34375 0.40625 -0.34375 1.25zm5.337372 -3.40625l0 -1.34375l1.46875 0l0 1.34375l-1.46875 0zm0 6.28125l0 -5.53125l1.46875 0l0 5.53125l-1.46875 0zm7.773163 -3.890625l-1.4375 0.265625q-0.078125 -0.4375 -0.34375 -0.65625q-0.25 -0.21875 -0.65625 -0.21875q-0.546875 0 -0.875 0.375q-0.3125 0.375 -0.3125 1.265625q0 0.984375 0.328125 1.390625q0.328125 0.40625 0.875 0.40625q0.421875 0 0.6875 -0.234375q0.265625 -0.25 0.375 -0.828125l1.4375 0.25q-0.21875 0.984375 -0.859375 1.5q-0.640625 0.5 -1.703125 0.5q-1.203125 0 -1.9375 -0.765625q-0.71875 -0.765625 -0.71875 -2.109375q0 -1.375 0.71875 -2.140625q0.734375 -0.765625 1.96875 -0.765625q1.0 0 1.59375 0.4375q0.609375 0.4375 0.859375 1.328125zm1.6921082 1.921875l-0.390625 -3.875l0 -1.78125l1.59375 0l0 1.78125l-0.375 3.875l-0.828125 0zm-0.328125 1.96875l0 -1.46875l1.46875 0l0 1.46875l-1.46875 0z" fill-rule="nonzero"/><path fill="#000000" fill-opacity="0.0" d="m-0.001312336 173.2126l0 -155.11812l42.14173 0l0 155.11812z" fill-rule="evenodd"/><path fill="#000000" d="m13.559311 120.23998l0 -2.6875l7.234375 0q1.71875 0 2.234375 -0.109375q0.828125 -0.171875 1.328125 -0.8125q0.484375 -0.65625 0.484375 -1.78125q0 -1.15625 -0.46875 -1.734375q-0.46875 -0.59375 -1.140625 -0.703125q-0.6875 -0.125 -2.28125 -0.125l-7.390625 0l0 -2.6875l7.015625 0q2.40625 0 3.40625 0.21875q0.984375 0.21875 1.671875 0.8125q0.6875 0.578125 1.09375 1.5625q0.40625 0.984375 0.40625 2.5625q0 1.921875 -0.4375 2.90625q-0.453125 0.984375 -1.15625 1.5625q-0.703125 0.578125 -1.484375 0.75q-1.140625 0.265625 -3.390625 0.265625l-7.125 0zm10.59375 -12.566696l-0.390625 -2.5625q0.75 -0.171875 1.140625 -0.671875q0.390625 -0.5 0.390625 -1.40625q0 -0.984375 -0.375 -1.484375q-0.25 -0.34375 -0.671875 -0.34375q-0.296875 0 -0.484375 0.1875q-0.1875 0.1875 -0.34375 0.859375q-0.6875 3.09375 -1.25 3.921875q-0.78125 1.140625 -2.171875 1.140625q-1.265625 0 -2.109375 -0.984375q-0.859375 -1.0 -0.859375 -3.078125q0 -1.984375 0.65625 -2.953125q0.640625 -0.96875 1.90625 -1.328125l0.4375 2.40625q-0.5625 0.15625 -0.859375 0.59375q-0.296875 0.421875 -0.296875 1.234375q0 1.0 0.28125 1.4375q0.203125 0.296875 0.515625 0.296875q0.265625 0 0.46875 -0.25q0.25 -0.34375 0.71875 -2.390625q0.453125 -2.046875 1.140625 -2.859375q0.671875 -0.796875 1.890625 -0.796875q1.34375 0 2.296875 1.109375q0.953125 1.109375 0.953125 3.28125q0 1.984375 -0.796875 3.140625q-0.8125 1.140625 -2.1875 1.5zm-0.3125 -16.875717l0.421875 -2.546875q1.40625 0.484375 2.140625 1.546875q0.734375 1.0625 0.734375 2.65625q0 2.515625 -1.65625 3.734375q-1.3125 0.953125 -3.328125 0.953125q-2.40625 0 -3.765625 -1.25q-1.359375 -1.265625 -1.359375 -3.1875q0 -2.15625 1.421875 -3.40625q1.421875 -1.25 4.375 -1.1875l0 6.40625q1.140625 -0.03125 1.78125 -0.609375q0.625 -0.59375 0.625 -1.484375q0 -0.59375 -0.328125 -1.0q-0.328125 -0.421875 -1.0625 -0.625zm-2.59375 -0.15625q-1.109375 0.03125 -1.6875 0.578125q-0.578125 0.546875 -0.578125 1.328125q0 0.84375 0.609375 1.390625q0.609375 0.546875 1.65625 0.53125l0 -3.828125zm5.671875 -7.078842l0 2.5625l-9.671875 0l0 -2.375l1.375 0q-0.984375 -0.609375 -1.28125 -1.09375q-0.3125 -0.484375 -0.3125 -1.109375q0 -0.875 0.484375 -1.6875l2.234375 0.796875q-0.421875 0.640625 -0.421875 1.203125q0 0.53125 0.296875 0.90625q0.296875 0.375 1.078125 0.59375q0.765625 0.203125 3.234375 0.203125l2.984375 0zm-2.765625 -3.9008942l-0.390625 -2.5625q0.75 -0.171875 1.140625 -0.671875q0.390625 -0.5 0.390625 -1.40625q0 -0.984375 -0.375 -1.484375q-0.25 -0.34375 -0.671875 -0.34375q-0.296875 0 -0.484375 0.1875q-0.1875 0.1875 -0.34375 0.859375q-0.6875 3.09375 -1.25 3.921875q-0.78125 1.140625 -2.171875 1.140625q-1.265625 0 -2.109375 -0.984375q-0.859375 -1.0 -0.859375 -3.078125q0 -1.984375 0.65625 -2.953125q0.640625 -0.96875 1.90625 -1.328125l0.4375 2.40625q-0.5625 0.15625 -0.859375 0.59375q-0.296875 0.421875 -0.296875 1.234375q0 1.0 0.28125 1.4375q0.203125 0.296875 0.515625 0.296875q0.265625 0 0.46875 -0.25q0.25 -0.34375 0.71875 -2.390625q0.453125 -2.046875 1.140625 -2.859375q0.671875 -0.796875 1.890625 -0.796875q1.34375 0 2.296875 1.109375q0.953125 1.109375 0.953125 3.28125q0 1.984375 -0.796875 3.140625q-0.8125 1.140625 -2.1875 1.5z" fill-rule="nonzero"/></g></svg>