<svg version="1.1" viewBox="0.0 0.0 502.03412073490813 108.83989501312335" fill="none" stroke="none" stroke-linecap="square" stroke-miterlimit="10" xmlns:xlink="http://www.w3.org/1999/xlink" xmlns="http://www.w3.org/2000/svg"><clipPath id="p.0"><path d="m0 0l502.03412 0l0 108.8399l-502.03412 0l0 -108.8399z" clip-rule="nonzero"/></clipPath><g clip-path="url(#p.0)"><path fill="#000000" fill-opacity="0.0" d="m0 0l502.03412 0l0 108.8399l-502.03412 0z" fill-rule="evenodd"/><path fill="#b6d7a8" d="m339.054 35.595554l0 0c-1.4410706 -8.63225 3.2902222 -17.177654 12.186218 -22.010082c8.895996 -4.832428 20.396484 -5.104377 29.62143 -0.700449l0 0c3.2677612 -5.019148 9.248718 -8.484524 16.133759 -9.347918c6.88501 -0.863394 13.865448 0.9766021 18.829803 4.9634256l0 0c2.783722 -4.5506825 8.249573 -7.6081595 14.458038 -8.08748c6.208435 -0.47931996 12.280823 1.6873528 16.062317 5.73117l0 0c5.029175 -4.8237114 13.030731 -6.854695 20.542358 -5.214132c7.5115967 1.640563 13.184113 6.6580133 14.562988 12.88127l0 0c6.1615906 1.3699551 11.294067 4.852561 14.071381 9.548024c2.7772827 4.695465 2.9269714 10.143171 0.41030884 14.93561l0 0c6.067383 6.436764 7.4866943 15.0136795 3.7282715 22.529987c-3.7583923 7.5163116 -12.129883 12.842773 -21.990356 13.991653c-0.069488525 7.0543213 -4.815796 13.527283 -12.409485 16.923927c-7.593689 3.396637 -16.848969 3.186554 -24.198456 -0.54927063c-3.1304932 8.448769 -11.941772 14.665298 -22.627045 15.963806c-10.685303 1.2985153 -21.32904 -2.553772 -27.332733 -9.892532c-7.359253 3.617302 -16.189758 4.6593246 -24.499542 2.8910294c-8.309753 -1.7683029 -15.398804 -6.197983 -19.668 -12.289787l0 0c-7.5202637 0.7173233 -14.79129 -2.4585953 -18.204529 -7.951561c-3.413269 -5.4929657 -2.242096 -12.133659 2.9322205 -16.626324l0 0c-6.708252 -3.2183304 -10.131226 -9.604572 -8.483948 -15.828545c1.6472778 -6.223976 7.991516 -10.875305 15.724457 -11.528511z" fill-rule="evenodd"/><path fill="#000000" fill-opacity="0.0" d="m331.66483 63.28531l0 0c3.1656494 1.5187378 6.8227234 2.2076797 10.480164 1.9743118m4.790497 22.604118c1.5728455 -0.15002441 3.1145325 -0.46772766 4.5852966 -0.94490814m39.58008 10.343277c-1.1062317 -1.3522339 -2.0324402 -2.7972107 -2.7628174 -4.310318m52.724487 -1.7612152l0 0c0.57073975 -1.5403366 0.94052124 -3.125679 1.1031799 -4.7295685m35.503387 -11.644493c0.07400513 -7.510414 -5.1593018 -14.387032 -13.451996 -17.676136m31.713898 -18.844711c-1.3429871 2.557438 -3.3931885 4.826107 -5.989868 6.628124m-8.49057 -31.112429l0 0c0.2288208 1.032752 0.3347168 2.0810251 0.31622314 3.130291m-35.42096 -10.797117l0 0c-1.2545471 1.2032762 -2.2881165 2.5479221 -3.068512 3.9920683m-27.452148 -1.6362839l0 0c-0.6685486 1.092926 -1.1677856 2.2494307 -1.4861755 3.4428701m-33.477875 0.9417124l0 0c1.9519958 0.93186855 3.757843 2.0534716 5.377899 3.3401709m-47.185028 19.370481l0 0c0.1986084 1.1897469 0.5124512 2.3648262 0.9385376 3.5142403" fill-rule="evenodd"/><path stroke="#000000" stroke-width="1.0" stroke-linejoin="round" stroke-linecap="butt" d="m339.054 35.595554l0 0c-1.4410706 -8.63225 3.2902222 -17.177654 12.186218 -22.010082c8.895996 -4.832428 20.396484 -5.104377 29.62143 -0.700449l0 0c3.2677612 -5.019148 9.248718 -8.484524 16.133759 -9.347918c6.88501 -0.863394 13.865448 0.9766021 18.829803 4.9634256l0 0c2.783722 -4.5506825 8.249573 -7.6081595 14.458038 -8.08748c6.208435 -0.47931996 12.280823 1.6873528 16.062317 5.73117l0 0c5.029175 -4.8237114 13.030731 -6.854695 20.542358 -5.214132c7.5115967 1.640563 13.184113 6.6580133 14.562988 12.88127l0 0c6.1615906 1.3699551 11.294067 4.852561 14.071381 9.548024c2.7772827 4.695465 2.9269714 10.143171 0.41030884 14.93561l0 0c6.067383 6.436764 7.4866943 15.0136795 3.7282715 22.529987c-3.7583923 7.5163116 -12.129883 12.842773 -21.990356 13.991653c-0.069488525 7.0543213 -4.815796 13.527283 -12.409485 16.923927c-7.593689 3.396637 -16.848969 3.186554 -24.198456 -0.54927063c-3.1304932 8.448769 -11.941772 14.665298 -22.627045 15.963806c-10.685303 1.2985153 -21.32904 -2.553772 -27.332733 -9.892532c-7.359253 3.617302 -16.189758 4.6593246 -24.499542 2.8910294c-8.309753 -1.7683029 -15.398804 -6.197983 -19.668 -12.289787l0 0c-7.5202637 0.7173233 -14.79129 -2.4585953 -18.204529 -7.951561c-3.413269 -5.4929657 -2.242096 -12.133659 2.9322205 -16.626324l0 0c-6.708252 -3.2183304 -10.131226 -9.604572 -8.483948 -15.828545c1.6472778 -6.223976 7.991516 -10.875305 15.724457 -11.528511z" fill-rule="evenodd"/><path stroke="#000000" stroke-width="1.0" stroke-linejoin="round" stroke-linecap="butt" d="m331.66483 63.28531l0 0c3.1656494 1.5187378 6.8227234 2.2076797 10.480164 1.9743118m4.790497 22.604118c1.5728455 -0.15002441 3.1145325 -0.46772766 4.5852966 -0.94490814m39.58008 10.343277c-1.1062317 -1.3522339 -2.0324402 -2.7972107 -2.7628174 -4.310318m52.724487 -1.7612152l0 0c0.57073975 -1.5403366 0.94052124 -3.125679 1.1031799 -4.7295685m35.503387 -11.644493c0.07400513 -7.510414 -5.1593018 -14.387032 -13.451996 -17.676136m31.713898 -18.844711c-1.3429871 2.557438 -3.3931885 4.826107 -5.989868 6.628124m-8.49057 -31.112429l0 0c0.2288208 1.032752 0.3347168 2.0810251 0.31622314 3.130291m-35.42096 -10.797117l0 0c-1.2545471 1.2032762 -2.2881165 2.5479221 -3.068512 3.9920683m-27.452148 -1.6362839l0 0c-0.6685486 1.092926 -1.1677856 2.2494307 -1.4861755 3.4428701m-33.477875 0.9417124l0 0c1.9519958 0.93186855 3.757843 2.0534716 5.377899 3.3401709m-47.185028 19.370481l0 0c0.1986084 1.1897469 0.5124512 2.3648262 0.9385376 3.5142403" fill-rule="evenodd"/><path fill="#000000" d="m363.881 46.945816l-2.9375 0l-1.171875 -3.03125l-5.328125 0l-1.109375 3.03125l-2.859375 0l5.203125 -13.359375l2.84375 0l5.359375 13.359375zm-4.96875 -5.28125l-1.84375 -4.953125l-1.796875 4.953125l3.640625 0zm15.176086 5.28125l-2.5625 0l0 -4.9375q0 -1.5625 -0.171875 -2.015625q-0.15625 -0.46875 -0.53125 -0.71875q-0.359375 -0.265625 -0.875 -0.265625q-0.671875 0 -1.203125 0.375q-0.53125 0.359375 -0.734375 0.96875q-0.1875 0.59375 -0.1875 2.21875l0 4.375l-2.546875 0l0 -9.671875l2.375 0l0 1.421875q1.265625 -1.640625 3.1875 -1.640625q0.84375 0 1.546875 0.3125q0.703125 0.296875 1.0625 0.78125q0.359375 0.46875 0.5 1.078125q0.140625 0.59375 0.140625 1.703125l0 6.015625zm2.0053406 -4.96875q0 -1.28125 0.625 -2.46875q0.625 -1.203125 1.78125 -1.828125q1.15625 -0.625 2.578125 -0.625q2.1875 0 3.59375 1.421875q1.40625 1.421875 1.40625 3.609375q0 2.1875 -1.421875 3.640625q-1.421875 1.4375 -3.5625 1.4375q-1.328125 0 -2.546875 -0.59375q-1.203125 -0.609375 -1.828125 -1.765625q-0.625 -1.171875 -0.625 -2.828125zm2.625 0.125q0 1.453125 0.671875 2.21875q0.6875 0.75 1.6875 0.75q1.0 0 1.671875 -0.75q0.6875 -0.765625 0.6875 -2.234375q0 -1.421875 -0.6875 -2.1875q-0.671875 -0.765625 -1.671875 -0.765625q-1.0 0 -1.6875 0.765625q-0.671875 0.765625 -0.671875 2.203125zm18.161621 4.84375l-2.5625 0l0 -4.9375q0 -1.5625 -0.171875 -2.015625q-0.15625 -0.46875 -0.53125 -0.71875q-0.359375 -0.265625 -0.875 -0.265625q-0.671875 0 -1.203125 0.375q-0.53125 0.359375 -0.734375 0.96875q-0.1875 0.59375 -0.1875 2.21875l0 4.375l-2.546875 0l0 -9.671875l2.375 0l0 1.421875q1.265625 -1.640625 3.1875 -1.640625q0.84375 0 1.546875 0.3125q0.703125 0.296875 1.0625 0.78125q0.359375 0.46875 0.5 1.078125q0.140625 0.59375 0.140625 1.703125l0 6.015625zm1.3803406 -9.671875l2.71875 0l2.328125 6.859375l2.25 -6.859375l2.65625 0l-3.421875 9.3125l-0.609375 1.6875q-0.328125 0.84375 -0.640625 1.28125q-0.3125 0.453125 -0.703125 0.71875q-0.390625 0.28125 -0.96875 0.4375q-0.578125 0.15625 -1.3125 0.15625q-0.734375 0 -1.453125 -0.15625l-0.21875 -2.0q0.59375 0.125 1.078125 0.125q0.890625 0 1.3125 -0.53125q0.4375 -0.515625 0.671875 -1.328125l-3.6875 -9.703125zm11.391357 0l2.359375 0l0 1.3125q1.265625 -1.53125 3.015625 -1.53125q0.9375 0 1.609375 0.390625q0.6875 0.375 1.125 1.140625q0.640625 -0.765625 1.375 -1.140625q0.75 -0.390625 1.578125 -0.390625q1.0625 0 1.796875 0.4375q0.75 0.421875 1.109375 1.265625q0.265625 0.625 0.265625 2.0l0 6.1875l-2.5625 0l0 -5.53125q0 -1.4375 -0.265625 -1.859375q-0.34375 -0.546875 -1.09375 -0.546875q-0.53125 0 -1.015625 0.328125q-0.46875 0.328125 -0.671875 0.96875q-0.203125 0.625 -0.203125 2.0l0 4.640625l-2.5625 0l0 -5.296875q0 -1.421875 -0.140625 -1.828125q-0.140625 -0.40625 -0.421875 -0.609375q-0.28125 -0.203125 -0.78125 -0.203125q-0.59375 0 -1.0625 0.328125q-0.46875 0.3125 -0.6875 0.921875q-0.203125 0.59375 -0.203125 1.984375l0 4.703125l-2.5625 0l0 -9.671875zm16.791504 -1.3125l0 -2.375l2.5625 0l0 2.375l-2.5625 0zm0 10.984375l0 -9.671875l2.5625 0l0 9.671875l-2.5625 0zm4.152069 0l0 -2.0l3.625 -4.15625q0.890625 -1.015625 1.3125 -1.453125q-0.4375 0.03125 -1.171875 0.046875l-3.40625 0.015625l0 -2.125l7.984375 0l0 1.8125l-3.6875 4.265625l-1.3125 1.40625q1.078125 -0.0625 1.328125 -0.0625l3.96875 0l0 2.25l-8.640625 0zm15.953125 -3.078125l2.546875 0.421875q-0.484375 1.40625 -1.546875 2.140625q-1.0625 0.734375 -2.65625 0.734375q-2.515625 0 -3.734375 -1.65625q-0.953125 -1.3125 -0.953125 -3.328125q0 -2.40625 1.25 -3.765625q1.265625 -1.359375 3.1875 -1.359375q2.15625 0 3.40625 1.421875q1.25 1.421875 1.1875 4.375l-6.40625 0q0.03125 1.140625 0.609375 1.78125q0.59375 0.625 1.484375 0.625q0.59375 0 1.0 -0.328125q0.421875 -0.328125 0.625 -1.0625zm0.15625 -2.59375q-0.03125 -1.109375 -0.578125 -1.6875q-0.546875 -0.578125 -1.328125 -0.578125q-0.84375 0 -1.390625 0.609375q-0.546875 0.609375 -0.53125 1.65625l3.828125 0zm13.500702 5.671875l-2.390625 0l0 -1.421875q-0.59375 0.828125 -1.40625 1.234375q-0.796875 0.40625 -1.609375 0.40625q-1.671875 0 -2.859375 -1.34375q-1.1875 -1.34375 -1.1875 -3.75q0 -2.453125 1.15625 -3.734375q1.15625 -1.28125 2.921875 -1.28125q1.625 0 2.8125 1.34375l0 -4.8125l2.5625 0l0 13.359375zm-6.84375 -5.046875q0 1.546875 0.4375 2.234375q0.609375 1.015625 1.71875 1.015625q0.890625 0 1.5 -0.75q0.625 -0.765625 0.625 -2.25q0 -1.671875 -0.609375 -2.40625q-0.59375 -0.734375 -1.53125 -0.734375q-0.90625 0 -1.53125 0.734375q-0.609375 0.71875 -0.609375 2.15625z" fill-rule="nonzero"/><path fill="#000000" d="m377.6742 63.977066q0 -1.28125 0.625 -2.46875q0.625 -1.203125 1.78125 -1.828125q1.15625 -0.625 2.578125 -0.625q2.1875 0 3.59375 1.421875q1.40625 1.421875 1.40625 3.609375q0 2.1875 -1.421875 3.640625q-1.421875 1.4375 -3.5625 1.4375q-1.328125 0 -2.546875 -0.59375q-1.203125 -0.609375 -1.828125 -1.765625q-0.625 -1.171875 -0.625 -2.828125zm2.625 0.125q0 1.453125 0.671875 2.21875q0.6875 0.75 1.6875 0.75q1.0 0 1.671875 -0.75q0.6875 -0.765625 0.6875 -2.234375q0 -1.421875 -0.6875 -2.1875q-0.671875 -0.765625 -1.671875 -0.765625q-1.0 0 -1.6875 0.765625q-0.671875 0.765625 -0.671875 2.203125zm15.724091 4.84375l0 -1.453125q-0.53125 0.78125 -1.390625 1.234375q-0.859375 0.4375 -1.8125 0.4375q-0.96875 0 -1.75 -0.421875q-0.765625 -0.4375 -1.125 -1.203125q-0.34375 -0.78125 -0.34375 -2.140625l0 -6.125l2.5625 0l0 4.4375q0 2.046875 0.140625 2.515625q0.140625 0.453125 0.515625 0.71875q0.375 0.265625 0.953125 0.265625q0.65625 0 1.171875 -0.359375q0.515625 -0.359375 0.703125 -0.890625q0.203125 -0.53125 0.203125 -2.609375l0 -4.078125l2.546875 0l0 9.671875l-2.375 0zm9.474121 -9.671875l0 2.03125l-1.75 0l0 3.90625q0 1.1875 0.046875 1.390625q0.046875 0.1875 0.21875 0.3125q0.1875 0.125 0.4375 0.125q0.359375 0 1.03125 -0.25l0.21875 2.0q-0.890625 0.375 -2.015625 0.375q-0.703125 0 -1.265625 -0.234375q-0.546875 -0.234375 -0.8125 -0.59375q-0.25 -0.375 -0.34375 -1.0q-0.09375 -0.453125 -0.09375 -1.8125l0 -4.21875l-1.171875 0l0 -2.03125l1.171875 0l0 -1.921875l2.578125 -1.5l0 3.421875l1.75 0zm1.697052 0l2.390625 0l0 1.421875q0.46875 -0.734375 1.25 -1.1875q0.796875 -0.453125 1.765625 -0.453125q1.6875 0 2.859375 1.328125q1.171875 1.3125 1.171875 3.671875q0 2.421875 -1.1875 3.765625q-1.1875 1.34375 -2.859375 1.34375q-0.8125 0 -1.46875 -0.3125q-0.640625 -0.328125 -1.359375 -1.09375l0 4.875l-2.5625 0l0 -13.359375zm2.53125 4.671875q0 1.625 0.640625 2.40625q0.65625 0.78125 1.578125 0.78125q0.90625 0 1.484375 -0.71875q0.59375 -0.71875 0.59375 -2.34375q0 -1.515625 -0.609375 -2.25q-0.609375 -0.75 -1.515625 -0.75q-0.9375 0 -1.5625 0.734375q-0.609375 0.71875 -0.609375 2.140625zm15.302216 5.0l0 -1.453125q-0.53125 0.78125 -1.390625 1.234375q-0.859375 0.4375 -1.8125 0.4375q-0.96875 0 -1.75 -0.421875q-0.765625 -0.4375 -1.125 -1.203125q-0.34375 -0.78125 -0.34375 -2.140625l0 -6.125l2.5625 0l0 4.4375q0 2.046875 0.140625 2.515625q0.140625 0.453125 0.515625 0.71875q0.375 0.265625 0.953125 0.265625q0.65625 0 1.171875 -0.359375q0.515625 -0.359375 0.703125 -0.890625q0.203125 -0.53125 0.203125 -2.609375l0 -4.078125l2.546875 0l0 9.671875l-2.375 0zm9.474121 -9.671875l0 2.03125l-1.75 0l0 3.90625q0 1.1875 0.046875 1.390625q0.046875 0.1875 0.21875 0.3125q0.1875 0.125 0.4375 0.125q0.359375 0 1.03125 -0.25l0.21875 2.0q-0.890625 0.375 -2.015625 0.375q-0.703125 0 -1.265625 -0.234375q-0.546875 -0.234375 -0.8125 -0.59375q-0.25 -0.375 -0.34375 -1.0q-0.09375 -0.453125 -0.09375 -1.8125l0 -4.21875l-1.171875 0l0 -2.03125l1.171875 0l0 -1.921875l2.578125 -1.5l0 3.421875l1.75 0z" fill-rule="nonzero"/><path fill="#9fc5e8" d="m16.135355 35.595554l0 0c-1.441062 -8.63225 3.2902298 -17.177654 12.186213 -22.010082c8.895981 -4.832428 20.396496 -5.104377 29.621445 -0.700449l0 0c3.2677574 -5.019148 9.248707 -8.484524 16.133732 -9.347918c6.885025 -0.863394 13.865448 0.9766021 18.829826 4.9634256l0 0c2.7837067 -4.5506825 8.249573 -7.6081595 14.458015 -8.08748c6.2084503 -0.47931996 12.280823 1.6873528 16.06234 5.73117l0 0c5.029175 -4.8237114 13.030731 -6.854695 20.542343 -5.214132c7.5115967 1.640563 13.184113 6.6580133 14.562988 12.88127l0 0c6.161606 1.3699551 11.294083 4.852561 14.071381 9.548024c2.777298 4.695465 2.9269562 10.143171 0.4103241 14.93561l0 0c6.067383 6.436764 7.4866943 15.0136795 3.7282715 22.529987c-3.7584076 7.5163116 -12.129898 12.842773 -21.990356 13.991653c-0.069503784 7.0543213 -4.815811 13.527283 -12.4095 16.923927c-7.5936737 3.396637 -16.84896 3.186554 -24.198448 -0.54927063c-3.1304932 8.448769 -11.94178 14.665298 -22.62706 15.963806c-10.685287 1.2985153 -21.329018 -2.553772 -27.332703 -9.892532c-7.359276 3.617302 -16.189785 4.6593246 -24.499557 2.8910294c-8.309769 -1.7683029 -15.398819 -6.197983 -19.668005 -12.289787l0 0c-7.520252 0.7173233 -14.791295 -2.4585953 -18.204538 -7.951561c-3.4132428 -5.4929657 -2.2420878 -12.133659 2.9322248 -16.626324l0 0c-6.708258 -3.2183304 -10.131216 -9.604572 -8.483935 -15.828545c1.6472809 -6.223976 7.9915204 -10.875305 15.724447 -11.528511z" fill-rule="evenodd"/><path fill="#000000" fill-opacity="0.0" d="m8.746189 63.28531l0 0c3.1656475 1.5187378 6.822713 2.2076797 10.480175 1.9743118m4.790491 22.604118c1.5728416 -0.15002441 3.1145267 -0.46772766 4.5852966 -0.94490814m39.580063 10.343277c-1.1062317 -1.3522339 -2.0324326 -2.7972107 -2.7628098 -4.310318m52.724487 -1.7612152l0 0c0.57073975 -1.5403366 0.94052124 -3.125679 1.1031952 -4.7295685m35.503372 -11.644493c0.07398987 -7.510414 -5.1592865 -14.387032 -13.451996 -17.676136m31.713913 -18.844711c-1.3429871 2.557438 -3.3931885 4.826107 -5.989868 6.628124m-8.490585 -31.112429l0 0c0.22883606 1.032752 0.33473206 2.0810251 0.3162384 3.130291m-35.420975 -10.797117l0 0c-1.2545319 1.2032762 -2.2880936 2.5479221 -3.0685196 3.9920683m-27.452126 -1.6362839l0 0c-0.6685562 1.092926 -1.1677856 2.2494307 -1.4861984 3.4428701m-33.47787 0.9417124l0 0c1.951992 0.93186855 3.7578545 2.0534716 5.377907 3.3401709m-47.18502 19.370481l0 0c0.19861412 1.1897469 0.5124378 2.3648262 0.93852997 3.5142403" fill-rule="evenodd"/><path stroke="#000000" stroke-width="1.0" stroke-linejoin="round" stroke-linecap="butt" d="m16.135355 35.595554l0 0c-1.441062 -8.63225 3.2902298 -17.177654 12.186213 -22.010082c8.895981 -4.832428 20.396496 -5.104377 29.621445 -0.700449l0 0c3.2677574 -5.019148 9.248707 -8.484524 16.133732 -9.347918c6.885025 -0.863394 13.865448 0.9766021 18.829826 4.9634256l0 0c2.7837067 -4.5506825 8.249573 -7.6081595 14.458015 -8.08748c6.2084503 -0.47931996 12.280823 1.6873528 16.06234 5.73117l0 0c5.029175 -4.8237114 13.030731 -6.854695 20.542343 -5.214132c7.5115967 1.640563 13.184113 6.6580133 14.562988 12.88127l0 0c6.161606 1.3699551 11.294083 4.852561 14.071381 9.548024c2.777298 4.695465 2.9269562 10.143171 0.4103241 14.93561l0 0c6.067383 6.436764 7.4866943 15.0136795 3.7282715 22.529987c-3.7584076 7.5163116 -12.129898 12.842773 -21.990356 13.991653c-0.069503784 7.0543213 -4.815811 13.527283 -12.4095 16.923927c-7.5936737 3.396637 -16.84896 3.186554 -24.198448 -0.54927063c-3.1304932 8.448769 -11.94178 14.665298 -22.62706 15.963806c-10.685287 1.2985153 -21.329018 -2.553772 -27.332703 -9.892532c-7.359276 3.617302 -16.189785 4.6593246 -24.499557 2.8910294c-8.309769 -1.7683029 -15.398819 -6.197983 -19.668005 -12.289787l0 0c-7.520252 0.7173233 -14.791295 -2.4585953 -18.204538 -7.951561c-3.4132428 -5.4929657 -2.2420878 -12.133659 2.9322248 -16.626324l0 0c-6.708258 -3.2183304 -10.131216 -9.604572 -8.483935 -15.828545c1.6472809 -6.223976 7.9915204 -10.875305 15.724447 -11.528511z" fill-rule="evenodd"/><path stroke="#000000" stroke-width="1.0" stroke-linejoin="round" stroke-linecap="butt" d="m8.746189 63.28531l0 0c3.1656475 1.5187378 6.822713 2.2076797 10.480175 1.9743118m4.790491 22.604118c1.5728416 -0.15002441 3.1145267 -0.46772766 4.5852966 -0.94490814m39.580063 10.343277c-1.1062317 -1.3522339 -2.0324326 -2.7972107 -2.7628098 -4.310318m52.724487 -1.7612152l0 0c0.57073975 -1.5403366 0.94052124 -3.125679 1.1031952 -4.7295685m35.503372 -11.644493c0.07398987 -7.510414 -5.1592865 -14.387032 -13.451996 -17.676136m31.713913 -18.844711c-1.3429871 2.557438 -3.3931885 4.826107 -5.989868 6.628124m-8.490585 -31.112429l0 0c0.22883606 1.032752 0.33473206 2.0810251 0.3162384 3.130291m-35.420975 -10.797117l0 0c-1.2545319 1.2032762 -2.2880936 2.5479221 -3.0685196 3.9920683m-27.452126 -1.6362839l0 0c-0.6685562 1.092926 -1.1677856 2.2494307 -1.4861984 3.4428701m-33.47787 0.9417124l0 0c1.951992 0.93186855 3.7578545 2.0534716 5.377907 3.3401709m-47.18502 19.370481l0 0c0.19861412 1.1897469 0.5124378 2.3648262 0.93852997 3.5142403" fill-rule="evenodd"/><path fill="#000000" d="m39.80591 57.945816l0 -13.359375l5.6875 0q2.140625 0 3.109375 0.359375q0.96875 0.359375 1.546875 1.28125q0.578125 0.921875 0.578125 2.109375q0 1.5 -0.890625 2.484375q-0.875 0.96875 -2.625 1.234375q0.875 0.5 1.4375 1.125q0.578125 0.609375 1.53125 2.15625l1.640625 2.609375l-3.234375 0l-1.9375 -2.90625q-1.046875 -1.5625 -1.4375 -1.96875q-0.375 -0.40625 -0.8125 -0.546875q-0.421875 -0.15625 -1.34375 -0.15625l-0.546875 0l0 5.578125l-2.703125 0zm2.703125 -7.703125l2.0 0q1.9375 0 2.421875 -0.15625q0.484375 -0.171875 0.75 -0.578125q0.28125 -0.40625 0.28125 -1.0q0 -0.671875 -0.359375 -1.078125q-0.359375 -0.421875 -1.015625 -0.53125q-0.328125 -0.046875 -1.96875 -0.046875l-2.109375 0l0 3.390625zm12.660446 0.984375l-2.328125 -0.421875q0.40625 -1.40625 1.359375 -2.078125q0.953125 -0.671875 2.84375 -0.671875q1.703125 0 2.546875 0.40625q0.84375 0.40625 1.171875 1.03125q0.34375 0.625 0.34375 2.28125l-0.015625 3.0q0 1.265625 0.109375 1.875q0.125 0.609375 0.46875 1.296875l-2.53125 0q-0.109375 -0.25 -0.25 -0.75q-0.0625 -0.234375 -0.09375 -0.3125q-0.65625 0.640625 -1.40625 0.96875q-0.734375 0.3125 -1.59375 0.3125q-1.484375 0 -2.34375 -0.8125q-0.859375 -0.8125 -0.859375 -2.046875q0 -0.828125 0.390625 -1.46875q0.390625 -0.640625 1.09375 -0.96875q0.703125 -0.34375 2.03125 -0.609375q1.796875 -0.328125 2.484375 -0.625l0 -0.25q0 -0.75 -0.359375 -1.0625q-0.359375 -0.3125 -1.375 -0.3125q-0.6875 0 -1.078125 0.28125q-0.375 0.265625 -0.609375 0.9375zm3.421875 2.078125q-0.484375 0.15625 -1.5625 0.390625q-1.0625 0.21875 -1.390625 0.4375q-0.5 0.359375 -0.5 0.90625q0 0.53125 0.40625 0.9375q0.40625 0.390625 1.015625 0.390625q0.703125 0 1.328125 -0.46875q0.46875 -0.34375 0.609375 -0.84375q0.09375 -0.328125 0.09375 -1.25l0 -0.5zm6.844467 4.640625l-3.0625 -9.671875l2.484375 0l1.8125 6.34375l1.671875 -6.34375l2.46875 0l1.609375 6.34375l1.859375 -6.34375l2.515625 0l-3.109375 9.671875l-2.453125 0l-1.671875 -6.21875l-1.640625 6.21875l-2.484375 0zm17.897858 -10.984375l0 -2.375l2.5625 0l0 2.375l-2.5625 0zm0 10.984375l0 -9.671875l2.5625 0l0 9.671875l-2.5625 0zm13.980179 0l-2.5625 0l0 -4.9375q0 -1.5625 -0.171875 -2.015625q-0.15625 -0.46875 -0.53125 -0.71875q-0.359375 -0.265625 -0.875 -0.265625q-0.671875 0 -1.203125 0.375q-0.53125 0.359375 -0.734375 0.96875q-0.1875 0.59375 -0.1875 2.21875l0 4.375l-2.546875 0l0 -9.671875l2.375 0l0 1.421875q1.265625 -1.640625 3.1875 -1.640625q0.84375 0 1.546875 0.3125q0.703125 0.296875 1.0625 0.78125q0.359375 0.46875 0.5 1.078125q0.140625 0.59375 0.140625 1.703125l0 6.015625zm2.5209808 -9.671875l2.390625 0l0 1.421875q0.46875 -0.734375 1.25 -1.1875q0.796875 -0.453125 1.765625 -0.453125q1.6875 0 2.859375 1.328125q1.171875 1.3125 1.171875 3.671875q0 2.421875 -1.1875 3.765625q-1.1875 1.34375 -2.859375 1.34375q-0.8125 0 -1.46875 -0.3125q-0.640625 -0.328125 -1.359375 -1.09375l0 4.875l-2.5625 0l0 -13.359375zm2.53125 4.671875q0 1.625 0.640625 2.40625q0.65625 0.78125 1.578125 0.78125q0.90625 0 1.484375 -0.71875q0.59375 -0.71875 0.59375 -2.34375q0 -1.515625 -0.609375 -2.25q-0.609375 -0.75 -1.515625 -0.75q-0.9375 0 -1.5625 0.734375q-0.609375 0.71875 -0.609375 2.140625zm15.302231 5.0l0 -1.453125q-0.53125 0.78125 -1.390625 1.234375q-0.859375 0.4375 -1.8125 0.4375q-0.96875 0 -1.75 -0.421875q-0.765625 -0.4375 -1.125 -1.203125q-0.34375 -0.78125 -0.34375 -2.140625l0 -6.125l2.5625 0l0 4.4375q0 2.046875 0.140625 2.515625q0.140625 0.453125 0.515625 0.71875q0.375 0.265625 0.953125 0.265625q0.65625 0 1.171875 -0.359375q0.515625 -0.359375 0.703125 -0.890625q0.203125 -0.53125 0.203125 -2.609375l0 -4.078125l2.546875 0l0 9.671875l-2.375 0zm9.474106 -9.671875l0 2.03125l-1.75 0l0 3.90625q0 1.1875 0.046875 1.390625q0.046875 0.1875 0.21875 0.3125q0.1875 0.125 0.4375 0.125q0.359375 0 1.03125 -0.25l0.21875 2.0q-0.890625 0.375 -2.015625 0.375q-0.703125 0 -1.265625 -0.234375q-0.546875 -0.234375 -0.8125 -0.59375q-0.25 -0.375 -0.34375 -1.0q-0.09375 -0.453125 -0.09375 -1.8125l0 -4.21875l-1.171875 0l0 -2.03125l1.171875 0l0 -1.921875l2.578125 -1.5l0 3.421875l1.75 0z" fill-rule="nonzero"/><path fill="#000000" fill-opacity="0.0" d="m178.72966 53.50525l144.18898 0" fill-rule="evenodd"/><path stroke="#000000" stroke-width="1.0" stroke-linejoin="round" stroke-linecap="butt" d="m178.72966 53.50525l138.18898 0" fill-rule="evenodd"/><path fill="#000000" stroke="#000000" stroke-width="1.0" stroke-linecap="butt" d="m316.91864 55.156982l4.538086 -1.6517334l-4.538086 -1.6517334z" fill-rule="evenodd"/><path fill="#ffff00" d="m251.24274 43.751022l10.898315 -11.315327l-1.0746155 10.388641l12.371155 -1.6933975l-4.9132996 5.5757256l12.868927 1.6036568l-10.219025 4.561245l11.6918335 5.4918365l-13.946442 -0.67891693l3.8299255 10.053085l-12.078339 -7.0974464l-2.2634277 10.300854l-7.9497375 -9.368313l-5.9937897 13.002872l-2.2546234 -11.652836l-8.646637 3.882328l2.6499176 -7.1793823l-16.198166 1.2680969l10.5030365 -5.485985l-10.898331 -6.1649017l13.548248 -1.9470177l-12.464844 -10.382786l20.326752 7.8524475l3.0452118 -7.8524475z" fill-rule="evenodd"/><path stroke="#000000" stroke-width="1.0" stroke-linejoin="round" stroke-linecap="butt" d="m251.24274 43.751022l10.898315 -11.315327l-1.0746155 10.388641l12.371155 -1.6933975l-4.9132996 5.5757256l12.868927 1.6036568l-10.219025 4.561245l11.6918335 5.4918365l-13.946442 -0.67891693l3.8299255 10.053085l-12.078339 -7.0974464l-2.2634277 10.300854l-7.9497375 -9.368313l-5.9937897 13.002872l-2.2546234 -11.652836l-8.646637 3.882328l2.6499176 -7.1793823l-16.198166 1.2680969l10.5030365 -5.485985l-10.898331 -6.1649017l13.548248 -1.9470177l-12.464844 -10.382786l20.326752 7.8524475l3.0452118 -7.8524475z" fill-rule="evenodd"/><path fill="#000000" d="m234.72185 55.935574l0 -7.625l2.3125 0l1.375 5.203125l1.375 -5.203125l2.3125 0l0 7.625l-1.4375 0l0 -6.0l-1.515625 6.0l-1.484375 0l-1.5 -6.0l0 6.0l-1.4375 0zm9.9861145 -3.84375l-1.328125 -0.234375q0.21875 -0.796875 0.765625 -1.1875q0.546875 -0.390625 1.625 -0.390625q0.984375 0 1.453125 0.234375q0.484375 0.234375 0.671875 0.59375q0.203125 0.359375 0.203125 1.3125l-0.015625 1.703125q0 0.71875 0.0625 1.078125q0.078125 0.34375 0.265625 0.734375l-1.4375 0q-0.0625 -0.140625 -0.140625 -0.4375q-0.046875 -0.125 -0.0625 -0.171875q-0.375 0.375 -0.796875 0.5625q-0.421875 0.171875 -0.90625 0.171875q-0.859375 0 -1.359375 -0.453125q-0.484375 -0.46875 -0.484375 -1.1875q0 -0.46875 0.21875 -0.828125q0.234375 -0.359375 0.640625 -0.546875q0.40625 -0.203125 1.15625 -0.359375q1.03125 -0.1875 1.421875 -0.359375l0 -0.140625q0 -0.421875 -0.21875 -0.59375q-0.203125 -0.1875 -0.78125 -0.1875q-0.375 0 -0.59375 0.15625q-0.21875 0.15625 -0.359375 0.53125zm1.953125 1.1875q-0.28125 0.09375 -0.890625 0.234375q-0.609375 0.125 -0.796875 0.25q-0.28125 0.203125 -0.28125 0.515625q0 0.296875 0.21875 0.53125q0.234375 0.21875 0.59375 0.21875q0.390625 0 0.75 -0.265625q0.265625 -0.1875 0.34375 -0.484375q0.0625 -0.1875 0.0625 -0.703125l0 -0.296875zm2.7389984 3.015625l1.671875 0.203125q0.046875 0.296875 0.203125 0.40625q0.203125 0.15625 0.640625 0.15625q0.578125 0 0.859375 -0.171875q0.203125 -0.109375 0.296875 -0.375q0.0625 -0.171875 0.0625 -0.671875l0 -0.796875q-0.65625 0.890625 -1.65625 0.890625q-1.109375 0 -1.75 -0.9375q-0.515625 -0.75 -0.515625 -1.859375q0 -1.390625 0.671875 -2.125q0.671875 -0.734375 1.65625 -0.734375q1.03125 0 1.6875 0.90625l0 -0.78125l1.375 0l0 4.96875q0 0.96875 -0.171875 1.453125q-0.15625 0.484375 -0.453125 0.765625q-0.28125 0.28125 -0.765625 0.4375q-0.484375 0.15625 -1.234375 0.15625q-1.40625 0 -2.0 -0.484375q-0.578125 -0.484375 -0.578125 -1.21875q0 -0.078125 0 -0.1875zm1.3125 -3.234375q0 0.875 0.34375 1.28125q0.34375 0.40625 0.828125 0.40625q0.546875 0 0.90625 -0.40625q0.375 -0.421875 0.375 -1.25q0 -0.859375 -0.359375 -1.265625q-0.34375 -0.421875 -0.890625 -0.421875q-0.515625 0 -0.859375 0.40625q-0.34375 0.40625 -0.34375 1.25zm5.337372 -3.40625l0 -1.34375l1.46875 0l0 1.34375l-1.46875 0zm0 6.28125l0 -5.53125l1.46875 0l0 5.53125l-1.46875 0zm7.773163 -3.890625l-1.4375 0.265625q-0.078125 -0.4375 -0.34375 -0.65625q-0.25 -0.21875 -0.65625 -0.21875q-0.546875 0 -0.875 0.375q-0.3125 0.375 -0.3125 1.265625q0 0.984375 0.328125 1.390625q0.328125 0.40625 0.875 0.40625q0.421875 0 0.6875 -0.234375q0.265625 -0.25 0.375 -0.828125l1.4375 0.25q-0.21875 0.984375 -0.859375 1.5q-0.640625 0.5 -1.703125 0.5q-1.203125 0 -1.9375 -0.765625q-0.71875 -0.765625 -0.71875 -2.109375q0 -1.375 0.71875 -2.140625q0.734375 -0.765625 1.96875 -0.765625q1.0 0 1.59375 0.4375q0.609375 0.4375 0.859375 1.328125zm1.6921082 1.921875l-0.390625 -3.875l0 -1.78125l1.59375 0l0 1.78125l-0.375 3.875l-0.828125 0zm-0.328125 1.96875l0 -1.46875l1.46875 0l0 1.46875l-1.46875 0z" fill-rule="nonzero"/></g></svg>