<svg version="1.1" viewBox="0.0 0.0 596.1994750656168 240.4724409448819" fill="none" stroke="none" stroke-linecap="square" stroke-miterlimit="10" xmlns:xlink="http://www.w3.org/1999/xlink" xmlns="http://www.w3.org/2000/svg"><clipPath id="p.0"><path d="m0 0l596.19946 0l0 240.47244l-596.19946 0l0 -240.47244z" clip-rule="nonzero"/></clipPath><g clip-path="url(#p.0)"><path fill="#000000" fill-opacity="0.0" d="m0 0l596.19946 0l0 240.47244l-596.19946 0z" fill-rule="evenodd"/><path fill="#cfe2f3" d="m265.06015 113.403984l50.299225 0l0 -6.9606323l13.921234 13.921257l-13.921234 13.921265l0 -6.9606323l-50.299225 0z" fill-rule="evenodd"/><path stroke="#000000" stroke-width="1.0" stroke-linejoin="round" stroke-linecap="butt" d="m265.06015 113.403984l50.299225 0l0 -6.9606323l13.921234 13.921257l-13.921234 13.921265l0 -6.9606323l-50.299225 0z" fill-rule="evenodd"/><path fill="#f4cccc" d="m28.811024 54.32152l0 0c0 -9.65411 8.312698 -17.480316 18.566929 -17.480316l0 0c4.9242554 0 9.646828 1.841671 13.128803 5.119869c3.4819717 3.2781944 5.4381294 7.7243805 5.4381294 12.360447l0 0c0 9.654114 -8.312702 17.480312 -18.566933 17.480312l0 0c-10.2542305 0 -18.566929 -7.8261986 -18.566929 -17.480312z" fill-rule="evenodd"/><path stroke="#000000" stroke-width="1.0" stroke-linejoin="round" stroke-linecap="butt" d="m28.811024 54.32152l0 0c0 -9.65411 8.312698 -17.480316 18.566929 -17.480316l0 0c4.9242554 0 9.646828 1.841671 13.128803 5.119869c3.4819717 3.2781944 5.4381294 7.7243805 5.4381294 12.360447l0 0c0 9.654114 -8.312702 17.480312 -18.566933 17.480312l0 0c-10.2542305 0 -18.566929 -7.8261986 -18.566929 -17.480312z" fill-rule="evenodd"/><path fill="#f4cccc" d="m97.82415 37.66798l0 0c0 -9.654112 8.312691 -17.480316 18.566925 -17.480316l0 0c4.9242554 0 9.646828 1.841671 13.128807 5.1198654c3.481964 3.2781944 5.4381256 7.7243805 5.4381256 12.360451l0 0c0 9.65411 -8.312698 17.480312 -18.566933 17.480312l0 0c-10.254234 0 -18.566925 -7.8262024 -18.566925 -17.480312z" fill-rule="evenodd"/><path stroke="#000000" stroke-width="1.0" stroke-linejoin="round" stroke-linecap="butt" d="m97.82415 37.66798l0 0c0 -9.654112 8.312691 -17.480316 18.566925 -17.480316l0 0c4.9242554 0 9.646828 1.841671 13.128807 5.1198654c3.481964 3.2781944 5.4381256 7.7243805 5.4381256 12.360451l0 0c0 9.65411 -8.312698 17.480312 -18.566933 17.480312l0 0c-10.254234 0 -18.566925 -7.8262024 -18.566925 -17.480312z" fill-rule="evenodd"/><path fill="#f4cccc" d="m52.742783 98.70735l0 0c0 -9.654114 8.312698 -17.480316 18.566925 -17.480316l0 0c4.924263 0 9.646828 1.8416672 13.128807 5.1198654c3.4819717 3.2781906 5.4381256 7.7243805 5.4381256 12.360451l0 0c0 9.654106 -8.312698 17.480316 -18.566933 17.480316l0 0c-10.254227 0 -18.566925 -7.82621 -18.566925 -17.480316z" fill-rule="evenodd"/><path stroke="#000000" stroke-width="1.0" stroke-linejoin="round" stroke-linecap="butt" d="m52.742783 98.70735l0 0c0 -9.654114 8.312698 -17.480316 18.566925 -17.480316l0 0c4.924263 0 9.646828 1.8416672 13.128807 5.1198654c3.4819717 3.2781906 5.4381256 7.7243805 5.4381256 12.360451l0 0c0 9.654106 -8.312698 17.480316 -18.566933 17.480316l0 0c-10.254227 0 -18.566925 -7.82621 -18.566925 -17.480316z" fill-rule="evenodd"/><path fill="#f4cccc" d="m96.531494 78.502625l0 0c0 -9.654114 8.312698 -17.480316 18.566933 -17.480316l0 0c4.9242554 0 9.646828 1.841671 13.128807 5.1198654c3.481964 3.2781982 5.4381256 7.7243805 5.4381256 12.360451l0 0c0 9.654114 -8.312706 17.480316 -18.566933 17.480316l0 0c-10.254234 0 -18.566933 -7.8262024 -18.566933 -17.480316z" fill-rule="evenodd"/><path stroke="#000000" stroke-width="1.0" stroke-linejoin="round" stroke-linecap="butt" d="m96.531494 78.502625l0 0c0 -9.654114 8.312698 -17.480316 18.566933 -17.480316l0 0c4.9242554 0 9.646828 1.841671 13.128807 5.1198654c3.481964 3.2781982 5.4381256 7.7243805 5.4381256 12.360451l0 0c0 9.654114 -8.312706 17.480316 -18.566933 17.480316l0 0c-10.254234 0 -18.566933 -7.8262024 -18.566933 -17.480316z" fill-rule="evenodd"/><path fill="#f4cccc" d="m43.257217 143.09317l0 0c0 -9.6540985 8.312698 -17.480309 18.566929 -17.480309l0 0c4.924259 0 9.646824 1.8416672 13.128803 5.1198654c3.4819717 3.2781982 5.4381256 7.7243805 5.4381256 12.360443l0 0c0 9.654114 -8.312698 17.480316 -18.566929 17.480316l0 0c-10.2542305 0 -18.566929 -7.8262024 -18.566929 -17.480316z" fill-rule="evenodd"/><path stroke="#000000" stroke-width="1.0" stroke-linejoin="round" stroke-linecap="butt" d="m43.257217 143.09317l0 0c0 -9.6540985 8.312698 -17.480309 18.566929 -17.480309l0 0c4.924259 0 9.646824 1.8416672 13.128803 5.1198654c3.4819717 3.2781982 5.4381256 7.7243805 5.4381256 12.360443l0 0c0 9.654114 -8.312698 17.480316 -18.566929 17.480316l0 0c-10.2542305 0 -18.566929 -7.8262024 -18.566929 -17.480316z" fill-rule="evenodd"/><path fill="#f4cccc" d="m97.82415 143.09317l0 0c0 -9.6540985 8.312691 -17.480309 18.566925 -17.480309l0 0c4.9242554 0 9.646828 1.8416672 13.128807 5.1198654c3.481964 3.2781982 5.4381256 7.7243805 5.4381256 12.360443l0 0c0 9.654114 -8.312698 17.480316 -18.566933 17.480316l0 0c-10.254234 0 -18.566925 -7.8262024 -18.566925 -17.480316z" fill-rule="evenodd"/><path stroke="#000000" stroke-width="1.0" stroke-linejoin="round" stroke-linecap="butt" d="m97.82415 143.09317l0 0c0 -9.6540985 8.312691 -17.480309 18.566925 -17.480309l0 0c4.9242554 0 9.646828 1.8416672 13.128807 5.1198654c3.481964 3.2781982 5.4381256 7.7243805 5.4381256 12.360443l0 0c0 9.654114 -8.312698 17.480316 -18.566933 17.480316l0 0c-10.254234 0 -18.566925 -7.8262024 -18.566925 -17.480316z" fill-rule="evenodd"/><path fill="#f4cccc" d="m107.28346 196.80183l0 0c0 -9.654114 8.312698 -17.480316 18.566933 -17.480316l0 0c4.9242477 0 9.646828 1.8416748 13.128807 5.119873c3.481964 3.2781982 5.4381256 7.7243805 5.4381256 12.360443l0 0c0 9.654114 -8.312698 17.480316 -18.566933 17.480316l0 0c-10.254234 0 -18.566933 -7.8262024 -18.566933 -17.480316z" fill-rule="evenodd"/><path stroke="#000000" stroke-width="1.0" stroke-linejoin="round" stroke-linecap="butt" d="m107.28346 196.80183l0 0c0 -9.654114 8.312698 -17.480316 18.566933 -17.480316l0 0c4.9242477 0 9.646828 1.8416748 13.128807 5.119873c3.481964 3.2781982 5.4381256 7.7243805 5.4381256 12.360443l0 0c0 9.654114 -8.312698 17.480316 -18.566933 17.480316l0 0c-10.254234 0 -18.566933 -7.8262024 -18.566933 -17.480316z" fill-rule="evenodd"/><path fill="#f4cccc" d="m52.742783 187.479l0 0c0 -9.654114 8.312698 -17.480316 18.566925 -17.480316l0 0c4.924263 0 9.646828 1.8416748 13.128807 5.119873c3.4819717 3.278183 5.4381256 7.7243805 5.4381256 12.360443l0 0c0 9.654114 -8.312698 17.480316 -18.566933 17.480316l0 0c-10.254227 0 -18.566925 -7.8262024 -18.566925 -17.480316z" fill-rule="evenodd"/><path stroke="#000000" stroke-width="1.0" stroke-linejoin="round" stroke-linecap="butt" d="m52.742783 187.479l0 0c0 -9.654114 8.312698 -17.480316 18.566925 -17.480316l0 0c4.924263 0 9.646828 1.8416748 13.128807 5.119873c3.4819717 3.278183 5.4381256 7.7243805 5.4381256 12.360443l0 0c0 9.654114 -8.312698 17.480316 -18.566933 17.480316l0 0c-10.254227 0 -18.566925 -7.8262024 -18.566925 -17.480316z" fill-rule="evenodd"/><path fill="#f4cccc" d="m157.08661 159.79134l0 0c0 -9.654114 8.312698 -17.480316 18.56694 -17.480316l0 0c4.9242554 0 9.64682 1.8416748 13.128799 5.119873c3.481964 3.2781982 5.4381256 7.7243805 5.4381256 12.360443l0 0c0 9.654114 -8.312698 17.480316 -18.566925 17.480316l0 0c-10.254242 0 -18.56694 -7.8262024 -18.56694 -17.480316z" fill-rule="evenodd"/><path stroke="#000000" stroke-width="1.0" stroke-linejoin="round" stroke-linecap="butt" d="m157.08661 159.79134l0 0c0 -9.654114 8.312698 -17.480316 18.56694 -17.480316l0 0c4.9242554 0 9.64682 1.8416748 13.128799 5.119873c3.481964 3.2781982 5.4381256 7.7243805 5.4381256 12.360443l0 0c0 9.654114 -8.312698 17.480316 -18.566925 17.480316l0 0c-10.254242 0 -18.56694 -7.8262024 -18.56694 -17.480316z" fill-rule="evenodd"/><path fill="#f4cccc" d="m164.25197 72.62861l0 0c0 -9.65411 8.312698 -17.480316 18.566925 -17.480316l0 0c4.9242554 0 9.646835 1.841671 13.128799 5.1198654c3.4819794 3.2781982 5.438141 7.7243805 5.438141 12.360451l0 0c0 9.654114 -8.312698 17.480316 -18.56694 17.480316l0 0c-10.254227 0 -18.566925 -7.8262024 -18.566925 -17.480316z" fill-rule="evenodd"/><path stroke="#000000" stroke-width="1.0" stroke-linejoin="round" stroke-linecap="butt" d="m164.25197 72.62861l0 0c0 -9.65411 8.312698 -17.480316 18.566925 -17.480316l0 0c4.9242554 0 9.646835 1.841671 13.128799 5.1198654c3.4819794 3.2781982 5.438141 7.7243805 5.438141 12.360451l0 0c0 9.654114 -8.312698 17.480316 -18.56694 17.480316l0 0c-10.254227 0 -18.566925 -7.8262024 -18.566925 -17.480316z" fill-rule="evenodd"/><path fill="#f4cccc" d="m134.95801 113.46326l0 0c0 -9.654114 8.312698 -17.480316 18.566925 -17.480316l0 0c4.9242554 0 9.646835 1.8416672 13.128799 5.1198654c3.4819794 3.2781906 5.4381256 7.7243805 5.4381256 12.360451l0 0c0 9.654106 -8.312698 17.480316 -18.566925 17.480316l0 0c-10.254227 0 -18.566925 -7.82621 -18.566925 -17.480316z" fill-rule="evenodd"/><path stroke="#000000" stroke-width="1.0" stroke-linejoin="round" stroke-linecap="butt" d="m134.95801 113.46326l0 0c0 -9.654114 8.312698 -17.480316 18.566925 -17.480316l0 0c4.9242554 0 9.646835 1.8416672 13.128799 5.1198654c3.4819794 3.2781906 5.4381256 7.7243805 5.4381256 12.360451l0 0c0 9.654106 -8.312698 17.480316 -18.566925 17.480316l0 0c-10.254227 0 -18.566925 -7.82621 -18.566925 -17.480316z" fill-rule="evenodd"/><path fill="#f4cccc" d="m144.41733 35.093174l0 0c0 -9.65411 8.312698 -17.480312 18.566925 -17.480312l0 0c4.9242554 0 9.64682 1.8416691 13.128799 5.1198654c3.4819794 3.2781944 5.4381256 7.7243805 5.4381256 12.360447l0 0c0 9.654114 -8.312698 17.480316 -18.566925 17.480316l0 0c-10.254227 0 -18.566925 -7.8262024 -18.566925 -17.480316z" fill-rule="evenodd"/><path stroke="#000000" stroke-width="1.0" stroke-linejoin="round" stroke-linecap="butt" d="m144.41733 35.093174l0 0c0 -9.65411 8.312698 -17.480312 18.566925 -17.480312l0 0c4.9242554 0 9.64682 1.8416691 13.128799 5.1198654c3.4819794 3.2781944 5.4381256 7.7243805 5.4381256 12.360447l0 0c0 9.654114 -8.312698 17.480316 -18.566925 17.480316l0 0c-10.254227 0 -18.566925 -7.8262024 -18.566925 -17.480316z" fill-rule="evenodd"/><path fill="#f4cccc" d="m186.90027 118.91732l0 0c0 -9.654106 8.312698 -17.480316 18.566925 -17.480316l0 0c4.9242554 0 9.64682 1.8416748 13.128799 5.119873c3.4819794 3.2781906 5.4381256 7.7243805 5.4381256 12.360443l0 0c0 9.654121 -8.312698 17.480324 -18.566925 17.480324l0 0c-10.254227 0 -18.566925 -7.8262024 -18.566925 -17.480324z" fill-rule="evenodd"/><path stroke="#000000" stroke-width="1.0" stroke-linejoin="round" stroke-linecap="butt" d="m186.90027 118.91732l0 0c0 -9.654106 8.312698 -17.480316 18.566925 -17.480316l0 0c4.9242554 0 9.64682 1.8416748 13.128799 5.119873c3.4819794 3.2781906 5.4381256 7.7243805 5.4381256 12.360443l0 0c0 9.654121 -8.312698 17.480324 -18.566925 17.480324l0 0c-10.254227 0 -18.566925 -7.8262024 -18.566925 -17.480324z" fill-rule="evenodd"/><path fill="#f4cccc" d="m164.25197 204.06168l0 0c0 -9.654114 8.312698 -17.480316 18.566925 -17.480316l0 0c4.9242554 0 9.646835 1.8416748 13.128799 5.119873c3.4819794 3.2781982 5.438141 7.7243805 5.438141 12.360443l0 0c0 9.654114 -8.312698 17.480316 -18.56694 17.480316l0 0c-10.254227 0 -18.566925 -7.8262024 -18.566925 -17.480316z" fill-rule="evenodd"/><path stroke="#000000" stroke-width="1.0" stroke-linejoin="round" stroke-linecap="butt" d="m164.25197 204.06168l0 0c0 -9.654114 8.312698 -17.480316 18.566925 -17.480316l0 0c4.9242554 0 9.646835 1.8416748 13.128799 5.119873c3.4819794 3.2781982 5.438141 7.7243805 5.438141 12.360443l0 0c0 9.654114 -8.312698 17.480316 -18.56694 17.480316l0 0c-10.254227 0 -18.566925 -7.8262024 -18.566925 -17.480316z" fill-rule="evenodd"/><path fill="#d9ead3" d="m359.9344 54.980316l0 0c0 -9.654114 8.312683 -17.480316 18.566925 -17.480316l0 0c4.9242554 0 9.64682 1.841671 13.128815 5.1198654c3.481964 3.2781944 5.4381104 7.7243805 5.4381104 12.360451l0 0c0 9.654114 -8.312683 17.480316 -18.566925 17.480316l0 0c-10.254242 0 -18.566925 -7.8262024 -18.566925 -17.480316z" fill-rule="evenodd"/><path stroke="#000000" stroke-width="1.0" stroke-linejoin="round" stroke-linecap="butt" d="m359.9344 54.980316l0 0c0 -9.654114 8.312683 -17.480316 18.566925 -17.480316l0 0c4.9242554 0 9.64682 1.841671 13.128815 5.1198654c3.481964 3.2781944 5.4381104 7.7243805 5.4381104 12.360451l0 0c0 9.654114 -8.312683 17.480316 -18.566925 17.480316l0 0c-10.254242 0 -18.566925 -7.8262024 -18.566925 -17.480316z" fill-rule="evenodd"/><path fill="#d9ead3" d="m428.9475 143.75197l0 0c0 -9.654114 8.312683 -17.480316 18.566925 -17.480316l0 0c4.9242554 0 9.64682 1.8416748 13.128815 5.119873c3.481964 3.278183 5.4381104 7.7243805 5.4381104 12.360443l0 0c0 9.654114 -8.312683 17.480316 -18.566925 17.480316l0 0c-10.254242 0 -18.566925 -7.8262024 -18.566925 -17.480316z" fill-rule="evenodd"/><path stroke="#000000" stroke-width="1.0" stroke-linejoin="round" stroke-linecap="butt" d="m428.9475 143.75197l0 0c0 -9.654114 8.312683 -17.480316 18.566925 -17.480316l0 0c4.9242554 0 9.64682 1.8416748 13.128815 5.119873c3.481964 3.278183 5.4381104 7.7243805 5.4381104 12.360443l0 0c0 9.654114 -8.312683 17.480316 -18.566925 17.480316l0 0c-10.254242 0 -18.566925 -7.8262024 -18.566925 -17.480316z" fill-rule="evenodd"/><path fill="#d9ead3" d="m475.54068 35.75197l0 0c0 -9.654112 8.312714 -17.480314 18.566925 -17.480314l0 0c4.9242554 0 9.64682 1.841671 13.128815 5.1198654c3.481964 3.2781944 5.438141 7.7243805 5.438141 12.360449l0 0c0 9.65411 -8.312714 17.480316 -18.566956 17.480316l0 0c-10.254211 0 -18.566925 -7.826206 -18.566925 -17.480316z" fill-rule="evenodd"/><path stroke="#000000" stroke-width="1.0" stroke-linejoin="round" stroke-linecap="butt" d="m475.54068 35.75197l0 0c0 -9.654112 8.312714 -17.480314 18.566925 -17.480314l0 0c4.9242554 0 9.64682 1.841671 13.128815 5.1198654c3.481964 3.2781944 5.438141 7.7243805 5.438141 12.360449l0 0c0 9.65411 -8.312714 17.480316 -18.566956 17.480316l0 0c-10.254211 0 -18.566925 -7.826206 -18.566925 -17.480316z" fill-rule="evenodd"/><path fill="#d9ead3" d="m518.0236 119.57612l0 0c0 -9.654114 8.312683 -17.480316 18.566956 -17.480316l0 0c4.9242554 0 9.64679 1.8416672 13.128784 5.1198654c3.4819946 3.2781906 5.4381104 7.7243805 5.4381104 12.360451l0 0c0 9.654106 -8.312683 17.480309 -18.566895 17.480309l0 0c-10.254272 0 -18.566956 -7.8262024 -18.566956 -17.480309z" fill-rule="evenodd"/><path stroke="#000000" stroke-width="1.0" stroke-linejoin="round" stroke-linecap="butt" d="m518.0236 119.57612l0 0c0 -9.654114 8.312683 -17.480316 18.566956 -17.480316l0 0c4.9242554 0 9.64679 1.8416672 13.128784 5.1198654c3.4819946 3.2781906 5.4381104 7.7243805 5.4381104 12.360451l0 0c0 9.654106 -8.312683 17.480309 -18.566895 17.480309l0 0c-10.254272 0 -18.566956 -7.8262024 -18.566956 -17.480309z" fill-rule="evenodd"/><path fill="#d9ead3" d="m495.37534 204.72047l0 0c0 -9.654114 8.312683 -17.480316 18.566925 -17.480316l0 0c4.9242554 0 9.646851 1.8416748 13.128784 5.119858c3.4819946 3.2781982 5.4381714 7.7243958 5.4381714 12.360458l0 0c0 9.654114 -8.312744 17.480316 -18.566956 17.480316l0 0c-10.254242 0 -18.566925 -7.8262024 -18.566925 -17.480316z" fill-rule="evenodd"/><path stroke="#000000" stroke-width="1.0" stroke-linejoin="round" stroke-linecap="butt" d="m495.37534 204.72047l0 0c0 -9.654114 8.312683 -17.480316 18.566925 -17.480316l0 0c4.9242554 0 9.646851 1.8416748 13.128784 5.119858c3.4819946 3.2781982 5.4381714 7.7243958 5.4381714 12.360458l0 0c0 9.654114 -8.312744 17.480316 -18.566956 17.480316l0 0c-10.254242 0 -18.566925 -7.8262024 -18.566925 -17.480316z" fill-rule="evenodd"/></g></svg>