<svg version="1.1" viewBox="0.0 0.0 572.1364829396325 123.41994750656168" fill="none" stroke="none" stroke-linecap="square" stroke-miterlimit="10" xmlns:xlink="http://www.w3.org/1999/xlink" xmlns="http://www.w3.org/2000/svg"><clipPath id="p.0"><path d="m0 0l572.1365 0l0 123.419945l-572.1365 0l0 -123.419945z" clip-rule="nonzero"/></clipPath><g clip-path="url(#p.0)"><path fill="#000000" fill-opacity="0.0" d="m0 0l572.1365 0l0 123.419945l-572.1365 0z" fill-rule="evenodd"/><path fill="#cfe2f3" d="m273.38693 55.468285l50.299194 0l0 -6.9606285l13.921265 13.921261l-13.921265 13.921257l0 -6.9606247l-50.299194 0z" fill-rule="evenodd"/><path stroke="#000000" stroke-width="1.0" stroke-linejoin="round" stroke-linecap="butt" d="m273.38693 55.468285l50.299194 0l0 -6.9606285l13.921265 13.921261l-13.921265 13.921257l0 -6.9606247l-50.299194 0z" fill-rule="evenodd"/><path fill="#f4cccc" d="m19.370079 92.25459l14.9606285 0l0 11.968506l-14.9606285 0z" fill-rule="evenodd"/><path stroke="#000000" stroke-width="1.0" stroke-linejoin="round" stroke-linecap="butt" d="m19.370079 92.25459l14.9606285 0l0 11.968506l-14.9606285 0z" fill-rule="evenodd"/><path fill="#000000" d="m20.87615 100.63885l0 -4.765625l0.9375 0l1.140625 3.375q0.15625 0.46875 0.21875 0.703125q0.078125 -0.265625 0.25 -0.765625l1.140625 -3.3125l0.859375 0l0 4.765625l-0.609375 0l0 -3.984375l-1.390625 3.984375l-0.5625 0l-1.375 -4.0625l0 4.0625l-0.609375 0zm5.2634583 -1.71875q0 -0.96875 0.53125 -1.421875q0.453125 -0.390625 1.09375 -0.390625q0.703125 0 1.15625 0.46875q0.453125 0.46875 0.453125 1.28125q0 0.671875 -0.203125 1.0625q-0.1875 0.375 -0.578125 0.59375q-0.375 0.203125 -0.828125 0.203125q-0.734375 0 -1.1875 -0.453125q-0.4375 -0.46875 -0.4375 -1.34375zm0.609375 0q0 0.65625 0.28125 0.984375q0.296875 0.328125 0.734375 0.328125q0.4375 0 0.71875 -0.328125q0.296875 -0.328125 0.296875 -1.015625q0 -0.640625 -0.296875 -0.96875q-0.296875 -0.328125 -0.71875 -0.328125q-0.4375 0 -0.734375 0.328125q-0.28125 0.328125 -0.28125 1.0zm3.311264 1.71875l0 -3.453125l0.53125 0l0 0.5q0.375 -0.578125 1.09375 -0.578125q0.3125 0 0.5781231 0.109375q0.265625 0.109375 0.390625 0.296875q0.125 0.1875 0.1875 0.4375q0.03125 0.15625 0.03125 0.5625l0 2.125l-0.59375 0l0 -2.09375q0 -0.359375 -0.078125 -0.53125q-0.0625 -0.1875 -0.2343731 -0.28125q-0.171875 -0.109375 -0.40625 -0.109375q-0.375 0 -0.640625 0.234375q-0.265625 0.234375 -0.265625 0.890625l0 1.890625l-0.59375 0z" fill-rule="nonzero"/><path fill="#f4cccc" d="m34.347374 92.25459l14.9606285 0l0 11.968506l-14.9606285 0z" fill-rule="evenodd"/><path stroke="#000000" stroke-width="1.0" stroke-linejoin="round" stroke-linecap="butt" d="m34.347374 92.25459l14.9606285 0l0 11.968506l-14.9606285 0z" fill-rule="evenodd"/><path fill="#000000" d="m37.93529 100.63885l0 -4.203125l-1.5625 0l0 -0.5625l3.78125 0l0 0.5625l-1.578125 0l0 4.203125l-0.640625 0zm4.802887 0l0 -0.5q-0.40625 0.578125 -1.09375 0.578125q-0.3125 0 -0.578125 -0.109375q-0.265625 -0.125 -0.390625 -0.296875q-0.125 -0.1875 -0.171875 -0.4375q-0.046875 -0.171875 -0.046875 -0.546875l0 -2.140625l0.59375 0l0 1.921875q0 0.453125 0.03125 0.609375q0.0625 0.234375 0.234375 0.375q0.171875 0.125 0.4375 0.125q0.265625 0 0.5 -0.140625q0.234375 -0.140625 0.328125 -0.359375q0.09375 -0.234375 0.09375 -0.6875l0 -1.84375l0.578125 0l0 3.453125l-0.515625 0zm3.795639 -1.109375l0.609375 0.078125q-0.140625 0.53125 -0.53125 0.828125q-0.390625 0.28125 -0.984375 0.28125q-0.765625 0 -1.203125 -0.46875q-0.4375 -0.46875 -0.4375 -1.3125q0 -0.859375 0.4375 -1.34375q0.453125 -0.484375 1.171875 -0.484375q0.6875 0 1.125 0.46875q0.4375 0.46875 0.4375 1.328125q0 0.046875 0 0.15625l-2.578125 0q0.03125 0.578125 0.3125 0.875q0.296875 0.296875 0.734375 0.296875q0.328125 0 0.546875 -0.15625q0.234375 -0.171875 0.359375 -0.546875zm-1.921875 -0.953125l1.9375 0q-0.046875 -0.4375 -0.21875 -0.640625q-0.28125 -0.34375 -0.734375 -0.34375q-0.40625 0 -0.6875 0.265625q-0.265625 0.265625 -0.296875 0.71875z" fill-rule="nonzero"/><path fill="#f4cccc" d="m49.324665 92.25459l14.9606285 0l0 11.968506l-14.9606285 0z" fill-rule="evenodd"/><path stroke="#000000" stroke-width="1.0" stroke-linejoin="round" stroke-linecap="butt" d="m49.324665 92.25459l14.9606285 0l0 11.968506l-14.9606285 0z" fill-rule="evenodd"/><path fill="#000000" d="m51.365818 100.63885l-1.265625 -4.765625l0.65625 0l0.71875 3.125q0.109375 0.484375 0.203125 0.96875q0.1875 -0.765625 0.21875 -0.875l0.90625 -3.21875l0.75 0l0.6875 2.40625q0.25 0.90625 0.375 1.6875q0.09375 -0.453125 0.234375 -1.03125l0.75 -3.0625l0.625 0l-1.296875 4.765625l-0.609375 0l-1.0 -3.625q-0.140625 -0.453125 -0.15625 -0.5625q-0.078125 0.328125 -0.140625 0.5625l-1.015625 3.625l-0.640625 0zm7.6151733 -1.109375l0.609375 0.078125q-0.140625 0.53125 -0.53125 0.828125q-0.390625 0.28125 -0.984375 0.28125q-0.765625 0 -1.203125 -0.46875q-0.4375 -0.46875 -0.4375 -1.3125q0 -0.859375 0.4375 -1.34375q0.453125 -0.484375 1.171875 -0.484375q0.6875 0 1.125 0.46875q0.4375 0.46875 0.4375 1.328125q0 0.046875 0 0.15625l-2.578125 0q0.03125 0.578125 0.3125 0.875q0.296875 0.296875 0.734375 0.296875q0.328125 0 0.546875 -0.15625q0.234375 -0.171875 0.359375 -0.546875zm-1.921875 -0.953125l1.9375 0q-0.046875 -0.4375 -0.21875 -0.640625q-0.28125 -0.34375 -0.734375 -0.34375q-0.40625 0 -0.6875 0.265625q-0.265625 0.265625 -0.296875 0.71875zm5.498764 2.0625l0 -0.4375q-0.328125 0.515625 -0.953125 0.515625q-0.421875 0 -0.765625 -0.21875q-0.34375 -0.234375 -0.53125 -0.640625q-0.1875 -0.40625 -0.1875 -0.9375q0 -0.515625 0.171875 -0.9375q0.171875 -0.421875 0.515625 -0.640625q0.34375 -0.234375 0.765625 -0.234375q0.3125 0 0.546875 0.140625q0.25 0.125 0.40625 0.328125l0 -1.703125l0.578125 0l0 4.765625l-0.546875 0zm-1.84375 -1.71875q0 0.65625 0.28125 0.984375q0.28125 0.328125 0.65625 0.328125q0.390625 0 0.65625 -0.3125q0.265625 -0.3125 0.265625 -0.953125q0 -0.703125 -0.28125 -1.03125q-0.265625 -0.34375 -0.671875 -0.34375q-0.375 0 -0.640625 0.328125q-0.265625 0.3125 -0.265625 1.0z" fill-rule="nonzero"/><path fill="#f4cccc" d="m64.30196 92.25459l14.960625 0l0 11.968506l-14.960625 0z" fill-rule="evenodd"/><path stroke="#000000" stroke-width="1.0" stroke-linejoin="round" stroke-linecap="butt" d="m64.30196 92.25459l14.960625 0l0 11.968506l-14.960625 0z" fill-rule="evenodd"/><path fill="#000000" d="m67.76618 100.63885l0 -4.203125l-1.5625 0l0 -0.5625l3.78125 0l0 0.5625l-1.578125 0l0 4.203125l-0.640625 0zm2.7846527 0l0 -4.765625l0.59375 0l0 1.703125q0.40625 -0.46875 1.03125 -0.46875q0.375 0 0.65625 0.15625q0.28125 0.140625 0.40625 0.421875q0.125 0.265625 0.125 0.765625l0 2.1875l-0.578125 0l0 -2.1875q0 -0.4375 -0.203125 -0.640625q-0.1875 -0.203125 -0.53125 -0.203125q-0.265625 0 -0.5 0.140625q-0.21875 0.140625 -0.3125 0.375q-0.09375 0.21875 -0.09375 0.625l0 1.890625l-0.59375 0zm5.967514 0l0 -0.5q-0.40625 0.578125 -1.09375 0.578125q-0.3125 0 -0.578125 -0.109375q-0.265625 -0.125 -0.390625 -0.296875q-0.125 -0.1875 -0.171875 -0.4375q-0.046875 -0.171875 -0.046875 -0.546875l0 -2.140625l0.59375 0l0 1.921875q0 0.453125 0.03125 0.609375q0.0625 0.234375 0.234375 0.375q0.171875 0.125 0.4375 0.125q0.265625 0 0.5 -0.140625q0.234375 -0.140625 0.328125 -0.359375q0.09375 -0.234375 0.09375 -0.6875l0 -1.84375l0.578125 0l0 3.453125l-0.515625 0z" fill-rule="nonzero"/><path fill="#f4cccc" d="m79.27925 92.25459l14.960632 0l0 11.968506l-14.960632 0z" fill-rule="evenodd"/><path stroke="#000000" stroke-width="1.0" stroke-linejoin="round" stroke-linecap="butt" d="m79.27925 92.25459l14.960632 0l0 11.968506l-14.960632 0z" fill-rule="evenodd"/><path fill="#000000" d="m83.4258 100.63885l0 -4.765625l3.21875 0l0 0.5625l-2.59375 0l0 1.46875l2.234375 0l0 0.5625l-2.234375 0l0 2.171875l-0.625 0zm3.9565277 0l0 -3.453125l0.515625 0l0 0.53125q0.203125 -0.375 0.375 -0.484375q0.171875 -0.125 0.375 -0.125q0.296875 0 0.609375 0.1875l-0.203125 0.546875q-0.21875 -0.125 -0.4375 -0.125q-0.1875 0 -0.34375 0.125q-0.140625 0.109375 -0.21875 0.3125q-0.09375 0.3125 -0.09375 0.671875l0 1.8125l-0.578125 0zm2.2165833 -4.09375l0 -0.671875l0.59375 0l0 0.671875l-0.59375 0zm0 4.09375l0 -3.453125l0.59375 0l0 3.453125l-0.59375 0z" fill-rule="nonzero"/><path fill="#f4cccc" d="m94.256546 92.25459l14.960632 0l0 11.968506l-14.960632 0z" fill-rule="evenodd"/><path stroke="#000000" stroke-width="1.0" stroke-linejoin="round" stroke-linecap="butt" d="m94.256546 92.25459l14.960632 0l0 11.968506l-14.960632 0z" fill-rule="evenodd"/><path fill="#000000" d="m97.0383 99.1076l0.59375 -0.046875q0.046875 0.359375 0.203125 0.59375q0.15625 0.21875 0.46875 0.359375q0.328125 0.140625 0.734375 0.140625q0.359375 0 0.640625 -0.109375q0.28125 -0.109375 0.40625 -0.296875q0.140625 -0.1875 0.140625 -0.40625q0 -0.21875 -0.140625 -0.390625q-0.125 -0.171875 -0.421875 -0.28125q-0.1875 -0.078125 -0.84375 -0.234375q-0.65625 -0.15625 -0.921875 -0.296875q-0.34375 -0.171875 -0.515625 -0.4375q-0.15625 -0.265625 -0.15625 -0.59375q0 -0.359375 0.203125 -0.671875q0.203125 -0.3125 0.59375 -0.46875q0.390625 -0.171875 0.875 -0.171875q0.53125 0 0.9375 0.171875q0.40625 0.171875 0.625 0.5q0.21875 0.328125 0.234375 0.75l-0.609375 0.046875q-0.046875 -0.453125 -0.328125 -0.6875q-0.28125 -0.234375 -0.828125 -0.234375q-0.578125 0 -0.84375 0.21875q-0.25 0.203125 -0.25 0.5q0 0.265625 0.1875 0.421875q0.171875 0.171875 0.9375 0.34375q0.78125 0.171875 1.0625 0.296875q0.421875 0.203125 0.609375 0.5q0.203125 0.28125 0.203125 0.671875q0 0.375 -0.21875 0.71875q-0.21875 0.328125 -0.625 0.515625q-0.40625 0.1875 -0.921875 0.1875q-0.640625 0 -1.078125 -0.1875q-0.4375 -0.1875 -0.6875 -0.5625q-0.25 -0.375 -0.265625 -0.859375zm6.8302917 1.109375q-0.328125 0.265625 -0.625 0.390625q-0.296875 0.109375 -0.640625 0.109375q-0.578125 0 -0.890625 -0.28125q-0.296875 -0.28125 -0.296875 -0.703125q0 -0.25 0.109375 -0.453125q0.125 -0.21875 0.3125 -0.34375q0.1875 -0.140625 0.421875 -0.203125q0.171875 -0.046875 0.515625 -0.078125q0.71875 -0.09375 1.046875 -0.203125q0 -0.125 0 -0.15625q0 -0.359375 -0.15625 -0.5q-0.234375 -0.203125 -0.671875 -0.203125q-0.40625 0 -0.609375 0.15625q-0.203125 0.140625 -0.296875 0.5l-0.5625 -0.078125q0.078125 -0.359375 0.25 -0.578125q0.1875 -0.234375 0.515625 -0.359375q0.34375 -0.125 0.78125 -0.125q0.453125 0 0.71875 0.109375q0.28125 0.09375 0.40625 0.265625q0.140625 0.15625 0.1875 0.390625q0.03125 0.15625 0.03125 0.546875l0 0.765625q0 0.828125 0.03125 1.046875q0.046875 0.203125 0.15625 0.40625l-0.609375 0q-0.09375 -0.1875 -0.125 -0.421875zm-0.046875 -1.3125q-0.3125 0.125 -0.953125 0.21875q-0.359375 0.0625 -0.515625 0.125q-0.140625 0.0625 -0.234375 0.1875q-0.078125 0.125 -0.078125 0.28125q0 0.234375 0.171875 0.390625q0.1875 0.15625 0.53125 0.15625q0.328125 0 0.59375 -0.140625q0.265625 -0.15625 0.390625 -0.421875q0.09375 -0.1875 0.09375 -0.578125l0 -0.21875zm2.780014 1.21875l0.078125 0.515625q-0.25 0.046875 -0.4375 0.046875q-0.3125 0 -0.5 -0.09375q-0.171875 -0.109375 -0.25 -0.265625q-0.0625 -0.171875 -0.0625 -0.703125l0 -1.984375l-0.4375 0l0 -0.453125l0.4375 0l0 -0.859375l0.578125 -0.34375l0 1.203125l0.59375 0l0 0.453125l-0.59375 0l0 2.015625q0 0.25 0.03125 0.328125q0.03125 0.078125 0.09375 0.125q0.078125 0.03125 0.203125 0.03125q0.109375 0 0.265625 -0.015625z" fill-rule="nonzero"/><path fill="#f4cccc" d="m109.23384 92.25459l14.960632 0l0 11.968506l-14.960632 0z" fill-rule="evenodd"/><path stroke="#000000" stroke-width="1.0" stroke-linejoin="round" stroke-linecap="butt" d="m109.23384 92.25459l14.960632 0l0 11.968506l-14.960632 0z" fill-rule="evenodd"/><path fill="#000000" d="m111.08931 99.1076l0.59375 -0.046875q0.046875 0.359375 0.203125 0.59375q0.15625 0.21875 0.46875 0.359375q0.328125 0.140625 0.734375 0.140625q0.359375 0 0.640625 -0.109375q0.28125 -0.109375 0.40625 -0.296875q0.140625 -0.1875 0.140625 -0.40625q0 -0.21875 -0.140625 -0.390625q-0.125 -0.171875 -0.421875 -0.28125q-0.1875 -0.078125 -0.84375 -0.234375q-0.65625 -0.15625 -0.921875 -0.296875q-0.34375 -0.171875 -0.515625 -0.4375q-0.15625 -0.265625 -0.15625 -0.59375q0 -0.359375 0.203125 -0.671875q0.203125 -0.3125 0.59375 -0.46875q0.390625 -0.171875 0.875 -0.171875q0.53125 0 0.9375 0.171875q0.40625 0.171875 0.625 0.5q0.21875 0.328125 0.234375 0.75l-0.609375 0.046875q-0.046875 -0.453125 -0.328125 -0.6875q-0.28125 -0.234375 -0.828125 -0.234375q-0.578125 0 -0.84375 0.21875q-0.25 0.203125 -0.25 0.5q0 0.265625 0.1875 0.421875q0.171875 0.171875 0.9375 0.34375q0.78125 0.171875 1.0625 0.296875q0.421875 0.203125 0.609375 0.5q0.203125 0.28125 0.203125 0.671875q0 0.375 -0.21875 0.71875q-0.21875 0.328125 -0.625 0.515625q-0.40625 0.1875 -0.921875 0.1875q-0.640625 0 -1.078125 -0.1875q-0.4375 -0.1875 -0.6875 -0.5625q-0.25 -0.375 -0.265625 -0.859375zm6.8459167 1.53125l0 -0.5q-0.40625 0.578125 -1.09375 0.578125q-0.3125 0 -0.578125 -0.109375q-0.265625 -0.125 -0.390625 -0.296875q-0.125 -0.1875 -0.171875 -0.4375q-0.046875 -0.171875 -0.046875 -0.546875l0 -2.140625l0.59375 0l0 1.921875q0 0.453125 0.03125 0.609375q0.0625 0.234375 0.234375 0.375q0.171875 0.125 0.4375 0.125q0.265625 0 0.5 -0.140625q0.234375 -0.140625 0.328125 -0.359375q0.09375 -0.234375 0.09375 -0.6875l0 -1.84375l0.578125 0l0 3.453125l-0.515625 0zm1.436264 0l0 -3.453125l0.53125 0l0 0.5q0.375 -0.578125 1.09375 -0.578125q0.3125 0 0.578125 0.109375q0.265625 0.109375 0.390625 0.296875q0.125 0.1875 0.1875 0.4375q0.03125 0.15625 0.03125 0.5625l0 2.125l-0.59375 0l0 -2.09375q0 -0.359375 -0.078125 -0.53125q-0.0625 -0.1875 -0.234375 -0.28125q-0.171875 -0.109375 -0.40625 -0.109375q-0.375 0 -0.640625 0.234375q-0.265625 0.234375 -0.265625 0.890625l0 1.890625l-0.59375 0z" fill-rule="nonzero"/><path fill="#f4cccc" d="m124.2126 92.25459l14.960632 0l0 11.968506l-14.960632 0z" fill-rule="evenodd"/><path stroke="#000000" stroke-width="1.0" stroke-linejoin="round" stroke-linecap="butt" d="m124.2126 92.25459l14.960632 0l0 11.968506l-14.960632 0z" fill-rule="evenodd"/><path fill="#000000" d="m125.71867 100.63885l0 -4.765625l0.9375 0l1.140625 3.375q0.15625 0.46875 0.21875 0.703125q0.078125 -0.265625 0.25 -0.765625l1.140625 -3.3125l0.859375 0l0 4.765625l-0.609375 0l0 -3.984375l-1.390625 3.984375l-0.5625 0l-1.375 -4.0625l0 4.0625l-0.609375 0zm5.2634583 -1.71875q0 -0.96875 0.53125 -1.421875q0.453125 -0.390625 1.09375 -0.390625q0.703125 0 1.15625 0.46875q0.453125 0.46875 0.453125 1.28125q0 0.671875 -0.203125 1.0625q-0.1875 0.375 -0.578125 0.59375q-0.375 0.203125 -0.828125 0.203125q-0.734375 0 -1.1875 -0.453125q-0.4375 -0.46875 -0.4375 -1.34375zm0.609375 0q0 0.65625 0.28125 0.984375q0.296875 0.328125 0.734375 0.328125q0.4375 0 0.71875 -0.328125q0.296875 -0.328125 0.296875 -1.015625q0 -0.640625 -0.296875 -0.96875q-0.296875 -0.328125 -0.71875 -0.328125q-0.4375 0 -0.734375 0.328125q-0.28125 0.328125 -0.28125 1.0zm3.311264 1.71875l0 -3.453125l0.53125 0l0 0.5q0.375 -0.578125 1.09375 -0.578125q0.3125 0 0.578125 0.109375q0.265625 0.109375 0.390625 0.296875q0.125 0.1875 0.1875 0.4375q0.03125 0.15625 0.03125 0.5625l0 2.125l-0.59375 0l0 -2.09375q0 -0.359375 -0.078125 -0.53125q-0.0625 -0.1875 -0.234375 -0.28125q-0.171875 -0.109375 -0.40625 -0.109375q-0.375 0 -0.640625 0.234375q-0.265625 0.234375 -0.265625 0.890625l0 1.890625l-0.59375 0z" fill-rule="nonzero"/><path fill="#f4cccc" d="m139.1899 92.25459l14.960632 0l0 11.968506l-14.960632 0z" fill-rule="evenodd"/><path stroke="#000000" stroke-width="1.0" stroke-linejoin="round" stroke-linecap="butt" d="m139.1899 92.25459l14.960632 0l0 11.968506l-14.960632 0z" fill-rule="evenodd"/><path fill="#000000" d="m142.77782 100.63885l0 -4.203125l-1.5625 0l0 -0.5625l3.78125 0l0 0.5625l-1.578125 0l0 4.203125l-0.640625 0zm4.802887 0l0 -0.5q-0.40625 0.578125 -1.09375 0.578125q-0.3125 0 -0.578125 -0.109375q-0.265625 -0.125 -0.390625 -0.296875q-0.125 -0.1875 -0.171875 -0.4375q-0.046875 -0.171875 -0.046875 -0.546875l0 -2.140625l0.59375 0l0 1.921875q0 0.453125 0.03125 0.609375q0.0625 0.234375 0.234375 0.375q0.171875 0.125 0.4375 0.125q0.265625 0 0.5 -0.140625q0.234375 -0.140625 0.328125 -0.359375q0.09375 -0.234375 0.09375 -0.6875l0 -1.84375l0.578125 0l0 3.453125l-0.515625 0zm3.795639 -1.109375l0.609375 0.078125q-0.140625 0.53125 -0.53125 0.828125q-0.390625 0.28125 -0.984375 0.28125q-0.765625 0 -1.203125 -0.46875q-0.4375 -0.46875 -0.4375 -1.3125q0 -0.859375 0.4375 -1.34375q0.453125 -0.484375 1.171875 -0.484375q0.6875 0 1.125 0.46875q0.4375 0.46875 0.4375 1.328125q0 0.046875 0 0.15625l-2.578125 0q0.03125 0.578125 0.3125 0.875q0.296875 0.296875 0.734375 0.296875q0.328125 0 0.546875 -0.15625q0.234375 -0.171875 0.359375 -0.546875zm-1.921875 -0.953125l1.9375 0q-0.046875 -0.4375 -0.21875 -0.640625q-0.28125 -0.34375 -0.734375 -0.34375q-0.40625 0 -0.6875 0.265625q-0.265625 0.265625 -0.296875 0.71875z" fill-rule="nonzero"/><path fill="#f4cccc" d="m154.16719 92.25459l14.960632 0l0 11.968506l-14.960632 0z" fill-rule="evenodd"/><path stroke="#000000" stroke-width="1.0" stroke-linejoin="round" stroke-linecap="butt" d="m154.16719 92.25459l14.960632 0l0 11.968506l-14.960632 0z" fill-rule="evenodd"/><path fill="#000000" d="m156.20834 100.63885l-1.265625 -4.765625l0.65625 0l0.71875 3.125q0.109375 0.484375 0.203125 0.96875q0.1875 -0.765625 0.21875 -0.875l0.90625 -3.21875l0.75 0l0.6875 2.40625q0.25 0.90625 0.375 1.6875q0.09375 -0.453125 0.234375 -1.03125l0.75 -3.0625l0.625 0l-1.296875 4.765625l-0.609375 0l-1.0 -3.625q-0.140625 -0.453125 -0.15625 -0.5625q-0.078125 0.328125 -0.140625 0.5625l-1.015625 3.625l-0.640625 0zm7.6151733 -1.109375l0.609375 0.078125q-0.140625 0.53125 -0.53125 0.828125q-0.390625 0.28125 -0.984375 0.28125q-0.765625 0 -1.203125 -0.46875q-0.4375 -0.46875 -0.4375 -1.3125q0 -0.859375 0.4375 -1.34375q0.453125 -0.484375 1.171875 -0.484375q0.6875 0 1.125 0.46875q0.4375 0.46875 0.4375 1.328125q0 0.046875 0 0.15625l-2.578125 0q0.03125 0.578125 0.3125 0.875q0.296875 0.296875 0.734375 0.296875q0.328125 0 0.546875 -0.15625q0.234375 -0.171875 0.359375 -0.546875zm-1.921875 -0.953125l1.9375 0q-0.046875 -0.4375 -0.21875 -0.640625q-0.28125 -0.34375 -0.734375 -0.34375q-0.40625 0 -0.6875 0.265625q-0.265625 0.265625 -0.296875 0.71875zm5.498764 2.0625l0 -0.4375q-0.328125 0.515625 -0.953125 0.515625q-0.421875 0 -0.765625 -0.21875q-0.34375 -0.234375 -0.53125 -0.640625q-0.1875 -0.40625 -0.1875 -0.9375q0 -0.515625 0.171875 -0.9375q0.171875 -0.421875 0.515625 -0.640625q0.34375 -0.234375 0.765625 -0.234375q0.3125 0 0.546875 0.140625q0.25 0.125 0.40625 0.328125l0 -1.703125l0.578125 0l0 4.765625l-0.546875 0zm-1.84375 -1.71875q0 0.65625 0.28125 0.984375q0.28125 0.328125 0.65625 0.328125q0.390625 0 0.65625 -0.3125q0.265625 -0.3125 0.265625 -0.953125q0 -0.703125 -0.28125 -1.03125q-0.265625 -0.34375 -0.671875 -0.34375q-0.375 0 -0.640625 0.328125q-0.265625 0.3125 -0.265625 1.0z" fill-rule="nonzero"/><path fill="#f4cccc" d="m169.14449 92.25459l14.960632 0l0 11.968506l-14.960632 0z" fill-rule="evenodd"/><path stroke="#000000" stroke-width="1.0" stroke-linejoin="round" stroke-linecap="butt" d="m169.14449 92.25459l14.960632 0l0 11.968506l-14.960632 0z" fill-rule="evenodd"/><path fill="#000000" d="m172.6087 100.63885l0 -4.203125l-1.5625 0l0 -0.5625l3.78125 0l0 0.5625l-1.578125 0l0 4.203125l-0.640625 0zm2.7846527 0l0 -4.765625l0.59375 0l0 1.703125q0.40625 -0.46875 1.03125 -0.46875q0.375 0 0.65625 0.15625q0.28125 0.140625 0.40625 0.421875q0.125 0.265625 0.125 0.765625l0 2.1875l-0.578125 0l0 -2.1875q0 -0.4375 -0.203125 -0.640625q-0.1875 -0.203125 -0.53125 -0.203125q-0.265625 0 -0.5 0.140625q-0.21875 0.140625 -0.3125 0.375q-0.09375 0.21875 -0.09375 0.625l0 1.890625l-0.59375 0zm5.967514 0l0 -0.5q-0.40625 0.578125 -1.09375 0.578125q-0.3125 0 -0.578125 -0.109375q-0.265625 -0.125 -0.390625 -0.296875q-0.125 -0.1875 -0.171875 -0.4375q-0.046875 -0.171875 -0.046875 -0.546875l0 -2.140625l0.59375 0l0 1.921875q0 0.453125 0.03125 0.609375q0.0625 0.234375 0.234375 0.375q0.171875 0.125 0.4375 0.125q0.265625 0 0.5 -0.140625q0.234375 -0.140625 0.328125 -0.359375q0.09375 -0.234375 0.09375 -0.6875l0 -1.84375l0.578125 0l0 3.453125l-0.515625 0z" fill-rule="nonzero"/><path fill="#f4cccc" d="m184.12178 92.25459l14.960617 0l0 11.968506l-14.960617 0z" fill-rule="evenodd"/><path stroke="#000000" stroke-width="1.0" stroke-linejoin="round" stroke-linecap="butt" d="m184.12178 92.25459l14.960617 0l0 11.968506l-14.960617 0z" fill-rule="evenodd"/><path fill="#000000" d="m188.26833 100.63885l0 -4.765625l3.21875 0l0 0.5625l-2.59375 0l0 1.46875l2.234375 0l0 0.5625l-2.234375 0l0 2.171875l-0.625 0zm3.9565125 0l0 -3.453125l0.515625 0l0 0.53125q0.203125 -0.375 0.375 -0.484375q0.171875 -0.125 0.375 -0.125q0.296875 0 0.609375 0.1875l-0.203125 0.546875q-0.21875 -0.125 -0.4375 -0.125q-0.1875 0 -0.34375 0.125q-0.140625 0.109375 -0.21875 0.3125q-0.09375 0.3125 -0.09375 0.671875l0 1.8125l-0.578125 0zm2.2165833 -4.09375l0 -0.671875l0.59375 0l0 0.671875l-0.59375 0zm0 4.09375l0 -3.453125l0.59375 0l0 3.453125l-0.59375 0z" fill-rule="nonzero"/><path fill="#f4cccc" d="m199.09908 92.25459l14.960617 0l0 11.968506l-14.960617 0z" fill-rule="evenodd"/><path stroke="#000000" stroke-width="1.0" stroke-linejoin="round" stroke-linecap="butt" d="m199.09908 92.25459l14.960617 0l0 11.968506l-14.960617 0z" fill-rule="evenodd"/><path fill="#000000" d="m201.88081 99.1076l0.59375 -0.046875q0.046875 0.359375 0.203125 0.59375q0.15625 0.21875 0.46875 0.359375q0.328125 0.140625 0.734375 0.140625q0.359375 0 0.640625 -0.109375q0.28125 -0.109375 0.40625 -0.296875q0.140625 -0.1875 0.140625 -0.40625q0 -0.21875 -0.140625 -0.390625q-0.125 -0.171875 -0.421875 -0.28125q-0.1875 -0.078125 -0.84375 -0.234375q-0.65625 -0.15625 -0.921875 -0.296875q-0.34375 -0.171875 -0.515625 -0.4375q-0.15625 -0.265625 -0.15625 -0.59375q0 -0.359375 0.203125 -0.671875q0.203125 -0.3125 0.59375 -0.46875q0.390625 -0.171875 0.875 -0.171875q0.53125 0 0.9375 0.171875q0.40625 0.171875 0.625 0.5q0.21875 0.328125 0.234375 0.75l-0.609375 0.046875q-0.046875 -0.453125 -0.328125 -0.6875q-0.28125 -0.234375 -0.828125 -0.234375q-0.578125 0 -0.84375 0.21875q-0.25 0.203125 -0.25 0.5q0 0.265625 0.1875 0.421875q0.171875 0.171875 0.9375 0.34375q0.78125 0.171875 1.0625 0.296875q0.421875 0.203125 0.609375 0.5q0.203125 0.28125 0.203125 0.671875q0 0.375 -0.21875 0.71875q-0.21875 0.328125 -0.625 0.515625q-0.40625 0.1875 -0.921875 0.1875q-0.640625 0 -1.078125 -0.1875q-0.4375 -0.1875 -0.6875 -0.5625q-0.25 -0.375 -0.265625 -0.859375zm6.8302917 1.109375q-0.328125 0.265625 -0.625 0.390625q-0.296875 0.109375 -0.640625 0.109375q-0.578125 0 -0.890625 -0.28125q-0.296875 -0.28125 -0.296875 -0.703125q0 -0.25 0.109375 -0.453125q0.125 -0.21875 0.3125 -0.34375q0.1875 -0.140625 0.421875 -0.203125q0.171875 -0.046875 0.515625 -0.078125q0.71875 -0.09375 1.046875 -0.203125q0 -0.125 0 -0.15625q0 -0.359375 -0.15625 -0.5q-0.234375 -0.203125 -0.671875 -0.203125q-0.40625 0 -0.609375 0.15625q-0.203125 0.140625 -0.296875 0.5l-0.5625 -0.078125q0.078125 -0.359375 0.25 -0.578125q0.1875 -0.234375 0.515625 -0.359375q0.34375 -0.125 0.78125 -0.125q0.453125 0 0.71875 0.109375q0.28125 0.09375 0.40625 0.265625q0.140625 0.15625 0.1875 0.390625q0.03125 0.15625 0.03125 0.546875l0 0.765625q0 0.828125 0.03125 1.046875q0.046875 0.203125 0.15625 0.40625l-0.609375 0q-0.09375 -0.1875 -0.125 -0.421875zm-0.046875 -1.3125q-0.3125 0.125 -0.953125 0.21875q-0.359375 0.0625 -0.515625 0.125q-0.140625 0.0625 -0.234375 0.1875q-0.078125 0.125 -0.078125 0.28125q0 0.234375 0.171875 0.390625q0.1875 0.15625 0.53125 0.15625q0.328125 0 0.59375 -0.140625q0.265625 -0.15625 0.390625 -0.421875q0.09375 -0.1875 0.09375 -0.578125l0 -0.21875zm2.780014 1.21875l0.078125 0.515625q-0.25 0.046875 -0.4375 0.046875q-0.3125 0 -0.5 -0.09375q-0.171875 -0.109375 -0.25 -0.265625q-0.0625 -0.171875 -0.0625 -0.703125l0 -1.984375l-0.4375 0l0 -0.453125l0.4375 0l0 -0.859375l0.578125 -0.34375l0 1.203125l0.59375 0l0 0.453125l-0.59375 0l0 2.015625q0 0.25 0.03125 0.328125q0.03125 0.078125 0.09375 0.125q0.078125 0.03125 0.203125 0.03125q0.109375 0 0.265625 -0.015625z" fill-rule="nonzero"/><path fill="#f4cccc" d="m214.07635 92.25459l14.960632 0l0 11.968506l-14.960632 0z" fill-rule="evenodd"/><path stroke="#000000" stroke-width="1.0" stroke-linejoin="round" stroke-linecap="butt" d="m214.07635 92.25459l14.960632 0l0 11.968506l-14.960632 0z" fill-rule="evenodd"/><path fill="#000000" d="m215.93182 99.1076l0.59375 -0.046875q0.046875 0.359375 0.203125 0.59375q0.15625 0.21875 0.46875 0.359375q0.328125 0.140625 0.734375 0.140625q0.359375 0 0.640625 -0.109375q0.28125 -0.109375 0.40625 -0.296875q0.140625 -0.1875 0.140625 -0.40625q0 -0.21875 -0.140625 -0.390625q-0.125 -0.171875 -0.421875 -0.28125q-0.1875 -0.078125 -0.84375 -0.234375q-0.65625 -0.15625 -0.921875 -0.296875q-0.34375 -0.171875 -0.515625 -0.4375q-0.15625 -0.265625 -0.15625 -0.59375q0 -0.359375 0.203125 -0.671875q0.203125 -0.3125 0.59375 -0.46875q0.390625 -0.171875 0.875 -0.171875q0.53125 0 0.9375 0.171875q0.40625 0.171875 0.625 0.5q0.21875 0.328125 0.234375 0.75l-0.609375 0.046875q-0.046875 -0.453125 -0.328125 -0.6875q-0.28125 -0.234375 -0.828125 -0.234375q-0.578125 0 -0.84375 0.21875q-0.25 0.203125 -0.25 0.5q0 0.265625 0.1875 0.421875q0.171875 0.171875 0.9375 0.34375q0.78125 0.171875 1.0625 0.296875q0.421875 0.203125 0.609375 0.5q0.203125 0.28125 0.203125 0.671875q0 0.375 -0.21875 0.71875q-0.21875 0.328125 -0.625 0.515625q-0.40625 0.1875 -0.921875 0.1875q-0.640625 0 -1.078125 -0.1875q-0.4375 -0.1875 -0.6875 -0.5625q-0.25 -0.375 -0.265625 -0.859375zm6.8459167 1.53125l0 -0.5q-0.40625 0.578125 -1.09375 0.578125q-0.3125 0 -0.578125 -0.109375q-0.265625 -0.125 -0.390625 -0.296875q-0.125 -0.1875 -0.171875 -0.4375q-0.046875 -0.171875 -0.046875 -0.546875l0 -2.140625l0.59375 0l0 1.921875q0 0.453125 0.03125 0.609375q0.0625 0.234375 0.234375 0.375q0.171875 0.125 0.4375 0.125q0.265625 0 0.5 -0.140625q0.234375 -0.140625 0.328125 -0.359375q0.09375 -0.234375 0.09375 -0.6875l0 -1.84375l0.578125 0l0 3.453125l-0.515625 0zm1.436264 0l0 -3.453125l0.53125 0l0 0.5q0.375 -0.578125 1.09375 -0.578125q0.3125 0 0.578125 0.109375q0.265625 0.109375 0.390625 0.296875q0.125 0.1875 0.1875 0.4375q0.03125 0.15625 0.03125 0.5625l0 2.125l-0.59375 0l0 -2.09375q0 -0.359375 -0.078125 -0.53125q-0.0625 -0.1875 -0.234375 -0.28125q-0.171875 -0.109375 -0.40625 -0.109375q-0.375 0 -0.640625 0.234375q-0.265625 0.234375 -0.265625 0.890625l0 1.890625l-0.59375 0z" fill-rule="nonzero"/><path fill="#000000" fill-opacity="0.0" d="m19.624672 49.958004l104.25197 0" fill-rule="evenodd"/><path stroke="#990000" stroke-width="1.0" stroke-linejoin="round" stroke-linecap="butt" d="m25.624672 49.958004l92.25197 0" fill-rule="evenodd"/><path fill="#990000" stroke="#990000" stroke-width="1.0" stroke-linecap="butt" d="m25.624672 48.306274l-4.5380974 1.6517296l4.5380974 1.6517334z" fill-rule="evenodd"/><path fill="#990000" stroke="#990000" stroke-width="1.0" stroke-linecap="butt" d="m117.87664 51.609737l4.538101 -1.6517334l-4.538101 -1.6517296z" fill-rule="evenodd"/><path fill="#000000" fill-opacity="0.0" d="m124.49869 50.062992l104.25197 0" fill-rule="evenodd"/><path stroke="#990000" stroke-width="1.0" stroke-linejoin="round" stroke-linecap="butt" d="m130.49869 50.062992l92.25197 0" fill-rule="evenodd"/><path fill="#990000" stroke="#990000" stroke-width="1.0" stroke-linecap="butt" d="m130.49869 48.41126l-4.538101 1.6517334l4.538101 1.6517334z" fill-rule="evenodd"/><path fill="#990000" stroke="#990000" stroke-width="1.0" stroke-linecap="butt" d="m222.75066 51.714725l4.538101 -1.6517334l-4.538101 -1.6517334z" fill-rule="evenodd"/><path fill="#000000" fill-opacity="0.0" d="m34.632545 60.34646l104.251976 0" fill-rule="evenodd"/><path stroke="#990000" stroke-width="1.0" stroke-linejoin="round" stroke-linecap="butt" d="m40.632545 60.34646l92.251976 0" fill-rule="evenodd"/><path fill="#990000" stroke="#990000" stroke-width="1.0" stroke-linecap="butt" d="m40.632545 58.694725l-4.5380974 1.6517334l4.5380974 1.6517296z" fill-rule="evenodd"/><path fill="#990000" stroke="#990000" stroke-width="1.0" stroke-linecap="butt" d="m132.88452 61.998188l4.538086 -1.6517296l-4.538086 -1.6517334z" fill-rule="evenodd"/><path fill="#000000" fill-opacity="0.0" d="m49.61155 71.2021l104.25196 0" fill-rule="evenodd"/><path stroke="#990000" stroke-width="1.0" stroke-linejoin="round" stroke-linecap="butt" d="m55.61155 71.2021l92.25196 0" fill-rule="evenodd"/><path fill="#990000" stroke="#990000" stroke-width="1.0" stroke-linecap="butt" d="m55.61155 69.55037l-4.5380974 1.6517334l4.5380974 1.6517258z" fill-rule="evenodd"/><path fill="#990000" stroke="#990000" stroke-width="1.0" stroke-linecap="butt" d="m147.86351 72.85383l4.538101 -1.6517258l-4.538101 -1.6517334z" fill-rule="evenodd"/><path fill="#000000" fill-opacity="0.0" d="m109.52231 39.88714l104.25197 0" fill-rule="evenodd"/><path stroke="#990000" stroke-width="1.0" stroke-linejoin="round" stroke-linecap="butt" d="m115.52231 39.88714l92.25197 0" fill-rule="evenodd"/><path fill="#990000" stroke="#990000" stroke-width="1.0" stroke-linecap="butt" d="m115.52231 38.235405l-4.5380936 1.6517334l4.5380936 1.6517334z" fill-rule="evenodd"/><path fill="#990000" stroke="#990000" stroke-width="1.0" stroke-linecap="butt" d="m207.77428 41.53887l4.538101 -1.6517334l-4.538101 -1.6517334z" fill-rule="evenodd"/><path fill="#000000" fill-opacity="0.0" d="m64.58793 81.125984l104.25196 0" fill-rule="evenodd"/><path stroke="#990000" stroke-width="1.0" stroke-linejoin="round" stroke-linecap="butt" d="m70.58793 81.125984l92.25196 0" fill-rule="evenodd"/><path fill="#990000" stroke="#990000" stroke-width="1.0" stroke-linecap="butt" d="m70.58793 79.47425l-4.538101 1.6517334l4.538101 1.6517334z" fill-rule="evenodd"/><path fill="#990000" stroke="#990000" stroke-width="1.0" stroke-linecap="butt" d="m162.83989 82.77772l4.538101 -1.6517334l-4.538101 -1.6517334z" fill-rule="evenodd"/><path fill="#000000" fill-opacity="0.0" d="m94.543304 30.175854l104.25197 0" fill-rule="evenodd"/><path stroke="#990000" stroke-width="1.0" stroke-linejoin="round" stroke-linecap="butt" d="m100.543304 30.175854l92.25197 0" fill-rule="evenodd"/><path fill="#990000" stroke="#990000" stroke-width="1.0" stroke-linecap="butt" d="m100.543304 28.52412l-4.5380936 1.6517334l4.5380936 1.6517315z" fill-rule="evenodd"/><path fill="#990000" stroke="#990000" stroke-width="1.0" stroke-linecap="butt" d="m192.79527 31.827585l4.538101 -1.6517315l-4.538101 -1.6517334z" fill-rule="evenodd"/><path fill="#000000" fill-opacity="0.0" d="m79.56693 19.994751l104.25196 0" fill-rule="evenodd"/><path stroke="#990000" stroke-width="1.0" stroke-linejoin="round" stroke-linecap="butt" d="m85.56693 19.994751l92.25196 0" fill-rule="evenodd"/><path fill="#990000" stroke="#990000" stroke-width="1.0" stroke-linecap="butt" d="m85.56693 18.343018l-4.538101 1.6517334l4.538101 1.6517315z" fill-rule="evenodd"/><path fill="#990000" stroke="#990000" stroke-width="1.0" stroke-linecap="butt" d="m177.8189 21.646482l4.538101 -1.6517315l-4.538101 -1.6517334z" fill-rule="evenodd"/><path fill="#000000" fill-opacity="0.0" d="m20.091864 20.15748l59.1811 0" fill-rule="evenodd"/><path stroke="#990000" stroke-width="1.0" stroke-linejoin="round" stroke-linecap="butt" d="m20.091864 20.15748l53.1811 0" fill-rule="evenodd"/><path fill="#990000" stroke="#990000" stroke-width="1.0" stroke-linecap="butt" d="m73.272964 21.809214l4.538101 -1.6517334l-4.538101 -1.6517315z" fill-rule="evenodd"/><path fill="#000000" fill-opacity="0.0" d="m19.370079 30.081366l75.055115 -0.094488144" fill-rule="evenodd"/><path stroke="#990000" stroke-width="1.0" stroke-linejoin="round" stroke-linecap="butt" d="m19.370079 30.081366l69.055115 -0.08693504" fill-rule="evenodd"/><path fill="#990000" stroke="#990000" stroke-width="1.0" stroke-linecap="butt" d="m88.427284 31.646162l4.5360107 -1.6574459l-4.540169 -1.6460171z" fill-rule="evenodd"/><path fill="#000000" fill-opacity="0.0" d="m19.370079 40.46982l89.07087 -0.6614189" fill-rule="evenodd"/><path stroke="#990000" stroke-width="1.0" stroke-linejoin="round" stroke-linecap="butt" d="m19.370079 40.46982l83.07103 -0.61686707" fill-rule="evenodd"/><path fill="#990000" stroke="#990000" stroke-width="1.0" stroke-linecap="butt" d="m102.45338 41.50464l4.5257034 -1.6853828l-4.550232 -1.6179924z" fill-rule="evenodd"/><path fill="#000000" fill-opacity="0.0" d="m19.370079 60.34646l14.740158 0" fill-rule="evenodd"/><path stroke="#990000" stroke-width="1.0" stroke-linejoin="round" stroke-linecap="butt" d="m19.370079 60.34646l8.740158 0" fill-rule="evenodd"/><path fill="#990000" stroke="#990000" stroke-width="1.0" stroke-linecap="butt" d="m28.110237 61.998188l4.5380974 -1.6517296l-4.5380974 -1.6517334z" fill-rule="evenodd"/><path fill="#000000" fill-opacity="0.0" d="m19.496063 81.03674l44.661415 0" fill-rule="evenodd"/><path stroke="#990000" stroke-width="1.0" stroke-linejoin="round" stroke-linecap="butt" d="m19.496063 81.03674l38.66142 0" fill-rule="evenodd"/><path fill="#990000" stroke="#990000" stroke-width="1.0" stroke-linecap="butt" d="m58.157482 82.68848l4.5380974 -1.6517334l-4.5380974 -1.6517334z" fill-rule="evenodd"/><path fill="#000000" fill-opacity="0.0" d="m19.370079 71.32546l29.92126 0" fill-rule="evenodd"/><path stroke="#990000" stroke-width="1.0" stroke-linejoin="round" stroke-linecap="butt" d="m19.370079 71.32546l23.92126 0" fill-rule="evenodd"/><path fill="#990000" stroke="#990000" stroke-width="1.0" stroke-linecap="butt" d="m43.29134 72.97719l4.5380974 -1.6517258l-4.5380974 -1.6517334z" fill-rule="evenodd"/><path fill="#000000" fill-opacity="0.0" d="m-0.47769028 20.259842l25.228346 0" fill-rule="evenodd"/><path stroke="#990000" stroke-width="1.0" stroke-linejoin="round" stroke-linecap="butt" stroke-dasharray="4.0,3.0" d="m-0.47769028 20.259842l25.228346 0" fill-rule="evenodd"/><path fill="#000000" fill-opacity="0.0" d="m-0.47769028 29.853018l25.228346 0" fill-rule="evenodd"/><path stroke="#990000" stroke-width="1.0" stroke-linejoin="round" stroke-linecap="butt" stroke-dasharray="4.0,3.0" d="m-0.47769028 29.853018l25.228346 0" fill-rule="evenodd"/><path fill="#000000" fill-opacity="0.0" d="m-0.47769028 40.501312l25.228346 0" fill-rule="evenodd"/><path stroke="#990000" stroke-width="1.0" stroke-linejoin="round" stroke-linecap="butt" stroke-dasharray="4.0,3.0" d="m-0.47769028 40.501312l25.228346 0" fill-rule="evenodd"/><path fill="#000000" fill-opacity="0.0" d="m-0.47769028 60.34646l25.228346 0" fill-rule="evenodd"/><path stroke="#990000" stroke-width="1.0" stroke-linejoin="round" stroke-linecap="butt" stroke-dasharray="4.0,3.0" d="m-0.47769028 60.34646l25.228346 0" fill-rule="evenodd"/><path fill="#000000" fill-opacity="0.0" d="m-0.47769028 71.32546l25.228346 0" fill-rule="evenodd"/><path stroke="#990000" stroke-width="1.0" stroke-linejoin="round" stroke-linecap="butt" stroke-dasharray="4.0,3.0" d="m-0.47769028 71.32546l25.228346 0" fill-rule="evenodd"/><path fill="#000000" fill-opacity="0.0" d="m-0.47769028 81.03674l25.228346 0" fill-rule="evenodd"/><path stroke="#990000" stroke-width="1.0" stroke-linejoin="round" stroke-linecap="butt" stroke-dasharray="4.0,3.0" d="m-0.47769028 81.03674l25.228346 0" fill-rule="evenodd"/><path fill="#000000" fill-opacity="0.0" d="m227.7559 80.58268l-59.181107 0" fill-rule="evenodd"/><path stroke="#990000" stroke-width="1.0" stroke-linejoin="round" stroke-linecap="butt" d="m227.7559 80.58268l-53.181107 0" fill-rule="evenodd"/><path fill="#990000" stroke="#990000" stroke-width="1.0" stroke-linecap="butt" d="m174.5748 78.93095l-4.538086 1.6517334l4.538086 1.6517334z" fill-rule="evenodd"/><path fill="#000000" fill-opacity="0.0" d="m228.47769 70.65879l-75.055115 0.09449005" fill-rule="evenodd"/><path stroke="#990000" stroke-width="1.0" stroke-linejoin="round" stroke-linecap="butt" d="m228.47769 70.65879l-69.055115 0.08693695" fill-rule="evenodd"/><path fill="#990000" stroke="#990000" stroke-width="1.0" stroke-linecap="butt" d="m159.42049 69.093994l-4.5360107 1.6574478l4.5401764 1.646019z" fill-rule="evenodd"/><path fill="#000000" fill-opacity="0.0" d="m228.47769 60.27034l-89.07086 0.6614189" fill-rule="evenodd"/><path stroke="#990000" stroke-width="1.0" stroke-linejoin="round" stroke-linecap="butt" d="m228.47769 60.27034l-83.07103 0.61686707" fill-rule="evenodd"/><path fill="#990000" stroke="#990000" stroke-width="1.0" stroke-linecap="butt" d="m145.3944 59.23552l-4.525711 1.6853828l4.550247 1.6179886z" fill-rule="evenodd"/><path fill="#000000" fill-opacity="0.0" d="m248.32545 80.480316l-25.228348 0" fill-rule="evenodd"/><path stroke="#990000" stroke-width="1.0" stroke-linejoin="round" stroke-linecap="butt" stroke-dasharray="4.0,3.0" d="m248.32545 80.480316l-25.228348 0" fill-rule="evenodd"/><path fill="#000000" fill-opacity="0.0" d="m248.32545 70.419945l-25.228348 0" fill-rule="evenodd"/><path stroke="#990000" stroke-width="1.0" stroke-linejoin="round" stroke-linecap="butt" stroke-dasharray="4.0,3.0" d="m248.32545 70.419945l-25.228348 0" fill-rule="evenodd"/><path fill="#000000" fill-opacity="0.0" d="m248.32545 60.238846l-25.228348 0" fill-rule="evenodd"/><path stroke="#990000" stroke-width="1.0" stroke-linejoin="round" stroke-linecap="butt" stroke-dasharray="4.0,3.0" d="m248.32545 60.238846l-25.228348 0" fill-rule="evenodd"/><path fill="#000000" fill-opacity="0.0" d="m228.90945 39.88714l-14.740158 0" fill-rule="evenodd"/><path stroke="#990000" stroke-width="1.0" stroke-linejoin="round" stroke-linecap="butt" d="m228.90945 39.88714l-8.740158 0" fill-rule="evenodd"/><path fill="#990000" stroke="#990000" stroke-width="1.0" stroke-linecap="butt" d="m220.1693 38.235405l-4.538101 1.6517334l4.538101 1.6517334z" fill-rule="evenodd"/><path fill="#000000" fill-opacity="0.0" d="m228.78346 19.19685l-44.661423 0" fill-rule="evenodd"/><path stroke="#990000" stroke-width="1.0" stroke-linejoin="round" stroke-linecap="butt" d="m228.78346 19.19685l-38.661423 0" fill-rule="evenodd"/><path fill="#990000" stroke="#990000" stroke-width="1.0" stroke-linecap="butt" d="m190.12204 17.545118l-4.538086 1.6517315l4.538086 1.6517334z" fill-rule="evenodd"/><path fill="#000000" fill-opacity="0.0" d="m228.90945 28.908136l-29.921265 0" fill-rule="evenodd"/><path stroke="#990000" stroke-width="1.0" stroke-linejoin="round" stroke-linecap="butt" d="m228.90945 28.908136l-23.921265 0" fill-rule="evenodd"/><path fill="#990000" stroke="#990000" stroke-width="1.0" stroke-linecap="butt" d="m204.98819 27.256405l-4.538101 1.6517315l4.538101 1.6517334z" fill-rule="evenodd"/><path fill="#000000" fill-opacity="0.0" d="m248.75722 39.88714l-25.228348 0" fill-rule="evenodd"/><path stroke="#990000" stroke-width="1.0" stroke-linejoin="round" stroke-linecap="butt" stroke-dasharray="4.0,3.0" d="m248.75722 39.88714l-25.228348 0" fill-rule="evenodd"/><path fill="#000000" fill-opacity="0.0" d="m248.75722 28.908136l-25.228348 0" fill-rule="evenodd"/><path stroke="#990000" stroke-width="1.0" stroke-linejoin="round" stroke-linecap="butt" stroke-dasharray="4.0,3.0" d="m248.75722 28.908136l-25.228348 0" fill-rule="evenodd"/><path fill="#000000" fill-opacity="0.0" d="m248.75722 19.19685l-25.228348 0" fill-rule="evenodd"/><path stroke="#990000" stroke-width="1.0" stroke-linejoin="round" stroke-linecap="butt" stroke-dasharray="4.0,3.0" d="m248.75722 19.19685l-25.228348 0" fill-rule="evenodd"/><path fill="#d9ead3" d="m358.0315 56.44357l14.960632 0l0 11.968502l-14.960632 0z" fill-rule="evenodd"/><path stroke="#000000" stroke-width="1.0" stroke-linejoin="round" stroke-linecap="butt" d="m358.0315 56.44357l14.960632 0l0 11.968502l-14.960632 0z" fill-rule="evenodd"/><path fill="#000000" d="m359.53757 64.82782l0 -4.765625l0.9375 0l1.140625 3.375q0.15625 0.46875 0.21875 0.703125q0.078125 -0.265625 0.25 -0.765625l1.140625 -3.3125l0.859375 0l0 4.765625l-0.609375 0l0 -3.984375l-1.390625 3.984375l-0.5625 0l-1.375 -4.0625l0 4.0625l-0.609375 0zm5.2634583 -1.71875q0 -0.96875 0.53125 -1.421875q0.453125 -0.390625 1.09375 -0.390625q0.703125 0 1.15625 0.46875q0.453125 0.46875 0.453125 1.28125q0 0.671875 -0.203125 1.0625q-0.1875 0.375 -0.578125 0.59375q-0.375 0.203125 -0.828125 0.203125q-0.734375 0 -1.1875 -0.453125q-0.4375 -0.46875 -0.4375 -1.34375zm0.609375 0q0 0.65625 0.28125 0.984375q0.296875 0.328125 0.734375 0.328125q0.4375 0 0.71875 -0.328125q0.296875 -0.328125 0.296875 -1.015625q0 -0.640625 -0.296875 -0.96875q-0.296875 -0.328125 -0.71875 -0.328125q-0.4375 0 -0.734375 0.328125q-0.28125 0.328125 -0.28125 1.0zm3.3112793 1.71875l0 -3.453125l0.53125 0l0 0.5q0.375 -0.578125 1.09375 -0.578125q0.3125 0 0.578125 0.109375q0.265625 0.109375 0.390625 0.296875q0.125 0.1875 0.1875 0.4375q0.03125 0.15625 0.03125 0.5625l0 2.125l-0.59375 0l0 -2.09375q0 -0.359375 -0.078125 -0.53125q-0.0625 -0.1875 -0.234375 -0.28125q-0.171875 -0.109375 -0.40625 -0.109375q-0.375 0 -0.640625 0.234375q-0.265625 0.234375 -0.265625 0.890625l0 1.890625l-0.59375 0z" fill-rule="nonzero"/><path fill="#d9ead3" d="m373.0088 56.44357l14.960632 0l0 11.968502l-14.960632 0z" fill-rule="evenodd"/><path stroke="#000000" stroke-width="1.0" stroke-linejoin="round" stroke-linecap="butt" d="m373.0088 56.44357l14.960632 0l0 11.968502l-14.960632 0z" fill-rule="evenodd"/><path fill="#000000" d="m376.5967 64.82782l0 -4.203125l-1.5625 0l0 -0.5625l3.78125 0l0 0.5625l-1.578125 0l0 4.203125l-0.640625 0zm4.802887 0l0 -0.5q-0.40625 0.578125 -1.09375 0.578125q-0.3125 0 -0.578125 -0.109375q-0.265625 -0.125 -0.390625 -0.296875q-0.125 -0.1875 -0.171875 -0.4375q-0.046875 -0.171875 -0.046875 -0.546875l0 -2.140625l0.59375 0l0 1.921875q0 0.453125 0.03125 0.609375q0.0625 0.234375 0.234375 0.375q0.171875 0.125 0.4375 0.125q0.265625 0 0.5 -0.140625q0.234375 -0.140625 0.328125 -0.359375q0.09375 -0.234375 0.09375 -0.6875l0 -1.84375l0.578125 0l0 3.453125l-0.515625 0zm3.7956238 -1.109375l0.609375 0.078125q-0.140625 0.53125 -0.53125 0.828125q-0.390625 0.28125 -0.984375 0.28125q-0.765625 0 -1.203125 -0.46875q-0.4375 -0.46875 -0.4375 -1.3125q0 -0.859375 0.4375 -1.34375q0.453125 -0.484375 1.171875 -0.484375q0.6875 0 1.125 0.46875q0.4375 0.46875 0.4375 1.328125q0 0.046875 0 0.15625l-2.578125 0q0.03125 0.578125 0.3125 0.875q0.296875 0.296875 0.734375 0.296875q0.328125 0 0.546875 -0.15625q0.234375 -0.171875 0.359375 -0.546875zm-1.921875 -0.953125l1.9375 0q-0.046875 -0.4375 -0.21875 -0.640625q-0.28125 -0.34375 -0.734375 -0.34375q-0.40625 0 -0.6875 0.265625q-0.265625 0.265625 -0.296875 0.71875z" fill-rule="nonzero"/><path fill="#d9ead3" d="m387.98608 56.44357l14.960632 0l0 11.968502l-14.960632 0z" fill-rule="evenodd"/><path stroke="#000000" stroke-width="1.0" stroke-linejoin="round" stroke-linecap="butt" d="m387.98608 56.44357l14.960632 0l0 11.968502l-14.960632 0z" fill-rule="evenodd"/><path fill="#000000" d="m390.02722 64.82782l-1.265625 -4.765625l0.65625 0l0.71875 3.125q0.109375 0.484375 0.203125 0.96875q0.1875 -0.765625 0.21875 -0.875l0.90625 -3.21875l0.75 0l0.6875 2.40625q0.25 0.90625 0.375 1.6875q0.09375 -0.453125 0.234375 -1.03125l0.75 -3.0625l0.625 0l-1.296875 4.765625l-0.609375 0l-1.0 -3.625q-0.140625 -0.453125 -0.15625 -0.5625q-0.078125 0.328125 -0.140625 0.5625l-1.015625 3.625l-0.640625 0zm7.6151733 -1.109375l0.609375 0.078125q-0.140625 0.53125 -0.53125 0.828125q-0.390625 0.28125 -0.984375 0.28125q-0.765625 0 -1.203125 -0.46875q-0.4375 -0.46875 -0.4375 -1.3125q0 -0.859375 0.4375 -1.34375q0.453125 -0.484375 1.171875 -0.484375q0.6875 0 1.125 0.46875q0.4375 0.46875 0.4375 1.328125q0 0.046875 0 0.15625l-2.578125 0q0.03125 0.578125 0.3125 0.875q0.296875 0.296875 0.734375 0.296875q0.328125 0 0.546875 -0.15625q0.234375 -0.171875 0.359375 -0.546875zm-1.921875 -0.953125l1.9375 0q-0.046875 -0.4375 -0.21875 -0.640625q-0.28125 -0.34375 -0.734375 -0.34375q-0.40625 0 -0.6875 0.265625q-0.265625 0.265625 -0.296875 0.71875zm5.4987793 2.0625l0 -0.4375q-0.328125 0.515625 -0.953125 0.515625q-0.421875 0 -0.765625 -0.21875q-0.34375 -0.234375 -0.53125 -0.640625q-0.1875 -0.40625 -0.1875 -0.9375q0 -0.515625 0.171875 -0.9375q0.171875 -0.421875 0.515625 -0.640625q0.34375 -0.234375 0.765625 -0.234375q0.3125 0 0.546875 0.140625q0.25 0.125 0.40625 0.328125l0 -1.703125l0.578125 0l0 4.765625l-0.546875 0zm-1.84375 -1.71875q0 0.65625 0.28125 0.984375q0.28125 0.328125 0.65625 0.328125q0.390625 0 0.65625 -0.3125q0.265625 -0.3125 0.265625 -0.953125q0 -0.703125 -0.28125 -1.03125q-0.265625 -0.34375 -0.671875 -0.34375q-0.375 0 -0.640625 0.328125q-0.265625 0.3125 -0.265625 1.0z" fill-rule="nonzero"/><path fill="#d9ead3" d="m402.96338 56.44357l14.960632 0l0 11.968502l-14.960632 0z" fill-rule="evenodd"/><path stroke="#000000" stroke-width="1.0" stroke-linejoin="round" stroke-linecap="butt" d="m402.96338 56.44357l14.960632 0l0 11.968502l-14.960632 0z" fill-rule="evenodd"/><path fill="#000000" d="m406.4276 64.82782l0 -4.203125l-1.5625 0l0 -0.5625l3.78125 0l0 0.5625l-1.578125 0l0 4.203125l-0.640625 0zm2.7846375 0l0 -4.765625l0.59375 0l0 1.703125q0.40625 -0.46875 1.03125 -0.46875q0.375 0 0.65625 0.15625q0.28125 0.140625 0.40625 0.421875q0.125 0.265625 0.125 0.765625l0 2.1875l-0.578125 0l0 -2.1875q0 -0.4375 -0.203125 -0.640625q-0.1875 -0.203125 -0.53125 -0.203125q-0.265625 0 -0.5 0.140625q-0.21875 0.140625 -0.3125 0.375q-0.09375 0.21875 -0.09375 0.625l0 1.890625l-0.59375 0zm5.9675293 0l0 -0.5q-0.40625 0.578125 -1.09375 0.578125q-0.3125 0 -0.578125 -0.109375q-0.265625 -0.125 -0.390625 -0.296875q-0.125 -0.1875 -0.171875 -0.4375q-0.046875 -0.171875 -0.046875 -0.546875l0 -2.140625l0.59375 0l0 1.921875q0 0.453125 0.03125 0.609375q0.0625 0.234375 0.234375 0.375q0.171875 0.125 0.4375 0.125q0.265625 0 0.5 -0.140625q0.234375 -0.140625 0.328125 -0.359375q0.09375 -0.234375 0.09375 -0.6875l0 -1.84375l0.578125 0l0 3.453125l-0.515625 0z" fill-rule="nonzero"/><path fill="#d9ead3" d="m417.94067 56.44357l14.960632 0l0 11.968502l-14.960632 0z" fill-rule="evenodd"/><path stroke="#000000" stroke-width="1.0" stroke-linejoin="round" stroke-linecap="butt" d="m417.94067 56.44357l14.960632 0l0 11.968502l-14.960632 0z" fill-rule="evenodd"/><path fill="#000000" d="m422.08722 64.82782l0 -4.765625l3.21875 0l0 0.5625l-2.59375 0l0 1.46875l2.234375 0l0 0.5625l-2.234375 0l0 2.171875l-0.625 0zm3.9565125 0l0 -3.453125l0.515625 0l0 0.53125q0.203125 -0.375 0.375 -0.484375q0.171875 -0.125 0.375 -0.125q0.296875 0 0.609375 0.1875l-0.203125 0.546875q-0.21875 -0.125 -0.4375 -0.125q-0.1875 0 -0.34375 0.125q-0.140625 0.109375 -0.21875 0.3125q-0.09375 0.3125 -0.09375 0.671875l0 1.8125l-0.578125 0zm2.2165833 -4.09375l0 -0.671875l0.59375 0l0 0.671875l-0.59375 0zm0 4.09375l0 -3.453125l0.59375 0l0 3.453125l-0.59375 0z" fill-rule="nonzero"/><path fill="#d9ead3" d="m432.91797 56.44357l14.960632 0l0 11.968502l-14.960632 0z" fill-rule="evenodd"/><path stroke="#000000" stroke-width="1.0" stroke-linejoin="round" stroke-linecap="butt" d="m432.91797 56.44357l14.960632 0l0 11.968502l-14.960632 0z" fill-rule="evenodd"/><path fill="#000000" d="m435.6997 63.29657l0.59375 -0.046875q0.046875 0.359375 0.203125 0.59375q0.15625 0.21875 0.46875 0.359375q0.328125 0.140625 0.734375 0.140625q0.359375 0 0.640625 -0.109375q0.28125 -0.109375 0.40625 -0.296875q0.140625 -0.1875 0.140625 -0.40625q0 -0.21875 -0.140625 -0.390625q-0.125 -0.171875 -0.421875 -0.28125q-0.1875 -0.078125 -0.84375 -0.234375q-0.65625 -0.15625 -0.921875 -0.296875q-0.34375 -0.171875 -0.515625 -0.4375q-0.15625 -0.265625 -0.15625 -0.59375q0 -0.359375 0.203125 -0.671875q0.203125 -0.3125 0.59375 -0.46875q0.390625 -0.171875 0.875 -0.171875q0.53125 0 0.9375 0.171875q0.40625 0.171875 0.625 0.5q0.21875 0.328125 0.234375 0.75l-0.609375 0.046875q-0.046875 -0.453125 -0.328125 -0.6875q-0.28125 -0.234375 -0.828125 -0.234375q-0.578125 0 -0.84375 0.21875q-0.25 0.203125 -0.25 0.5q0 0.265625 0.1875 0.421875q0.171875 0.171875 0.9375 0.34375q0.78125 0.171875 1.0625 0.296875q0.421875 0.203125 0.609375 0.5q0.203125 0.28125 0.203125 0.671875q0 0.375 -0.21875 0.71875q-0.21875 0.328125 -0.625 0.515625q-0.40625 0.1875 -0.921875 0.1875q-0.640625 0 -1.078125 -0.1875q-0.4375 -0.1875 -0.6875 -0.5625q-0.25 -0.375 -0.265625 -0.859375zm6.8302917 1.109375q-0.328125 0.265625 -0.625 0.390625q-0.296875 0.109375 -0.640625 0.109375q-0.578125 0 -0.890625 -0.28125q-0.296875 -0.28125 -0.296875 -0.703125q0 -0.25 0.109375 -0.453125q0.125 -0.21875 0.3125 -0.34375q0.1875 -0.140625 0.421875 -0.203125q0.171875 -0.046875 0.515625 -0.078125q0.71875 -0.09375 1.046875 -0.203125q0 -0.125 0 -0.15625q0 -0.359375 -0.15625 -0.5q-0.234375 -0.203125 -0.671875 -0.203125q-0.40625 0 -0.609375 0.15625q-0.203125 0.140625 -0.296875 0.5l-0.5625 -0.078125q0.078125 -0.359375 0.25 -0.578125q0.1875 -0.234375 0.515625 -0.359375q0.34375 -0.125 0.78125 -0.125q0.453125 0 0.71875 0.109375q0.28125 0.09375 0.40625 0.265625q0.140625 0.15625 0.1875 0.390625q0.03125 0.15625 0.03125 0.546875l0 0.765625q0 0.828125 0.03125 1.046875q0.046875 0.203125 0.15625 0.40625l-0.609375 0q-0.09375 -0.1875 -0.125 -0.421875zm-0.046875 -1.3125q-0.3125 0.125 -0.953125 0.21875q-0.359375 0.0625 -0.515625 0.125q-0.140625 0.0625 -0.234375 0.1875q-0.078125 0.125 -0.078125 0.28125q0 0.234375 0.171875 0.390625q0.1875 0.15625 0.53125 0.15625q0.328125 0 0.59375 -0.140625q0.265625 -0.15625 0.390625 -0.421875q0.09375 -0.1875 0.09375 -0.578125l0 -0.21875zm2.7800293 1.21875l0.078125 0.515625q-0.25 0.046875 -0.4375 0.046875q-0.3125 0 -0.5 -0.09375q-0.171875 -0.109375 -0.25 -0.265625q-0.0625 -0.171875 -0.0625 -0.703125l0 -1.984375l-0.4375 0l0 -0.453125l0.4375 0l0 -0.859375l0.578125 -0.34375l0 1.203125l0.59375 0l0 0.453125l-0.59375 0l0 2.015625q0 0.25 0.03125 0.328125q0.03125 0.078125 0.09375 0.125q0.078125 0.03125 0.203125 0.03125q0.109375 0 0.265625 -0.015625z" fill-rule="nonzero"/><path fill="#d9ead3" d="m447.89526 56.44357l14.960632 0l0 11.968502l-14.960632 0z" fill-rule="evenodd"/><path stroke="#000000" stroke-width="1.0" stroke-linejoin="round" stroke-linecap="butt" d="m447.89526 56.44357l14.960632 0l0 11.968502l-14.960632 0z" fill-rule="evenodd"/><path fill="#000000" d="m449.75073 63.29657l0.59375 -0.046875q0.046875 0.359375 0.203125 0.59375q0.15625 0.21875 0.46875 0.359375q0.328125 0.140625 0.734375 0.140625q0.359375 0 0.640625 -0.109375q0.28125 -0.109375 0.40625 -0.296875q0.140625 -0.1875 0.140625 -0.40625q0 -0.21875 -0.140625 -0.390625q-0.125 -0.171875 -0.421875 -0.28125q-0.1875 -0.078125 -0.84375 -0.234375q-0.65625 -0.15625 -0.921875 -0.296875q-0.34375 -0.171875 -0.515625 -0.4375q-0.15625 -0.265625 -0.15625 -0.59375q0 -0.359375 0.203125 -0.671875q0.203125 -0.3125 0.59375 -0.46875q0.390625 -0.171875 0.875 -0.171875q0.53125 0 0.9375 0.171875q0.40625 0.171875 0.625 0.5q0.21875 0.328125 0.234375 0.75l-0.609375 0.046875q-0.046875 -0.453125 -0.328125 -0.6875q-0.28125 -0.234375 -0.828125 -0.234375q-0.578125 0 -0.84375 0.21875q-0.25 0.203125 -0.25 0.5q0 0.265625 0.1875 0.421875q0.171875 0.171875 0.9375 0.34375q0.78125 0.171875 1.0625 0.296875q0.421875 0.203125 0.609375 0.5q0.203125 0.28125 0.203125 0.671875q0 0.375 -0.21875 0.71875q-0.21875 0.328125 -0.625 0.515625q-0.40625 0.1875 -0.921875 0.1875q-0.640625 0 -1.078125 -0.1875q-0.4375 -0.1875 -0.6875 -0.5625q-0.25 -0.375 -0.265625 -0.859375zm6.8459167 1.53125l0 -0.5q-0.40625 0.578125 -1.09375 0.578125q-0.3125 0 -0.578125 -0.109375q-0.265625 -0.125 -0.390625 -0.296875q-0.125 -0.1875 -0.171875 -0.4375q-0.046875 -0.171875 -0.046875 -0.546875l0 -2.140625l0.59375 0l0 1.921875q0 0.453125 0.03125 0.609375q0.0625 0.234375 0.234375 0.375q0.171875 0.125 0.4375 0.125q0.265625 0 0.5 -0.140625q0.234375 -0.140625 0.328125 -0.359375q0.09375 -0.234375 0.09375 -0.6875l0 -1.84375l0.578125 0l0 3.453125l-0.515625 0zm1.4362488 0l0 -3.453125l0.53125 0l0 0.5q0.375 -0.578125 1.09375 -0.578125q0.3125 0 0.578125 0.109375q0.265625 0.109375 0.390625 0.296875q0.125 0.1875 0.1875 0.4375q0.03125 0.15625 0.03125 0.5625l0 2.125l-0.59375 0l0 -2.09375q0 -0.359375 -0.078125 -0.53125q-0.0625 -0.1875 -0.234375 -0.28125q-0.171875 -0.109375 -0.40625 -0.109375q-0.375 0 -0.640625 0.234375q-0.265625 0.234375 -0.265625 0.890625l0 1.890625l-0.59375 0z" fill-rule="nonzero"/><path fill="#d9ead3" d="m462.87402 56.44357l14.960632 0l0 11.968502l-14.960632 0z" fill-rule="evenodd"/><path stroke="#000000" stroke-width="1.0" stroke-linejoin="round" stroke-linecap="butt" d="m462.87402 56.44357l14.960632 0l0 11.968502l-14.960632 0z" fill-rule="evenodd"/><path fill="#000000" d="m464.3801 64.82782l0 -4.765625l0.9375 0l1.140625 3.375q0.15625 0.46875 0.21875 0.703125q0.078125 -0.265625 0.25 -0.765625l1.140625 -3.3125l0.859375 0l0 4.765625l-0.609375 0l0 -3.984375l-1.390625 3.984375l-0.5625 0l-1.375 -4.0625l0 4.0625l-0.609375 0zm5.2634583 -1.71875q0 -0.96875 0.53125 -1.421875q0.453125 -0.390625 1.09375 -0.390625q0.703125 0 1.15625 0.46875q0.453125 0.46875 0.453125 1.28125q0 0.671875 -0.203125 1.0625q-0.1875 0.375 -0.578125 0.59375q-0.375 0.203125 -0.828125 0.203125q-0.734375 0 -1.1875 -0.453125q-0.4375 -0.46875 -0.4375 -1.34375zm0.609375 0q0 0.65625 0.28125 0.984375q0.296875 0.328125 0.734375 0.328125q0.4375 0 0.71875 -0.328125q0.296875 -0.328125 0.296875 -1.015625q0 -0.640625 -0.296875 -0.96875q-0.296875 -0.328125 -0.71875 -0.328125q-0.4375 0 -0.734375 0.328125q-0.28125 0.328125 -0.28125 1.0zm3.3112488 1.71875l0 -3.453125l0.53125 0l0 0.5q0.375 -0.578125 1.09375 -0.578125q0.3125 0 0.578125 0.109375q0.265625 0.109375 0.390625 0.296875q0.125 0.1875 0.1875 0.4375q0.03125 0.15625 0.03125 0.5625l0 2.125l-0.59375 0l0 -2.09375q0 -0.359375 -0.078125 -0.53125q-0.0625 -0.1875 -0.234375 -0.28125q-0.171875 -0.109375 -0.40625 -0.109375q-0.375 0 -0.640625 0.234375q-0.265625 0.234375 -0.265625 0.890625l0 1.890625l-0.59375 0z" fill-rule="nonzero"/><path fill="#d9ead3" d="m477.85132 56.44357l14.960632 0l0 11.968502l-14.960632 0z" fill-rule="evenodd"/><path stroke="#000000" stroke-width="1.0" stroke-linejoin="round" stroke-linecap="butt" d="m477.85132 56.44357l14.960632 0l0 11.968502l-14.960632 0z" fill-rule="evenodd"/><path fill="#000000" d="m481.43924 64.82782l0 -4.203125l-1.5625 0l0 -0.5625l3.78125 0l0 0.5625l-1.578125 0l0 4.203125l-0.640625 0zm4.802887 0l0 -0.5q-0.40625 0.578125 -1.09375 0.578125q-0.3125 0 -0.578125 -0.109375q-0.265625 -0.125 -0.390625 -0.296875q-0.125 -0.1875 -0.171875 -0.4375q-0.046875 -0.171875 -0.046875 -0.546875l0 -2.140625l0.59375 0l0 1.921875q0 0.453125 0.03125 0.609375q0.0625 0.234375 0.234375 0.375q0.171875 0.125 0.4375 0.125q0.265625 0 0.5 -0.140625q0.234375 -0.140625 0.328125 -0.359375q0.09375 -0.234375 0.09375 -0.6875l0 -1.84375l0.578125 0l0 3.453125l-0.515625 0zm3.7956238 -1.109375l0.609375 0.078125q-0.140625 0.53125 -0.53125 0.828125q-0.390625 0.28125 -0.984375 0.28125q-0.765625 0 -1.203125 -0.46875q-0.4375 -0.46875 -0.4375 -1.3125q0 -0.859375 0.4375 -1.34375q0.453125 -0.484375 1.171875 -0.484375q0.6875 0 1.125 0.46875q0.4375 0.46875 0.4375 1.328125q0 0.046875 0 0.15625l-2.578125 0q0.03125 0.578125 0.3125 0.875q0.296875 0.296875 0.734375 0.296875q0.328125 0 0.546875 -0.15625q0.234375 -0.171875 0.359375 -0.546875zm-1.921875 -0.953125l1.9375 0q-0.046875 -0.4375 -0.21875 -0.640625q-0.28125 -0.34375 -0.734375 -0.34375q-0.40625 0 -0.6875 0.265625q-0.265625 0.265625 -0.296875 0.71875z" fill-rule="nonzero"/><path fill="#d9ead3" d="m492.8286 56.44357l14.960632 0l0 11.968502l-14.960632 0z" fill-rule="evenodd"/><path stroke="#000000" stroke-width="1.0" stroke-linejoin="round" stroke-linecap="butt" d="m492.8286 56.44357l14.960632 0l0 11.968502l-14.960632 0z" fill-rule="evenodd"/><path fill="#000000" d="m494.86975 64.82782l-1.265625 -4.765625l0.65625 0l0.71875 3.125q0.109375 0.484375 0.203125 0.96875q0.1875 -0.765625 0.21875 -0.875l0.90625 -3.21875l0.75 0l0.6875 2.40625q0.25 0.90625 0.375 1.6875q0.09375 -0.453125 0.234375 -1.03125l0.75 -3.0625l0.625 0l-1.296875 4.765625l-0.609375 0l-1.0 -3.625q-0.140625 -0.453125 -0.15625 -0.5625q-0.078125 0.328125 -0.140625 0.5625l-1.015625 3.625l-0.640625 0zm7.6151733 -1.109375l0.609375 0.078125q-0.140625 0.53125 -0.53125 0.828125q-0.390625 0.28125 -0.984375 0.28125q-0.765625 0 -1.203125 -0.46875q-0.4375 -0.46875 -0.4375 -1.3125q0 -0.859375 0.4375 -1.34375q0.453125 -0.484375 1.171875 -0.484375q0.6875 0 1.125 0.46875q0.4375 0.46875 0.4375 1.328125q0 0.046875 0 0.15625l-2.578125 0q0.03125 0.578125 0.3125 0.875q0.296875 0.296875 0.734375 0.296875q0.328125 0 0.546875 -0.15625q0.234375 -0.171875 0.359375 -0.546875zm-1.921875 -0.953125l1.9375 0q-0.046875 -0.4375 -0.21875 -0.640625q-0.28125 -0.34375 -0.734375 -0.34375q-0.40625 0 -0.6875 0.265625q-0.265625 0.265625 -0.296875 0.71875zm5.4987793 2.0625l0 -0.4375q-0.328125 0.515625 -0.953125 0.515625q-0.421875 0 -0.765625 -0.21875q-0.34375 -0.234375 -0.53125 -0.640625q-0.1875 -0.40625 -0.1875 -0.9375q0 -0.515625 0.171875 -0.9375q0.171875 -0.421875 0.515625 -0.640625q0.34375 -0.234375 0.765625 -0.234375q0.3125 0 0.546875 0.140625q0.25 0.125 0.40625 0.328125l0 -1.703125l0.578125 0l0 4.765625l-0.546875 0zm-1.84375 -1.71875q0 0.65625 0.28125 0.984375q0.28125 0.328125 0.65625 0.328125q0.390625 0 0.65625 -0.3125q0.265625 -0.3125 0.265625 -0.953125q0 -0.703125 -0.28125 -1.03125q-0.265625 -0.34375 -0.671875 -0.34375q-0.375 0 -0.640625 0.328125q-0.265625 0.3125 -0.265625 1.0z" fill-rule="nonzero"/><path fill="#d9ead3" d="m507.8059 56.44357l14.960632 0l0 11.968502l-14.960632 0z" fill-rule="evenodd"/><path stroke="#000000" stroke-width="1.0" stroke-linejoin="round" stroke-linecap="butt" d="m507.8059 56.44357l14.960632 0l0 11.968502l-14.960632 0z" fill-rule="evenodd"/><path fill="#000000" d="m511.2701 64.82782l0 -4.203125l-1.5625 0l0 -0.5625l3.7812805 0l0 0.5625l-1.5781555 0l0 4.203125l-0.640625 0zm2.7846375 0l0 -4.765625l0.59375 0l0 1.703125q0.40625 -0.46875 1.03125 -0.46875q0.375 0 0.65625 0.15625q0.28125 0.140625 0.40625 0.421875q0.125 0.265625 0.125 0.765625l0 2.1875l-0.578125 0l0 -2.1875q0 -0.4375 -0.203125 -0.640625q-0.1875 -0.203125 -0.53125 -0.203125q-0.265625 0 -0.5 0.140625q-0.21875 0.140625 -0.3125 0.375q-0.09375 0.21875 -0.09375 0.625l0 1.890625l-0.59375 0zm5.9675293 0l0 -0.5q-0.40625 0.578125 -1.09375 0.578125q-0.3125 0 -0.578125 -0.109375q-0.265625 -0.125 -0.390625 -0.296875q-0.125 -0.1875 -0.171875 -0.4375q-0.046875 -0.171875 -0.046875 -0.546875l0 -2.140625l0.59375 0l0 1.921875q0 0.453125 0.03125 0.609375q0.0625 0.234375 0.234375 0.375q0.171875 0.125 0.4375 0.125q0.265625 0 0.5 -0.140625q0.234375 -0.140625 0.328125 -0.359375q0.09375 -0.234375 0.09375 -0.6875l0 -1.84375l0.578125 0l0 3.453125l-0.515625 0z" fill-rule="nonzero"/><path fill="#d9ead3" d="m522.7832 56.44357l14.960632 0l0 11.968502l-14.960632 0z" fill-rule="evenodd"/><path stroke="#000000" stroke-width="1.0" stroke-linejoin="round" stroke-linecap="butt" d="m522.7832 56.44357l14.960632 0l0 11.968502l-14.960632 0z" fill-rule="evenodd"/><path fill="#000000" d="m526.92975 64.82782l0 -4.765625l3.21875 0l0 0.5625l-2.59375 0l0 1.46875l2.234375 0l0 0.5625l-2.234375 0l0 2.171875l-0.625 0zm3.956543 0l0 -3.453125l0.515625 0l0 0.53125q0.203125 -0.375 0.375 -0.484375q0.171875 -0.125 0.375 -0.125q0.296875 0 0.609375 0.1875l-0.203125 0.546875q-0.21875 -0.125 -0.4375 -0.125q-0.1875 0 -0.34375 0.125q-0.140625 0.109375 -0.21875 0.3125q-0.09375 0.3125 -0.09375 0.671875l0 1.8125l-0.578125 0zm2.2165527 -4.09375l0 -0.671875l0.59375 0l0 0.671875l-0.59375 0zm0 4.09375l0 -3.453125l0.59375 0l0 3.453125l-0.59375 0z" fill-rule="nonzero"/><path fill="#d9ead3" d="m537.7605 56.44357l14.960632 0l0 11.968502l-14.960632 0z" fill-rule="evenodd"/><path stroke="#000000" stroke-width="1.0" stroke-linejoin="round" stroke-linecap="butt" d="m537.7605 56.44357l14.960632 0l0 11.968502l-14.960632 0z" fill-rule="evenodd"/><path fill="#000000" d="m540.54224 63.29657l0.59375 -0.046875q0.046875 0.359375 0.203125 0.59375q0.15625 0.21875 0.46875 0.359375q0.328125 0.140625 0.734375 0.140625q0.359375 0 0.640625 -0.109375q0.28125 -0.109375 0.40625 -0.296875q0.140625 -0.1875 0.140625 -0.40625q0 -0.21875 -0.140625 -0.390625q-0.125 -0.171875 -0.421875 -0.28125q-0.1875 -0.078125 -0.84375 -0.234375q-0.65625 -0.15625 -0.921875 -0.296875q-0.34375 -0.171875 -0.515625 -0.4375q-0.15625 -0.265625 -0.15625 -0.59375q0 -0.359375 0.203125 -0.671875q0.203125 -0.3125 0.59375 -0.46875q0.390625 -0.171875 0.875 -0.171875q0.53125 0 0.9375 0.171875q0.40625 0.171875 0.625 0.5q0.21875 0.328125 0.234375 0.75l-0.609375 0.046875q-0.046875 -0.453125 -0.328125 -0.6875q-0.28125 -0.234375 -0.828125 -0.234375q-0.578125 0 -0.84375 0.21875q-0.25 0.203125 -0.25 0.5q0 0.265625 0.1875 0.421875q0.171875 0.171875 0.9375 0.34375q0.78125 0.171875 1.0625 0.296875q0.421875 0.203125 0.609375 0.5q0.203125 0.28125 0.203125 0.671875q0 0.375 -0.21875 0.71875q-0.21875 0.328125 -0.625 0.515625q-0.40625 0.1875 -0.921875 0.1875q-0.640625 0 -1.078125 -0.1875q-0.4375 -0.1875 -0.6875 -0.5625q-0.25 -0.375 -0.265625 -0.859375zm6.8303223 1.109375q-0.328125 0.265625 -0.625 0.390625q-0.296875 0.109375 -0.640625 0.109375q-0.578125 0 -0.890625 -0.28125q-0.296875 -0.28125 -0.296875 -0.703125q0 -0.25 0.109375 -0.453125q0.125 -0.21875 0.3125 -0.34375q0.1875 -0.140625 0.421875 -0.203125q0.171875 -0.046875 0.515625 -0.078125q0.71875 -0.09375 1.046875 -0.203125q0 -0.125 0 -0.15625q0 -0.359375 -0.15625 -0.5q-0.234375 -0.203125 -0.671875 -0.203125q-0.40625 0 -0.609375 0.15625q-0.203125 0.140625 -0.296875 0.5l-0.5625 -0.078125q0.078125 -0.359375 0.25 -0.578125q0.1875 -0.234375 0.515625 -0.359375q0.34375 -0.125 0.78125 -0.125q0.453125 0 0.71875 0.109375q0.28125 0.09375 0.40625 0.265625q0.140625 0.15625 0.1875 0.390625q0.03125 0.15625 0.03125 0.546875l0 0.765625q0 0.828125 0.03125 1.046875q0.046875 0.203125 0.15625 0.40625l-0.609375 0q-0.09375 -0.1875 -0.125 -0.421875zm-0.046875 -1.3125q-0.3125 0.125 -0.953125 0.21875q-0.359375 0.0625 -0.515625 0.125q-0.140625 0.0625 -0.234375 0.1875q-0.078125 0.125 -0.078125 0.28125q0 0.234375 0.171875 0.390625q0.1875 0.15625 0.53125 0.15625q0.328125 0 0.59375 -0.140625q0.265625 -0.15625 0.390625 -0.421875q0.09375 -0.1875 0.09375 -0.578125l0 -0.21875zm2.7799683 1.21875l0.078125 0.515625q-0.25 0.046875 -0.4375 0.046875q-0.3125 0 -0.5 -0.09375q-0.171875 -0.109375 -0.25 -0.265625q-0.0625 -0.171875 -0.0625 -0.703125l0 -1.984375l-0.4375 0l0 -0.453125l0.4375 0l0 -0.859375l0.578125 -0.34375l0 1.203125l0.59375 0l0 0.453125l-0.59375 0l0 2.015625q0 0.25 0.03125 0.328125q0.03125 0.078125 0.09375 0.125q0.078125 0.03125 0.203125 0.03125q0.109375 0 0.265625 -0.015625z" fill-rule="nonzero"/><path fill="#d9ead3" d="m552.7378 56.44357l14.960632 0l0 11.968502l-14.960632 0z" fill-rule="evenodd"/><path stroke="#000000" stroke-width="1.0" stroke-linejoin="round" stroke-linecap="butt" d="m552.7378 56.44357l14.960632 0l0 11.968502l-14.960632 0z" fill-rule="evenodd"/><path fill="#000000" d="m554.59326 63.29657l0.59375 -0.046875q0.046875 0.359375 0.203125 0.59375q0.15625 0.21875 0.46875 0.359375q0.328125 0.140625 0.734375 0.140625q0.359375 0 0.640625 -0.109375q0.28125 -0.109375 0.40625 -0.296875q0.140625 -0.1875 0.140625 -0.40625q0 -0.21875 -0.140625 -0.390625q-0.125 -0.171875 -0.421875 -0.28125q-0.1875 -0.078125 -0.84375 -0.234375q-0.65625 -0.15625 -0.921875 -0.296875q-0.34375 -0.171875 -0.515625 -0.4375q-0.15625 -0.265625 -0.15625 -0.59375q0 -0.359375 0.203125 -0.671875q0.203125 -0.3125 0.59375 -0.46875q0.390625 -0.171875 0.875 -0.171875q0.53125 0 0.9375 0.171875q0.40625 0.171875 0.625 0.5q0.21875 0.328125 0.234375 0.75l-0.609375 0.046875q-0.046875 -0.453125 -0.328125 -0.6875q-0.28125 -0.234375 -0.828125 -0.234375q-0.578125 0 -0.84375 0.21875q-0.25 0.203125 -0.25 0.5q0 0.265625 0.1875 0.421875q0.171875 0.171875 0.9375 0.34375q0.78125 0.171875 1.0625 0.296875q0.421875 0.203125 0.609375 0.5q0.203125 0.28125 0.203125 0.671875q0 0.375 -0.21875 0.71875q-0.21875 0.328125 -0.625 0.515625q-0.40625 0.1875 -0.921875 0.1875q-0.640625 0 -1.078125 -0.1875q-0.4375 -0.1875 -0.6875 -0.5625q-0.25 -0.375 -0.265625 -0.859375zm6.845886 1.53125l0 -0.5q-0.40625 0.578125 -1.09375 0.578125q-0.3125 0 -0.578125 -0.109375q-0.265625 -0.125 -0.390625 -0.296875q-0.125 -0.1875 -0.171875 -0.4375q-0.046875 -0.171875 -0.046875 -0.546875l0 -2.140625l0.59375 0l0 1.921875q0 0.453125 0.03125 0.609375q0.0625 0.234375 0.234375 0.375q0.171875 0.125 0.4375 0.125q0.265625 0 0.5 -0.140625q0.234375 -0.140625 0.328125 -0.359375q0.09375 -0.234375 0.09375 -0.6875l0 -1.84375l0.578125 0l0 3.453125l-0.515625 0zm1.4362793 0l0 -3.453125l0.53125 0l0 0.5q0.375 -0.578125 1.09375 -0.578125q0.3125 0 0.578125 0.109375q0.265625 0.109375 0.390625 0.296875q0.125 0.1875 0.1875 0.4375q0.03125 0.15625 0.03125 0.5625l0 2.125l-0.59375 0l0 -2.09375q0 -0.359375 -0.078125 -0.53125q-0.0625 -0.1875 -0.234375 -0.28125q-0.171875 -0.109375 -0.40625 -0.109375q-0.375 0 -0.640625 0.234375q-0.265625 0.234375 -0.265625 0.890625l0 1.890625l-0.59375 0z" fill-rule="nonzero"/><path fill="#000000" fill-opacity="0.0" d="m358.2861 46.16273l104.25195 0" fill-rule="evenodd"/><path stroke="#38761d" stroke-width="1.0" stroke-linejoin="round" stroke-linecap="butt" d="m364.2861 46.16273l92.25195 0" fill-rule="evenodd"/><path fill="#38761d" stroke="#38761d" stroke-width="1.0" stroke-linecap="butt" d="m364.2861 44.510998l-4.5381165 1.6517334l4.5381165 1.6517296z" fill-rule="evenodd"/><path fill="#38761d" stroke="#38761d" stroke-width="1.0" stroke-linecap="butt" d="m456.53806 47.81446l4.538086 -1.6517296l-4.538086 -1.6517334z" fill-rule="evenodd"/><path fill="#000000" fill-opacity="0.0" d="m463.1601 46.267715l104.25195 0" fill-rule="evenodd"/><path stroke="#38761d" stroke-width="1.0" stroke-linejoin="round" stroke-linecap="butt" d="m469.1601 46.267715l92.25195 0" fill-rule="evenodd"/><path fill="#38761d" stroke="#38761d" stroke-width="1.0" stroke-linecap="butt" d="m469.1601 44.615986l-4.538086 1.6517296l4.538086 1.6517334z" fill-rule="evenodd"/><path fill="#38761d" stroke="#38761d" stroke-width="1.0" stroke-linecap="butt" d="m561.41205 47.91945l4.538147 -1.6517334l-4.538147 -1.6517296z" fill-rule="evenodd"/></g></svg>