<svg version="1.1" viewBox="0.0 0.0 438.68766404199476 198.24146981627297" fill="none" stroke="none" stroke-linecap="square" stroke-miterlimit="10" xmlns:xlink="http://www.w3.org/1999/xlink" xmlns="http://www.w3.org/2000/svg"><clipPath id="p.0"><path d="m0 0l438.68765 0l0 198.24147l-438.68765 0l0 -198.24147z" clip-rule="nonzero"/></clipPath><g clip-path="url(#p.0)"><path fill="#000000" fill-opacity="0.0" d="m0 0l438.68765 0l0 198.24147l-438.68765 0z" fill-rule="evenodd"/><path fill="#f4cccc" d="m24.076115 25.430447l146.99213 0l0 151.05511l-146.99213 0z" fill-rule="evenodd"/><path stroke="#595959" stroke-width="1.0" stroke-linejoin="round" stroke-linecap="butt" d="m24.076115 25.430447l146.99213 0l0 151.05511l-146.99213 0z" fill-rule="evenodd"/><path fill="#000000" d="m103.14514 97.80425l-1.921875 1.546875q-1.84375 -1.390625 -3.453125 -1.390625q-1.3125 0 -1.921875 0.703125q-0.609375 0.703125 -0.609375 1.515625q0 1.046875 0.890625 1.75q0.90625 0.6875 2.640625 0.6875q0.234375 0 0.75 -0.015625l0 2.265625q-0.46875 -0.015625 -0.71875 -0.015625q-2.140625 0 -2.96875 0.828125q-0.828125 0.8125 -0.828125 1.84375q0 1.0625 0.828125 1.796875q0.84375 0.71875 2.0 0.71875q2.109375 0 3.953125 -1.953125l1.9375 1.625q-2.40625 2.546875 -5.96875 2.546875q-2.796875 0 -4.171875 -1.421875q-1.375 -1.421875 -1.375 -3.3125q0 -2.703125 2.625 -3.84375q-2.1875 -1.234375 -2.1875 -3.421875q0 -1.78125 1.296875 -3.1875q1.296875 -1.421875 4.0 -1.421875q3.078125 0 5.203125 2.15625z" fill-rule="nonzero"/><path fill="#fff2cc" d="m262.34534 25.430447l89.98425 0l0 44.66142l-89.98425 0z" fill-rule="evenodd"/><path stroke="#595959" stroke-width="1.0" stroke-linejoin="round" stroke-linecap="butt" d="m262.34534 25.430447l89.98425 0l0 44.66142l-89.98425 0z" fill-rule="evenodd"/><path fill="#000000" d="m307.2577 45.599277l-1.421875 1.15625q-1.359375 -1.03125 -2.546875 -1.03125q-0.984375 0 -1.4375 0.515625q-0.4375 0.515625 -0.4375 1.125q0 0.765625 0.65625 1.28125q0.671875 0.515625 1.953125 0.515625q0.171875 0 0.5625 -0.015625l0 1.671875q-0.359375 0 -0.53125 0q-1.59375 0 -2.203125 0.609375q-0.609375 0.59375 -0.609375 1.359375q0 0.796875 0.609375 1.328125q0.625 0.53125 1.484375 0.53125q1.546875 0 2.921875 -1.453125l1.421875 1.21875q-1.765625 1.875 -4.40625 1.875q-2.0625 0 -3.09375 -1.046875q-1.015625 -1.0625 -1.015625 -2.453125q0 -2.0 1.953125 -2.84375q-1.625 -0.90625 -1.625 -2.53125q0 -1.3125 0.953125 -2.359375q0.96875 -1.046875 2.96875 -1.046875q2.265625 0 3.84375 1.59375z" fill-rule="nonzero"/><path fill="#000000" d="m313.81097 64.52115l-1.328125 0l0 -8.468746q-0.46875 0.46875 -1.25 0.921875q-0.78125 0.453125 -1.40625 0.6875l0 -1.28125q1.125 -0.53125 1.953125 -1.265625q0.828125 -0.75 1.171875 -1.453125l0.859375 0l0 10.859371z" fill-rule="nonzero"/><path fill="#d9ead3" d="m352.3735 25.430447l57.007874 0l0 109.00787l-57.007874 0z" fill-rule="evenodd"/><path stroke="#595959" stroke-width="1.0" stroke-linejoin="round" stroke-linecap="butt" d="m352.3735 25.430447l57.007874 0l0 109.00787l-57.007874 0z" fill-rule="evenodd"/><path fill="#000000" d="m380.79767 77.77251l-1.421875 1.15625q-1.359375 -1.03125 -2.546875 -1.03125q-0.984375 0 -1.4375 0.515625q-0.4375 0.515625 -0.4375 1.125q0 0.765625 0.65625 1.28125q0.671875 0.515625 1.953125 0.515625q0.171875 0 0.5625 -0.015625l0 1.671875q-0.359375 0 -0.53125 0q-1.59375 0 -2.203125 0.609375q-0.609375 0.59375 -0.609375 1.359375q0 0.796875 0.609375 1.328125q0.625 0.53125 1.484375 0.53125q1.546875 0 2.921875 -1.453125l1.421875 1.21875q-1.765625 1.875 -4.40625 1.875q-2.0625 0 -3.09375 -1.046875q-1.015625 -1.0625 -1.015625 -2.453125q0 -2.0 1.953125 -2.84375q-1.625 -0.90625 -1.625 -2.53125q0 -1.3125 0.953125 -2.359375q0.96875 -1.046875 2.96875 -1.046875q2.265625 0 3.84375 1.59375z" fill-rule="nonzero"/><path fill="#000000" d="m386.6166 96.694374l0 -2.59375l-4.703125 0l0 -1.21875l4.9375 -7.0l1.09375 0l0 7.0l1.453125 0l0 1.21875l-1.453125 0l0 2.59375l-1.328125 0zm0 -3.8125l0 -4.875l-3.390625 4.875l3.390625 0z" fill-rule="nonzero"/><path fill="#d0e0e3" d="m294.43124 134.43198l114.92914 0l0 42.04724l-114.92914 0z" fill-rule="evenodd"/><path stroke="#595959" stroke-width="1.0" stroke-linejoin="round" stroke-linecap="butt" d="m294.43124 134.43198l114.92914 0l0 42.04724l-114.92914 0z" fill-rule="evenodd"/><path fill="#000000" d="m351.81604 153.29372l-1.421875 1.15625q-1.359375 -1.03125 -2.546875 -1.03125q-0.984375 0 -1.4375 0.515625q-0.4375 0.515625 -0.4375 1.125q0 0.765625 0.65625 1.28125q0.671875 0.515625 1.953125 0.515625q0.171875 0 0.5625 -0.015625l0 1.671875q-0.359375 0 -0.53125 0q-1.59375 0 -2.203125 0.609375q-0.609375 0.59375 -0.609375 1.359375q0 0.796875 0.609375 1.328125q0.625 0.53125 1.484375 0.53125q1.546875 0 2.921875 -1.453125l1.421875 1.21875q-1.765625 1.875 -4.40625 1.875q-2.0625 0 -3.09375 -1.046875q-1.015625 -1.0625 -1.015625 -2.453125q0 -2.0 1.953125 -2.84375q-1.625 -0.90625 -1.625 -2.53125q0 -1.3125 0.953125 -2.359375q0.96875 -1.046875 2.96875 -1.046875q2.265625 0 3.84375 1.59375z" fill-rule="nonzero"/><path fill="#000000" d="m353.36935 169.38747l1.390625 -0.125q0.15625 1.015625 0.71875 1.53125q0.578125 0.515625 1.375 0.515625q0.953125 0 1.609375 -0.71875q0.671875 -0.734375 0.671875 -1.921875q0 -1.140625 -0.640625 -1.796875q-0.640625 -0.65625 -1.671875 -0.65625q-0.640625 0 -1.15625 0.296875q-0.515625 0.28125 -0.8125 0.75l-1.25 -0.15625l1.046875 -5.5625l5.390625 0l0 1.265625l-4.328125 0l-0.578125 2.90625q0.96875 -0.671875 2.046875 -0.671875q1.40625 0 2.375 0.984375q0.984375 0.984375 0.984375 2.515625q0 1.46875 -0.859375 2.546875q-1.03125 1.3125 -2.828125 1.3125q-1.484375 0 -2.421875 -0.828125q-0.921875 -0.828125 -1.0625 -2.1875z" fill-rule="nonzero"/><path fill="#c9daf8" d="m262.34534 70.08221l32.06299 0l0 106.362206l-32.06299 0z" fill-rule="evenodd"/><path stroke="#595959" stroke-width="1.0" stroke-linejoin="round" stroke-linecap="butt" d="m262.34534 70.08221l32.06299 0l0 106.362206l-32.06299 0z" fill-rule="evenodd"/><path fill="#000000" d="m278.29706 121.10143l-1.421875 1.15625q-1.359375 -1.03125 -2.546875 -1.03125q-0.984375 0 -1.4375 0.515625q-0.4375 0.515625 -0.4375 1.125q0 0.765625 0.65625 1.28125q0.671875 0.515625 1.953125 0.515625q0.171875 0 0.5625 -0.015625l0 1.671875q-0.359375 0 -0.53125 0q-1.59375 0 -2.203125 0.609375q-0.609375 0.59375 -0.609375 1.3593674q0 0.796875 0.609375 1.328125q0.625 0.53125 1.484375 0.53125q1.546875 0 2.921875 -1.453125l1.421875 1.21875q-1.765625 1.875 -4.40625 1.875q-2.0625 0 -3.09375 -1.046875q-1.015625 -1.0625 -1.015625 -2.453125q0 -1.9999924 1.953125 -2.8437424q-1.625 -0.90625 -1.625 -2.53125q0 -1.3125 0.953125 -2.359375q0.96875 -1.046875 2.96875 -1.046875q2.265625 0 3.84375 1.59375z" fill-rule="nonzero"/><path fill="#000000" d="m286.83472 138.74205l0 1.28125l-7.15625 0q-0.015625 -0.484375 0.15625 -0.921875q0.28125 -0.734375 0.875 -1.4375q0.609375 -0.703125 1.734375 -1.640625q1.765625 -1.4375 2.390625 -2.28125q0.625 -0.859375 0.625 -1.609375q0 -0.78125 -0.578125 -1.328125q-0.5625 -0.546875 -1.46875 -0.546875q-0.953125 0 -1.53125 0.578125q-0.578125 0.578125 -0.578125 1.59375l-1.375 -0.140625q0.140625 -1.53125 1.046875 -2.328125q0.921875 -0.796875 2.46875 -0.796875q1.5625 0 2.46875 0.859375q0.90625 0.859375 0.90625 2.140625q0 0.65625 -0.265625 1.28125q-0.265625 0.625 -0.890625 1.328125q-0.609375 0.6875 -2.046875 1.890625q-1.1875 1.0 -1.53125 1.359375q-0.34375 0.359375 -0.5625 0.71875l5.3125 0z" fill-rule="nonzero"/><path fill="#d9d2e9" d="m294.43124 70.08221l57.921265 0l0 64.34646l-57.921265 0z" fill-rule="evenodd"/><path stroke="#595959" stroke-width="1.0" stroke-linejoin="round" stroke-linecap="butt" d="m294.43124 70.08221l57.921265 0l0 64.34646l-57.921265 0z" fill-rule="evenodd"/><path fill="#000000" d="m323.3121 100.09356l-1.421875 1.15625q-1.359375 -1.03125 -2.546875 -1.03125q-0.984375 0 -1.4375 0.515625q-0.4375 0.515625 -0.4375 1.125q0 0.765625 0.65625 1.28125q0.671875 0.515625 1.953125 0.515625q0.171875 0 0.5625 -0.015625l0 1.671875q-0.359375 0 -0.53125 0q-1.59375 0 -2.203125 0.609375q-0.609375 0.59375 -0.609375 1.359375q0 0.796875 0.609375 1.328125q0.625 0.53125 1.484375 0.53125q1.546875 0 2.921875 -1.453125l1.421875 1.21875q-1.765625 1.875 -4.40625 1.875q-2.0625 0 -3.09375 -1.046875q-1.015625 -1.0625 -1.015625 -2.453125q0 -2.0 1.953125 -2.84375q-1.625 -0.90625 -1.625 -2.53125q0 -1.3125 0.953125 -2.359375q0.96875 -1.046875 2.96875 -1.046875q2.265625 0 3.84375 1.59375z" fill-rule="nonzero"/><path fill="#000000" d="m324.88104 116.15606l1.328125 -0.171875q0.21875 1.125 0.765625 1.625q0.5625 0.5 1.34375 0.5q0.9375 0 1.578125 -0.640625q0.65625 -0.65625 0.65625 -1.625q0 -0.90625 -0.609375 -1.5q-0.59375 -0.59375 -1.515625 -0.59375q-0.375 0 -0.9375 0.140625l0.15625 -1.15625q0.125 0.015625 0.203125 0.015625q0.859375 0 1.53125 -0.4375q0.6875 -0.453125 0.6875 -1.375q0 -0.734375 -0.5 -1.203125q-0.5 -0.484375 -1.28125 -0.484375q-0.765625 0 -1.28125 0.484375q-0.515625 0.484375 -0.671875 1.46875l-1.328125 -0.25q0.25 -1.328125 1.109375 -2.0625q0.859375 -0.734375 2.140625 -0.734375q0.890625 0 1.625 0.390625q0.75 0.375 1.140625 1.03125q0.40625 0.65625 0.40625 1.390625q0 0.703125 -0.375 1.28125q-0.375 0.5625 -1.109375 0.90625q0.953125 0.21875 1.484375 0.921875q0.53125 0.703125 0.53125 1.75q0 1.40625 -1.03125 2.390625q-1.03125 0.984375 -2.609375 0.984375q-1.421875 0 -2.375 -0.84375q-0.9375 -0.84375 -1.0625 -2.203125z" fill-rule="nonzero"/><path fill="#000000" fill-opacity="0.0" d="m195.58005 102.25459l47.527557 0" fill-rule="evenodd"/><path stroke="#000000" stroke-width="2.0" stroke-linejoin="round" stroke-linecap="butt" d="m195.58005 102.25459l35.527557 0" fill-rule="evenodd"/><path fill="#000000" stroke="#000000" stroke-width="2.0" stroke-linecap="butt" d="m231.1076 105.55806l9.076202 -3.3034668l-9.076202 -3.3034668z" fill-rule="evenodd"/></g></svg>