<svg version="1.1" viewBox="0.0 0.0 549.5826771653543 100.0" fill="none" stroke="none" stroke-linecap="square" stroke-miterlimit="10" xmlns:xlink="http://www.w3.org/1999/xlink" xmlns="http://www.w3.org/2000/svg"><clipPath id="p.0"><path d="m0 0l549.5827 0l0 100.0l-549.5827 0l0 -100.0z" clip-rule="nonzero"/></clipPath><g clip-path="url(#p.0)"><path fill="#000000" fill-opacity="0.0" d="m0 0l549.5827 0l0 100.0l-549.5827 0z" fill-rule="evenodd"/><path fill="#cfe2f3" d="m242.01685 34.728184l50.299194 0l0 -6.9606304l13.921265 13.921259l-13.921265 13.921261l0 -6.9606285l-50.299194 0z" fill-rule="evenodd"/><path stroke="#000000" stroke-width="1.0" stroke-linejoin="round" stroke-linecap="butt" d="m242.01685 34.728184l50.299194 0l0 -6.9606304l13.921265 13.921259l-13.921265 13.921261l0 -6.9606285l-50.299194 0z" fill-rule="evenodd"/><path fill="#f4cccc" d="m-0.04593176 16.912128l52.787403 0l0 23.055119l-52.787403 0z" fill-rule="evenodd"/><path stroke="#000000" stroke-width="1.0" stroke-linejoin="round" stroke-linecap="butt" d="m-0.04593176 16.912128l52.787403 0l0 23.055119l-52.787403 0z" fill-rule="evenodd"/><path fill="#000000" d="m26.888641 27.114687l-0.828125 0.671875q-0.8125 -0.609375 -1.5 -0.609375q-0.578125 0 -0.84375 0.3125q-0.265625 0.296875 -0.265625 0.65625q0 0.453125 0.390625 0.765625q0.390625 0.296875 1.15625 0.296875q0.09375 0 0.3125 -0.015625l0 0.984375q-0.203125 0 -0.3125 0q-0.921875 0 -1.28125 0.359375q-0.359375 0.359375 -0.359375 0.796875q0 0.46875 0.359375 0.7812481q0.359375 0.3125 0.859375 0.3125q0.921875 0 1.71875 -0.8437481l0.84375 0.7031231q-1.046875 1.109375 -2.59375 1.109375q-1.21875 0 -1.8125 -0.609375q-0.59375 -0.625 -0.59375 -1.4531231q0 -1.171875 1.140625 -1.671875q-0.953125 -0.53125 -0.953125 -1.484375q0 -0.78125 0.5625 -1.390625q0.5625 -0.609375 1.734375 -0.609375q1.34375 0 2.265625 0.9375z" fill-rule="nonzero"/><path fill="#000000" d="m29.267838 29.333437q0.25 -0.265625 0.25 -0.515625l0.40625 0l0 4.421873l-0.703125 0l0 -3.406248l-0.8125 0l0 -0.296875l0.25 0q0.40625 0 0.609375 -0.203125z" fill-rule="nonzero"/><path fill="#f4cccc" d="m52.74147 16.912128l52.7874 0l0 23.055119l-52.7874 0z" fill-rule="evenodd"/><path stroke="#000000" stroke-width="1.0" stroke-linejoin="round" stroke-linecap="butt" d="m52.74147 16.912128l52.7874 0l0 23.055119l-52.7874 0z" fill-rule="evenodd"/><path fill="#000000" d="m79.67604 27.114687l-0.828125 0.671875q-0.8125 -0.609375 -1.5 -0.609375q-0.578125 0 -0.84375 0.3125q-0.265625 0.296875 -0.265625 0.65625q0 0.453125 0.390625 0.765625q0.390625 0.296875 1.15625 0.296875q0.09375 0 0.3125 -0.015625l0 0.984375q-0.203125 0 -0.3125 0q-0.921875 0 -1.28125 0.359375q-0.359375 0.359375 -0.359375 0.796875q0 0.46875 0.359375 0.7812481q0.359375 0.3125 0.859375 0.3125q0.921875 0 1.71875 -0.8437481l0.84375 0.7031231q-1.046875 1.109375 -2.59375 1.109375q-1.21875 0 -1.8125 -0.609375q-0.59375 -0.625 -0.59375 -1.4531231q0 -1.171875 1.140625 -1.671875q-0.953125 -0.53125 -0.953125 -1.484375q0 -0.78125 0.5625 -1.390625q0.5625 -0.609375 1.734375 -0.609375q1.34375 0 2.265625 0.9375z" fill-rule="nonzero"/><path fill="#000000" d="m80.78961 30.286562q0.09375 -0.859375 0.453125 -1.21875q0.3125 -0.296875 0.859375 -0.296875q0.5625 0 0.921875 0.296875q0.359375 0.3125 0.359375 0.875q0 0.453125 -0.46875 1.0625q-0.34375 0.453125 -0.703125 0.859375q-0.203125 0.2499981 -0.453125 0.5156231q-0.15625 0.203125 -0.3125 0.296875l2.078125 0l0 0.609375l-2.734375 0l0 -0.453125q0.046875 -0.25 0.40625 -0.71875q0.65625 -0.7031231 1.0625 -1.2187481q0.40625 -0.40625 0.40625 -0.953125q0 -0.265625 -0.15625 -0.40625q-0.140625 -0.15625 -0.34375 -0.15625q-0.203125 0 -0.359375 0.15625q-0.359375 0.34375 -0.3125 0.75l-0.703125 0z" fill-rule="nonzero"/><path fill="#f4cccc" d="m105.52887 16.912128l52.7874 0l0 23.055119l-52.7874 0z" fill-rule="evenodd"/><path stroke="#000000" stroke-width="1.0" stroke-linejoin="round" stroke-linecap="butt" d="m105.52887 16.912128l52.7874 0l0 23.055119l-52.7874 0z" fill-rule="evenodd"/><path fill="#000000" d="m132.46344 27.114687l-0.828125 0.671875q-0.8125 -0.609375 -1.5 -0.609375q-0.578125 0 -0.84375 0.3125q-0.265625 0.296875 -0.265625 0.65625q0 0.453125 0.390625 0.765625q0.390625 0.296875 1.15625 0.296875q0.09375 0 0.3125 -0.015625l0 0.984375q-0.203125 0 -0.3125 0q-0.921875 0 -1.28125 0.359375q-0.359375 0.359375 -0.359375 0.796875q0 0.46875 0.359375 0.7812481q0.359375 0.3125 0.859375 0.3125q0.921875 0 1.71875 -0.8437481l0.84375 0.7031231q-1.046875 1.109375 -2.59375 1.109375q-1.21875 0 -1.8125 -0.609375q-0.59375 -0.625 -0.59375 -1.4531231q0 -1.171875 1.140625 -1.671875q-0.953125 -0.53125 -0.953125 -1.484375q0 -0.78125 0.5625 -1.390625q0.5625 -0.609375 1.734375 -0.609375q1.34375 0 2.265625 0.9375z" fill-rule="nonzero"/><path fill="#000000" d="m133.57701 30.036562q0.046875 -0.609375 0.40625 -0.96875q0.296875 -0.296875 0.859375 -0.296875q0.609375 0 0.921875 0.296875q0.296875 0.3125 0.296875 0.8125q0 0.515625 -0.25 0.765625q-0.203125 0.203125 -0.40625 0.25q0.25 0.0625 0.453125 0.265625q0.3125 0.296875 0.3125 0.8125q0 0.6093731 -0.359375 0.9531231q-0.359375 0.359375 -1.015625 0.359375q-0.609375 0 -0.96875 -0.359375q-0.359375 -0.34375 -0.359375 -0.859375l0 -0.2499981l0.71875 0l0 0.2031231q0 0.296875 0.203125 0.5q0.15625 0.15625 0.40625 0.15625q0.296875 0 0.453125 -0.15625q0.203125 -0.203125 0.203125 -0.6093731q0 -0.34375 -0.203125 -0.546875q-0.15625 -0.15625 -0.453125 -0.15625l-0.203125 0l0 -0.609375l0.15625 0q0.296875 0 0.40625 -0.109375q0.203125 -0.203125 0.203125 -0.609375q0 -0.25 -0.203125 -0.453125q-0.109375 -0.09375 -0.3125 -0.09375q-0.203125 0 -0.296875 0.09375q-0.265625 0.25 -0.265625 0.609375l-0.703125 0z" fill-rule="nonzero"/><path fill="#f4cccc" d="m158.31627 16.912128l52.7874 0l0 23.055119l-52.7874 0z" fill-rule="evenodd"/><path stroke="#000000" stroke-width="1.0" stroke-linejoin="round" stroke-linecap="butt" d="m158.31627 16.912128l52.7874 0l0 23.055119l-52.7874 0z" fill-rule="evenodd"/><path fill="#000000" d="m185.25084 27.114687l-0.828125 0.671875q-0.8125 -0.609375 -1.5 -0.609375q-0.578125 0 -0.84375 0.3125q-0.265625 0.296875 -0.265625 0.65625q0 0.453125 0.390625 0.765625q0.390625 0.296875 1.15625 0.296875q0.09375 0 0.3125 -0.015625l0 0.984375q-0.203125 0 -0.3125 0q-0.921875 0 -1.28125 0.359375q-0.359375 0.359375 -0.359375 0.796875q0 0.46875 0.359375 0.7812481q0.359375 0.3125 0.859375 0.3125q0.921875 0 1.71875 -0.8437481l0.84375 0.7031231q-1.046875 1.109375 -2.59375 1.109375q-1.21875 0 -1.8125 -0.609375q-0.59375 -0.625 -0.59375 -1.4531231q0 -1.171875 1.140625 -1.671875q-0.953125 -0.53125 -0.953125 -1.484375q0 -0.78125 0.5625 -1.390625q0.5625 -0.609375 1.734375 -0.609375q1.34375 0 2.265625 0.9375z" fill-rule="nonzero"/><path fill="#000000" d="m187.94254 28.817812l0.703125 0l0 2.6875l0.40625 0l0 0.6093731l-0.40625 0l0 1.125l-0.703125 0l0 -1.125l-1.6875 0l0 -0.5468731l1.6875 -2.75zm0 1.171875l-0.921875 1.515625l0.921875 0l0 -1.515625z" fill-rule="nonzero"/><path fill="#d9ead3" d="m337.08792 16.912128l22.551178 0l0 23.055119l-22.551178 0z" fill-rule="evenodd"/><path stroke="#000000" stroke-width="1.0" stroke-linejoin="round" stroke-linecap="butt" d="m337.08792 16.912128l22.551178 0l0 23.055119l-22.551178 0z" fill-rule="evenodd"/><path fill="#000000" d="m348.9044 27.114687l-0.828125 0.671875q-0.8125 -0.609375 -1.5 -0.609375q-0.578125 0 -0.84375 0.3125q-0.265625 0.296875 -0.265625 0.65625q0 0.453125 0.390625 0.765625q0.390625 0.296875 1.15625 0.296875q0.09375 0 0.3125 -0.015625l0 0.984375q-0.203125 0 -0.3125 0q-0.921875 0 -1.28125 0.359375q-0.359375 0.359375 -0.359375 0.796875q0 0.46875 0.359375 0.7812481q0.359375 0.3125 0.859375 0.3125q0.921875 0 1.71875 -0.8437481l0.84375 0.7031231q-1.046875 1.109375 -2.59375 1.109375q-1.21875 0 -1.8125 -0.609375q-0.59375 -0.625 -0.59375 -1.4531231q0 -1.171875 1.140625 -1.671875q-0.953125 -0.53125 -0.953125 -1.484375q0 -0.78125 0.5625 -1.390625q0.5625 -0.609375 1.734375 -0.609375q1.34375 0 2.265625 0.9375z" fill-rule="nonzero"/><path fill="#000000" d="m351.28357 29.333437q0.25 -0.265625 0.25 -0.515625l0.40625 0l0 4.421873l-0.703125 0l0 -3.406248l-0.8125 0l0 -0.296875l0.25 0q0.40625 0 0.609375 -0.203125z" fill-rule="nonzero"/><path fill="#d9ead3" d="m359.6391 16.912128l36.314972 0l0 23.055119l-36.314972 0z" fill-rule="evenodd"/><path stroke="#000000" stroke-width="1.0" stroke-linejoin="round" stroke-linecap="butt" d="m359.6391 16.912128l36.314972 0l0 23.055119l-36.314972 0z" fill-rule="evenodd"/><path fill="#000000" d="m378.33746 27.114687l-0.828125 0.671875q-0.8125 -0.609375 -1.5 -0.609375q-0.578125 0 -0.84375 0.3125q-0.265625 0.296875 -0.265625 0.65625q0 0.453125 0.390625 0.765625q0.390625 0.296875 1.15625 0.296875q0.09375 0 0.3125 -0.015625l0 0.984375q-0.203125 0 -0.3125 0q-0.921875 0 -1.28125 0.359375q-0.359375 0.359375 -0.359375 0.796875q0 0.46875 0.359375 0.7812481q0.359375 0.3125 0.859375 0.3125q0.921875 0 1.71875 -0.8437481l0.84375 0.7031231q-1.046875 1.109375 -2.59375 1.109375q-1.21875 0 -1.8125 -0.609375q-0.59375 -0.625 -0.59375 -1.4531231q0 -1.171875 1.140625 -1.671875q-0.953125 -0.53125 -0.953125 -1.484375q0 -0.78125 0.5625 -1.390625q0.5625 -0.609375 1.734375 -0.609375q1.34375 0 2.265625 0.9375z" fill-rule="nonzero"/><path fill="#000000" d="m379.45102 30.286562q0.09375 -0.859375 0.453125 -1.21875q0.3125 -0.296875 0.859375 -0.296875q0.5625 0 0.921875 0.296875q0.359375 0.3125 0.359375 0.875q0 0.453125 -0.46875 1.0625q-0.34375 0.453125 -0.703125 0.859375q-0.203125 0.2499981 -0.453125 0.5156231q-0.15625 0.203125 -0.3125 0.296875l2.078125 0l0 0.609375l-2.734375 0l0 -0.453125q0.046875 -0.25 0.40625 -0.71875q0.65625 -0.7031231 1.0625 -1.2187481q0.40625 -0.40625 0.40625 -0.953125q0 -0.265625 -0.15625 -0.40625q-0.140625 -0.15625 -0.34375 -0.15625q-0.203125 0 -0.359375 0.15625q-0.359375 0.34375 -0.3125 0.75l-0.703125 0z" fill-rule="nonzero"/><path fill="#d9ead3" d="m395.95407 16.912128l112.566925 0l0 23.055119l-112.566925 0z" fill-rule="evenodd"/><path stroke="#000000" stroke-width="1.0" stroke-linejoin="round" stroke-linecap="butt" d="m395.95407 16.912128l112.566925 0l0 23.055119l-112.566925 0z" fill-rule="evenodd"/><path fill="#000000" d="m452.7784 27.114687l-0.828125 0.671875q-0.8125 -0.609375 -1.5 -0.609375q-0.578125 0 -0.84375 0.3125q-0.265625 0.296875 -0.265625 0.65625q0 0.453125 0.390625 0.765625q0.390625 0.296875 1.15625 0.296875q0.09375 0 0.3125 -0.015625l0 0.984375q-0.203125 0 -0.3125 0q-0.921875 0 -1.28125 0.359375q-0.359375 0.359375 -0.359375 0.796875q0 0.46875 0.359375 0.7812481q0.359375 0.3125 0.859375 0.3125q0.921875 0 1.71875 -0.8437481l0.84375 0.7031231q-1.046875 1.109375 -2.59375 1.109375q-1.21875 0 -1.8125 -0.609375q-0.59375 -0.625 -0.59375 -1.4531231q0 -1.171875 1.140625 -1.671875q-0.953125 -0.53125 -0.953125 -1.484375q0 -0.78125 0.5625 -1.390625q0.5625 -0.609375 1.734375 -0.609375q1.34375 0 2.265625 0.9375z" fill-rule="nonzero"/><path fill="#000000" d="m453.89197 30.036562q0.046875 -0.609375 0.40625 -0.96875q0.296875 -0.296875 0.859375 -0.296875q0.609375 0 0.921875 0.296875q0.296875 0.3125 0.296875 0.8125q0 0.515625 -0.25 0.765625q-0.203125 0.203125 -0.40625 0.25q0.25 0.0625 0.453125 0.265625q0.3125 0.296875 0.3125 0.8125q0 0.6093731 -0.359375 0.9531231q-0.359375 0.359375 -1.015625 0.359375q-0.609375 0 -0.96875 -0.359375q-0.359375 -0.34375 -0.359375 -0.859375l0 -0.2499981l0.71875 0l0 0.2031231q0 0.296875 0.203125 0.5q0.15625 0.15625 0.40625 0.15625q0.296875 0 0.453125 -0.15625q0.203125 -0.203125 0.203125 -0.6093731q0 -0.34375 -0.203125 -0.546875q-0.15625 -0.15625 -0.453125 -0.15625l-0.203125 0l0 -0.609375l0.15625 0q0.296875 0 0.40625 -0.109375q0.203125 -0.203125 0.203125 -0.609375q0 -0.25 -0.203125 -0.453125q-0.109375 -0.09375 -0.3125 -0.09375q-0.203125 0 -0.296875 0.09375q-0.265625 0.25 -0.265625 0.609375l-0.703125 0z" fill-rule="nonzero"/><path fill="#d9ead3" d="m508.521 16.91202l39.716553 0l0 23.055117l-39.716553 0z" fill-rule="evenodd"/><path stroke="#000000" stroke-width="1.0" stroke-linejoin="round" stroke-linecap="butt" d="m508.521 16.91202l39.716553 0l0 23.055117l-39.716553 0z" fill-rule="evenodd"/><path fill="#000000" d="m528.9201 27.114578l-0.828125 0.671875q-0.8125 -0.609375 -1.5 -0.609375q-0.578125 0 -0.84375 0.3125q-0.265625 0.296875 -0.265625 0.65625q0 0.453125 0.390625 0.765625q0.390625 0.296875 1.15625 0.296875q0.09375 0 0.3125 -0.015625l0 0.984375q-0.203125 0 -0.3125 0q-0.921875 0 -1.28125 0.359375q-0.359375 0.359375 -0.359375 0.796875q0 0.46875 0.359375 0.78125q0.359375 0.3125 0.859375 0.3125q0.921875 0 1.71875 -0.84375l0.84375 0.703125q-1.046875 1.109375 -2.59375 1.109375q-1.21875 0 -1.8125 -0.609375q-0.59375 -0.625 -0.59375 -1.453125q0 -1.171875 1.140625 -1.671875q-0.953125 -0.53125 -0.953125 -1.484375q0 -0.78125 0.5625 -1.390625q0.5625 -0.609375 1.734375 -0.609375q1.34375 0 2.265625 0.9375z" fill-rule="nonzero"/><path fill="#000000" d="m531.6118 28.817703l0.703125 0l0 2.6875l0.40625 0l0 0.609375l-0.40625 0l0 1.125l-0.703125 0l0 -1.125l-1.6875 0l0 -0.546875l1.6875 -2.75zm0 1.171875l-0.921875 1.515625l0.921875 0l0 -1.515625z" fill-rule="nonzero"/><path fill="#000000" fill-opacity="0.0" d="m211.16667 52.28352c0 3.1484566 -2.5523376 5.7007866 -5.7007904 5.7007866l-94.20473 0c-3.1484604 0 -5.7007904 2.55233 -5.7007904 5.7007866l0 0c0 -3.1484566 -2.5523224 -5.7007866 -5.700783 -5.7007866l-94.20473 0l0 0c-3.148458 0 -5.7007875 -2.55233 -5.7007875 -5.7007866z" fill-rule="evenodd"/><path fill="#000000" fill-opacity="0.0" d="m211.16667 52.28352c0 3.1484566 -2.5523376 5.7007866 -5.7007904 5.7007866l-94.20473 0c-3.1484604 0 -5.7007904 2.55233 -5.7007904 5.7007866l0 0c0 -3.1484566 -2.5523224 -5.7007866 -5.700783 -5.7007866l-94.20473 0l0 0c-3.148458 0 -5.7007875 -2.55233 -5.7007875 -5.7007866" fill-rule="evenodd"/><path stroke="#000000" stroke-width="1.0" stroke-linejoin="round" stroke-linecap="butt" d="m211.16667 52.28352c0 3.1484566 -2.5523376 5.7007866 -5.7007904 5.7007866l-94.20473 0c-3.1484604 0 -5.7007904 2.55233 -5.7007904 5.7007866l0 0c0 -3.1484566 -2.5523224 -5.7007866 -5.700783 -5.7007866l-94.20473 0l0 0c-3.148458 0 -5.7007875 -2.55233 -5.7007875 -5.7007866" fill-rule="evenodd"/><path fill="#000000" fill-opacity="0.0" d="m86.61286 63.686405l39.716537 0l0 19.401577l-39.716537 0z" fill-rule="evenodd"/><path fill="#000000" d="m109.3891 71.687035l-1.015625 0.8125q-0.953125 -0.734375 -1.796875 -0.734375q-0.6875 0 -1.0 0.375q-0.3125 0.359375 -0.3125 0.78125q0 0.546875 0.46875 0.921875q0.46875 0.359375 1.375 0.359375q0.109375 0 0.390625 -0.015625l0 1.1875q-0.25 -0.015625 -0.375 -0.015625q-1.125 0 -1.5625 0.4375q-0.421875 0.421875 -0.421875 0.96875q0 0.546875 0.4375 0.9375q0.4375 0.375 1.03125 0.375q1.109375 0 2.0625 -1.03125l1.015625 0.859375q-1.25 1.328125 -3.109375 1.328125q-1.46875 0 -2.1875 -0.734375q-0.71875 -0.75 -0.71875 -1.734375q0 -1.421875 1.375 -2.015625q-1.140625 -0.640625 -1.140625 -1.78125q0 -0.9375 0.671875 -1.671875q0.6875 -0.734375 2.09375 -0.734375q1.609375 0 2.71875 1.125z" fill-rule="nonzero"/><path fill="#000000" fill-opacity="0.0" d="m548.30054 52.28352c0 3.1484566 -2.5523682 5.7007866 -5.7008057 5.7007866l-94.20471 0c-3.148468 0 -5.7008057 2.55233 -5.7008057 5.7007866l0 0c0 -3.1484566 -2.5523071 -5.7007866 -5.700775 -5.7007866l-94.20471 0l0 0c-3.148468 0 -5.7008057 -2.55233 -5.7008057 -5.7007866z" fill-rule="evenodd"/><path fill="#000000" fill-opacity="0.0" d="m548.30054 52.28352c0 3.1484566 -2.5523682 5.7007866 -5.7008057 5.7007866l-94.20471 0c-3.148468 0 -5.7008057 2.55233 -5.7008057 5.7007866l0 0c0 -3.1484566 -2.5523071 -5.7007866 -5.700775 -5.7007866l-94.20471 0l0 0c-3.148468 0 -5.7008057 -2.55233 -5.7008057 -5.7007866" fill-rule="evenodd"/><path stroke="#000000" stroke-width="1.0" stroke-linejoin="round" stroke-linecap="butt" d="m548.30054 52.28352c0 3.1484566 -2.5523682 5.7007866 -5.7008057 5.7007866l-94.20471 0c-3.148468 0 -5.7008057 2.55233 -5.7008057 5.7007866l0 0c0 -3.1484566 -2.5523071 -5.7007866 -5.700775 -5.7007866l-94.20471 0l0 0c-3.148468 0 -5.7008057 -2.55233 -5.7008057 -5.7007866" fill-rule="evenodd"/><path fill="#000000" fill-opacity="0.0" d="m423.7467 63.686405l39.716553 0l0 19.401577l-39.716553 0z" fill-rule="evenodd"/><path fill="#000000" d="m446.52295 71.687035l-1.015625 0.8125q-0.953125 -0.734375 -1.796875 -0.734375q-0.6875 0 -1.0 0.375q-0.3125 0.359375 -0.3125 0.78125q0 0.546875 0.46875 0.921875q0.46875 0.359375 1.375 0.359375q0.109375 0 0.390625 -0.015625l0 1.1875q-0.25 -0.015625 -0.375 -0.015625q-1.125 0 -1.5625 0.4375q-0.421875 0.421875 -0.421875 0.96875q0 0.546875 0.4375 0.9375q0.4375 0.375 1.03125 0.375q1.109375 0 2.0625 -1.03125l1.015625 0.859375q-1.25 1.328125 -3.109375 1.328125q-1.46875 0 -2.1875 -0.734375q-0.71875 -0.75 -0.71875 -1.734375q0 -1.421875 1.375 -2.015625q-1.140625 -0.640625 -1.140625 -1.78125q0 -0.9375 0.671875 -1.671875q0.6875 -0.734375 2.09375 -0.734375q1.609375 0 2.71875 1.125z" fill-rule="nonzero"/></g></svg>