<svg version="1.1" viewBox="0.0 0.0 297.50656167979 158.0" fill="none" stroke="none" stroke-linecap="square" stroke-miterlimit="10" xmlns:xlink="http://www.w3.org/1999/xlink" xmlns="http://www.w3.org/2000/svg"><clipPath id="p.0"><path d="m0 0l297.50656 0l0 158.0l-297.50656 0l0 -158.0z" clip-rule="nonzero"/></clipPath><g clip-path="url(#p.0)"><path fill="#000000" fill-opacity="0.0" d="m0 0l297.50656 0l0 158.0l-297.50656 0z" fill-rule="evenodd"/><path fill="#000000" fill-opacity="0.0" d="m147.9685 0l-0.03149414 158.11023" fill-rule="evenodd"/><path stroke="#000000" stroke-width="1.0" stroke-linejoin="round" stroke-linecap="butt" d="m147.9685 0l-0.03149414 158.11023" fill-rule="evenodd"/><path fill="#000000" fill-opacity="0.0" d="m73.98425 13.102363l0 99.90551" fill-rule="evenodd"/><path stroke="#b45f06" stroke-width="1.0" stroke-linejoin="round" stroke-linecap="butt" stroke-dasharray="1.0,3.0" d="m73.98425 13.102363l0 99.90551" fill-rule="evenodd"/><path fill="#000000" fill-opacity="0.0" d="m73.98425 23.818897l0 75.90552" fill-rule="evenodd"/><path stroke="#b45f06" stroke-width="1.0" stroke-linejoin="round" stroke-linecap="butt" d="m73.98425 23.818897l0 75.90552" fill-rule="evenodd"/><path fill="#000000" fill-opacity="0.0" d="m73.98425 37.698162l0 49.19685" fill-rule="evenodd"/><path stroke="#3d85c6" stroke-width="1.0" stroke-linejoin="round" stroke-linecap="butt" d="m73.98425 37.698162l0 49.19685" fill-rule="evenodd"/><path fill="#cfe2f3" d="m69.685036 63.05512l0 0c0 -2.3743896 1.9248276 -4.2992134 4.299217 -4.2992134l0 0c1.1402206 0 2.2337418 0.45295334 3.040001 1.2592087c0.80625916 0.80625916 1.2592087 1.8997841 1.2592087 3.0400047l0 0c0 2.3743858 -1.92482 4.2992134 -4.2992096 4.2992134l0 0c-2.3743896 0 -4.299217 -1.9248276 -4.299217 -4.2992134z" fill-rule="evenodd"/><path stroke="#000000" stroke-width="1.0" stroke-linejoin="round" stroke-linecap="butt" d="m69.685036 63.05512l0 0c0 -2.3743896 1.9248276 -4.2992134 4.299217 -4.2992134l0 0c1.1402206 0 2.2337418 0.45295334 3.040001 1.2592087c0.80625916 0.80625916 1.2592087 1.8997841 1.2592087 3.0400047l0 0c0 2.3743858 -1.92482 4.2992134 -4.2992096 4.2992134l0 0c-2.3743896 0 -4.299217 -1.9248276 -4.299217 -4.2992134z" fill-rule="evenodd"/><path fill="#000000" fill-opacity="0.0" d="m0 107.03937l147.9685 0l0 51.716537l-147.9685 0z" fill-rule="evenodd"/><path fill="#000000" d="m44.209785 137.69763l0 -9.546875l3.59375 0q1.09375 0 1.75 0.296875q0.65625 0.28125 1.03125 0.890625q0.375 0.609375 0.375 1.265625q0 0.609375 -0.34375 1.15625q-0.328125 0.53125 -0.984375 0.859375q0.859375 0.25 1.328125 0.875q0.46875 0.609375 0.46875 1.4375q0 0.671875 -0.296875 1.25q-0.28125 0.578125 -0.703125 0.890625q-0.40625 0.3125 -1.03125 0.46875q-0.625 0.15625 -1.546875 0.15625l-3.640625 0zm1.265625 -5.53125l2.0625 0q0.84375 0 1.203125 -0.109375q0.484375 -0.140625 0.71875 -0.46875q0.25 -0.34375 0.25 -0.84375q0 -0.46875 -0.234375 -0.828125q-0.21875 -0.359375 -0.640625 -0.5q-0.421875 -0.140625 -1.453125 -0.140625l-1.90625 0l0 2.890625zm0 4.40625l2.375 0q0.609375 0 0.859375 -0.046875q0.4375 -0.078125 0.734375 -0.25q0.296875 -0.1875 0.484375 -0.53125q0.1875 -0.359375 0.1875 -0.8125q0 -0.53125 -0.28125 -0.921875q-0.265625 -0.40625 -0.75 -0.5625q-0.484375 -0.15625 -1.40625 -0.15625l-2.203125 0l0 3.28125zm12.264755 -1.09375l1.203125 0.140625q-0.28125 1.0625 -1.0625 1.65625q-0.765625 0.578125 -1.96875 0.578125q-1.515625 0 -2.40625 -0.9375q-0.890625 -0.9375 -0.890625 -2.609375q0 -1.75 0.890625 -2.703125q0.90625 -0.96875 2.34375 -0.96875q1.390625 0 2.265625 0.9375q0.875 0.9375 0.875 2.65625q0 0.109375 0 0.3125l-5.15625 0q0.0625 1.140625 0.640625 1.75q0.578125 0.59375 1.4375 0.59375q0.65625 0 1.109375 -0.328125q0.453125 -0.34375 0.71875 -1.078125zm-3.84375 -1.90625l3.859375 0q-0.078125 -0.859375 -0.4375 -1.296875q-0.5625 -0.6875 -1.453125 -0.6875q-0.8125 0 -1.359375 0.546875q-0.546875 0.53125 -0.609375 1.4375zm6.8031006 4.125l0 -6.0l-1.03125 0l0 -0.90625l1.03125 0l0 -0.734375q0 -0.703125 0.125 -1.046875q0.171875 -0.453125 0.59375 -0.734375q0.421875 -0.28124237 1.203125 -0.28124237q0.484375 0 1.09375 0.10936737l-0.1875 1.03125q-0.359375 -0.0625 -0.6875 -0.0625q-0.53125 0 -0.75 0.234375q-0.21875 0.21875 -0.21875 0.84375l0 0.640625l1.34375 0l0 0.90625l-1.34375 0l0 6.0l-1.171875 0zm2.9842377 -3.453125q0 -1.921875 1.078125 -2.84375q0.890625 -0.765625 2.171875 -0.765625q1.421875 0 2.328125 0.9375q0.90625 0.921875 0.90625 2.578125q0 1.328125 -0.40625 2.09375q-0.390625 0.765625 -1.15625 1.1875q-0.765625 0.421875 -1.671875 0.421875q-1.453125 0 -2.359375 -0.921875q-0.890625 -0.9375 -0.890625 -2.6875zm1.203125 0q0 1.328125 0.578125 1.984375q0.59375 0.65625 1.46875 0.65625q0.875 0 1.453125 -0.65625q0.578125 -0.671875 0.578125 -2.03125q0 -1.28125 -0.59375 -1.9375q-0.578125 -0.65625 -1.4375 -0.65625q-0.875 0 -1.46875 0.65625q-0.578125 0.65625 -0.578125 1.984375zm6.6312256 3.453125l0 -6.90625l1.0625 0l0 1.046875q0.40625 -0.734375 0.734375 -0.96875q0.34375 -0.234375 0.765625 -0.234375q0.59375 0 1.203125 0.375l-0.40625 1.078125q-0.4375 -0.25 -0.859375 -0.25q-0.390625 0 -0.703125 0.234375q-0.296875 0.234375 -0.421875 0.640625q-0.203125 0.625 -0.203125 1.359375l0 3.625l-1.171875 0zm9.18837 -2.21875l1.203125 0.140625q-0.28125 1.0625 -1.0625 1.65625q-0.765625 0.578125 -1.96875 0.578125q-1.515625 0 -2.40625 -0.9375q-0.890625 -0.9375 -0.890625 -2.609375q0 -1.75 0.890625 -2.703125q0.90625 -0.96875 2.34375 -0.96875q1.390625 0 2.265625 0.9375q0.875 0.9375 0.875 2.65625q0 0.109375 0 0.3125l-5.15625 0q0.0625 1.140625 0.640625 1.75q0.578125 0.59375 1.4375 0.59375q0.65625 0 1.109375 -0.328125q0.453125 -0.34375 0.71875 -1.078125zm-3.84375 -1.90625l3.859375 0q-0.078125 -0.859375 -0.4375 -1.296875q-0.5625 -0.6875 -1.453125 -0.6875q-0.8125 0 -1.359375 0.546875q-0.546875 0.53125 -0.609375 1.4375zm10.381088 4.125l0 -9.546875l3.28125 0q1.109375 0 1.703125 0.140625q0.8125 0.1875 1.390625 0.6875q0.765625 0.640625 1.140625 1.640625q0.375 0.984375 0.375 2.25q0 1.09375 -0.265625 1.9375q-0.25 0.828125 -0.65625 1.390625q-0.390625 0.546875 -0.859375 0.859375q-0.46875 0.3125 -1.140625 0.484375q-0.65625 0.15625 -1.53125 0.15625l-3.4375 0zm1.265625 -1.125l2.03125 0q0.9375 0 1.46875 -0.171875q0.546875 -0.1875 0.875 -0.5q0.4375 -0.453125 0.6875 -1.203125q0.25 -0.765625 0.25 -1.84375q0 -1.5 -0.5 -2.296875q-0.484375 -0.8125 -1.1875 -1.078125q-0.5 -0.203125 -1.625 -0.203125l-2.0 0l0 7.296875zm8.359528 1.125l0 -9.546875l3.59375 0q0.953125 0 1.453125 0.09375q0.703125 0.125 1.171875 0.453125q0.484375 0.328125 0.765625 0.921875q0.296875 0.59375 0.296875 1.296875q0 1.21875 -0.78125 2.0625q-0.765625 0.84375 -2.796875 0.84375l-2.4375 0l0 3.875l-1.265625 0zm1.265625 -5.0l2.453125 0q1.234375 0 1.75 -0.453125q0.515625 -0.46875 0.515625 -1.28125q0 -0.609375 -0.3125 -1.03125q-0.296875 -0.421875 -0.796875 -0.5625q-0.3125 -0.09375 -1.171875 -0.09375l-2.4375 0l0 3.421875z" fill-rule="nonzero"/><path fill="#000000" fill-opacity="0.0" d="m68.25197 37.548557l11.464569 0" fill-rule="evenodd"/><path stroke="#3d85c6" stroke-width="1.0" stroke-linejoin="round" stroke-linecap="butt" d="m68.25197 37.548557l11.464569 0" fill-rule="evenodd"/><path fill="#000000" fill-opacity="0.0" d="m68.25197 87.19685l11.464569 0" fill-rule="evenodd"/><path stroke="#3d85c6" stroke-width="1.0" stroke-linejoin="round" stroke-linecap="butt" d="m68.25197 87.19685l11.464569 0" fill-rule="evenodd"/><path fill="#000000" fill-opacity="0.0" d="m198.94226 13.101049l0 99.90551" fill-rule="evenodd"/><path stroke="#b45f06" stroke-width="1.0" stroke-linejoin="round" stroke-linecap="butt" stroke-dasharray="1.0,3.0" d="m198.94226 13.101049l0 99.90551" fill-rule="evenodd"/><path fill="#000000" fill-opacity="0.0" d="m198.94226 23.817585l0 75.90552" fill-rule="evenodd"/><path stroke="#b45f06" stroke-width="1.0" stroke-linejoin="round" stroke-linecap="butt" d="m198.94226 23.817585l0 75.90552" fill-rule="evenodd"/><path fill="#000000" fill-opacity="0.0" d="m198.94226 37.69685l0 49.19685" fill-rule="evenodd"/><path stroke="#3d85c6" stroke-width="1.0" stroke-linejoin="round" stroke-linecap="butt" d="m198.94226 37.69685l0 49.19685" fill-rule="evenodd"/><path fill="#000000" fill-opacity="0.0" d="m147.9685 107.038055l147.9685 0l0 51.716537l-147.9685 0z" fill-rule="evenodd"/><path fill="#000000" d="m196.7549 137.69632l3.65625 -9.546875l1.359375 0l3.90625 9.546875l-1.4375 0l-1.109375 -2.890625l-3.984375 0l-1.046875 2.890625l-1.34375 0zm2.75 -3.921875l3.234375 0l-1.0 -2.640625q-0.453125 -1.203125 -0.671875 -1.96875q-0.1875 0.90625 -0.515625 1.8125l-1.046875 2.796875zm7.3116302 3.921875l0 -6.0l-1.03125 0l0 -0.90625l1.03125 0l0 -0.734375q0 -0.703125 0.125 -1.046875q0.171875 -0.453125 0.59375 -0.734375q0.421875 -0.28124237 1.203125 -0.28124237q0.484375 0 1.09375 0.10936737l-0.1875 1.03125q-0.359375 -0.0625 -0.6875 -0.0625q-0.53125 0 -0.75 0.234375q-0.21875 0.21875 -0.21875 0.84375l0 0.640625l1.34375 0l0 0.90625l-1.34375 0l0 6.0l-1.171875 0zm5.9842377 -1.046875l0.171875 1.03125q-0.5 0.109375 -0.890625 0.109375q-0.640625 0 -1.0 -0.203125q-0.34375 -0.203125 -0.484375 -0.53125q-0.140625 -0.328125 -0.140625 -1.390625l0 -3.96875l-0.859375 0l0 -0.90625l0.859375 0l0 -1.71875l1.171875 -0.703125l0 2.421875l1.171875 0l0 0.90625l-1.171875 0l0 4.046875q0 0.5 0.046875 0.640625q0.0625 0.140625 0.203125 0.234375q0.140625 0.078125 0.40625 0.078125q0.203125 0 0.515625 -0.046875zm5.8748627 -1.171875l1.203125 0.140625q-0.28125 1.0625 -1.0625 1.65625q-0.765625 0.578125 -1.96875 0.578125q-1.515625 0 -2.40625 -0.9375q-0.890625 -0.9375 -0.890625 -2.609375q0 -1.75 0.890625 -2.703125q0.90625 -0.96875 2.34375 -0.96875q1.390625 0 2.265625 0.9375q0.875 0.9375 0.875 2.65625q0 0.109375 0 0.3125l-5.15625 0q0.0625 1.140625 0.640625 1.75q0.578125 0.59375 1.4375 0.59375q0.65625 0 1.109375 -0.328125q0.453125 -0.34375 0.71875 -1.078125zm-3.84375 -1.90625l3.859375 0q-0.078125 -0.859375 -0.4375 -1.296875q-0.5625 -0.6875 -1.453125 -0.6875q-0.8125 0 -1.359375 0.546875q-0.546875 0.53125 -0.609375 1.4375zm6.5062256 4.125l0 -6.90625l1.0625 0l0 1.046875q0.40625 -0.734375 0.734375 -0.96875q0.34375 -0.234375 0.765625 -0.234375q0.59375 0 1.203125 0.375l-0.40625 1.078125q-0.4375 -0.25 -0.859375 -0.25q-0.390625 0 -0.703125 0.234375q-0.296875 0.234375 -0.421875 0.640625q-0.203125 0.625 -0.203125 1.359375l0 3.625l-1.171875 0zm8.313232 0l0 -9.546875l3.28125 0q1.109375 0 1.703125 0.140625q0.8125 0.1875 1.390625 0.6875q0.765625 0.640625 1.140625 1.640625q0.375 0.984375 0.375 2.25q0 1.09375 -0.265625 1.9375q-0.25 0.828125 -0.65625 1.390625q-0.390625 0.546875 -0.859375 0.859375q-0.46875 0.3125 -1.140625 0.484375q-0.65625 0.15625 -1.53125 0.15625l-3.4375 0zm1.265625 -1.125l2.03125 0q0.9375 0 1.46875 -0.171875q0.546875 -0.1875 0.875 -0.5q0.4375 -0.453125 0.6875 -1.203125q0.25 -0.765625 0.25 -1.84375q0 -1.5 -0.5 -2.296875q-0.484375 -0.8125 -1.1875 -1.078125q-0.5 -0.203125 -1.625 -0.203125l-2.0 0l0 7.296875zm8.359528 1.125l0 -9.546875l3.59375 0q0.953125 0 1.453125 0.09375q0.703125 0.125 1.171875 0.453125q0.484375 0.328125 0.765625 0.921875q0.296875 0.59375 0.296875 1.296875q0 1.21875 -0.78125 2.0625q-0.765625 0.84375 -2.796875 0.84375l-2.4375 0l0 3.875l-1.265625 0zm1.265625 -5.0l2.453125 0q1.234375 0 1.75 -0.453125q0.515625 -0.46875 0.515625 -1.28125q0 -0.609375 -0.3125 -1.03125q-0.296875 -0.421875 -0.796875 -0.5625q-0.3125 -0.09375 -1.171875 -0.09375l-2.4375 0l0 3.421875z" fill-rule="nonzero"/><path fill="#000000" fill-opacity="0.0" d="m193.20998 37.547245l11.464569 0" fill-rule="evenodd"/><path stroke="#3d85c6" stroke-width="1.0" stroke-linejoin="round" stroke-linecap="butt" d="m193.20998 37.547245l11.464569 0" fill-rule="evenodd"/><path fill="#000000" fill-opacity="0.0" d="m193.20998 87.19554l11.464569 0" fill-rule="evenodd"/><path stroke="#3d85c6" stroke-width="1.0" stroke-linejoin="round" stroke-linecap="butt" d="m193.20998 87.19554l11.464569 0" fill-rule="evenodd"/><path fill="#000000" fill-opacity="0.0" d="m198.76378 53.89895l0 18.141731" fill-rule="evenodd"/><path stroke="#cc0000" stroke-width="1.0" stroke-linejoin="round" stroke-linecap="butt" d="m198.76378 53.89895l0 18.141731" fill-rule="evenodd"/><path fill="#000000" fill-opacity="0.0" d="m193.20998 53.97638l11.464569 0" fill-rule="evenodd"/><path stroke="#cc0000" stroke-width="1.0" stroke-linejoin="round" stroke-linecap="butt" d="m193.20998 53.97638l11.464569 0" fill-rule="evenodd"/><path fill="#000000" fill-opacity="0.0" d="m193.20998 72.20998l11.464569 0" fill-rule="evenodd"/><path stroke="#cc0000" stroke-width="1.0" stroke-linejoin="round" stroke-linecap="butt" d="m193.20998 72.20998l11.464569 0" fill-rule="evenodd"/><path fill="#cfe2f3" d="m194.64305 63.053806l0 0c0 -2.3743896 1.92482 -4.2992134 4.2992096 -4.2992134l0 0c1.140213 0 2.2337341 0.45295334 3.0399933 1.2592087c0.80625916 0.80625916 1.2592163 1.8997803 1.2592163 3.0400047l0 0c0 2.3743858 -1.92482 4.2992134 -4.2992096 4.2992134l0 0c-2.3743896 0 -4.2992096 -1.9248276 -4.2992096 -4.2992134z" fill-rule="evenodd"/><path stroke="#000000" stroke-width="1.0" stroke-linejoin="round" stroke-linecap="butt" d="m194.64305 63.053806l0 0c0 -2.3743896 1.92482 -4.2992134 4.2992096 -4.2992134l0 0c1.140213 0 2.2337341 0.45295334 3.0399933 1.2592087c0.80625916 0.80625916 1.2592163 1.8997803 1.2592163 3.0400047l0 0c0 2.3743858 -1.92482 4.2992134 -4.2992096 4.2992134l0 0c-2.3743896 0 -4.2992096 -1.9248276 -4.2992096 -4.2992134z" fill-rule="evenodd"/><path fill="#000000" fill-opacity="0.0" d="m244.00787 13.101049l0 99.90551" fill-rule="evenodd"/><path stroke="#b45f06" stroke-width="1.0" stroke-linejoin="round" stroke-linecap="butt" stroke-dasharray="1.0,3.0" d="m244.00787 13.101049l0 99.90551" fill-rule="evenodd"/><path fill="#000000" fill-opacity="0.0" d="m244.00787 23.817585l0 75.90552" fill-rule="evenodd"/><path stroke="#b45f06" stroke-width="1.0" stroke-linejoin="round" stroke-linecap="butt" d="m244.00787 23.817585l0 75.90552" fill-rule="evenodd"/><path fill="#000000" fill-opacity="0.0" d="m244.2336 32.293964l-0.40945435 60.56693" fill-rule="evenodd"/><path stroke="#9900ff" stroke-width="1.0" stroke-linejoin="round" stroke-linecap="butt" d="m244.2336 32.293964l-0.40945435 60.56693" fill-rule="evenodd"/><path fill="#000000" fill-opacity="0.0" d="m238.27559 32.300526l11.464569 0" fill-rule="evenodd"/><path stroke="#9900ff" stroke-width="1.0" stroke-linejoin="round" stroke-linecap="butt" d="m238.27559 32.300526l11.464569 0" fill-rule="evenodd"/><path fill="#000000" fill-opacity="0.0" d="m238.27559 92.444885l11.464569 0" fill-rule="evenodd"/><path stroke="#9900ff" stroke-width="1.0" stroke-linejoin="round" stroke-linecap="butt" d="m238.27559 92.444885l11.464569 0" fill-rule="evenodd"/><path fill="#cfe2f3" d="m239.70866 63.053806l0 0c0 -2.3743896 1.92482 -4.2992134 4.2992096 -4.2992134l0 0c1.1402283 0 2.2337494 0.45295334 3.0400085 1.2592087c0.80625916 0.80625916 1.259201 1.8997803 1.259201 3.0400047l0 0c0 2.3743858 -1.92482 4.2992134 -4.2992096 4.2992134l0 0c-2.3743896 0 -4.2992096 -1.9248276 -4.2992096 -4.2992134z" fill-rule="evenodd"/><path stroke="#000000" stroke-width="1.0" stroke-linejoin="round" stroke-linecap="butt" d="m239.70866 63.053806l0 0c0 -2.3743896 1.92482 -4.2992134 4.2992096 -4.2992134l0 0c1.1402283 0 2.2337494 0.45295334 3.0400085 1.2592087c0.80625916 0.80625916 1.259201 1.8997803 1.259201 3.0400047l0 0c0 2.3743858 -1.92482 4.2992134 -4.2992096 4.2992134l0 0c-2.3743896 0 -4.2992096 -1.9248276 -4.2992096 -4.2992134z" fill-rule="evenodd"/><path fill="#000000" fill-opacity="0.0" d="m147.9685 36.515747l147.9685 0l0 51.716537l-147.9685 0z" fill-rule="evenodd"/><path fill="#000000" d="m218.62346 62.37714l0 -1.34375q0.6875 -0.78125 1.8125 -0.78125q0.390625 0 0.8125 0.109375q0.4375 0.109375 1.234375 0.453125q0.453125 0.203125 0.671875 0.265625q0.21875 0.046875 0.453125 0.046875q0.421875 0 0.875 -0.25q0.453125 -0.25 0.796875 -0.640625l0 1.375q-0.40625 0.390625 -0.84375 0.578125q-0.421875 0.171875 -0.953125 0.171875q-0.390625 0 -0.75 -0.078125q-0.34375 -0.09375 -1.125 -0.4375q-0.765625 -0.359375 -1.28125 -0.359375q-0.421875 0 -0.796875 0.1875q-0.359375 0.171875 -0.90625 0.703125zm0 2.3437538l0 -1.3281288q0.6875 -0.78125 1.8125 -0.78125q0.390625 0 0.8125 0.109375q0.4375 0.109375 1.234375 0.453125q0.453125 0.1875 0.671875 0.25q0.21875 0.0625 0.453125 0.0625q0.421875 0 0.875 -0.25q0.453125 -0.265625 0.796875 -0.640625l0 1.375q-0.40625 0.3906288 -0.84375 0.5781288q-0.421875 0.171875 -0.953125 0.171875q-0.390625 0 -0.75 -0.09375q-0.34375 -0.09375 -1.125 -0.4375q-0.765625 -0.3437538 -1.28125 -0.3437538q-0.421875 0 -0.796875 0.18750381q-0.359375 0.171875 -0.90625 0.6875z" fill-rule="nonzero"/></g></svg>