<svg version="1.1" viewBox="0.0 0.0 586.7112860892388 185.2729658792651" fill="none" stroke="none" stroke-linecap="square" stroke-miterlimit="10" xmlns:xlink="http://www.w3.org/1999/xlink" xmlns="http://www.w3.org/2000/svg"><clipPath id="p.0"><path d="m0 0l586.7113 0l0 185.27296l-586.7113 0l0 -185.27296z" clip-rule="nonzero"/></clipPath><g clip-path="url(#p.0)"><path fill="#000000" fill-opacity="0.0" d="m0 0l586.7113 0l0 185.27296l-586.7113 0z" fill-rule="evenodd"/><path fill="#cfe2f3" d="m261.28192 91.615265l50.299225 0l0 -6.9606247l13.921265 13.921257l-13.921265 13.921257l0 -6.9606247l-50.299225 0z" fill-rule="evenodd"/><path stroke="#000000" stroke-width="1.0" stroke-linejoin="round" stroke-linecap="butt" d="m261.28192 91.615265l50.299225 0l0 -6.9606247l13.921265 13.921257l-13.921265 13.921257l0 -6.9606247l-50.299225 0z" fill-rule="evenodd"/><path fill="#000000" fill-opacity="0.0" d="m11.125984 159.61942l0 -145.22833" fill-rule="evenodd"/><path stroke="#000000" stroke-width="1.0" stroke-linejoin="round" stroke-linecap="butt" d="m11.125984 159.61942l0 -139.22833" fill-rule="evenodd"/><path fill="#000000" stroke="#000000" stroke-width="1.0" stroke-linecap="butt" d="m12.777717 20.391075l-1.6517324 -4.5380964l-1.6517324 4.5380964z" fill-rule="evenodd"/><path fill="#000000" fill-opacity="0.0" d="m11.125984 159.61942l233.95276 0" fill-rule="evenodd"/><path stroke="#000000" stroke-width="1.0" stroke-linejoin="round" stroke-linecap="butt" d="m11.125984 159.61942l227.95276 0" fill-rule="evenodd"/><path fill="#000000" stroke="#000000" stroke-width="1.0" stroke-linecap="butt" d="m239.07874 161.27115l4.538101 -1.6517334l-4.538101 -1.6517181z" fill-rule="evenodd"/><path fill="#ea9999" d="m151.04199 26.706038l11.905518 0l0 132.91338l-11.905518 0z" fill-rule="evenodd"/><path stroke="#000000" stroke-width="1.0" stroke-linejoin="round" stroke-linecap="butt" d="m151.04199 26.706038l11.905518 0l0 132.91338l-11.905518 0z" fill-rule="evenodd"/><path fill="#ea9999" d="m134.27296 62.04462l11.905518 0l0 97.480316l-11.905518 0z" fill-rule="evenodd"/><path stroke="#000000" stroke-width="1.0" stroke-linejoin="round" stroke-linecap="butt" d="m134.27296 62.04462l11.905518 0l0 97.480316l-11.905518 0z" fill-rule="evenodd"/><path fill="#ea9999" d="m33.37664 82.02362l11.905514 0l0 77.5748l-11.905514 0z" fill-rule="evenodd"/><path stroke="#000000" stroke-width="1.0" stroke-linejoin="round" stroke-linecap="butt" d="m33.37664 82.02362l11.905514 0l0 77.5748l-11.905514 0z" fill-rule="evenodd"/><path fill="#ea9999" d="m50.31365 108.94226l11.905514 0l0 50.677155l-11.905514 0z" fill-rule="evenodd"/><path stroke="#000000" stroke-width="1.0" stroke-linejoin="round" stroke-linecap="butt" d="m50.31365 108.94226l11.905514 0l0 50.677155l-11.905514 0z" fill-rule="evenodd"/><path fill="#f4cccc" d="m219.49475 124.72179l11.905518 0l0 34.89763l-11.905518 0z" fill-rule="evenodd"/><path stroke="#000000" stroke-width="1.0" stroke-linejoin="round" stroke-linecap="butt" d="m219.49475 124.72179l11.905518 0l0 34.89763l-11.905518 0z" fill-rule="evenodd"/><path fill="#f4cccc" d="m167.81102 140.8189l11.905518 0l0 18.740158l-11.905518 0z" fill-rule="evenodd"/><path stroke="#000000" stroke-width="1.0" stroke-linejoin="round" stroke-linecap="butt" d="m167.81102 140.8189l11.905518 0l0 18.740158l-11.905518 0z" fill-rule="evenodd"/><path fill="#f4cccc" d="m100.73491 145.50919l11.90551 0l0 14.1102295l-11.90551 0z" fill-rule="evenodd"/><path stroke="#000000" stroke-width="1.0" stroke-linejoin="round" stroke-linecap="butt" d="m100.73491 145.50919l11.90551 0l0 14.1102295l-11.90551 0z" fill-rule="evenodd"/><path fill="#f4cccc" d="m16.439632 145.50919l11.905512 0l0 14.1102295l-11.905512 0z" fill-rule="evenodd"/><path stroke="#000000" stroke-width="1.0" stroke-linejoin="round" stroke-linecap="butt" d="m16.439632 145.50919l11.905512 0l0 14.1102295l-11.905512 0z" fill-rule="evenodd"/><path fill="#f4cccc" d="m83.96588 147.65092l11.90551 0l0 11.968491l-11.90551 0z" fill-rule="evenodd"/><path stroke="#000000" stroke-width="1.0" stroke-linejoin="round" stroke-linecap="butt" d="m83.96588 147.65092l11.90551 0l0 11.968491l-11.90551 0z" fill-rule="evenodd"/><path fill="#000000" fill-opacity="0.0" d="m19.372704 162.7874l221.25986 0l0 8.094498l-221.25986 0z" fill-rule="evenodd"/><path fill="#000000" d="m116.6451 169.18741l0 -4.765625l1.796875 0q0.46875 0 0.71875 0.046875q0.359375 0.0625 0.59375 0.234375q0.234375 0.15625 0.375 0.453125q0.15625 0.296875 0.15625 0.640625q0 0.609375 -0.390625 1.03125q-0.390625 0.421875 -1.40625 0.421875l-1.21875 0l0 1.9375l-0.625 0zm0.625 -2.5l1.234375 0q0.609375 0 0.859375 -0.21875q0.265625 -0.234375 0.265625 -0.640625q0 -0.3125 -0.15625 -0.515625q-0.140625 -0.21875 -0.390625 -0.28125q-0.15625 -0.046875 -0.59375 -0.046875l-1.21875 0l0 1.703125zm5.9865417 2.078125q-0.328125 0.265625 -0.625 0.390625q-0.296875 0.109375 -0.640625 0.109375q-0.578125 0 -0.890625 -0.28125q-0.296875 -0.28125 -0.296875 -0.703125q0 -0.25 0.109375 -0.453125q0.125 -0.21875 0.3125 -0.34375q0.1875 -0.140625 0.421875 -0.203125q0.171875 -0.046875 0.515625 -0.078125q0.71875 -0.09375 1.046875 -0.203125q0 -0.125 0 -0.15625q0 -0.359375 -0.15625 -0.5q-0.234375 -0.203125 -0.671875 -0.203125q-0.40625 0 -0.609375 0.15625q-0.203125 0.140625 -0.296875 0.5l-0.5625 -0.078125q0.078125 -0.359375 0.25 -0.578125q0.1875 -0.234375 0.515625 -0.359375q0.34375 -0.125 0.78125 -0.125q0.453125 0 0.71875 0.109375q0.28125 0.09375 0.40625 0.265625q0.140625 0.15625 0.1875 0.390625q0.03125 0.15625 0.03125 0.546875l0 0.765625q0 0.828125 0.03125 1.046875q0.046875 0.203125 0.15625 0.40625l-0.609375 0q-0.09375 -0.1875 -0.125 -0.421875zm-0.046875 -1.3125q-0.3125 0.125 -0.953125 0.21875q-0.359375 0.0625 -0.515625 0.125q-0.140625 0.0625 -0.234375 0.1875q-0.078125 0.125 -0.078125 0.28125q0 0.234375 0.171875 0.390625q0.1875 0.15625 0.53125 0.15625q0.328125 0 0.59375 -0.140625q0.265625 -0.15625 0.390625 -0.421875q0.09375 -0.1875 0.09375 -0.578125l0 -0.21875zm1.498764 1.734375l0 -3.453125l0.515625 0l0 0.53125q0.203125 -0.375 0.375 -0.484375q0.171875 -0.125 0.375 -0.125q0.296875 0 0.609375 0.1875l-0.203125 0.546875q-0.21875 -0.125 -0.4375 -0.125q-0.1875 0 -0.34375 0.125q-0.140625 0.109375 -0.21875 0.3125q-0.09375 0.3125 -0.09375 0.671875l0 1.8125l-0.578125 0zm3.4978256 -0.515625l0.078125 0.515625q-0.25 0.046875 -0.43749237 0.046875q-0.3125 0 -0.5 -0.09375q-0.171875 -0.109375 -0.25 -0.265625q-0.0625 -0.171875 -0.0625 -0.703125l0 -1.984375l-0.4375 0l0 -0.453125l0.4375 0l0 -0.859375l0.578125 -0.34375l0 1.203125l0.5937424 0l0 0.453125l-0.5937424 0l0 2.015625q0 0.25 0.03125 0.328125q0.03125 0.078125 0.09375 0.125q0.078125 0.03125 0.203125 0.03125q0.10936737 0 0.26561737 -0.015625zm0.56806946 -3.578125l0 -0.671875l0.59375 0l0 0.671875l-0.59375 0zm0 4.09375l0 -3.453125l0.59375 0l0 3.453125l-0.59375 0zm2.7600555 -0.515625l0.078125 0.515625q-0.25 0.046875 -0.4375 0.046875q-0.3125 0 -0.5 -0.09375q-0.171875 -0.109375 -0.25 -0.265625q-0.0625 -0.171875 -0.0625 -0.703125l0 -1.984375l-0.4375 0l0 -0.453125l0.4375 0l0 -0.859375l0.578125 -0.34375l0 1.203125l0.59375 0l0 0.453125l-0.59375 0l0 2.015625q0 0.25 0.03125 0.328125q0.03125 0.078125 0.09375 0.125q0.078125 0.03125 0.203125 0.03125q0.109375 0 0.265625 -0.015625zm0.56806946 -3.578125l0 -0.671875l0.59375 0l0 0.671875l-0.59375 0zm0 4.09375l0 -3.453125l0.59375 0l0 3.453125l-0.59375 0zm1.2600555 -1.71875q0 -0.96875 0.53125 -1.421875q0.453125 -0.390625 1.09375 -0.390625q0.703125 0 1.15625 0.46875q0.453125 0.46875 0.453125 1.28125q0 0.671875 -0.203125 1.0625q-0.1875 0.375 -0.578125 0.59375q-0.375 0.203125 -0.828125 0.203125q-0.734375 0 -1.1875 -0.453125q-0.4375 -0.46875 -0.4375 -1.34375zm0.609375 0q0 0.65625 0.28125 0.984375q0.296875 0.328125 0.734375 0.328125q0.4375 0 0.71875 -0.328125q0.296875 -0.328125 0.296875 -1.015625q0 -0.640625 -0.296875 -0.96875q-0.296875 -0.328125 -0.71875 -0.328125q-0.4375 0 -0.734375 0.328125q-0.28125 0.328125 -0.28125 1.0zm3.311264 1.71875l0 -3.453125l0.53125 0l0 0.5q0.375 -0.578125 1.09375 -0.578125q0.3125 0 0.578125 0.109375q0.265625 0.109375 0.390625 0.296875q0.125 0.1875 0.1875 0.4375q0.03125 0.15625 0.03125 0.5625l0 2.125l-0.59375 0l0 -2.09375q0 -0.359375 -0.078125 -0.53125q-0.0625 -0.1875 -0.234375 -0.28125q-0.171875 -0.109375 -0.40625 -0.109375q-0.375 0 -0.640625 0.234375q-0.265625 0.234375 -0.265625 0.890625l0 1.890625l-0.59375 0zm3.467514 -1.03125l0.578125 -0.09375q0.046875 0.34375 0.265625 0.53125q0.234375 0.1875 0.625 0.1875q0.40625 0 0.59375 -0.15625q0.203125 -0.171875 0.203125 -0.390625q0 -0.203125 -0.171875 -0.3125q-0.125 -0.078125 -0.59375 -0.203125q-0.640625 -0.15625 -0.890625 -0.265625q-0.25 -0.125 -0.390625 -0.328125q-0.125 -0.21875 -0.125 -0.46875q0 -0.234375 0.109375 -0.421875q0.109375 -0.203125 0.296875 -0.34375q0.125 -0.09375 0.359375 -0.15625q0.234375 -0.078125 0.515625 -0.078125q0.40625 0 0.703125 0.125q0.3125 0.109375 0.453125 0.3125q0.15625 0.203125 0.203125 0.53125l-0.5625 0.078125q-0.046875 -0.265625 -0.234375 -0.40625q-0.1875 -0.15625 -0.53125 -0.15625q-0.390625 0 -0.5625 0.140625q-0.171875 0.125 -0.171875 0.296875q0 0.125 0.0625 0.203125q0.078125 0.109375 0.21875 0.15625q0.09375 0.046875 0.53125 0.15625q0.609375 0.171875 0.859375 0.28125q0.25 0.09375 0.390625 0.296875q0.140625 0.203125 0.140625 0.5q0 0.296875 -0.171875 0.5625q-0.171875 0.25 -0.5 0.390625q-0.3125 0.140625 -0.71875 0.140625q-0.6875 0 -1.046875 -0.28125q-0.34375 -0.28125 -0.4375 -0.828125z" fill-rule="nonzero"/><path fill="#000000" fill-opacity="0.0" d="m0.32020998 119.96588l0 -65.921265l8.094488 0l0 65.921265z" fill-rule="evenodd"/><path fill="#000000" d="m6.7202096 112.96124l-4.765625 0l0 -0.65625l3.734375 -2.5l-3.734375 0l0 -0.609375l4.765625 0l0 0.65625l-3.75 2.5l3.75 0l0 0.609375zm0 -7.0100555l-0.5 0q0.578125 0.40625 0.578125 1.09375q0 0.3125 -0.109375 0.578125q-0.125 0.265625 -0.296875 0.390625q-0.1875 0.125 -0.4375 0.171875q-0.171875 0.046875 -0.546875 0.046875l-2.140625 0l0 -0.59375l1.921875 0q0.453125 0 0.609375 -0.03125q0.234375 -0.0625 0.375 -0.234375q0.125 -0.171875 0.125 -0.4375q0 -0.265625 -0.140625 -0.5q-0.140625 -0.234375 -0.359375 -0.328125q-0.234375 -0.09375 -0.6875 -0.09375l-1.84375 0l0 -0.578125l3.453125 0l0 0.515625zm0 -1.436264l-3.453125 0l0 -0.53125l0.484375 0q-0.25 -0.15625 -0.40625 -0.421875q-0.15625 -0.28125 -0.15625 -0.625q0 -0.375 0.15625 -0.625q0.15625 -0.25 0.453125 -0.34375q-0.609375 -0.40625 -0.609375 -1.0625q0 -0.515625 0.296875 -0.78125q0.28125 -0.28125 0.859375 -0.28125l2.375 0l0 0.578125l-2.171875 0q-0.359375 0 -0.5 0.0625q-0.15625 0.046875 -0.25 0.203125q-0.09375 0.140625 -0.09375 0.34375q0 0.359375 0.25 0.609375q0.234375 0.234375 0.765625 0.234375l2.0 0l0 0.59375l-2.25 0q-0.375 0 -0.5625 0.140625q-0.203125 0.140625 -0.203125 0.46875q0 0.25 0.125 0.453125q0.125 0.203125 0.375 0.296875q0.25 0.09375 0.71875 0.09375l1.796875 0l0 0.59375zm0 -6.0915833l0 0.546875l-4.765625 0l0 -0.578125l1.703125 0q-0.46875 -0.375 -0.46875 -0.953125q0 -0.3125 0.140625 -0.59375q0.125 -0.296875 0.359375 -0.46875q0.21875 -0.1875 0.546875 -0.28125q0.328125 -0.109375 0.703125 -0.109375q0.890625 0 1.375 0.4375q0.484375 0.4375 0.484375 1.046875q0 0.609375 -0.515625 0.953125l0.4375 0zm-1.75 0.015625q0.625 0 0.890625 -0.171875q0.453125 -0.28125 0.453125 -0.75q0 -0.375 -0.328125 -0.65625q-0.328125 -0.28125 -1.0 -0.28125q-0.671875 0 -0.984375 0.265625q-0.328125 0.265625 -0.328125 0.640625q0 0.390625 0.34375 0.671875q0.328125 0.28125 0.953125 0.28125zm0.640625 -5.530014l0.078125 -0.609375q0.53125 0.140625 0.828125 0.53125q0.28125 0.390625 0.28125 0.984375q0 0.765625 -0.46875 1.203125q-0.46875 0.4375 -1.3125 0.4375q-0.859375 0 -1.34375 -0.4375q-0.484375 -0.453125 -0.484375 -1.171875q0 -0.6875 0.46875 -1.125q0.46875 -0.4375 1.328125 -0.4375q0.046875 0 0.15625 0l0 2.578125q0.578125 -0.03125 0.875 -0.3125q0.296875 -0.296875 0.296875 -0.734375q0 -0.328125 -0.15625 -0.546875q-0.171875 -0.234375 -0.546875 -0.359375zm-0.953125 1.921875l0 -1.9375q-0.4375 0.046875 -0.640625 0.21875q-0.34375 0.28125 -0.34375 0.734375q0 0.40625 0.265625 0.6875q0.265625 0.265625 0.71875 0.296875zm2.0625 -3.264389l-3.453125 0l0 -0.515625l0.53125 0q-0.375 -0.203125 -0.484375 -0.375q-0.125 -0.171875 -0.125 -0.375q0 -0.296875 0.1875 -0.609375l0.546875 0.203125q-0.125 0.21875 -0.125 0.4375q0 0.1875 0.125 0.34375q0.109375 0.140625 0.3125 0.21875q0.3125 0.09375 0.671875 0.09375l1.8125 0l0 0.578125zm-1.71875 -3.8471527q-0.96875 0 -1.421875 -0.53125q-0.390625 -0.453125 -0.390625 -1.09375q0 -0.703125 0.46875 -1.15625q0.46875 -0.453125 1.28125 -0.453125q0.671875 0 1.0625 0.203125q0.375 0.1875 0.59375 0.578125q0.203125 0.375 0.203125 0.828125q0 0.734375 -0.453125 1.1875q-0.46875 0.4375 -1.34375 0.4375zm0 -0.609375q0.65625 0 0.984375 -0.28125q0.328125 -0.296875 0.328125 -0.734375q0 -0.4375 -0.328125 -0.71875q-0.328125 -0.296875 -1.015625 -0.296875q-0.640625 0 -0.96875 0.296875q-0.328125 0.296875 -0.328125 0.71875q0 0.4375 0.328125 0.734375q0.328125 0.28125 1.0 0.28125zm1.71875 -3.451889l-3.0 0l0 0.515625l-0.453125 0l0 -0.515625l-0.359375 0q-0.359375 0 -0.515625 -0.0625q-0.234375 -0.078125 -0.375 -0.296875q-0.140625 -0.21875 -0.140625 -0.59375q0 -0.25 0.0625 -0.546875l0.5 0.078125q-0.03125 0.1875 -0.03125 0.359375q0 0.265625 0.125 0.375q0.109375 0.109375 0.421875 0.109375l0.3125 0l0 -0.671875l0.453125 0l0 0.671875l3.0 0l0 0.578125zm1.3281245 -3.558014l-4.7812495 0l0 -0.53125l0.453125 0q-0.265625 -0.1875 -0.390625 -0.421875q-0.140625 -0.25 -0.140625 -0.578125q0 -0.453125 0.234375 -0.78125q0.21875 -0.34375 0.640625 -0.515625q0.40625 -0.171875 0.90625 -0.171875q0.53125 0 0.953125 0.1875q0.421875 0.1875 0.65625 0.5625q0.21875 0.359375 0.21875 0.75q0 0.296875 -0.125 0.53125q-0.125 0.234375 -0.3125 0.375l1.6874995 0l0 0.59375zm-3.0312495 -0.53125q0.65625 0 0.984375 -0.265625q0.3125 -0.28125 0.3125 -0.65625q0 -0.390625 -0.328125 -0.671875q-0.328125 -0.28125 -1.015625 -0.28125q-0.671875 0 -1.0 0.28125q-0.328125 0.265625 -0.328125 0.640625q0 0.375 0.359375 0.671875q0.34375 0.28125 1.015625 0.28125zm0.59375 -5.530014l0.078125 -0.609375q0.53125 0.140625 0.828125 0.53125q0.28125 0.390625 0.28125 0.984375q0 0.765625 -0.46875 1.203125q-0.46875 0.4375 -1.3125 0.4375q-0.859375 0 -1.34375 -0.4375q-0.484375 -0.453125 -0.484375 -1.171875q0 -0.6875 0.46875 -1.125q0.46875 -0.4375 1.328125 -0.4375q0.046875 0 0.15625 0l0 2.578125q0.578125 -0.03125 0.875 -0.3125q0.296875 -0.296875 0.296875 -0.734375q0 -0.328125 -0.15625 -0.546875q-0.171875 -0.234375 -0.546875 -0.359375zm-0.953125 1.921875l0 -1.9375q-0.4375 0.046875 -0.640625 0.21875q-0.34375 0.28125 -0.34375 0.734375q0 0.40625 0.265625 0.6875q0.265625 0.265625 0.71875 0.296875zm0.34375 -3.045639q-0.96875 0 -1.421875 -0.53125q-0.390625 -0.453125 -0.390625 -1.09375q0 -0.703125 0.46875 -1.15625q0.46875 -0.453125 1.28125 -0.453125q0.671875 0 1.0625 0.203125q0.375 0.1875 0.59375 0.578125q0.203125 0.375 0.203125 0.828125q0 0.734375 -0.453125 1.1875q-0.46875 0.4375 -1.34375 0.4375zm0 -0.609375q0.65625 0 0.984375 -0.28125q0.328125 -0.296875 0.328125 -0.734375q0 -0.4375 -0.328125 -0.71875q-0.328125 -0.296875 -1.015625 -0.296875q-0.640625 0 -0.96875 0.296875q-0.328125 0.296875 -0.328125 0.71875q0 0.4375 0.328125 0.734375q0.328125 0.28125 1.0 0.28125zm3.0468745 -3.311264l-4.7812495 0l0 -0.53125l0.453125 0q-0.265625 -0.1875 -0.390625 -0.421875q-0.140625 -0.25 -0.140625 -0.578125q0 -0.453125 0.234375 -0.78125q0.21875 -0.34375 0.640625 -0.515625q0.40625 -0.171875 0.90625 -0.171875q0.53125 0 0.953125 0.1875q0.421875 0.1875 0.65625 0.5625q0.21875 0.359375 0.21875 0.75q0 0.296875 -0.125 0.53125q-0.125 0.234375 -0.3125 0.375l1.6874995 0l0 0.59375zm-3.0312495 -0.53125q0.65625 0 0.984375 -0.265625q0.3125 -0.28125 0.3125 -0.65625q0 -0.390625 -0.328125 -0.671875q-0.328125 -0.28125 -1.015625 -0.28125q-0.671875 0 -1.0 0.28125q-0.328125 0.265625 -0.328125 0.640625q0 0.375 0.359375 0.671875q0.34375 0.28125 1.015625 0.28125zm1.703125 -3.155014l-4.765625 0l0 -0.59375l4.765625 0l0 0.59375zm-1.109375 -3.8538055l0.078125 -0.609375q0.53125 0.140625 0.828125 0.53125q0.28125 0.390625 0.28125 0.984375q0 0.765625 -0.46875 1.203125q-0.46875 0.4375 -1.3125 0.4375q-0.859375 0 -1.34375 -0.4375q-0.484375 -0.453125 -0.484375 -1.171875q0 -0.6875 0.46875 -1.125q0.46875 -0.4375 1.328125 -0.4375q0.046875 0 0.15625 0l0 2.578125q0.578125 -0.03125 0.875 -0.3125q0.296875 -0.296875 0.296875 -0.734375q0 -0.328125 -0.15625 -0.546875q-0.171875 -0.234375 -0.546875 -0.359375zm-0.953125 1.921875l0 -1.9375q-0.4375 0.046875 -0.640625 0.21875q-0.34375 0.28125 -0.34375 0.734375q0 0.40625 0.265625 0.6875q0.265625 0.265625 0.71875 0.296875z" fill-rule="nonzero"/><path fill="#000000" fill-opacity="0.0" d="m349.26248 159.61942l0 -145.22833" fill-rule="evenodd"/><path stroke="#000000" stroke-width="1.0" stroke-linejoin="round" stroke-linecap="butt" d="m349.26248 159.61942l0 -139.22833" fill-rule="evenodd"/><path fill="#000000" stroke="#000000" stroke-width="1.0" stroke-linecap="butt" d="m350.91418 20.391075l-1.6517029 -4.5380964l-1.6517334 4.5380964z" fill-rule="evenodd"/><path fill="#000000" fill-opacity="0.0" d="m349.26248 159.61942l233.95273 0" fill-rule="evenodd"/><path stroke="#000000" stroke-width="1.0" stroke-linejoin="round" stroke-linecap="butt" d="m349.26248 159.61942l227.95273 0" fill-rule="evenodd"/><path fill="#000000" stroke="#000000" stroke-width="1.0" stroke-linecap="butt" d="m577.2152 161.27115l4.538086 -1.6517334l-4.538086 -1.6517181z" fill-rule="evenodd"/><path fill="#000000" fill-opacity="0.0" d="m357.5092 162.7874l221.25986 0l0 8.094498l-221.25986 0z" fill-rule="evenodd"/><path fill="#000000" d="m454.7816 169.18741l0 -4.765625l1.796875 0q0.46875 0 0.71875 0.046875q0.359375 0.0625 0.59375 0.234375q0.234375 0.15625 0.375 0.453125q0.15625 0.296875 0.15625 0.640625q0 0.609375 -0.390625 1.03125q-0.390625 0.421875 -1.40625 0.421875l-1.21875 0l0 1.9375l-0.625 0zm0.625 -2.5l1.234375 0q0.609375 0 0.859375 -0.21875q0.265625 -0.234375 0.265625 -0.640625q0 -0.3125 -0.15625 -0.515625q-0.140625 -0.21875 -0.390625 -0.28125q-0.15625 -0.046875 -0.59375 -0.046875l-1.21875 0l0 1.703125zm5.9865417 2.078125q-0.328125 0.265625 -0.625 0.390625q-0.296875 0.109375 -0.640625 0.109375q-0.578125 0 -0.890625 -0.28125q-0.296875 -0.28125 -0.296875 -0.703125q0 -0.25 0.109375 -0.453125q0.125 -0.21875 0.3125 -0.34375q0.1875 -0.140625 0.421875 -0.203125q0.171875 -0.046875 0.515625 -0.078125q0.71875 -0.09375 1.046875 -0.203125q0 -0.125 0 -0.15625q0 -0.359375 -0.15625 -0.5q-0.234375 -0.203125 -0.671875 -0.203125q-0.40625 0 -0.609375 0.15625q-0.203125 0.140625 -0.296875 0.5l-0.5625 -0.078125q0.078125 -0.359375 0.25 -0.578125q0.1875 -0.234375 0.515625 -0.359375q0.34375 -0.125 0.78125 -0.125q0.453125 0 0.71875 0.109375q0.28125 0.09375 0.40625 0.265625q0.140625 0.15625 0.1875 0.390625q0.03125 0.15625 0.03125 0.546875l0 0.765625q0 0.828125 0.03125 1.046875q0.046875 0.203125 0.15625 0.40625l-0.609375 0q-0.09375 -0.1875 -0.125 -0.421875zm-0.046875 -1.3125q-0.3125 0.125 -0.953125 0.21875q-0.359375 0.0625 -0.515625 0.125q-0.140625 0.0625 -0.234375 0.1875q-0.078125 0.125 -0.078125 0.28125q0 0.234375 0.171875 0.390625q0.1875 0.15625 0.53125 0.15625q0.328125 0 0.59375 -0.140625q0.265625 -0.15625 0.390625 -0.421875q0.09375 -0.1875 0.09375 -0.578125l0 -0.21875zm1.4987793 1.734375l0 -3.453125l0.515625 0l0 0.53125q0.203125 -0.375 0.375 -0.484375q0.171875 -0.125 0.375 -0.125q0.296875 0 0.609375 0.1875l-0.203125 0.546875q-0.21875 -0.125 -0.4375 -0.125q-0.1875 0 -0.34375 0.125q-0.140625 0.109375 -0.21875 0.3125q-0.09375 0.3125 -0.09375 0.671875l0 1.8125l-0.578125 0zm3.4978333 -0.515625l0.078125 0.515625q-0.25 0.046875 -0.4375 0.046875q-0.3125 0 -0.5 -0.09375q-0.171875 -0.109375 -0.25 -0.265625q-0.0625 -0.171875 -0.0625 -0.703125l0 -1.984375l-0.4375 0l0 -0.453125l0.4375 0l0 -0.859375l0.578125 -0.34375l0 1.203125l0.59375 0l0 0.453125l-0.59375 0l0 2.015625q0 0.25 0.03125 0.328125q0.03125 0.078125 0.09375 0.125q0.078125 0.03125 0.203125 0.03125q0.109375 0 0.265625 -0.015625zm0.5680542 -3.578125l0 -0.671875l0.59375 0l0 0.671875l-0.59375 0zm0 4.09375l0 -3.453125l0.59375 0l0 3.453125l-0.59375 0zm2.7600708 -0.515625l0.078125 0.515625q-0.25 0.046875 -0.4375 0.046875q-0.3125 0 -0.5 -0.09375q-0.171875 -0.109375 -0.25 -0.265625q-0.0625 -0.171875 -0.0625 -0.703125l0 -1.984375l-0.4375 0l0 -0.453125l0.4375 0l0 -0.859375l0.578125 -0.34375l0 1.203125l0.59375 0l0 0.453125l-0.59375 0l0 2.015625q0 0.25 0.03125 0.328125q0.03125 0.078125 0.09375 0.125q0.078125 0.03125 0.203125 0.03125q0.109375 0 0.265625 -0.015625zm0.5680542 -3.578125l0 -0.671875l0.59375 0l0 0.671875l-0.59375 0zm0 4.09375l0 -3.453125l0.59375 0l0 3.453125l-0.59375 0zm1.2600708 -1.71875q0 -0.96875 0.53125 -1.421875q0.453125 -0.390625 1.09375 -0.390625q0.703125 0 1.15625 0.46875q0.453125 0.46875 0.453125 1.28125q0 0.671875 -0.203125 1.0625q-0.1875 0.375 -0.578125 0.59375q-0.375 0.203125 -0.828125 0.203125q-0.734375 0 -1.1875 -0.453125q-0.4375 -0.46875 -0.4375 -1.34375zm0.609375 0q0 0.65625 0.28125 0.984375q0.296875 0.328125 0.734375 0.328125q0.4375 0 0.71875 -0.328125q0.296875 -0.328125 0.296875 -1.015625q0 -0.640625 -0.296875 -0.96875q-0.296875 -0.328125 -0.71875 -0.328125q-0.4375 0 -0.734375 0.328125q-0.28125 0.328125 -0.28125 1.0zm3.3112488 1.71875l0 -3.453125l0.53125 0l0 0.5q0.375 -0.578125 1.09375 -0.578125q0.3125 0 0.578125 0.109375q0.265625 0.109375 0.390625 0.296875q0.125 0.1875 0.1875 0.4375q0.03125 0.15625 0.03125 0.5625l0 2.125l-0.59375 0l0 -2.09375q0 -0.359375 -0.078125 -0.53125q-0.0625 -0.1875 -0.234375 -0.28125q-0.171875 -0.109375 -0.40625 -0.109375q-0.375 0 -0.640625 0.234375q-0.265625 0.234375 -0.265625 0.890625l0 1.890625l-0.59375 0zm3.4675293 -1.03125l0.578125 -0.09375q0.046875 0.34375 0.265625 0.53125q0.234375 0.1875 0.625 0.1875q0.40625 0 0.59375 -0.15625q0.203125 -0.171875 0.203125 -0.390625q0 -0.203125 -0.171875 -0.3125q-0.125 -0.078125 -0.59375 -0.203125q-0.640625 -0.15625 -0.890625 -0.265625q-0.25 -0.125 -0.390625 -0.328125q-0.125 -0.21875 -0.125 -0.46875q0 -0.234375 0.109375 -0.421875q0.109375 -0.203125 0.296875 -0.34375q0.125 -0.09375 0.359375 -0.15625q0.234375 -0.078125 0.515625 -0.078125q0.40625 0 0.703125 0.125q0.3125 0.109375 0.453125 0.3125q0.15625 0.203125 0.203125 0.53125l-0.5625 0.078125q-0.046875 -0.265625 -0.234375 -0.40625q-0.1875 -0.15625 -0.53125 -0.15625q-0.390625 0 -0.5625 0.140625q-0.171875 0.125 -0.171875 0.296875q0 0.125 0.0625 0.203125q0.078125 0.109375 0.21875 0.15625q0.09375 0.046875 0.53125 0.15625q0.609375 0.171875 0.859375 0.28125q0.25 0.09375 0.390625 0.296875q0.140625 0.203125 0.140625 0.5q0 0.296875 -0.171875 0.5625q-0.171875 0.25 -0.5 0.390625q-0.3125 0.140625 -0.71875 0.140625q-0.6875 0 -1.046875 -0.28125q-0.34375 -0.28125 -0.4375 -0.828125z" fill-rule="nonzero"/><path fill="#000000" fill-opacity="0.0" d="m338.4567 119.96588l0 -65.921265l8.094482 0l0 65.921265z" fill-rule="evenodd"/><path fill="#000000" d="m344.8567 112.96124l-4.765625 0l0 -0.65625l3.734375 -2.5l-3.734375 0l0 -0.609375l4.765625 0l0 0.65625l-3.75 2.5l3.75 0l0 0.609375zm0 -7.0100555l-0.5 0q0.578125 0.40625 0.578125 1.09375q0 0.3125 -0.109375 0.578125q-0.125 0.265625 -0.296875 0.390625q-0.1875 0.125 -0.4375 0.171875q-0.171875 0.046875 -0.546875 0.046875l-2.140625 0l0 -0.59375l1.921875 0q0.453125 0 0.609375 -0.03125q0.234375 -0.0625 0.375 -0.234375q0.125 -0.171875 0.125 -0.4375q0 -0.265625 -0.140625 -0.5q-0.140625 -0.234375 -0.359375 -0.328125q-0.234375 -0.09375 -0.6875 -0.09375l-1.84375 0l0 -0.578125l3.453125 0l0 0.515625zm0 -1.436264l-3.453125 0l0 -0.53125l0.484375 0q-0.25 -0.15625 -0.40625 -0.421875q-0.15625 -0.28125 -0.15625 -0.625q0 -0.375 0.15625 -0.625q0.15625 -0.25 0.453125 -0.34375q-0.609375 -0.40625 -0.609375 -1.0625q0 -0.515625 0.296875 -0.78125q0.28125 -0.28125 0.859375 -0.28125l2.375 0l0 0.578125l-2.171875 0q-0.359375 0 -0.5 0.0625q-0.15625 0.046875 -0.25 0.203125q-0.09375 0.140625 -0.09375 0.34375q0 0.359375 0.25 0.609375q0.234375 0.234375 0.765625 0.234375l2.0 0l0 0.59375l-2.25 0q-0.375 0 -0.5625 0.140625q-0.203125 0.140625 -0.203125 0.46875q0 0.25 0.125 0.453125q0.125 0.203125 0.375 0.296875q0.25 0.09375 0.71875 0.09375l1.796875 0l0 0.59375zm0 -6.0915833l0 0.546875l-4.765625 0l0 -0.578125l1.703125 0q-0.46875 -0.375 -0.46875 -0.953125q0 -0.3125 0.140625 -0.59375q0.125 -0.296875 0.359375 -0.46875q0.21875 -0.1875 0.546875 -0.28125q0.328125 -0.109375 0.703125 -0.109375q0.890625 0 1.375 0.4375q0.484375 0.4375 0.484375 1.046875q0 0.609375 -0.515625 0.953125l0.4375 0zm-1.75 0.015625q0.625 0 0.890625 -0.171875q0.453125 -0.28125 0.453125 -0.75q0 -0.375 -0.328125 -0.65625q-0.328125 -0.28125 -1.0 -0.28125q-0.671875 0 -0.984375 0.265625q-0.328125 0.265625 -0.328125 0.640625q0 0.390625 0.34375 0.671875q0.328125 0.28125 0.953125 0.28125zm0.640625 -5.530014l0.078125 -0.609375q0.53125 0.140625 0.828125 0.53125q0.28125 0.390625 0.28125 0.984375q0 0.765625 -0.46875 1.203125q-0.46875 0.4375 -1.3125 0.4375q-0.859375 0 -1.34375 -0.4375q-0.484375 -0.453125 -0.484375 -1.171875q0 -0.6875 0.46875 -1.125q0.46875 -0.4375 1.328125 -0.4375q0.046875 0 0.15625 0l0 2.578125q0.578125 -0.03125 0.875 -0.3125q0.296875 -0.296875 0.296875 -0.734375q0 -0.328125 -0.15625 -0.546875q-0.171875 -0.234375 -0.546875 -0.359375zm-0.953125 1.921875l0 -1.9375q-0.4375 0.046875 -0.640625 0.21875q-0.34375 0.28125 -0.34375 0.734375q0 0.40625 0.265625 0.6875q0.265625 0.265625 0.71875 0.296875zm2.0625 -3.264389l-3.453125 0l0 -0.515625l0.53125 0q-0.375 -0.203125 -0.484375 -0.375q-0.125 -0.171875 -0.125 -0.375q0 -0.296875 0.1875 -0.609375l0.546875 0.203125q-0.125 0.21875 -0.125 0.4375q0 0.1875 0.125 0.34375q0.109375 0.140625 0.3125 0.21875q0.3125 0.09375 0.671875 0.09375l1.8125 0l0 0.578125zm-1.71875 -3.8471527q-0.96875 0 -1.421875 -0.53125q-0.390625 -0.453125 -0.390625 -1.09375q0 -0.703125 0.46875 -1.15625q0.46875 -0.453125 1.28125 -0.453125q0.671875 0 1.0625 0.203125q0.375 0.1875 0.59375 0.578125q0.203125 0.375 0.203125 0.828125q0 0.734375 -0.453125 1.1875q-0.46875 0.4375 -1.34375 0.4375zm0 -0.609375q0.65625 0 0.984375 -0.28125q0.328125 -0.296875 0.328125 -0.734375q0 -0.4375 -0.328125 -0.71875q-0.328125 -0.296875 -1.015625 -0.296875q-0.640625 0 -0.96875 0.296875q-0.328125 0.296875 -0.328125 0.71875q0 0.4375 0.328125 0.734375q0.328125 0.28125 1.0 0.28125zm1.71875 -3.451889l-3.0 0l0 0.515625l-0.453125 0l0 -0.515625l-0.359375 0q-0.359375 0 -0.515625 -0.0625q-0.234375 -0.078125 -0.375 -0.296875q-0.140625 -0.21875 -0.140625 -0.59375q0 -0.25 0.0625 -0.546875l0.5 0.078125q-0.03125 0.1875 -0.03125 0.359375q0 0.265625 0.125 0.375q0.109375 0.109375 0.421875 0.109375l0.3125 0l0 -0.671875l0.453125 0l0 0.671875l3.0 0l0 0.578125zm1.328125 -3.558014l-4.78125 0l0 -0.53125l0.453125 0q-0.265625 -0.1875 -0.390625 -0.421875q-0.140625 -0.25 -0.140625 -0.578125q0 -0.453125 0.234375 -0.78125q0.21875 -0.34375 0.640625 -0.515625q0.40625 -0.171875 0.90625 -0.171875q0.53125 0 0.953125 0.1875q0.421875 0.1875 0.65625 0.5625q0.21875 0.359375 0.21875 0.75q0 0.296875 -0.125 0.53125q-0.125 0.234375 -0.3125 0.375l1.6875 0l0 0.59375zm-3.03125 -0.53125q0.65625 0 0.984375 -0.265625q0.3125 -0.28125 0.3125 -0.65625q0 -0.390625 -0.328125 -0.671875q-0.328125 -0.28125 -1.015625 -0.28125q-0.671875 0 -1.0 0.28125q-0.328125 0.265625 -0.328125 0.640625q0 0.375 0.359375 0.671875q0.34375 0.28125 1.015625 0.28125zm0.59375 -5.530014l0.078125 -0.609375q0.53125 0.140625 0.828125 0.53125q0.28125 0.390625 0.28125 0.984375q0 0.765625 -0.46875 1.203125q-0.46875 0.4375 -1.3125 0.4375q-0.859375 0 -1.34375 -0.4375q-0.484375 -0.453125 -0.484375 -1.171875q0 -0.6875 0.46875 -1.125q0.46875 -0.4375 1.328125 -0.4375q0.046875 0 0.15625 0l0 2.578125q0.578125 -0.03125 0.875 -0.3125q0.296875 -0.296875 0.296875 -0.734375q0 -0.328125 -0.15625 -0.546875q-0.171875 -0.234375 -0.546875 -0.359375zm-0.953125 1.921875l0 -1.9375q-0.4375 0.046875 -0.640625 0.21875q-0.34375 0.28125 -0.34375 0.734375q0 0.40625 0.265625 0.6875q0.265625 0.265625 0.71875 0.296875zm0.34375 -3.045639q-0.96875 0 -1.421875 -0.53125q-0.390625 -0.453125 -0.390625 -1.09375q0 -0.703125 0.46875 -1.15625q0.46875 -0.453125 1.28125 -0.453125q0.671875 0 1.0625 0.203125q0.375 0.1875 0.59375 0.578125q0.203125 0.375 0.203125 0.828125q0 0.734375 -0.453125 1.1875q-0.46875 0.4375 -1.34375 0.4375zm0 -0.609375q0.65625 0 0.984375 -0.28125q0.328125 -0.296875 0.328125 -0.734375q0 -0.4375 -0.328125 -0.71875q-0.328125 -0.296875 -1.015625 -0.296875q-0.640625 0 -0.96875 0.296875q-0.328125 0.296875 -0.328125 0.71875q0 0.4375 0.328125 0.734375q0.328125 0.28125 1.0 0.28125zm3.046875 -3.311264l-4.78125 0l0 -0.53125l0.453125 0q-0.265625 -0.1875 -0.390625 -0.421875q-0.140625 -0.25 -0.140625 -0.578125q0 -0.453125 0.234375 -0.78125q0.21875 -0.34375 0.640625 -0.515625q0.40625 -0.171875 0.90625 -0.171875q0.53125 0 0.953125 0.1875q0.421875 0.1875 0.65625 0.5625q0.21875 0.359375 0.21875 0.75q0 0.296875 -0.125 0.53125q-0.125 0.234375 -0.3125 0.375l1.6875 0l0 0.59375zm-3.03125 -0.53125q0.65625 0 0.984375 -0.265625q0.3125 -0.28125 0.3125 -0.65625q0 -0.390625 -0.328125 -0.671875q-0.328125 -0.28125 -1.015625 -0.28125q-0.671875 0 -1.0 0.28125q-0.328125 0.265625 -0.328125 0.640625q0 0.375 0.359375 0.671875q0.34375 0.28125 1.015625 0.28125zm1.703125 -3.155014l-4.765625 0l0 -0.59375l4.765625 0l0 0.59375zm-1.109375 -3.8538055l0.078125 -0.609375q0.53125 0.140625 0.828125 0.53125q0.28125 0.390625 0.28125 0.984375q0 0.765625 -0.46875 1.203125q-0.46875 0.4375 -1.3125 0.4375q-0.859375 0 -1.34375 -0.4375q-0.484375 -0.453125 -0.484375 -1.171875q0 -0.6875 0.46875 -1.125q0.46875 -0.4375 1.328125 -0.4375q0.046875 0 0.15625 0l0 2.578125q0.578125 -0.03125 0.875 -0.3125q0.296875 -0.296875 0.296875 -0.734375q0 -0.328125 -0.15625 -0.546875q-0.171875 -0.234375 -0.546875 -0.359375zm-0.953125 1.921875l0 -1.9375q-0.4375 0.046875 -0.640625 0.21875q-0.34375 0.28125 -0.34375 0.734375q0 0.40625 0.265625 0.6875q0.265625 0.265625 0.71875 0.296875z" fill-rule="nonzero"/><path fill="#b6d7a8" d="m489.6273 26.706038l11.905518 0l0 132.91338l-11.905518 0z" fill-rule="evenodd"/><path stroke="#000000" stroke-width="1.0" stroke-linejoin="round" stroke-linecap="butt" d="m489.6273 26.706038l11.905518 0l0 132.91338l-11.905518 0z" fill-rule="evenodd"/><path fill="#b6d7a8" d="m472.85828 62.04462l11.905518 0l0 97.480316l-11.905518 0z" fill-rule="evenodd"/><path stroke="#000000" stroke-width="1.0" stroke-linejoin="round" stroke-linecap="butt" d="m472.85828 62.04462l11.905518 0l0 97.480316l-11.905518 0z" fill-rule="evenodd"/><path fill="#b6d7a8" d="m371.96194 82.04462l11.905518 0l0 77.5748l-11.905518 0z" fill-rule="evenodd"/><path stroke="#000000" stroke-width="1.0" stroke-linejoin="round" stroke-linecap="butt" d="m371.96194 82.04462l11.905518 0l0 77.5748l-11.905518 0z" fill-rule="evenodd"/><path fill="#b6d7a8" d="m388.89896 108.94226l11.905518 0l0 50.677155l-11.905518 0z" fill-rule="evenodd"/><path stroke="#000000" stroke-width="1.0" stroke-linejoin="round" stroke-linecap="butt" d="m388.89896 108.94226l11.905518 0l0 50.677155l-11.905518 0z" fill-rule="evenodd"/><path fill="#b6d7a8" d="m558.0801 124.72179l11.905457 0l0 34.89763l-11.905457 0z" fill-rule="evenodd"/><path stroke="#000000" stroke-width="1.0" stroke-linejoin="round" stroke-linecap="butt" d="m558.0801 124.72179l11.905457 0l0 34.89763l-11.905457 0z" fill-rule="evenodd"/><path fill="#b6d7a8" d="m506.39633 140.8189l11.905487 0l0 18.740158l-11.905487 0z" fill-rule="evenodd"/><path stroke="#000000" stroke-width="1.0" stroke-linejoin="round" stroke-linecap="butt" d="m506.39633 140.8189l11.905487 0l0 18.740158l-11.905487 0z" fill-rule="evenodd"/><path fill="#b6d7a8" d="m439.32022 145.50919l11.905487 0l0 14.1102295l-11.905487 0z" fill-rule="evenodd"/><path stroke="#000000" stroke-width="1.0" stroke-linejoin="round" stroke-linecap="butt" d="m439.32022 145.50919l11.905487 0l0 14.1102295l-11.905487 0z" fill-rule="evenodd"/><path fill="#b6d7a8" d="m355.02493 145.50919l11.905518 0l0 14.1102295l-11.905518 0z" fill-rule="evenodd"/><path stroke="#000000" stroke-width="1.0" stroke-linejoin="round" stroke-linecap="butt" d="m355.02493 145.50919l11.905518 0l0 14.1102295l-11.905518 0z" fill-rule="evenodd"/><path fill="#b6d7a8" d="m422.55118 147.65092l11.905518 0l0 11.968491l-11.905518 0z" fill-rule="evenodd"/><path stroke="#000000" stroke-width="1.0" stroke-linejoin="round" stroke-linecap="butt" d="m422.55118 147.65092l11.905518 0l0 11.968491l-11.905518 0z" fill-rule="evenodd"/><path fill="#000000" fill-opacity="0.0" d="m235.50394 119.08399l-224.37796 0" fill-rule="evenodd"/><path stroke="#000000" stroke-width="1.0" stroke-linejoin="round" stroke-linecap="butt" stroke-dasharray="1.0,3.0" d="m235.50394 119.08399l-224.37796 0" fill-rule="evenodd"/><path fill="#000000" fill-opacity="0.0" d="m186.7126 108.94226l50.803146 0l0 8.094482l-50.803146 0z" fill-rule="evenodd"/><path fill="#000000" d="m199.0335 115.342255l0 -4.203125l-1.5625 0l0 -0.5625l3.78125 0l0 0.5625l-1.578125 0l0 4.203125l-0.640625 0zm2.7846527 0l0 -4.765625l0.59375 0l0 1.703125q0.40625 -0.46875 1.03125 -0.46875q0.375 0 0.65625 0.15625q0.28125 0.140625 0.40625 0.421875q0.125 0.265625 0.125 0.765625l0 2.1875l-0.578125 0l0 -2.1875q0 -0.4375 -0.203125 -0.640625q-0.1875 -0.203125 -0.53125 -0.203125q-0.265625 0 -0.5 0.140625q-0.21875 0.140625 -0.3125 0.375q-0.09375 0.21875 -0.09375 0.625l0 1.890625l-0.59375 0zm3.701889 0l0 -3.453125l0.515625 0l0 0.53125q0.203125 -0.375 0.375 -0.484375q0.171875 -0.125 0.375 -0.125q0.296875 0 0.609375 0.1875l-0.203125 0.546875q-0.21875 -0.125 -0.4375 -0.125q-0.1875 0 -0.34375 0.125q-0.140625 0.109375 -0.21875 0.3125q-0.09375 0.3125 -0.09375 0.671875l0 1.8125l-0.578125 0zm4.5759583 -1.109375l0.609375 0.078125q-0.140625 0.53125 -0.53125 0.828125q-0.390625 0.28125 -0.984375 0.28125q-0.765625 0 -1.203125 -0.46875q-0.4375 -0.46875 -0.4375 -1.3125q0 -0.859375 0.4375 -1.34375q0.453125 -0.484375 1.171875 -0.484375q0.6875 0 1.125 0.46875q0.4375 0.46875 0.4375 1.328125q0 0.046875 0 0.15625l-2.578125 0q0.03125 0.578125 0.3125 0.875q0.296875 0.296875 0.734375 0.296875q0.328125 0 0.546875 -0.15625q0.234375 -0.171875 0.359375 -0.546875zm-1.921875 -0.953125l1.9375 0q-0.046875 -0.4375 -0.21875 -0.640625q-0.28125 -0.34375 -0.734375 -0.34375q-0.40625 0 -0.6875 0.265625q-0.265625 0.265625 -0.296875 0.71875zm3.030014 1.03125l0.578125 -0.09375q0.046875 0.34375 0.265625 0.53125q0.234375 0.1875 0.625 0.1875q0.40625 0 0.59375 -0.15625q0.203125 -0.171875 0.203125 -0.390625q0 -0.203125 -0.171875 -0.3125q-0.125 -0.078125 -0.59375 -0.203125q-0.640625 -0.15625 -0.890625 -0.265625q-0.25 -0.125 -0.390625 -0.328125q-0.125 -0.21875 -0.125 -0.46875q0 -0.234375 0.109375 -0.421875q0.109375 -0.203125 0.296875 -0.34375q0.125 -0.09375 0.359375 -0.15625q0.234375 -0.078125 0.515625 -0.078125q0.40625 0 0.703125 0.125q0.3125 0.109375 0.453125 0.3125q0.15625 0.203125 0.203125 0.53125l-0.5625 0.078125q-0.046875 -0.265625 -0.234375 -0.40625q-0.1875 -0.15625 -0.53125 -0.15625q-0.390625 0 -0.5625 0.140625q-0.171875 0.125 -0.171875 0.296875q0 0.125 0.0625 0.203125q0.078125 0.109375 0.21875 0.15625q0.09375 0.046875 0.53125 0.15625q0.609375 0.171875 0.859375 0.28125q0.25 0.09375 0.390625 0.296875q0.140625 0.203125 0.140625 0.5q0 0.296875 -0.171875 0.5625q-0.171875 0.25 -0.5 0.390625q-0.3125 0.140625 -0.71875 0.140625q-0.6875 0 -1.046875 -0.28125q-0.34375 -0.28125 -0.4375 -0.828125zm3.5625 1.03125l0 -4.765625l0.59375 0l0 1.703125q0.40625 -0.46875 1.03125 -0.46875q0.375 0 0.65625 0.15625q0.28125 0.140625 0.40625 0.421875q0.125 0.265625 0.125 0.765625l0 2.1875l-0.578125 0l0 -2.1875q0 -0.4375 -0.203125 -0.640625q-0.1875 -0.203125 -0.53125 -0.203125q-0.265625 0 -0.5 0.140625q-0.21875 0.140625 -0.3125 0.375q-0.09375 0.21875 -0.09375 0.625l0 1.890625l-0.59375 0zm3.483139 -1.71875q0 -0.96875 0.53125 -1.421875q0.453125 -0.390625 1.09375 -0.390625q0.703125 0 1.15625 0.46875q0.453125 0.46875 0.453125 1.28125q0 0.671875 -0.203125 1.0625q-0.1875 0.375 -0.578125 0.59375q-0.375 0.203125 -0.828125 0.203125q-0.734375 0 -1.1875 -0.453125q-0.4375 -0.46875 -0.4375 -1.34375zm0.609375 0q0 0.65625 0.28125 0.984375q0.296875 0.328125 0.734375 0.328125q0.4375 0 0.71875 -0.328125q0.296875 -0.328125 0.296875 -1.015625q0 -0.640625 -0.296875 -0.96875q-0.296875 -0.328125 -0.71875 -0.328125q-0.4375 0 -0.734375 0.328125q-0.28125 0.328125 -0.28125 1.0zm3.295639 1.71875l0 -4.765625l0.59375 0l0 4.765625l-0.59375 0zm3.7288055 0l0 -0.4375q-0.328125 0.515625 -0.953125 0.515625q-0.421875 0 -0.765625 -0.21875q-0.34375 -0.234375 -0.53125 -0.640625q-0.1875 -0.40625 -0.1875 -0.9375q0 -0.515625 0.171875 -0.9375q0.171875 -0.421875 0.515625 -0.640625q0.34375 -0.234375 0.765625 -0.234375q0.3125 0 0.546875 0.140625q0.25 0.125 0.40625 0.328125l0 -1.703125l0.578125 0l0 4.765625l-0.546875 0zm-1.84375 -1.71875q0 0.65625 0.28125 0.984375q0.28125 0.328125 0.65625 0.328125q0.390625 0 0.65625 -0.3125q0.265625 -0.3125 0.265625 -0.953125q0 -0.703125 -0.28125 -1.03125q-0.265625 -0.34375 -0.671875 -0.34375q-0.375 0 -0.640625 0.328125q-0.265625 0.3125 -0.265625 1.0z" fill-rule="nonzero"/><path fill="#b6d7a8" d="m405.72702 151.52493l11.905518 0l0 8.094482l-11.905518 0z" fill-rule="evenodd"/><path stroke="#000000" stroke-width="1.0" stroke-linejoin="round" stroke-linecap="butt" stroke-dasharray="4.0,3.0" d="m405.72702 151.52493l11.905518 0l0 8.094482l-11.905518 0z" fill-rule="evenodd"/><path fill="#b6d7a8" d="m456.08923 147.65092l11.905518 0l0 11.968491l-11.905518 0z" fill-rule="evenodd"/><path stroke="#000000" stroke-width="1.0" stroke-linejoin="round" stroke-linecap="butt" stroke-dasharray="4.0,3.0" d="m456.08923 147.65092l11.905518 0l0 11.968491l-11.905518 0z" fill-rule="evenodd"/><path fill="#b6d7a8" d="m523.85565 156.12862l11.905518 0l0 3.496048l-11.905518 0z" fill-rule="evenodd"/><path stroke="#000000" stroke-width="1.0" stroke-linejoin="round" stroke-linecap="butt" stroke-dasharray="4.0,3.0" d="m523.85565 156.12862l11.905518 0l0 3.496048l-11.905518 0z" fill-rule="evenodd"/><path fill="#b6d7a8" d="m540.9685 153.86089l11.905518 0l0 5.7637787l-11.905518 0z" fill-rule="evenodd"/><path stroke="#000000" stroke-width="1.0" stroke-linejoin="round" stroke-linecap="butt" stroke-dasharray="4.0,3.0" d="m540.9685 153.86089l11.905518 0l0 5.7637787l-11.905518 0z" fill-rule="evenodd"/></g></svg>