<svg version="1.1" viewBox="0.0 0.0 553.3858267716536 326.8503937007874" fill="none" stroke="none" stroke-linecap="square" stroke-miterlimit="10" xmlns:xlink="http://www.w3.org/1999/xlink" xmlns="http://www.w3.org/2000/svg"><clipPath id="p.0"><path d="m0 0l553.3858 0l0 326.8504l-553.3858 0l0 -326.8504z" clip-rule="nonzero"/></clipPath><g clip-path="url(#p.0)"><path fill="#000000" fill-opacity="0.0" d="m0 0l553.3858 0l0 326.8504l-553.3858 0z" fill-rule="evenodd"/><path fill="#000000" fill-opacity="0.0" d="m38.771652 291.36484l0 -280.25198" fill-rule="evenodd"/><path stroke="#000000" stroke-width="1.0" stroke-linejoin="round" stroke-linecap="butt" d="m38.771652 291.36484l0 -274.25198" fill-rule="evenodd"/><path fill="#000000" stroke="#000000" stroke-width="1.0" stroke-linecap="butt" d="m40.423386 17.11286l-1.6517334 -4.5380964l-1.6517296 4.5380964z" fill-rule="evenodd"/><path fill="#000000" fill-opacity="0.0" d="m38.771652 291.36484l444.53546 -0.28347778" fill-rule="evenodd"/><path stroke="#000000" stroke-width="1.0" stroke-linejoin="round" stroke-linecap="butt" d="m38.771652 291.36484l444.53546 -0.28347778" fill-rule="evenodd"/><path fill="#cfe2f3" d="m83.22572 158.48032l38.645668 0l0 132.8819l-38.645668 0z" fill-rule="evenodd"/><path stroke="#000000" stroke-width="1.0" stroke-linejoin="round" stroke-linecap="butt" d="m83.22572 158.48032l38.645668 0l0 132.8819l-38.645668 0z" fill-rule="evenodd"/><path fill="#cfe2f3" d="m193.93964 158.48032l38.64566 0l0 132.8819l-38.64566 0z" fill-rule="evenodd"/><path stroke="#000000" stroke-width="1.0" stroke-linejoin="round" stroke-linecap="butt" d="m193.93964 158.48032l38.64566 0l0 132.8819l-38.64566 0z" fill-rule="evenodd"/><path fill="#cfe2f3" d="m304.65353 158.48032l38.64569 0l0 132.8819l-38.64569 0z" fill-rule="evenodd"/><path stroke="#000000" stroke-width="1.0" stroke-linejoin="round" stroke-linecap="butt" d="m304.65353 158.48032l38.64569 0l0 132.8819l-38.64569 0z" fill-rule="evenodd"/><path fill="#cfe2f3" d="m415.36746 158.48032l38.64566 0l0 132.8819l-38.64566 0z" fill-rule="evenodd"/><path stroke="#000000" stroke-width="1.0" stroke-linejoin="round" stroke-linecap="butt" d="m415.36746 158.48032l38.64566 0l0 132.8819l-38.64566 0z" fill-rule="evenodd"/><path fill="#000000" fill-opacity="0.0" d="m71.61942 291.36746l61.85827 0l0 33.921265l-61.85827 0z" fill-rule="evenodd"/><path fill="#000000" d="m91.13937 305.44995l0 0.671875l-1.140625 0.15625q0.375 0.5 0.375 1.25q0 0.9375 -0.625 1.5q-0.625 0.5625 -1.734375 0.5625q-0.328125 0 -0.5 -0.046875q-0.59375 0.328125 -0.59375 0.78125q0 0.5 0.953125 0.5l1.09375 0q1.015625 0 1.546875 0.453125q0.546875 0.4375 0.546875 1.28125q0 2.21875 -3.3125 2.21875q-1.28125 0 -1.953125 -0.484375q-0.65625 -0.46875 -0.65625 -1.3125q0 -1.25 1.40625 -1.59375q-0.5625 -0.265625 -0.5625 -0.890625q0 -0.65625 0.78125 -1.125q-0.515625 -0.21875 -0.8125 -0.71875q-0.296875 -0.5 -0.296875 -1.09375q0 -1.0625 0.609375 -1.640625q0.625 -0.578125 1.78125 -0.578125q0.515625 0 0.890625 0.109375l2.203125 0zm-3.109375 3.40625q1.296875 0 1.296875 -1.359375q0 -1.390625 -1.3125 -1.390625q-1.3125 0 -1.3125 1.421875q0 1.328125 1.328125 1.328125zm0.578125 2.921875l-1.109375 0q-1.34375 0 -1.34375 1.171875q0 1.015625 1.578125 1.015625q2.328125 0 2.328125 -1.3125q0 -0.515625 -0.296875 -0.703125q-0.296875 -0.171875 -1.15625 -0.171875zm9.341797 -6.171875l-0.28125 0.96875q-0.71875 -0.265625 -1.3125 -0.265625q-0.953125 0 -1.484375 0.546875q-0.515625 0.53125 -0.515625 1.5625l0 3.46875l-1.0625 0l0 -6.4375l0.875 0l0.125 1.1875l0.046875 0q0.4375 -0.703125 0.953125 -1.0q0.515625 -0.296875 1.25 -0.296875q0.6875 0 1.40625 0.265625zm4.701172 -2.796875q0.625 0 0.625 0.65625q0 0.34375 -0.1875 0.515625q-0.171875 0.171875 -0.4375 0.171875q-0.625 0 -0.625 -0.6875q0 -0.65625 0.625 -0.65625zm-0.53125 3.484375l-1.578125 -0.125l0 -0.71875l2.640625 0l0 5.59375l2.0625 0.125l0 0.71875l-5.140625 0l0 -0.71875l2.015625 -0.125l0 -4.75zm9.748047 5.59375l0 -4.140625q0 -0.859375 -0.15625 -1.1875q-0.140625 -0.34375 -0.515625 -0.34375q-0.5 0 -0.734375 0.5q-0.234375 0.484375 -0.234375 1.625l0 3.546875l-0.9375 0l0 -4.140625q0 -1.53125 -0.734375 -1.53125q-0.5 0 -0.71875 0.46875q-0.203125 0.46875 -0.203125 1.875l0 3.328125l-0.9375 0l0 -6.4375l0.734375 0l0.15625 0.875l0.0625 0q0.390625 -0.984375 1.171875 -0.984375q0.96875 0 1.25 1.0625l0.046875 0q0.4375 -1.0625 1.28125 -1.0625q0.75 0 1.078125 0.546875q0.34375 0.53125 0.34375 1.796875l0 4.203125l-0.953125 0zm1.9667969 -6.4375l1.09375 0l1.546875 3.828125q0.46875 1.203125 0.515625 1.703125l0.03125 0q0.140625 -0.65625 0.53125 -1.703125l1.40625 -3.828125l1.09375 0l-2.78125 7.28125q-0.390625 1.015625 -0.921875 1.53125q-0.515625 0.515625 -1.421875 0.515625q-0.515625 0 -0.984375 -0.109375l0 -0.84375q0.359375 0.0625 0.796875 0.0625q0.5625 0 0.875 -0.234375q0.3125 -0.234375 0.546875 -0.828125l0.34375 -0.875l-2.671875 -6.5z" fill-rule="nonzero"/><path fill="#000000" fill-opacity="0.0" d="m182.33333 291.36746l61.858276 0l0 33.921265l-61.858276 0z" fill-rule="evenodd"/><path fill="#000000" d="m201.38454 306.26245l-2.28125 0l0 5.625l-1.078125 0l0 -5.625l-1.84375 0l0 -0.65625l1.84375 -0.1875l0 -0.5625q0 -1.125 0.53125 -1.640625q0.53125 -0.515625 1.75 -0.515625q0.765625 0 1.484375 0.203125l-0.25 0.84375q-0.609375 -0.15625 -1.203125 -0.15625q-0.71875 0 -0.984375 0.296875q-0.25 0.28125 -0.25 0.953125l0 0.609375l2.28125 0l0 0.8125zm7.279297 -0.65625l-0.28125 0.96875q-0.71875 -0.265625 -1.3125 -0.265625q-0.953125 0 -1.484375 0.546875q-0.515625 0.53125 -0.515625 1.5625l0 3.46875l-1.0625 0l0 -6.4375l0.875 0l0.125 1.1875l0.046875 0q0.4375 -0.703125 0.953125 -1.0q0.515625 -0.296875 1.25 -0.296875q0.6875 0 1.40625 0.265625zm4.701172 -2.796875q0.625 0 0.625 0.65625q0 0.34375 -0.1875 0.515625q-0.171875 0.171875 -0.4375 0.171875q-0.625 0 -0.625 -0.6875q0 -0.65625 0.625 -0.65625zm-0.53125 3.484375l-1.578125 -0.125l0 -0.71875l2.640625 0l0 5.59375l2.0625 0.125l0 0.71875l-5.140625 0l0 -0.71875l2.015625 -0.125l0 -4.75zm10.451172 2.578125l-4.53125 0q0.046875 2.203125 2.015625 2.203125q1.140625 0 2.171875 -0.453125l0 0.9375q-0.984375 0.453125 -2.140625 0.453125q-1.4375 0 -2.296875 -0.875q-0.859375 -0.890625 -0.859375 -2.421875q0 -1.5625 0.796875 -2.46875q0.796875 -0.90625 2.125 -0.90625q1.234375 0 1.96875 0.78125q0.75 0.78125 0.75 2.09375l0 0.65625zm-4.515625 -0.859375l3.359375 0q0 -1.796875 -1.59375 -1.796875q-1.609375 0 -1.765625 1.796875zm10.544922 3.015625l-0.046875 0q-0.65625 0.984375 -1.875 0.984375q-1.1875 0 -1.859375 -0.875q-0.671875 -0.890625 -0.671875 -2.453125q0 -1.578125 0.671875 -2.453125q0.6875 -0.890625 1.859375 -0.890625q1.203125 0 1.875 0.9375l0.078125 0q-0.078125 -0.765625 -0.078125 -0.953125l0 -2.5625l1.078125 0l0 9.125l-0.859375 0l-0.171875 -0.859375zm-0.046875 -2.109375l0 -0.234375q0 -1.328125 -0.40625 -1.890625q-0.40625 -0.578125 -1.296875 -0.578125q-1.59375 0 -1.59375 2.484375q0 2.421875 1.609375 2.421875q0.890625 0 1.28125 -0.515625q0.390625 -0.53125 0.40625 -1.6875z" fill-rule="nonzero"/><path fill="#000000" fill-opacity="0.0" d="m293.04724 291.36746l61.858276 0l0 33.921265l-61.858276 0z" fill-rule="evenodd"/><path fill="#000000" d="m311.6922 311.88745l0 -4.140625q0 -0.859375 -0.15625 -1.1875q-0.140625 -0.34375 -0.515625 -0.34375q-0.5 0 -0.734375 0.5q-0.234375 0.484375 -0.234375 1.625l0 3.546875l-0.9375 0l0 -4.140625q0 -1.53125 -0.734375 -1.53125q-0.5 0 -0.71875 0.46875q-0.203125 0.46875 -0.203125 1.875l0 3.328125l-0.9375 0l0 -6.4375l0.734375 0l0.15625 0.875l0.0625 0q0.390625 -0.984375 1.171875 -0.984375q0.96875 0 1.25 1.0625l0.046875 0q0.4375 -1.0625 1.28125 -1.0625q0.75 0 1.078125 0.546875q0.34375 0.53125 0.34375 1.796875l0 4.203125l-0.953125 0zm6.732422 0l-0.21875 -0.890625l-0.046875 0q-0.453125 0.5625 -0.9375 0.796875q-0.46875 0.21875 -1.21875 0.21875q-0.953125 0 -1.5 -0.5q-0.53125 -0.515625 -0.53125 -1.421875q0 -1.953125 2.984375 -2.046875l1.1875 -0.03125l0 -0.40625q0 -1.390625 -1.421875 -1.390625q-0.875 0 -1.921875 0.484375l-0.375 -0.796875q1.140625 -0.5625 2.25 -0.5625q1.328125 0 1.921875 0.515625q0.59375 0.5 0.59375 1.625l0 4.40625l-0.765625 0zm-0.296875 -3.140625l-0.9375 0.03125q-1.15625 0.046875 -1.640625 0.359375q-0.46875 0.3125 -0.46875 0.96875q0 1.03125 1.171875 1.03125q0.859375 0 1.359375 -0.46875q0.515625 -0.484375 0.515625 -1.34375l0 -0.578125zm8.232422 2.265625l0 0.796875q-0.765625 0.203125 -1.484375 0.203125q-2.125 0 -2.125 -2.03125l0 -3.71875l-1.5625 0l0 -0.5625l1.5625 -0.28125l0.453125 -1.6875l0.625 0l0 1.71875l2.5625 0l0 0.8125l-2.5625 0l0 3.71875q0 1.15625 1.125 1.15625q0.53125 0 1.40625 -0.125zm7.435547 -5.328125l-0.359375 0.921875q-0.890625 -0.328125 -1.578125 -0.328125q-2.171875 0 -2.171875 2.421875q0 2.375 2.109375 2.375q0.921875 0 1.890625 -0.359375l0 0.9375q-0.78125 0.359375 -1.9375 0.359375q-1.5 0 -2.328125 -0.859375q-0.828125 -0.859375 -0.828125 -2.453125q0 -1.640625 0.84375 -2.5q0.84375 -0.859375 2.390625 -0.859375q1.046875 0 1.96875 0.34375zm6.185547 6.203125l0 -4.140625q0 -1.53125 -1.40625 -1.53125q-1.796875 0 -1.796875 2.34375l0 3.328125l-1.0625 0l0 -9.125l1.0625 0l0 2.71875l-0.046875 0.84375l0.0625 0q0.609375 -0.984375 1.96875 -0.984375q2.28125 0 2.28125 2.34375l0 4.203125l-1.0625 0z" fill-rule="nonzero"/><path fill="#000000" fill-opacity="0.0" d="m403.76117 291.36746l61.858246 0l0 33.921265l-61.858246 0z" fill-rule="evenodd"/><path fill="#000000" d="m418.93735 308.65308l0.78125 -0.890625l2.3125 -2.3125l1.3125 0l-2.90625 2.78125l3.0625 3.65625l-1.25 0l-2.484375 -2.953125l-0.765625 0.484375l0 2.46875l-1.046875 0l0 -9.125l1.046875 0l0 4.1875l-0.09375 1.703125l0.03125 0zm10.154297 3.234375l0 -4.140625q0 -1.53125 -1.40625 -1.53125q-1.796875 0 -1.796875 2.34375l0 3.328125l-1.0625 0l0 -6.4375l0.859375 0l0.15625 0.875l0.0625 0q0.609375 -0.984375 1.96875 -0.984375q2.28125 0 2.28125 2.34375l0 4.203125l-1.0625 0zm8.419922 -3.015625l-4.53125 0q0.046875 2.203125 2.015625 2.203125q1.140625 0 2.171875 -0.453125l0 0.9375q-0.984375 0.453125 -2.140625 0.453125q-1.4375 0 -2.296875 -0.875q-0.859375 -0.890625 -0.859375 -2.421875q0 -1.5625 0.796875 -2.46875q0.796875 -0.90625 2.125 -0.90625q1.234375 0 1.96875 0.78125q0.75 0.78125 0.75 2.09375l0 0.65625zm-4.515625 -0.859375l3.359375 0q0 -1.796875 -1.59375 -1.796875q-1.609375 0 -1.765625 1.796875zm10.544922 3.875l-0.21875 -0.890625l-0.046875 0q-0.453125 0.5625 -0.9375 0.796875q-0.46875 0.21875 -1.21875 0.21875q-0.953125 0 -1.5 -0.5q-0.53125 -0.515625 -0.53125 -1.421875q0 -1.953125 2.984375 -2.046875l1.1875 -0.03125l0 -0.40625q0 -1.390625 -1.421875 -1.390625q-0.875 0 -1.921875 0.484375l-0.375 -0.796875q1.140625 -0.5625 2.25 -0.5625q1.328125 0 1.921875 0.515625q0.59375 0.5 0.59375 1.625l0 4.40625l-0.765625 0zm-0.296875 -3.140625l-0.9375 0.03125q-1.15625 0.046875 -1.640625 0.359375q-0.46875 0.3125 -0.46875 0.96875q0 1.03125 1.171875 1.03125q0.859375 0 1.359375 -0.46875q0.515625 -0.484375 0.515625 -1.34375l0 -0.578125zm7.498047 2.28125l-0.046875 0q-0.65625 0.984375 -1.875 0.984375q-1.1875 0 -1.859375 -0.875q-0.671875 -0.890625 -0.671875 -2.453125q0 -1.578125 0.671875 -2.453125q0.6875 -0.890625 1.859375 -0.890625q1.203125 0 1.875 0.9375l0.078125 0q-0.078125 -0.765625 -0.078125 -0.953125l0 -2.5625l1.078125 0l0 9.125l-0.859375 0l-0.171875 -0.859375zm-0.046875 -2.109375l0 -0.234375q0 -1.328125 -0.40625 -1.890625q-0.40625 -0.578125 -1.296875 -0.578125q-1.59375 0 -1.59375 2.484375q0 2.421875 1.609375 2.421875q0.890625 0 1.28125 -0.515625q0.390625 -0.53125 0.40625 -1.6875z" fill-rule="nonzero"/><path fill="#000000" fill-opacity="0.0" d="m0 290.4042l0 -278.33072l38.771652 0l0 278.33072z" fill-rule="evenodd"/><path fill="#000000" d="m20.6725 226.11775l-0.125 -1.4375q0.859375 -0.09375 1.421875 -0.46875q0.546875 -0.375 0.890625 -1.15625q0.328125 -0.78125 0.328125 -1.75q0 -0.875 -0.25 -1.53125q-0.265625 -0.671875 -0.703125 -0.984375q-0.453125 -0.328125 -0.984375 -0.328125q-0.546875 0 -0.9375 0.3125q-0.40625 0.3125 -0.6875 1.03125q-0.171875 0.453125 -0.546875 2.03125q-0.390625 1.578125 -0.71875 2.21875q-0.4375 0.8125 -1.0625 1.21875q-0.640625 0.40625 -1.4375 0.40625q-0.859375 0 -1.609375 -0.484375q-0.765625 -0.5 -1.15625 -1.4375q-0.390625 -0.953125 -0.390625 -2.109375q0 -1.28125 0.421875 -2.25q0.40625 -0.96875 1.203125 -1.484375q0.796875 -0.53125 1.796875 -0.578125l0.109375 1.453125q-1.078125 0.125 -1.625 0.796875q-0.5625 0.671875 -0.5625 2.0q0 1.375 0.5 2.0q0.5 0.625 1.21875 0.625q0.609375 0 1.015625 -0.4375q0.390625 -0.4375 0.8125 -2.28125q0.421875 -1.859375 0.734375 -2.546875q0.453125 -1.0 1.171875 -1.46875q0.703125 -0.484375 1.625 -0.484375q0.90625 0 1.71875 0.53125q0.8125 0.515625 1.265625 1.5q0.453125 0.984375 0.453125 2.203125q0 1.5625 -0.453125 2.609375q-0.46875 1.046875 -1.375 1.65625q-0.90625 0.59375 -2.0625 0.625zm3.6875 -16.453125l-1.21875 0q1.40625 0.96875 1.40625 2.640625q0 0.734375 -0.28125 1.375q-0.28125 0.625 -0.703125 0.9375q-0.4375 0.3125 -1.046875 0.4375q-0.421875 0.078125 -1.3125 0.078125l-5.140625 0l0 -1.40625l4.59375 0q1.109375 0 1.484375 -0.078125q0.5625 -0.140625 0.875 -0.5625q0.3125 -0.4375 0.3125 -1.0625q0 -0.640625 -0.3125 -1.1875q-0.328125 -0.5625 -0.890625 -0.78125q-0.5625 -0.234375 -1.625 -0.234375l-4.4375 0l0 -1.40625l8.296875 0l0 1.25zm0 -4.7578125l0 1.3125l-11.453125 0l0 -1.40625l4.078125 0q-1.109375 -0.890625 -1.109375 -2.28125q0 -0.765625 0.3125 -1.4375q0.296875 -0.6875 0.859375 -1.125q0.5625 -0.453125 1.359375 -0.703125q0.78125 -0.25 1.671875 -0.25q2.140625 0 3.3125 1.0625q1.15625 1.046875 1.15625 2.53125q0 1.46875 -1.234375 2.296875l1.046875 0zm-4.21875 0.015625q1.5 0 2.15625 -0.40625q1.09375 -0.65625 1.09375 -1.796875q0 -0.921875 -0.796875 -1.59375q-0.8125 -0.671875 -2.390625 -0.671875q-1.625 0 -2.390625 0.65625q-0.78125 0.640625 -0.78125 1.546875q0 0.921875 0.796875 1.59375q0.796875 0.671875 2.3125 0.671875zm-5.609375 -7.6015625l-1.625 0l0 -1.40625l1.625 0l0 1.40625zm13.046875 1.78125l-1.1875 -0.265625q0.109375 -0.421875 0.109375 -0.671875q0 -0.421875 -0.296875 -0.625q-0.28125 -0.21875 -1.421875 -0.21875l-8.71875 0l0 -1.40625l8.75 0q1.53125 0 2.140625 0.390625q0.78125 0.515625 0.78125 1.6875q0 0.578125 -0.15625 1.109375zm-5.890625 -11.0234375l0.171875 -1.453125q1.28125 0.34375 1.984375 1.28125q0.703125 0.921875 0.703125 2.359375q0 1.828125 -1.125 2.890625q-1.125 1.0625 -3.140625 1.0625q-2.09375 0 -3.25 -1.078125q-1.15625 -1.078125 -1.15625 -2.796875q0 -1.65625 1.140625 -2.703125q1.125 -1.0625 3.171875 -1.0625q0.125 0 0.375 0l0 6.1875q1.375 -0.078125 2.109375 -0.765625q0.71875 -0.703125 0.71875 -1.734375q0 -0.78125 -0.40625 -1.328125q-0.40625 -0.546875 -1.296875 -0.859375zm-2.28125 4.609375l0 -4.625q-1.046875 0.09375 -1.5625 0.53125q-0.8125 0.671875 -0.8125 1.734375q0 0.96875 0.65625 1.640625q0.640625 0.65625 1.71875 0.71875zm1.90625 -13.2421875l0.1875 -1.390625q1.421875 0.234375 2.234375 1.171875q0.8125 0.921875 0.8125 2.28125q0 1.703125 -1.109375 2.75q-1.125 1.03125 -3.203125 1.03125q-1.34375 0 -2.34375 -0.4375q-1.015625 -0.453125 -1.515625 -1.359375q-0.5 -0.921875 -0.5 -1.984375q0 -1.359375 0.6875 -2.21875q0.671875 -0.859375 1.9375 -1.09375l0.203125 1.359375q-0.828125 0.203125 -1.25 0.703125q-0.421875 0.484375 -0.421875 1.1875q0 1.0625 0.765625 1.734375q0.75 0.65625 2.40625 0.65625q1.671875 0 2.4375 -0.640625q0.75 -0.640625 0.75 -1.671875q0 -0.828125 -0.5 -1.375q-0.515625 -0.5625 -1.578125 -0.703125zm1.78125 -5.65625l1.25 -0.203125q0.125 0.59375 0.125 1.0625q0 0.765625 -0.234375 1.1875q-0.25 0.421875 -0.640625 0.59375q-0.40625 0.171875 -1.671875 0.171875l-4.765625 0l0 1.03125l-1.09375 0l0 -1.03125l-2.0625 0l-0.84375 -1.40625l2.90625 0l0 -1.40625l1.09375 0l0 1.40625l4.84375 0q0.609375 0 0.78125 -0.0625q0.171875 -0.078125 0.28125 -0.25q0.09375 -0.171875 0.09375 -0.484375q0 -0.234375 -0.0625 -0.609375zm-8.578125 -1.3828125l-1.609375 0l0 -1.40625l1.609375 0l0 1.40625zm9.84375 0l-8.296875 0l0 -1.40625l8.296875 0l0 1.40625zm0 -5.8515625l-8.296875 3.15625l0 -1.484375l4.96875 -1.78125q0.796875 -0.296875 1.671875 -0.53125q-0.65625 -0.1875 -1.578125 -0.53125l-5.0625 -1.84375l0 -1.4375l8.296875 3.140625l0 1.3125zm-2.671875 -11.375l0.171875 -1.453125q1.28125 0.34375 1.984375 1.28125q0.703125 0.921875 0.703125 2.359375q0 1.828125 -1.125 2.890625q-1.125 1.0625 -3.140625 1.0625q-2.09375 0 -3.25 -1.078125q-1.15625 -1.078125 -1.15625 -2.796875q0 -1.65625 1.140625 -2.703125q1.125 -1.0625 3.171875 -1.0625q0.125 0 0.375 0l0 6.1875q1.375 -0.078125 2.109375 -0.765625q0.71875 -0.703125 0.71875 -1.734375q0 -0.78125 -0.40625 -1.328125q-0.40625 -0.546875 -1.296875 -0.859375zm-2.28125 4.609375l0 -4.625q-1.046875 0.09375 -1.5625 0.53125q-0.8125 0.671875 -0.8125 1.734375q0 0.96875 0.65625 1.640625q0.640625 0.65625 1.71875 0.71875zm8.140625 -12.28125l-11.484375 0l0 -1.28125l1.078125 0q-0.640625 -0.453125 -0.953125 -1.015625q-0.3125 -0.578125 -0.3125 -1.390625q0 -1.0625 0.546875 -1.875q0.546875 -0.8125 1.546875 -1.21875q0.984375 -0.421875 2.171875 -0.421875q1.28125 0 2.296875 0.46875q1.015625 0.453125 1.5625 1.328125q0.546875 0.859375 0.546875 1.828125q0 0.703125 -0.296875 1.265625q-0.296875 0.546875 -0.75 0.90625l4.046875 0l0 1.40625zm-7.296875 -1.265625q1.609375 0 2.375 -0.640625q0.765625 -0.65625 0.765625 -1.578125q0 -0.9375 -0.796875 -1.609375q-0.796875 -0.671875 -2.453125 -0.671875q-1.59375 0 -2.375 0.65625q-0.796875 0.65625 -0.796875 1.5625q0 0.890625 0.84375 1.59375q0.84375 0.6875 2.4375 0.6875zm4.109375 -7.6171875l-8.296875 0l0 -1.265625l1.25 0q-0.875 -0.484375 -1.15625 -0.890625q-0.28125 -0.40625 -0.28125 -0.90625q0 -0.703125 0.453125 -1.4375l1.296875 0.484375q-0.296875 0.515625 -0.296875 1.03125q0 0.453125 0.28125 0.828125q0.265625 0.359375 0.765625 0.515625q0.75 0.234375 1.640625 0.234375l4.34375 0l0 1.40625zm-4.15625 -4.8125q-2.296875 0 -3.40625 -1.28125q-0.921875 -1.078125 -0.921875 -2.609375q0 -1.71875 1.125 -2.7968826q1.109375 -1.09375 3.09375 -1.09375q1.59375 0 2.515625 0.484375q0.921875 0.484375 1.4375 1.40625q0.5 0.9062576 0.5 2.0000076q0 1.734375 -1.109375 2.8125q-1.125 1.078125 -3.234375 1.078125zm0 -1.453125q1.59375 0 2.390625 -0.6875q0.796875 -0.703125 0.796875 -1.75q0 -1.046875 -0.796875 -1.734375q-0.796875 -0.7031326 -2.4375 -0.7031326q-1.53125 0 -2.328125 0.7031326q-0.796875 0.6875 -0.796875 1.734375q0 1.046875 0.796875 1.75q0.78125 0.6875 2.375 0.6875zm4.15625 -9.273445l0 1.3125l-11.453125 0l0 -1.40625l4.078125 0q-1.109375 -0.890625 -1.109375 -2.28125q0 -0.765625 0.3125 -1.4375q0.296875 -0.6875 0.859375 -1.125q0.5625 -0.453125 1.359375 -0.703125q0.78125 -0.25 1.671875 -0.25q2.140625 0 3.3125 1.0625q1.15625 1.046875 1.15625 2.53125q0 1.46875 -1.234375 2.296875l1.046875 0zm-4.21875 0.015625q1.5 0 2.15625 -0.40625q1.09375 -0.65625 1.09375 -1.796875q0 -0.921875 -0.796875 -1.59375q-0.8125 -0.671875 -2.390625 -0.671875q-1.625 0 -2.390625 0.65625q-0.78125 0.640625 -0.78125 1.546875q0 0.921875 0.796875 1.59375q0.796875 0.671875 2.3125 0.671875zm3.1875 -13.0234375q0.671875 0.78125 0.953125 1.5q0.265625 0.71875 0.265625 1.546875q0 1.375 -0.671875 2.109375q-0.671875 0.734375 -1.703125 0.734375q-0.609375 0 -1.109375 -0.28125q-0.515625 -0.28125 -0.8125 -0.71875q-0.3125 -0.453125 -0.46875 -1.015625q-0.109375 -0.421875 -0.203125 -1.25q-0.203125 -1.703125 -0.484375 -2.515625q-0.296875 0 -0.375 0q-0.859375 0 -1.203125 0.390625q-0.484375 0.546875 -0.484375 1.609375q0 0.984375 0.359375 1.46875q0.34375 0.46875 1.21875 0.6875l-0.1875 1.375q-0.875 -0.1875 -1.421875 -0.609375q-0.546875 -0.4375 -0.828125 -1.25q-0.296875 -0.8125 -0.296875 -1.875q0 -1.0625 0.25 -1.71875q0.25 -0.671875 0.625 -0.984375q0.375 -0.3125 0.953125 -0.4375q0.359375 -0.078125 1.296875 -0.078125l1.875 0q1.96875 0 2.484375 -0.078125q0.515625 -0.09375 1.0 -0.359375l0 1.46875q-0.4375 0.21875 -1.03125 0.28125zm-3.140625 0.109375q0.3125 0.765625 0.53125 2.296875q0.125 0.875 0.28125 1.234375q0.15625 0.359375 0.46875 0.5625q0.296875 0.1875 0.65625 0.1875q0.5625 0 0.9375 -0.421875q0.375 -0.4375 0.375 -1.25q0 -0.8125 -0.34375 -1.4375q-0.359375 -0.640625 -0.984375 -0.9375q-0.46875 -0.234375 -1.40625 -0.234375l-0.515625 0zm4.171875 -4.8984375l0 1.3125l-11.453125 0l0 -1.40625l4.078125 0q-1.109375 -0.890625 -1.109375 -2.28125q0 -0.765625 0.3125 -1.4375q0.296875 -0.6875 0.859375 -1.125q0.5625 -0.453125 1.359375 -0.703125q0.78125 -0.25 1.671875 -0.25q2.140625 0 3.3125 1.0625q1.15625 1.046875 1.15625 2.53125q0 1.46875 -1.234375 2.296875l1.046875 0zm-4.21875 0.015625q1.5 0 2.15625 -0.40625q1.09375 -0.65625 1.09375 -1.796875q0 -0.921875 -0.796875 -1.59375q-0.8125 -0.671875 -2.390625 -0.671875q-1.625 0 -2.390625 0.65625q-0.78125 0.640625 -0.78125 1.546875q0 0.921875 0.796875 1.59375q0.796875 0.671875 2.3125 0.671875zm-5.625 -7.6171875l-1.609375 0l0 -1.40625l1.609375 0l0 1.40625zm9.84375 0l-8.296875 0l0 -1.40625l8.296875 0l0 1.40625zm0 -3.5234375l-11.453125 0l0 -1.40625l11.453125 0l0 1.40625zm-9.84375 -3.5859375l-1.609375 0l0 -1.40625l1.609375 0l0 1.40625zm9.84375 0l-8.296875 0l0 -1.40625l8.296875 0l0 1.40625zm-1.265625 -6.6171875l1.25 -0.203125q0.125 0.59375 0.125 1.0625q0 0.765625 -0.234375 1.1875q-0.25 0.421875 -0.640625 0.59375q-0.40625 0.171875 -1.671875 0.171875l-4.765625 0l0 1.03125l-1.09375 0l0 -1.03125l-2.0625 0l-0.84375 -1.40625l2.90625 0l0 -1.40625l1.09375 0l0 1.40625l4.84375 0q0.609375 0 0.78125 -0.0625q0.171875 -0.078125 0.28125 -0.25q0.09375 -0.171875 0.09375 -0.484375q0 -0.234375 -0.0625 -0.609375zm4.46875 -1.3203125l-1.328125 0.15625q0.125 -0.453125 0.125 -0.796875q0 -0.46875 -0.15625 -0.75q-0.15625 -0.28125 -0.4375 -0.46875q-0.203125 -0.125 -1.046875 -0.421875q-0.109375 -0.046875 -0.34375 -0.125l-8.3125 3.140625l0 -1.515625l4.796875 -1.71875q0.921875 -0.34375 1.921875 -0.609375q-0.96875 -0.234375 -1.890625 -0.578125l-4.828125 -1.765625l0 -1.40625l8.4375 3.15625q1.375 0.5 1.890625 0.78125q0.6875 0.375 1.015625 0.859375q0.328125 0.484375 0.328125 1.15625q0 0.40625 -0.171875 0.90625z" fill-rule="nonzero"/><path fill="#000000" fill-opacity="0.0" d="m485.73227 291.22308l54.614166 0" fill-rule="evenodd"/><path stroke="#000000" stroke-width="1.0" stroke-linejoin="round" stroke-linecap="butt" stroke-dasharray="4.0,3.0" d="m485.73227 291.22308l48.614166 0" fill-rule="evenodd"/><path fill="#000000" stroke="#000000" stroke-width="1.0" stroke-linecap="butt" d="m534.34644 292.87482l4.538147 -1.6517334l-4.538147 -1.6517334z" fill-rule="evenodd"/></g></svg>